<?xml version="1.0" standalone="no"?>
<!DOCTYPE svg PUBLIC "-//W3C//DTD SVG 1.1//EN" "http://www.w3.org/Graphics/SVG/1.1/DTD/svg11.dtd" >
<svg xmlns="http://www.w3.org/2000/svg" xmlns:xlink="http://www.w3.org/1999/xlink" version="1.1">
<metadata>
Created by FontForge 20201107 at Sat Jul 17 11:20:37 2021
 By 
Copyright 2017-2021 Indian Type Foundry. All rights reserved.
</metadata>
<defs>
<font id="GeneralSans-Medium" horiz-adv-x="500" >
  <font-face 
    font-family="General Sans Medium"
    font-weight="500"
    font-stretch="normal"
    units-per-em="1000"
    panose-1="0 0 0 0 0 0 0 0 0 0"
    ascent="800"
    descent="-200"
    x-height="530"
    cap-height="718"
    bbox="-136 -218.986 1605 994"
    underline-thickness="50"
    underline-position="-105"
    unicode-range="U+000D-FB02"
  />
<missing-glyph horiz-adv-x="740" 
 />
    <glyph glyph-name="fi" unicode="fi" horiz-adv-x="614" 
d="M219 0h-101v444h-117v86h117v39q0 76 40 117t115 41q41 0 74 -13v-82q-21 9 -52 9q-76 0 -76 -73v-38h148v-86h-148v-444zM566 653q0 -29 -20.5 -48t-52.5 -19t-52.5 19t-20.5 48t20.5 48t52.5 19t52.5 -19t20.5 -48zM544 0h-101v530h101v-530z" />
    <glyph glyph-name="fl" unicode="fl" horiz-adv-x="615" 
d="M219 0h-101v444h-117v86h117v39q0 76 40 117t115 41q41 0 74 -13v-82q-21 9 -52 9q-76 0 -76 -73v-38h148v-86h-148v-444zM545 0h-102v718h102v-718z" />
    <glyph glyph-name=".notdef" horiz-adv-x="740" 
 />
    <glyph glyph-name=".null" horiz-adv-x="0" 
 />
    <glyph glyph-name=".null" horiz-adv-x="0" 
 />
    <glyph glyph-name="nonmarkingreturn" horiz-adv-x="333" 
 />
    <glyph glyph-name="CR" unicode="&#xd;" horiz-adv-x="280" 
 />
    <glyph glyph-name="space" unicode=" " horiz-adv-x="209" 
 />
    <glyph glyph-name="exclam" unicode="!" horiz-adv-x="268" 
d="M172 197h-77l-24 521h125zM213 70q0 -32 -22.5 -53.5t-56.5 -21.5t-56.5 21.5t-22.5 53.5q0 34 22.5 55.5t56.5 21.5q35 0 57 -21.5t22 -55.5z" />
    <glyph glyph-name="quotedbl" unicode="&#x22;" horiz-adv-x="418" 
d="M167 495h-78l-7 223h92zM329 495h-79l-6 223h92z" />
    <glyph glyph-name="numbersign" unicode="#" horiz-adv-x="660" 
d="M195 0h-79l50 197h-96v77h111l33 124h-104v78h120l50 200h79l-50 -200h105l51 200h79l-51 -200h97v-78h-113l-32 -124h105v-77h-121l-49 -197h-79l50 197h-106zM293 398l-33 -124h106l33 124h-106z" />
    <glyph glyph-name="dollar" unicode="$" horiz-adv-x="600" 
d="M331 -89h-70v81q-99 10 -156.5 68.5t-62.5 149.5h102q4 -64 43 -100t111 -36q63 0 104 29.5t41 79.5q0 41 -27 65t-83 36l-90 20q-81 17 -129.5 58t-48.5 124q0 78 54.5 132.5t141.5 65.5v83h70v-83q89 -10 147.5 -67.5t64.5 -146.5h-102q-4 58 -43 95t-99 37
t-95.5 -30.5t-35.5 -78.5q0 -44 30 -66.5t82 -33.5l90 -19q87 -18 134 -60t47 -118q0 -85 -58.5 -141.5t-161.5 -63.5v-80z" />
    <glyph glyph-name="percent" unicode="%" horiz-adv-x="1078" 
d="M240 262q-90 0 -150 61t-60 149t60 149t150 61q91 0 151 -61t60 -149t-60 -149t-151 -61zM384 0h-83l382 676h83zM240 335q54 0 90 36.5t36 100.5q0 65 -36 101t-90 36q-53 0 -89 -36t-36 -101q0 -64 36 -100.5t89 -36.5zM838 -8q-91 0 -150.5 60.5t-59.5 149.5
q0 88 59.5 149t150.5 61t150.5 -61t59.5 -149q0 -89 -59.5 -149.5t-150.5 -60.5zM838 65q53 0 89 36.5t36 100.5t-35.5 100t-89.5 36q-53 0 -89.5 -36t-36.5 -100t36.5 -100.5t89.5 -36.5z" />
    <glyph glyph-name="ampersand" unicode="&#x26;" horiz-adv-x="648" 
d="M295 385l160 -180q18 52 21 124h93q-3 -105 -54 -191l123 -138h-126l-57 64q-82 -74 -183 -74q-108 0 -172 58.5t-64 156.5q0 59 35 107t96 77q-46 62 -46 127q0 73 55.5 121.5t138.5 48.5q84 0 137.5 -48t54.5 -125h-95q-4 43 -31.5 67.5t-65.5 24.5q-39 0 -65 -25.5
t-26 -64.5q0 -31 15.5 -57.5t55.5 -72.5zM133 211q0 -58 38 -98t109 -40t123 49l-184 207q-39 -16 -62.5 -47t-23.5 -71z" />
    <glyph glyph-name="quotesingle" unicode="'" horiz-adv-x="256" 
d="M167 495h-78l-7 223h92z" />
    <glyph glyph-name="parenleft" unicode="(" horiz-adv-x="310" 
d="M296 -193h-100q-127 194 -127 456q0 261 127 455h100q-123 -185 -123 -455q0 -271 123 -456z" />
    <glyph glyph-name="parenright" unicode=")" horiz-adv-x="310" 
d="M114 -193h-100q124 187 124 456q0 268 -124 455h100q127 -194 127 -455q0 -262 -127 -456z" />
    <glyph glyph-name="asterisk" unicode="*" 
d="M250 455l-102 -129l-60 46l102 124l-153 47l22 69l155 -50l-3 156h78l-3 -156l155 50l22 -69l-153 -47l102 -124l-60 -46z" />
    <glyph glyph-name="plus" unicode="+" horiz-adv-x="660" 
d="M377 91h-94v204h-203v87h203v202h94v-202h203v-87h-203v-204z" />
    <glyph glyph-name="comma" unicode="," horiz-adv-x="260" 
d="M207 43q0 -72 -51.5 -121t-133.5 -50v57q48 1 79 25t36 61q-12 -4 -22 -4q-28 0 -47 20t-19 48q0 32 21 51.5t52 19.5q41 0 63 -28t22 -79z" />
    <glyph glyph-name="hyphen" unicode="-" horiz-adv-x="361" 
d="M336 230h-311v91h311v-91z" />
    <glyph glyph-name="period" unicode="." horiz-adv-x="260" 
d="M207 72q0 -34 -21.5 -55.5t-55.5 -21.5t-55.5 21.5t-21.5 55.5q0 35 21.5 57t55.5 22t55.5 -22t21.5 -57z" />
    <glyph glyph-name="slash" unicode="/" horiz-adv-x="494" 
d="M76 -193h-101l443 911h100z" />
    <glyph glyph-name="zero" unicode="0" horiz-adv-x="597" 
d="M49 337q0 168 64.5 258.5t184.5 90.5t185 -90.5t65 -258.5t-64.5 -257.5t-185.5 -89.5t-185 89.5t-64 257.5zM153 337q0 -125 37 -190.5t108 -65.5t108.5 65t37.5 191q0 127 -37.5 192.5t-108.5 65.5q-70 0 -107.5 -66t-37.5 -192z" />
    <glyph glyph-name="one" unicode="1" horiz-adv-x="330" 
d="M251 0h-102v588h-131v88h233v-676z" />
    <glyph glyph-name="two" unicode="2" horiz-adv-x="533" 
d="M489 90v-90h-437v58l211 228q62 68 86.5 109.5t24.5 85.5q0 50 -32 82t-84 32q-56 0 -90.5 -34t-34.5 -90h-99q0 94 64 154.5t164 60.5q94 0 156 -55t62 -138q0 -58 -28.5 -109.5t-111.5 -139.5l-136 -154h285z" />
    <glyph glyph-name="three" unicode="3" horiz-adv-x="574" 
d="M284 -9q-105 0 -171.5 56t-67.5 145h99q3 -55 41 -87.5t99 -32.5q64 0 100.5 32t36.5 87q0 53 -41 84.5t-111 31.5h-70v81h65q57 0 91.5 30t34.5 80q0 48 -31 77.5t-82 29.5q-52 0 -84 -30.5t-34 -82.5h-98q2 83 65 138.5t155 55.5q97 0 155.5 -50.5t58.5 -130.5
q0 -101 -109 -152q67 -18 103.5 -60t36.5 -100q0 -90 -67 -146t-175 -56z" />
    <glyph glyph-name="four" unicode="4" horiz-adv-x="577" 
d="M541 149h-92v-149h-101v149h-325v71l348 456h78v-439h92v-88zM136 237h212v286z" />
    <glyph glyph-name="five" unicode="5" horiz-adv-x="555" 
d="M276 -10q-99 0 -166.5 58t-71.5 148h101q5 -53 42.5 -84t94.5 -31q67 0 103 37.5t36 97.5q0 55 -37.5 93t-102.5 38q-91 0 -133 -74l-82 26l60 377h361v-90h-288l-30 -195q56 44 127 44q107 0 168.5 -64t61.5 -155q0 -95 -65.5 -160.5t-178.5 -65.5z" />
    <glyph glyph-name="six" unicode="6" horiz-adv-x="559" 
d="M279 -9q-106 0 -176.5 65t-70.5 158q0 61 21 107t68 103l204 252h115l-199 -248q31 11 58 11q100 0 164 -61t64 -159q0 -97 -70 -162.5t-178 -65.5zM280 76q61 0 101.5 39t40.5 101q0 65 -40 104t-102 39t-102 -37t-40 -105q0 -63 41 -102t101 -39z" />
    <glyph glyph-name="seven" unicode="7" horiz-adv-x="499" 
d="M475 617l-261 -617h-109l257 585h-343v91h456v-59z" />
    <glyph glyph-name="eight" unicode="8" horiz-adv-x="593" 
d="M544 190q0 -89 -68.5 -144t-178.5 -55q-111 0 -180 55t-69 144q0 58 35 99.5t92 62.5q-45 20 -72.5 58.5t-27.5 88.5q0 82 62 134.5t160 52.5q96 0 158.5 -52.5t62.5 -134.5q0 -50 -28 -88.5t-72 -58.5q57 -21 91.5 -62t34.5 -100zM179 496q0 -49 32.5 -77.5t85.5 -28.5
q52 0 84.5 28.5t32.5 77.5q0 50 -32.5 79.5t-84.5 29.5q-53 0 -85.5 -29.5t-32.5 -79.5zM154 192q0 -56 39 -88t104 -32q64 0 103.5 32.5t39.5 87.5q0 54 -39.5 85.5t-103.5 31.5q-65 0 -104 -31.5t-39 -85.5z" />
    <glyph glyph-name="nine" unicode="9" horiz-adv-x="559" 
d="M280 685q107 0 177 -65t70 -158q0 -59 -20.5 -105t-68.5 -105l-203 -252h-116l199 248q-29 -10 -59 -10q-99 0 -163 61t-64 158t70.5 162.5t177.5 65.5zM279 600q-61 0 -101.5 -39t-40.5 -101q0 -65 40 -104t102 -39t102.5 37t40.5 105q0 63 -41 102t-102 39z" />
    <glyph glyph-name="colon" unicode=":" horiz-adv-x="260" 
d="M207 454q0 -34 -21.5 -55.5t-55.5 -21.5t-55.5 21.5t-21.5 55.5t21.5 56t55.5 22t55.5 -21.5t21.5 -56.5zM207 72q0 -34 -21.5 -55.5t-55.5 -21.5t-55.5 21.5t-21.5 55.5q0 35 21.5 57t55.5 22t55.5 -22t21.5 -57z" />
    <glyph glyph-name="semicolon" unicode=";" horiz-adv-x="260" 
d="M205 454q0 -34 -21.5 -55.5t-55.5 -21.5t-55.5 21.5t-21.5 55.5t21.5 56t55.5 22t55.5 -22t21.5 -56zM207 43q0 -72 -51.5 -121t-133.5 -50v57q48 1 79 25t36 61q-12 -4 -22 -4q-28 0 -47 20t-19 48q0 32 21 51.5t52 19.5q41 0 63 -28t22 -79z" />
    <glyph glyph-name="less" unicode="&#x3c;" horiz-adv-x="660" 
d="M80 375l500 213v-88l-397 -165l397 -165v-88l-500 213v80z" />
    <glyph glyph-name="equal" unicode="=" horiz-adv-x="660" 
d="M580 402h-500v87h500v-87zM580 187h-500v88h500v-88z" />
    <glyph glyph-name="greater" unicode="&#x3e;" horiz-adv-x="660" 
d="M580 295l-500 -213v88l397 165l-397 165v88l500 -213v-80z" />
    <glyph glyph-name="question" unicode="?" horiz-adv-x="476" 
d="M114 533h-96q3 86 65.5 140.5t157.5 54.5q97 0 157 -51t60 -130q0 -78 -89 -154l-59 -48q-37 -32 -47.5 -60.5t-4.5 -87.5h-68q-18 67 -11.5 108.5t48.5 78.5l60 53q32 29 46 50.5t14 50.5q0 44 -31.5 72t-84.5 28q-51 0 -83 -29t-34 -76zM302 70q0 -32 -23 -53.5
t-57 -21.5t-57 21.5t-23 53.5q0 34 22.5 55.5t57.5 21.5t57.5 -21.5t22.5 -55.5z" />
    <glyph glyph-name="at" unicode="@" horiz-adv-x="963" 
d="M738 -52v-85q-110 -66 -256 -66q-188 0 -317 128.5t-129 315.5t131.5 316t324.5 129q186 0 310.5 -112.5t124.5 -273.5q0 -119 -60.5 -192.5t-153.5 -73.5q-105 0 -132 80q-54 -80 -151 -80q-76 0 -123.5 53.5t-47.5 139.5q0 98 54.5 163t139.5 65q95 0 133 -81l13 67h92
l-39 -212q-5 -27 -5 -46q0 -71 70 -71q55 0 86.5 48.5t31.5 130.5q0 130 -96 223.5t-247 93.5q-157 0 -260.5 -105.5t-103.5 -261.5q0 -155 101 -260.5t253 -105.5q156 0 256 73zM356 233q0 -54 25.5 -87.5t67.5 -33.5q49 0 81 41.5t32 103.5q0 57 -24 88.5t-69 31.5
q-52 0 -82.5 -41.5t-30.5 -102.5z" />
    <glyph glyph-name="A" unicode="A" horiz-adv-x="710" 
d="M572 0l-65 178h-310l-66 -178h-111l275 718h121l273 -718h-117zM353 598l-123 -331h244z" />
    <glyph glyph-name="B" unicode="B" horiz-adv-x="635" 
d="M586 206q0 -97 -66 -151.5t-179 -54.5h-263v718h249q110 0 171 -49t61 -139q0 -51 -29 -92t-81 -64q66 -19 101.5 -62.5t35.5 -105.5zM320 630h-141v-216h141q65 0 99.5 28.5t34.5 79.5t-34.5 79.5t-99.5 28.5zM334 326h-155v-238h155q70 0 108.5 32t38.5 89
q0 55 -38.5 86t-108.5 31z" />
    <glyph glyph-name="C" unicode="C" horiz-adv-x="778" 
d="M391 -15q-150 0 -252.5 108t-102.5 267q0 158 102.5 265.5t252.5 107.5q135 0 233 -82.5t118 -214.5h-117q-15 87 -79.5 142.5t-153.5 55.5q-106 0 -174 -77t-68 -197q0 -121 68 -198.5t174 -77.5q89 0 153.5 55.5t79.5 143.5h117q-20 -133 -118 -215.5t-233 -82.5z" />
    <glyph glyph-name="D" unicode="D" horiz-adv-x="703" 
d="M305 0h-227v718h227q169 0 265 -98t96 -258q0 -158 -98 -260t-263 -102zM188 623v-528h112q122 0 188 71t66 196q0 123 -65.5 192t-188.5 69h-112z" />
    <glyph glyph-name="E" unicode="E" horiz-adv-x="584" 
d="M533 96v-96h-455v718h448v-96h-338v-204h308v-96h-308v-226h345z" />
    <glyph glyph-name="F" unicode="F" horiz-adv-x="544" 
d="M188 0h-110v718h436v-96h-326v-234h278v-96h-278v-292z" />
    <glyph glyph-name="G" unicode="G" horiz-adv-x="797" 
d="M403 -15q-156 0 -261.5 106.5t-105.5 268.5q0 160 102.5 266.5t258.5 106.5q134 0 227 -72.5t127 -189.5h-128q-21 73 -80.5 118t-148.5 45q-108 0 -176 -75.5t-68 -200.5q0 -122 69.5 -200.5t187.5 -78.5q98 0 160 55.5t77 149.5h-248v88h364q3 -173 -95 -280t-262 -107
z" />
    <glyph glyph-name="H" unicode="H" horiz-adv-x="740" 
d="M188 0h-110v718h110v-300h364v300h110v-718h-110v322h-364v-322z" />
    <glyph glyph-name="I" unicode="I" horiz-adv-x="266" 
d="M188 0h-110v718h110v-718z" />
    <glyph glyph-name="J" unicode="J" horiz-adv-x="598" 
d="M525 718v-471q0 -122 -67.5 -192t-187.5 -70q-116 0 -184 67t-71 178h111q3 -69 39.5 -107.5t104.5 -38.5q70 0 107 40t37 118v476h111z" />
    <glyph glyph-name="K" unicode="K" horiz-adv-x="646" 
d="M188 0h-110v718h110v-332l304 332h127l-320 -352l328 -366h-138l-301 333v-333z" />
    <glyph glyph-name="L" unicode="L" horiz-adv-x="543" 
d="M513 0h-435v718h110v-619h325v-99z" />
    <glyph glyph-name="M" unicode="M" horiz-adv-x="907" 
d="M406 0l-227 549v-549h-101v718h135l241 -583l240 583h136v-718h-102v550l-228 -550h-94z" />
    <glyph glyph-name="N" unicode="N" horiz-adv-x="746" 
d="M558 0l-378 561v-561h-102v718h120l369 -546v546h102v-718h-111z" />
    <glyph glyph-name="O" unicode="O" horiz-adv-x="802" 
d="M401 -15q-156 0 -260.5 108t-104.5 267t104.5 266t260.5 107t260.5 -107t104.5 -266t-104.5 -267t-260.5 -108zM401 84q112 0 181.5 79t69.5 197t-69.5 196t-181.5 78t-181.5 -78t-69.5 -196t69.5 -197t181.5 -79z" />
    <glyph glyph-name="P" unicode="P" horiz-adv-x="624" 
d="M327 250h-139v-250h-110v718h249q123 0 194 -60.5t71 -171.5q0 -112 -71.5 -174t-193.5 -62zM326 625h-138v-282h138q73 0 114.5 37.5t41.5 104.5q0 66 -41.5 103t-114.5 37z" />
    <glyph glyph-name="Q" unicode="Q" horiz-adv-x="802" 
d="M401 -15q-156 0 -260.5 108t-104.5 267t104.5 266t260.5 107t260.5 -107t104.5 -266q0 -107 -50 -194t-135 -135l120 -213h-113l-102 176q-40 -9 -85 -9zM401 84q112 0 181.5 79t69.5 197t-69.5 196t-181.5 78t-181.5 -78t-69.5 -196t69.5 -197t181.5 -79z" />
    <glyph glyph-name="R" unicode="R" horiz-adv-x="659" 
d="M188 0h-110v718h268q124 0 194 -58.5t70 -165.5q0 -77 -46 -133t-128 -75l195 -286h-132l-179 270h-132v-270zM188 626v-264h151q77 0 118.5 33.5t41.5 98.5q0 64 -41.5 98t-118.5 34h-151z" />
    <glyph glyph-name="S" unicode="S" horiz-adv-x="652" 
d="M603 210q0 -96 -73.5 -158t-200.5 -62q-128 0 -204 64.5t-83 173.5h112q4 -70 48 -110t125 -40q70 0 114.5 31.5t44.5 85.5q0 44 -29 69t-93 39l-104 20q-193 38 -193 193q0 91 72 151.5t183 60.5q113 0 188.5 -64t82.5 -170h-112q-5 65 -48 105.5t-110 40.5t-105.5 -34
t-38.5 -83q0 -47 33.5 -70.5t92.5 -35.5l106 -21q96 -19 144 -63.5t48 -122.5z" />
    <glyph glyph-name="T" unicode="T" horiz-adv-x="616" 
d="M363 0h-110v619h-234v99h578v-99h-234v-619z" />
    <glyph glyph-name="U" unicode="U" horiz-adv-x="706" 
d="M631 718v-460q0 -124 -75 -198.5t-203 -74.5t-202.5 74t-74.5 199v460h110v-463q0 -79 44 -125t123 -46t123.5 46t44.5 125v463h110z" />
    <glyph glyph-name="V" unicode="V" horiz-adv-x="680" 
d="M664 718l-264 -718h-121l-264 718h118l209 -590l212 590h110z" />
    <glyph glyph-name="W" unicode="W" horiz-adv-x="946" 
d="M625 0l-152 563l-153 -563h-113l-187 718h108l138 -553l151 553h114l149 -554l138 554h108l-187 -718h-114z" />
    <glyph glyph-name="X" unicode="X" horiz-adv-x="675" 
d="M156 0h-128l232 368l-211 350h127l165 -280l171 280h122l-215 -354l228 -364h-129l-180 295z" />
    <glyph glyph-name="Y" unicode="Y" horiz-adv-x="644" 
d="M377 269v-269h-111v269l-258 449h120l197 -346l199 346h112z" />
    <glyph glyph-name="Z" unicode="Z" horiz-adv-x="621" 
d="M584 0h-545v84l394 539h-386v95h523v-86l-395 -537h409v-95z" />
    <glyph glyph-name="bracketleft" unicode="[" horiz-adv-x="314" 
d="M287 -193h-204v911h204v-87h-100v-737h100v-87z" />
    <glyph glyph-name="backslash" unicode="\" horiz-adv-x="494" 
d="M518 -193h-100l-443 911h101z" />
    <glyph glyph-name="bracketright" unicode="]" horiz-adv-x="314" 
d="M231 -193h-204v87h101v737h-101v87h204v-911z" />
    <glyph glyph-name="asciicircum" unicode="^" horiz-adv-x="660" 
d="M487 274l-157 303l-156 -303h-102l210 402h97l209 -402h-101z" />
    <glyph glyph-name="underscore" unicode="_" 
d="M500 -193h-500v87h500v-87z" />
    <glyph glyph-name="grave" unicode="`" 
d="M360 583h-109l-111 142h119z" />
    <glyph glyph-name="a" unicode="a" horiz-adv-x="540" 
d="M391 0v82q-51 -92 -170 -92q-83 0 -132.5 43.5t-49.5 116.5q0 158 241 158q47 0 99 -6v39q0 57 -29 88t-82 31q-55 0 -87.5 -31t-34.5 -87h-92q4 89 62.5 143.5t151.5 54.5q98 0 152.5 -52.5t54.5 -147.5v-340h-84zM135 153q0 -41 28.5 -66t77.5 -25q63 0 100.5 36.5
t37.5 97.5v43q-47 6 -93 6q-151 0 -151 -92z" />
    <glyph glyph-name="b" unicode="b" horiz-adv-x="608" 
d="M576 265q0 -121 -64.5 -198t-170.5 -77q-117 0 -177 105v-95h-94v718h101v-279q57 101 170 101q106 0 170.5 -76.5t64.5 -198.5zM471 265q0 88 -41.5 137t-108.5 49q-65 0 -107.5 -49t-42.5 -135t42 -136.5t108 -50.5q67 0 108.5 49t41.5 136z" />
    <glyph glyph-name="c" unicode="c" horiz-adv-x="556" 
d="M279 -11q-109 0 -178 77t-69 199q0 120 70 197.5t177 77.5q98 0 164.5 -61t80.5 -164h-106q-8 63 -45 99.5t-93 36.5q-65 0 -104.5 -51t-39.5 -135q0 -85 39.5 -135.5t104.5 -50.5q56 0 93 36t46 100h105q-13 -105 -79 -165.5t-166 -60.5z" />
    <glyph glyph-name="d" unicode="d" horiz-adv-x="608" 
d="M32 265q0 122 64.5 198.5t170.5 76.5q54 0 98 -26t72 -75v279h101v-718h-94v95q-60 -105 -177 -105q-106 0 -170.5 77t-64.5 198zM137 265q0 -87 41.5 -136t108.5 -49q66 0 108 50.5t42 136.5t-42.5 135t-107.5 49q-68 0 -109 -49t-41 -137z" />
    <glyph glyph-name="e" unicode="e" horiz-adv-x="567" 
d="M288 -10q-115 0 -185.5 76.5t-70.5 201.5q0 118 71.5 195t181.5 77q119 0 188.5 -85.5t56.5 -214.5h-395q6 -81 45.5 -126t105.5 -45q56 0 93.5 29t50.5 81h100q-19 -88 -83.5 -138.5t-158.5 -50.5zM283 464q-61 0 -100 -41.5t-47 -115.5h287q-4 73 -41 115t-99 42z" />
    <glyph glyph-name="f" unicode="f" horiz-adv-x="374" 
d="M219 0h-101v444h-117v86h117v39q0 76 40 117t115 41q41 0 74 -13v-82q-21 9 -52 9q-76 0 -76 -73v-38h148v-86h-148v-444z" />
    <glyph glyph-name="g" unicode="g" horiz-adv-x="591" 
d="M282 -204q-104 0 -167.5 52t-67.5 142h98q4 -55 39 -84.5t97 -29.5q68 0 103.5 36t35.5 104v96q-22 -48 -65 -74.5t-97 -26.5q-99 0 -162.5 74t-63.5 191q0 118 61.5 191t161.5 73q116 0 172 -104v94h94v-512q0 -104 -63.5 -163t-175.5 -59zM134 276q0 -82 38 -129.5
t104 -47.5q65 0 104.5 47.5t39.5 126.5q0 82 -39.5 131t-104.5 49t-103.5 -47.5t-38.5 -129.5z" />
    <glyph glyph-name="h" unicode="h" horiz-adv-x="578" 
d="M171 299v-299h-101v718h101v-273q58 95 162 95q83 0 132 -51.5t49 -145.5v-343h-101v309q0 69 -29.5 105.5t-85.5 36.5q-53 0 -90 -41.5t-37 -110.5z" />
    <glyph glyph-name="i" unicode="i" horiz-adv-x="241" 
d="M193 653q0 -29 -20.5 -48t-52.5 -19t-53 19t-21 48t21 48t53 19t52.5 -19t20.5 -48zM171 0h-101v530h101v-530z" />
    <glyph glyph-name="j" unicode="j" horiz-adv-x="240" 
d="M193 653q0 -29 -20.5 -48t-52.5 -19t-53 19t-21 48t21 48t53 19t52.5 -19t20.5 -48zM170 530v-556q0 -88 -44 -132.5t-119 -44.5q-44 0 -70 10v95q23 -11 58 -11q74 0 74 85v554h101z" />
    <glyph glyph-name="k" unicode="k" horiz-adv-x="541" 
d="M171 0h-101v718h101v-425l227 237h119l-245 -257l268 -273h-130l-239 251v-251z" />
    <glyph glyph-name="l" unicode="l" horiz-adv-x="242" 
d="M172 0h-102v718h102v-718z" />
    <glyph glyph-name="m" unicode="m" horiz-adv-x="914" 
d="M171 0h-101v530h94v-88q58 98 166 98q59 0 101 -29t60 -81q60 110 179 110q83 0 131 -52t48 -145v-343h-101v311q0 67 -29 103.5t-84 36.5q-53 0 -89 -41t-36 -106v-304h-101v311q0 67 -29 103.5t-84 36.5q-54 0 -89.5 -40.5t-35.5 -106.5v-304z" />
    <glyph glyph-name="n" unicode="n" horiz-adv-x="578" 
d="M171 299v-299h-101v530h94v-88q60 98 169 98q83 0 132 -51.5t49 -145.5v-343h-101v309q0 69 -29.5 105.5t-85.5 36.5q-53 0 -90 -41.5t-37 -110.5z" />
    <glyph glyph-name="o" unicode="o" horiz-adv-x="585" 
d="M292 -10q-112 0 -186 78.5t-74 196.5t74 196.5t186 78.5t186 -78.5t74 -196.5t-74 -196.5t-186 -78.5zM292 79q67 0 111.5 50.5t44.5 135.5t-44.5 135t-111.5 50t-111 -50t-44 -135t44 -135.5t111 -50.5z" />
    <glyph glyph-name="p" unicode="p" horiz-adv-x="608" 
d="M576 265q0 -121 -64.5 -198t-169.5 -77q-112 0 -171 100v-283h-101v723h94v-97q28 51 75 79t103 28q105 0 169.5 -77t64.5 -198zM471 265q0 87 -41.5 136.5t-108.5 49.5q-65 0 -107.5 -49.5t-42.5 -136.5q0 -86 42 -135.5t108 -49.5q67 0 108.5 49t41.5 136z" />
    <glyph glyph-name="q" unicode="q" horiz-adv-x="608" 
d="M32 265q0 121 64.5 198t170.5 77q57 0 103 -28t74 -80v98h94v-723h-101v283q-59 -100 -170 -100q-106 0 -170.5 77t-64.5 198zM137 265q0 -87 41 -136t109 -49q66 0 108 49.5t42 135.5q0 87 -42 136.5t-108 49.5q-67 0 -108.5 -49t-41.5 -137z" />
    <glyph glyph-name="r" unicode="r" horiz-adv-x="378" 
d="M171 271v-271h-101v530h94v-112q28 55 83.5 87t120.5 32v-105q-89 5 -143 -35.5t-54 -125.5z" />
    <glyph glyph-name="s" unicode="s" horiz-adv-x="530" 
d="M490 158q0 -78 -58.5 -123t-163.5 -45q-104 0 -164.5 48.5t-68.5 134.5h97q3 -49 40 -78t98 -29q55 0 86.5 19t31.5 56q0 32 -21.5 49t-71.5 27l-86 16q-153 30 -153 149q0 70 56 114t148 44q95 0 155 -47.5t67 -129.5h-97q-4 48 -37 74.5t-87 26.5q-49 0 -78 -19.5
t-29 -53.5q0 -32 21 -49t70 -26l90 -17q155 -28 155 -141z" />
    <glyph glyph-name="t" unicode="t" horiz-adv-x="400" 
d="M369 98v-89q-42 -19 -90 -19q-77 0 -121.5 42.5t-44.5 127.5v284h-117v86h117v157h101v-157h160v-86h-160v-261q0 -99 89 -99q37 0 66 14z" />
    <glyph glyph-name="u" unicode="u" horiz-adv-x="572" 
d="M401 218v312h101v-530h-94v84q-21 -42 -65 -68t-97 -26q-83 0 -132 50t-49 149v341h101v-321q0 -66 30 -98t82 -32t87.5 39t35.5 100z" />
    <glyph glyph-name="v" unicode="v" horiz-adv-x="512" 
d="M510 530l-199 -530h-110l-199 530h109l147 -414l149 414h103z" />
    <glyph glyph-name="w" unicode="w" horiz-adv-x="775" 
d="M508 0l-120 394l-121 -394h-102l-153 530h99l107 -386l120 386h100l118 -387l107 387h100l-154 -530h-101z" />
    <glyph glyph-name="x" unicode="x" horiz-adv-x="534" 
d="M125 0h-114l188 271l-176 259h117l131 -200l131 200h109l-174 -262l186 -268h-116l-142 211z" />
    <glyph glyph-name="y" unicode="y" horiz-adv-x="512" 
d="M510 530l-265 -723h-110l76 200l-209 523h109l154 -404l143 404h102z" />
    <glyph glyph-name="z" unicode="z" horiz-adv-x="501" 
d="M471 0h-437v79l301 364h-296v87h422v-81l-301 -361h311v-88z" />
    <glyph glyph-name="braceleft" unicode="{" horiz-adv-x="323" 
d="M17 219v87q51 0 72 19t21 62v189q0 67 42.5 105.5t116.5 38.5q24 0 37 -1v-88q-8 2 -23 2q-33 0 -51.5 -18t-18.5 -50v-187q0 -96 -82 -115q82 -19 82 -116v-186q0 -33 18.5 -51t51.5 -18q15 0 23 2v-87q-13 -2 -37 -2q-74 0 -116.5 38.5t-42.5 105.5v190q0 42 -21.5 61
t-71.5 19z" />
    <glyph glyph-name="bar" unicode="|" horiz-adv-x="298" 
d="M199 -193h-100v911h100v-911z" />
    <glyph glyph-name="braceright" unicode="}" horiz-adv-x="323" 
d="M306 306v-87q-51 0 -72 -19t-21 -62v-189q0 -67 -42.5 -105.5t-116.5 -38.5q-24 0 -37 1v88q9 -2 24 -2q32 0 50.5 18t18.5 50v187q0 96 82 115q-82 19 -82 116v186q0 33 -18.5 51t-51.5 18q-15 0 -23 -2v87q13 2 37 2q74 0 116.5 -38.5t42.5 -105.5v-190q0 -42 21.5 -61
t71.5 -19z" />
    <glyph glyph-name="asciitilde" unicode="~" horiz-adv-x="660" 
d="M455 251q-39 0 -87.5 22.5t-90.5 45.5t-65 23q-31 0 -46 -20.5t-16 -68.5h-83q-9 80 30 130t108 50q40 0 88.5 -22.5t89.5 -45.5t65 -23q64 0 61 89h84q10 -81 -28.5 -130.5t-109.5 -49.5z" />
    <glyph glyph-name="nbspace" unicode="&#xa0;" horiz-adv-x="209" 
 />
    <glyph glyph-name="exclamdown" unicode="&#xa1;" horiz-adv-x="267" 
d="M213 459q0 -33 -22.5 -54t-56.5 -21q-35 0 -57 21t-22 54t22.5 54.5t56.5 21.5q33 0 56 -21.5t23 -54.5zM197 -193h-125l24 526h76z" />
    <glyph glyph-name="cent" unicode="&#xa2;" horiz-adv-x="576" 
d="M324 -83h-69v75q-99 12 -161 88t-62 185q0 110 62 185.5t161 86.5v83h69v-82q90 -10 148.5 -70.5t71.5 -152.5h-106q-9 60 -47.5 97.5t-100.5 37.5q-69 0 -111.5 -51t-42.5 -134q0 -82 42.5 -134t111.5 -52q62 0 100 38t48 98h106q-12 -92 -71 -152.5t-149 -70.5v-75z
" />
    <glyph glyph-name="sterling" unicode="&#xa3;" horiz-adv-x="569" 
d="M167 89q-29 0 -42.5 -20t-13.5 -69h-84q-6 64 18.5 108t71.5 58v143h-80v68h80v98q0 97 56 154t148 57q89 0 147.5 -50.5t63.5 -143.5h-107q-9 104 -106 104q-47 0 -73.5 -32t-26.5 -92v-95h180v-68h-180v-147q23 -8 82 -43t91 -35q64 0 58 89h84q10 -81 -27 -130.5
t-106 -49.5q-39 0 -85 24t-85.5 48t-63.5 24z" />
    <glyph glyph-name="currency" unicode="&#xa4;" horiz-adv-x="660" 
d="M330 128q-66 0 -115 36l-74 -73l-59 59l69 70q-36 52 -36 118q0 67 37 118l-71 71l60 58l73 -73q52 36 116 36t116 -36l73 73l60 -58l-71 -71q37 -51 37 -118q0 -66 -36 -118l69 -70l-59 -59l-74 73q-49 -36 -115 -36zM330 202q57 0 93.5 36t36.5 100q0 65 -36.5 100.5
t-93.5 35.5t-93.5 -35.5t-36.5 -100.5q0 -64 36.5 -100t93.5 -36z" />
    <glyph glyph-name="yen" unicode="&#xa5;" horiz-adv-x="577" 
d="M536 156h-196v-156h-103v156h-196v68h196v29l-24 46h-172v68h138l-157 308h112l158 -320l159 320h104l-157 -308h138v-68h-172l-24 -46v-29h196v-68z" />
    <glyph glyph-name="brokenbar" unicode="&#xa6;" horiz-adv-x="296" 
d="M99 718h99v-412h-99v412zM99 219h99v-412h-99v412z" />
    <glyph glyph-name="section" unicode="&#xa7;" horiz-adv-x="570" 
d="M40 236q0 51 33 88.5t94 55.5q-92 42 -92 136q0 76 57.5 122.5t145.5 46.5q94 0 154 -51.5t67 -132.5h-99q-5 48 -38.5 77.5t-83.5 29.5q-48 0 -77 -24t-29 -63q0 -38 25.5 -59.5t79.5 -33.5l85 -21q87 -21 127.5 -59t40.5 -99q0 -107 -121 -154q97 -37 97 -131
q0 -73 -61 -120.5t-154 -47.5q-104 0 -168.5 51t-73.5 138h99q6 -51 43 -81.5t95 -30.5q53 0 87 25t34 65q0 38 -25.5 59t-84.5 33l-88 20q-169 39 -169 161zM136 246q0 -49 48.5 -75t123.5 -26q61 0 93.5 26t32.5 67q0 50 -49 75t-125 25q-60 0 -92 -25.5t-32 -66.5z" />
    <glyph glyph-name="dieresis" unicode="&#xa8;" 
d="M419 653q0 -29 -19.5 -48t-49.5 -19q-31 0 -50.5 19t-19.5 48q0 30 19.5 48.5t50.5 18.5q30 0 49.5 -18.5t19.5 -48.5zM220 653q0 -29 -19.5 -48t-50.5 -19q-30 0 -49.5 19t-19.5 48q0 30 19.5 48.5t49.5 18.5q31 0 50.5 -18.5t19.5 -48.5z" />
    <glyph glyph-name="copyright" unicode="&#xa9;" horiz-adv-x="787" 
d="M393 -9q-150 0 -252 101t-102 246q0 146 101.5 247t252.5 101t253 -101t102 -247q0 -145 -102 -246t-253 -101zM393 47q126 0 208 84t82 207t-81.5 207.5t-208.5 84.5q-126 0 -207.5 -84.5t-81.5 -207.5t81.5 -207t207.5 -84zM498 304h69q-10 -67 -58.5 -108t-116.5 -41
q-74 0 -124.5 53t-50.5 130q0 78 50.5 130.5t124.5 52.5q68 0 116.5 -41t58.5 -108h-69q-7 40 -36 65.5t-69 25.5q-48 0 -78.5 -35t-30.5 -90t30.5 -90.5t78.5 -35.5q40 0 69 26t36 66z" />
    <glyph glyph-name="ordfeminine" unicode="&#xaa;" horiz-adv-x="428" 
d="M311 255v62q-40 -70 -136 -70q-67 0 -107.5 34.5t-40.5 92.5q0 62 49.5 94t144.5 32q28 0 80 -5v30q0 43 -23.5 66t-64.5 23q-44 0 -69.5 -23t-26.5 -66h-79q3 69 52 113t123 44q80 0 125 -42t45 -117v-268h-72zM109 377q0 -31 22.5 -49.5t60.5 -18.5q50 0 79.5 27
t29.5 72v33q-43 5 -74 5q-118 0 -118 -69z" />
    <glyph glyph-name="guillemotleft" unicode="&#xab;" horiz-adv-x="512" 
d="M278 62h-110l-143 205l143 205h110l-137 -205zM487 62h-111l-142 205l142 205h111l-138 -205z" />
    <glyph glyph-name="logicalnot" unicode="&#xac;" horiz-adv-x="660" 
d="M570 193h-94v204h-396v87h490v-291z" />
    <glyph glyph-name="softhyphen" unicode="&#xad;" horiz-adv-x="361" 
d="M336 230h-311v91h311v-91z" />
    <glyph glyph-name="registered" unicode="&#xae;" horiz-adv-x="787" 
d="M393 -9q-150 0 -252 101t-102 246q0 146 101.5 247t252.5 101t253 -101t102 -247q0 -145 -102 -246t-253 -101zM393 47q126 0 208 84t82 207t-81.5 207.5t-208.5 84.5q-126 0 -207.5 -84.5t-81.5 -207.5t81.5 -207t207.5 -84zM469 162l-83 128h-55v-128h-66v352h136
q64 0 99.5 -29t35.5 -83q0 -38 -22.5 -65t-59.5 -38l94 -137h-79zM397 460h-66v-116h66q74 0 74 58t-74 58z" />
    <glyph glyph-name="macron" unicode="&#xaf;" 
d="M402 596h-303v68h303v-68z" />
    <glyph glyph-name="degree" unicode="&#xb0;" horiz-adv-x="474" 
d="M236 303q-91 0 -153.5 60.5t-62.5 149.5t62 149.5t154 60.5q93 0 155.5 -60.5t62.5 -149.5t-62.5 -149.5t-155.5 -60.5zM236 376q59 0 96 38t37 99t-37 99t-96 38q-57 0 -94.5 -38.5t-37.5 -98.5t37.5 -98.5t94.5 -38.5z" />
    <glyph glyph-name="plusminus" unicode="&#xb1;" horiz-adv-x="660" 
d="M377 155h-94v203h-203v87h203v203h94v-203h203v-87h-203v-203zM580 1h-500v87h500v-87z" />
    <glyph glyph-name="twosuperior" unicode="&#xb2;" horiz-adv-x="352" 
d="M324 577v-62h-291l1 40l138 133q39 37 56.5 61t17.5 51q0 28 -21 46t-56 18q-36 0 -58 -18.5t-22 -51.5h-67q0 59 42.5 96t108.5 37q65 0 105.5 -35t40.5 -83q0 -38 -21.5 -69.5t-73.5 -79.5l-82 -83h182z" />
    <glyph glyph-name="threesuperior" unicode="&#xb3;" horiz-adv-x="388" 
d="M353 634q0 -55 -44.5 -89t-116.5 -34q-69 0 -113 33.5t-45 88.5h68q1 -30 26.5 -48t64.5 -18q41 0 64.5 17.5t23.5 47.5t-27 47t-72 17h-47v56h43q38 0 60.5 16.5t22.5 44.5q0 26 -20 42t-54 16q-33 0 -53 -17t-22 -45h-68q2 51 43.5 85t102.5 34q65 0 104 -30.5
t39 -79.5q0 -58 -68 -90q42 -11 65 -35.5t23 -58.5z" />
    <glyph glyph-name="acute" unicode="&#xb4;" 
d="M248 583h-108l100 142h119z" />
    <glyph glyph-name="micro" unicode="&#xb5;" horiz-adv-x="583" 
d="M170 -193h-100v723h101v-313q0 -69 31.5 -103.5t87.5 -34.5q57 0 89.5 39.5t32.5 99.5v312h101v-530h-99v72q-18 -37 -52.5 -59.5t-78.5 -22.5q-83 0 -121 54z" />
    <glyph glyph-name="paragraph" unicode="&#xb6;" horiz-adv-x="692" 
d="M386 -193h-100v405q-117 2 -185.5 62.5t-68.5 169.5q0 110 71.5 171t192.5 61h376v-90h-94v-779h-100v779h-92v-779z" />
    <glyph glyph-name="periodcentered" unicode="&#xb7;" horiz-adv-x="260" 
d="M207 266q0 -34 -21.5 -55.5t-55.5 -21.5t-55.5 21.5t-21.5 55.5t21.5 56t55.5 22t55.5 -21.5t21.5 -56.5z" />
    <glyph glyph-name="cedilla" unicode="&#xb8;" 
d="M365 -116q0 -36 -31.5 -59t-79.5 -23q-50 0 -82 23.5t-37 66.5h66q6 -40 50 -40q18 0 29.5 11t11.5 26q0 27 -22.5 38.5t-59.5 7.5l22 78h55l-15 -48q42 -4 67.5 -26t25.5 -55z" />
    <glyph glyph-name="onesuperior" unicode="&#xb9;" horiz-adv-x="230" 
d="M168 515h-70v345h-86v61h156v-406z" />
    <glyph glyph-name="ordmasculine" unicode="&#xba;" horiz-adv-x="487" 
d="M243 247q-91 0 -151.5 62.5t-60.5 155.5t60.5 155t151.5 62t152 -62t61 -155t-61 -155.5t-152 -62.5zM243 325q53 0 88 37.5t35 102.5q0 64 -35 102t-88 38t-87.5 -38t-34.5 -102t34.5 -102t87.5 -38z" />
    <glyph glyph-name="guillemotright" unicode="&#xbb;" horiz-adv-x="512" 
d="M25 472h111l142 -205l-142 -205h-111l138 205zM234 472h111l142 -205l-142 -205h-111l138 205z" />
    <glyph glyph-name="onequarter" unicode="&#xbc;" horiz-adv-x="718" 
d="M168 270h-70v345h-86v61h156v-406zM176 0h-82l382 676h83zM689 86h-61v-86h-70v86h-214v50l230 270h54v-259h61v-61zM426 147h132v158z" />
    <glyph glyph-name="onehalf" unicode="&#xbd;" horiz-adv-x="769" 
d="M168 270h-70v345h-86v61h156v-406zM176 0h-82l382 676h83zM741 62v-62h-291l1 40l138 133q39 37 56.5 61t17.5 51q0 28 -21 46t-56 18q-36 0 -57.5 -18.5t-21.5 -51.5h-68q0 59 43 96t108 37q66 0 106 -34.5t40 -83.5q0 -38 -21.5 -69.5t-73.5 -79.5l-82 -83h182z" />
    <glyph glyph-name="threequarters" unicode="&#xbe;" horiz-adv-x="882" 
d="M353 389q0 -55 -44.5 -89t-116.5 -34q-69 0 -113 33.5t-45 88.5h68q1 -30 26.5 -48t64.5 -18q41 0 64.5 17.5t23.5 47.5t-27 47t-72 17h-47v56h43q38 0 60.5 16.5t22.5 44.5q0 26 -20 42t-54 16q-33 0 -53 -17t-22 -45h-68q2 51 43.5 85t102.5 34q65 0 104 -30.5
t39 -79.5q0 -58 -68 -90q42 -11 65 -35.5t23 -58.5zM334 0h-82l382 676h83zM852 86h-61v-86h-70v86h-214v50l230 270h54v-259h61v-61zM589 147h132v158z" />
    <glyph glyph-name="questiondown" unicode="&#xbf;" horiz-adv-x="476" 
d="M174 459q0 33 23 54.5t57 21.5t57 -21.5t23 -54.5t-22.5 -54.5t-57.5 -21.5t-57.5 21.5t-22.5 54.5zM362 -8h96q-4 -86 -66 -140.5t-157 -54.5q-97 0 -157 51t-60 130q0 74 89 154l59 53q36 33 47 62t5 86h68q18 -61 11.5 -104t-48.5 -83l-60 -58q-32 -30 -46 -52
t-14 -49q0 -44 31.5 -72t84.5 -28q50 0 82.5 29t34.5 76z" />
    <glyph glyph-name="Agrave" unicode="&#xc0;" horiz-adv-x="710" 
d="M407 770h-108l-112 143h120zM572 0l-65 178h-310l-66 -178h-111l275 718h121l273 -718h-117zM353 598l-123 -331h244z" />
    <glyph glyph-name="Aacute" unicode="&#xc1;" horiz-adv-x="710" 
d="M411 770h-108l100 143h119zM572 0l-65 178h-310l-66 -178h-111l275 718h121l273 -718h-117zM353 598l-123 -331h244z" />
    <glyph glyph-name="Acircumflex" unicode="&#xc2;" horiz-adv-x="710" 
d="M274 770h-114l135 143h121l135 -143h-113l-83 86zM572 0l-65 178h-310l-66 -178h-111l275 718h121l273 -718h-117zM353 598l-123 -331h244z" />
    <glyph glyph-name="Atilde" unicode="&#xc3;" horiz-adv-x="710" 
d="M246 768h-64q-8 65 18.5 104t76.5 39q36 0 82 -31t62 -31q40 0 39 68h66q7 -63 -20 -103t-77 -40q-36 0 -81.5 31t-61.5 31q-41 0 -40 -68zM572 0l-65 178h-310l-66 -178h-111l275 718h121l273 -718h-117zM353 598l-123 -331h244z" />
    <glyph glyph-name="Adieresis" unicode="&#xc4;" horiz-adv-x="710" 
d="M524 841q0 -29 -19.5 -48t-49.5 -19q-31 0 -50.5 19t-19.5 48q0 30 19.5 48.5t50.5 18.5q30 0 49.5 -18.5t19.5 -48.5zM325 841q0 -29 -19 -48t-50 -19t-50.5 19t-19.5 48q0 30 19.5 48.5t50.5 18.5t50 -18.5t19 -48.5zM572 0l-65 178h-310l-66 -178h-111l275 718h121
l273 -718h-117zM353 598l-123 -331h244z" />
    <glyph glyph-name="Aring" unicode="&#xc5;" horiz-adv-x="710" 
d="M355 766q-53 0 -88 33.5t-35 80.5t35 80.5t88 33.5t89 -33.5t36 -80.5t-36 -80.5t-89 -33.5zM355 820q27 0 44 15.5t17 44.5q0 28 -17 44t-44 16q-25 0 -43 -16t-18 -44q0 -29 17.5 -44.5t43.5 -15.5zM572 0l-65 178h-310l-66 -178h-111l275 718h121l273 -718h-117z
M353 598l-123 -331h244z" />
    <glyph glyph-name="AE" unicode="&#xc6;" horiz-adv-x="899" 
d="M437 178h-223l-91 -178h-123l378 718h462v-95h-293v-205h263v-96h-263v-227h300v-95h-410v178zM437 267v346l-177 -346h177z" />
    <glyph glyph-name="Ccedilla" unicode="&#xc7;" horiz-adv-x="778" 
d="M499 -116q0 -36 -31.5 -59t-79.5 -23q-50 0 -82 23.5t-38 66.5h66q8 -40 50 -40q19 0 30.5 10.5t11.5 26.5q0 27 -23 38.5t-60 7.5l15 51q-139 13 -230.5 119t-91.5 255q0 158 102.5 265.5t252.5 107.5q135 0 233 -82.5t118 -214.5h-117q-15 87 -79.5 142.5t-153.5 55.5
q-106 0 -174 -77t-68 -197q0 -121 68 -198.5t174 -77.5q89 0 153.5 55.5t79.5 143.5h117q-19 -128 -110.5 -209.5t-220.5 -87.5l-6 -21q42 -4 68 -26t26 -55z" />
    <glyph glyph-name="Egrave" unicode="&#xc8;" horiz-adv-x="584" 
d="M358 770h-109l-111 143h119zM533 96v-96h-455v718h448v-96h-338v-204h308v-96h-308v-226h345z" />
    <glyph glyph-name="Eacute" unicode="&#xc9;" horiz-adv-x="584" 
d="M362 770h-109l101 143h119zM533 96v-96h-455v718h448v-96h-338v-204h308v-96h-308v-226h345z" />
    <glyph glyph-name="Ecircumflex" unicode="&#xca;" horiz-adv-x="584" 
d="M224 770h-113l135 143h120l135 -143h-113l-82 86zM533 96v-96h-455v718h448v-96h-338v-204h308v-96h-308v-226h345z" />
    <glyph glyph-name="Edieresis" unicode="&#xcb;" horiz-adv-x="584" 
d="M475 841q0 -29 -20 -48t-49 -19q-31 0 -51 19t-20 48q0 30 20 48.5t51 18.5q30 0 49.5 -18.5t19.5 -48.5zM276 841q0 -29 -19.5 -48t-50.5 -19q-30 0 -49.5 19t-19.5 48q0 30 19.5 48.5t49.5 18.5q31 0 50.5 -18.5t19.5 -48.5zM533 96v-96h-455v718h448v-96h-338v-204
h308v-96h-308v-226h345z" />
    <glyph glyph-name="Igrave" unicode="&#xcc;" horiz-adv-x="266" 
d="M186 770h-109l-101 143h119zM188 0h-110v718h110v-718z" />
    <glyph glyph-name="Iacute" unicode="&#xcd;" horiz-adv-x="266" 
d="M190 770h-109l91 143h118zM188 0h-110v718h110v-718z" />
    <glyph glyph-name="Icircumflex" unicode="&#xce;" horiz-adv-x="266" 
d="M63 770h-114l122 143h124l122 -143h-113l-71 86zM188 0h-110v718h110v-718z" />
    <glyph glyph-name="Idieresis" unicode="&#xcf;" horiz-adv-x="266" 
d="M293 841q0 -29 -18.5 -48t-47.5 -19q-30 0 -49 19t-19 48q0 30 19 48.5t49 18.5q29 0 47.5 -18.5t18.5 -48.5zM109 841q0 -29 -19 -48t-49 -19q-29 0 -48 19t-19 48q0 30 19 48.5t48 18.5q30 0 49 -18.5t19 -48.5zM188 0h-110v718h110v-718z" />
    <glyph glyph-name="Eth" unicode="&#xd0;" horiz-adv-x="739" 
d="M341 0h-227v325h-108v90h108v303h227q169 0 265.5 -98t96.5 -258q0 -158 -98.5 -260t-263.5 -102zM375 325h-151v-230h112q122 0 188 71t66 196q0 123 -65.5 192t-188.5 69h-112v-208h151v-90z" />
    <glyph glyph-name="Ntilde" unicode="&#xd1;" horiz-adv-x="746" 
d="M264 768h-64q-8 64 19 103.5t76 39.5q36 0 82 -31t62 -31q40 0 39 68h66q7 -63 -20 -103t-77 -40q-36 0 -81.5 31t-61.5 31q-41 0 -40 -68zM558 0l-378 561v-561h-102v718h120l369 -546v546h102v-718h-111z" />
    <glyph glyph-name="Ograve" unicode="&#xd2;" horiz-adv-x="802" 
d="M453 770h-108l-112 143h120zM401 -15q-156 0 -260.5 108t-104.5 267t104.5 266t260.5 107t260.5 -107t104.5 -266t-104.5 -267t-260.5 -108zM401 84q112 0 181.5 79t69.5 197t-69.5 196t-181.5 78t-181.5 -78t-69.5 -196t69.5 -197t181.5 -79z" />
    <glyph glyph-name="Oacute" unicode="&#xd3;" horiz-adv-x="802" 
d="M457 770h-108l100 143h119zM401 -15q-156 0 -260.5 108t-104.5 267t104.5 266t260.5 107t260.5 -107t104.5 -266t-104.5 -267t-260.5 -108zM401 84q112 0 181.5 79t69.5 197t-69.5 196t-181.5 78t-181.5 -78t-69.5 -196t69.5 -197t181.5 -79z" />
    <glyph glyph-name="Ocircumflex" unicode="&#xd4;" horiz-adv-x="802" 
d="M320 770h-114l135 143h121l135 -143h-114l-82 86zM401 -15q-156 0 -260.5 108t-104.5 267t104.5 266t260.5 107t260.5 -107t104.5 -266t-104.5 -267t-260.5 -108zM401 84q112 0 181.5 79t69.5 197t-69.5 196t-181.5 78t-181.5 -78t-69.5 -196t69.5 -197t181.5 -79z" />
    <glyph glyph-name="Otilde" unicode="&#xd5;" horiz-adv-x="802" 
d="M292 768h-65q-7 65 19.5 104t76.5 39q36 0 82 -31t62 -31q40 0 39 68h66q7 -63 -20 -103t-77 -40q-36 0 -81.5 31t-61.5 31q-41 0 -40 -68zM401 -15q-156 0 -260.5 108t-104.5 267t104.5 266t260.5 107t260.5 -107t104.5 -266t-104.5 -267t-260.5 -108zM401 84
q112 0 181.5 79t69.5 197t-69.5 196t-181.5 78t-181.5 -78t-69.5 -196t69.5 -197t181.5 -79z" />
    <glyph glyph-name="Odieresis" unicode="&#xd6;" horiz-adv-x="802" 
d="M570 841q0 -29 -19.5 -48t-49.5 -19q-31 0 -50.5 19t-19.5 48q0 30 19.5 48.5t50.5 18.5q30 0 49.5 -18.5t19.5 -48.5zM371 841q0 -29 -19 -48t-50 -19t-50.5 19t-19.5 48q0 30 19.5 48.5t50.5 18.5t50 -18.5t19 -48.5zM401 -15q-156 0 -260.5 108t-104.5 267t104.5 266
t260.5 107t260.5 -107t104.5 -266t-104.5 -267t-260.5 -108zM401 84q112 0 181.5 79t69.5 197t-69.5 196t-181.5 78t-181.5 -78t-69.5 -196t69.5 -197t181.5 -79z" />
    <glyph glyph-name="multiply" unicode="&#xd7;" horiz-adv-x="660" 
d="M161 110l-59 60l168 168l-168 168l59 60l169 -169l167 169l61 -60l-169 -168l168 -168l-60 -60l-167 168z" />
    <glyph glyph-name="Oslash" unicode="&#xd8;" horiz-adv-x="802" 
d="M161 0h-102l78 96q-101 107 -101 264q0 159 104.5 266t260.5 107q114 0 204 -60l37 45h101l-78 -96q101 -106 101 -262q0 -159 -104.5 -267t-260.5 -108q-113 0 -203 60zM150 360q0 -105 55 -180l335 413q-60 41 -139 41q-112 0 -181.5 -78t-69.5 -196zM401 84
q112 0 181.5 79t69.5 197q0 104 -55 178l-334 -413q60 -41 138 -41z" />
    <glyph glyph-name="Ugrave" unicode="&#xd9;" horiz-adv-x="706" 
d="M406 770h-109l-111 143h119zM631 718v-460q0 -124 -75 -198.5t-203 -74.5t-202.5 74t-74.5 199v460h110v-463q0 -79 44 -125t123 -46t123.5 46t44.5 125v463h110z" />
    <glyph glyph-name="Uacute" unicode="&#xda;" horiz-adv-x="706" 
d="M410 770h-109l101 143h119zM631 718v-460q0 -124 -75 -198.5t-203 -74.5t-202.5 74t-74.5 199v460h110v-463q0 -79 44 -125t123 -46t123.5 46t44.5 125v463h110z" />
    <glyph glyph-name="Ucircumflex" unicode="&#xdb;" horiz-adv-x="706" 
d="M272 770h-113l134 143h121l135 -143h-113l-83 86zM631 718v-460q0 -124 -75 -198.5t-203 -74.5t-202.5 74t-74.5 199v460h110v-463q0 -79 44 -125t123 -46t123.5 46t44.5 125v463h110z" />
    <glyph glyph-name="Udieresis" unicode="&#xdc;" horiz-adv-x="706" 
d="M522 841q0 -29 -19.5 -48t-48.5 -19q-31 0 -51 19t-20 48q0 30 19.5 48.5t51.5 18.5q30 0 49 -18.5t19 -48.5zM324 841q0 -29 -19.5 -48t-50.5 -19q-30 0 -50 19t-20 48q0 30 20 48.5t50 18.5q31 0 50.5 -18.5t19.5 -48.5zM631 718v-460q0 -124 -75 -198.5t-203 -74.5
t-202.5 74t-74.5 199v460h110v-463q0 -79 44 -125t123 -46t123.5 46t44.5 125v463h110z" />
    <glyph glyph-name="Yacute" unicode="&#xdd;" horiz-adv-x="644" 
d="M381 770h-108l100 143h119zM377 269v-269h-111v269l-258 449h120l197 -346l199 346h112z" />
    <glyph glyph-name="Thorn" unicode="&#xde;" horiz-adv-x="619" 
d="M322 127h-134v-127h-110v718h110v-123h134q123 0 194 -60.5t71 -171.5t-71.5 -173.5t-193.5 -62.5zM321 502h-133v-281h133q73 0 114.5 37t41.5 104t-41.5 103.5t-114.5 36.5z" />
    <glyph glyph-name="germandbls" unicode="&#xdf;" horiz-adv-x="617" 
d="M585 204q0 -99 -61.5 -156.5t-167.5 -57.5q-42 0 -63 6v81q30 -6 57 -6q61 0 96 35.5t35 95.5q0 59 -41 93.5t-111 34.5h-36v81h29q57 0 91.5 35t34.5 91q0 50 -30 80t-82 30q-54 0 -85.5 -35.5t-31.5 -94.5v-517h-101v444h-117v86h118q6 86 65.5 141.5t153.5 55.5
q98 0 156 -52t58 -132q0 -54 -30 -97.5t-81 -64.5q68 -18 106 -64.5t38 -112.5z" />
    <glyph glyph-name="agrave" unicode="&#xe0;" horiz-adv-x="540" 
d="M322 583h-109l-111 142h119zM391 0v82q-51 -92 -170 -92q-83 0 -132.5 43.5t-49.5 116.5q0 158 241 158q47 0 99 -6v39q0 57 -29 88t-82 31q-55 0 -87.5 -31t-34.5 -87h-92q4 89 62.5 143.5t151.5 54.5q98 0 152.5 -52.5t54.5 -147.5v-340h-84zM135 153q0 -41 28.5 -66
t77.5 -25q63 0 100.5 36.5t37.5 97.5v43q-47 6 -93 6q-151 0 -151 -92z" />
    <glyph glyph-name="aacute" unicode="&#xe1;" horiz-adv-x="540" 
d="M326 583h-109l100 142h119zM391 0v82q-51 -92 -170 -92q-83 0 -132.5 43.5t-49.5 116.5q0 158 241 158q47 0 99 -6v39q0 57 -29 88t-82 31q-55 0 -87.5 -31t-34.5 -87h-92q4 89 62.5 143.5t151.5 54.5q98 0 152.5 -52.5t54.5 -147.5v-340h-84zM135 153q0 -41 28.5 -66
t77.5 -25q63 0 100.5 36.5t37.5 97.5v43q-47 6 -93 6q-151 0 -151 -92z" />
    <glyph glyph-name="acircumflex" unicode="&#xe2;" horiz-adv-x="540" 
d="M188 583h-114l135 142h121l135 -142h-113l-83 85zM391 0v82q-51 -92 -170 -92q-83 0 -132.5 43.5t-49.5 116.5q0 158 241 158q47 0 99 -6v39q0 57 -29 88t-82 31q-55 0 -87.5 -31t-34.5 -87h-92q4 89 62.5 143.5t151.5 54.5q98 0 152.5 -52.5t54.5 -147.5v-340h-84z
M135 153q0 -41 28.5 -66t77.5 -25q63 0 100.5 36.5t37.5 97.5v43q-47 6 -93 6q-151 0 -151 -92z" />
    <glyph glyph-name="atilde" unicode="&#xe3;" horiz-adv-x="540" 
d="M161 580h-65q-8 64 19 103.5t76 39.5q28 0 56 -15.5t50.5 -31t37.5 -15.5q41 0 40 69h65q7 -64 -20 -103.5t-77 -39.5q-36 0 -81.5 31t-61.5 31q-40 0 -39 -69zM391 0v82q-51 -92 -170 -92q-83 0 -132.5 43.5t-49.5 116.5q0 158 241 158q47 0 99 -6v39q0 57 -29 88
t-82 31q-55 0 -87.5 -31t-34.5 -87h-92q4 89 62.5 143.5t151.5 54.5q98 0 152.5 -52.5t54.5 -147.5v-340h-84zM135 153q0 -41 28.5 -66t77.5 -25q63 0 100.5 36.5t37.5 97.5v43q-47 6 -93 6q-151 0 -151 -92z" />
    <glyph glyph-name="adieresis" unicode="&#xe4;" horiz-adv-x="540" 
d="M438 653q0 -29 -19.5 -48t-49.5 -19q-31 0 -50.5 19t-19.5 48q0 30 19.5 48.5t50.5 18.5q30 0 49.5 -18.5t19.5 -48.5zM240 653q0 -29 -19.5 -48t-50.5 -19q-30 0 -50 19t-20 48q0 30 20 48.5t50 18.5q31 0 50.5 -18.5t19.5 -48.5zM391 0v82q-51 -92 -170 -92
q-83 0 -132.5 43.5t-49.5 116.5q0 158 241 158q47 0 99 -6v39q0 57 -29 88t-82 31q-55 0 -87.5 -31t-34.5 -87h-92q4 89 62.5 143.5t151.5 54.5q98 0 152.5 -52.5t54.5 -147.5v-340h-84zM135 153q0 -41 28.5 -66t77.5 -25q63 0 100.5 36.5t37.5 97.5v43q-47 6 -93 6
q-151 0 -151 -92z" />
    <glyph glyph-name="aring" unicode="&#xe5;" horiz-adv-x="540" 
d="M269 578q-53 0 -88 33.5t-35 80.5q0 48 35 81.5t88 33.5t89 -33.5t36 -81.5q0 -47 -36 -80.5t-89 -33.5zM269 633q27 0 44 15t17 44t-17 44.5t-44 15.5q-25 0 -42.5 -15.5t-17.5 -44.5t17 -44t43 -15zM391 0v82q-51 -92 -170 -92q-83 0 -132.5 43.5t-49.5 116.5
q0 158 241 158q47 0 99 -6v39q0 57 -29 88t-82 31q-55 0 -87.5 -31t-34.5 -87h-92q4 89 62.5 143.5t151.5 54.5q98 0 152.5 -52.5t54.5 -147.5v-340h-84zM135 153q0 -41 28.5 -66t77.5 -25q63 0 100.5 36.5t37.5 97.5v43q-47 6 -93 6q-151 0 -151 -92z" />
    <glyph glyph-name="ae" unicode="&#xe6;" horiz-adv-x="883" 
d="M39 149q0 76 61 116t175 40q73 0 104 -3v35q0 59 -29.5 91t-83.5 32q-53 0 -85.5 -31.5t-33.5 -86.5h-92q4 86 62.5 142t147.5 56q129 0 172 -98q30 46 77 72t103 26q114 0 177.5 -81t52.5 -214h-374q2 -83 38.5 -129t103.5 -46q54 0 88 28.5t42 80.5h103
q-18 -88 -79 -138.5t-149 -50.5q-141 0 -201 129q-24 -61 -74.5 -95t-119.5 -34q-83 0 -134.5 44t-51.5 115zM611 464q-56 0 -94 -41.5t-42 -111.5h268q-3 73 -37.5 113t-94.5 40zM135 151q0 -40 29.5 -64.5t76.5 -24.5q63 0 100.5 38t37.5 102v37q-38 3 -98 3
q-146 0 -146 -91z" />
    <glyph glyph-name="ccedilla" unicode="&#xe7;" horiz-adv-x="556" 
d="M385 -116q0 -36 -31.5 -59t-79.5 -23q-49 0 -81 23.5t-38 66.5h66q6 -40 50 -40q19 0 30.5 10.5t11.5 26.5q0 27 -23 38.5t-60 7.5l17 56q-96 12 -155.5 87t-59.5 187q0 120 70 197.5t177 77.5q98 0 164.5 -61t80.5 -164h-106q-8 63 -45 99.5t-93 36.5q-65 0 -104.5 -51
t-39.5 -135q0 -85 39.5 -135.5t104.5 -50.5q56 0 93 36t46 100h105q-13 -99 -72.5 -159t-151.5 -66l-8 -25q42 -4 67.5 -26t25.5 -55z" />
    <glyph glyph-name="egrave" unicode="&#xe8;" horiz-adv-x="567" 
d="M334 583h-108l-112 142h120zM288 -10q-115 0 -185.5 76.5t-70.5 201.5q0 118 71.5 195t181.5 77q119 0 188.5 -85.5t56.5 -214.5h-395q6 -81 45.5 -126t105.5 -45q56 0 93.5 29t50.5 81h100q-19 -88 -83.5 -138.5t-158.5 -50.5zM283 464q-61 0 -100 -41.5t-47 -115.5h287
q-4 73 -41 115t-99 42z" />
    <glyph glyph-name="eacute" unicode="&#xe9;" horiz-adv-x="567" 
d="M338 583h-108l100 142h119zM288 -10q-115 0 -185.5 76.5t-70.5 201.5q0 118 71.5 195t181.5 77q119 0 188.5 -85.5t56.5 -214.5h-395q6 -81 45.5 -126t105.5 -45q56 0 93.5 29t50.5 81h100q-19 -88 -83.5 -138.5t-158.5 -50.5zM283 464q-61 0 -100 -41.5t-47 -115.5h287
q-4 73 -41 115t-99 42z" />
    <glyph glyph-name="ecircumflex" unicode="&#xea;" horiz-adv-x="567" 
d="M200 583h-113l135 142h120l135 -142h-113l-82 85zM288 -10q-115 0 -185.5 76.5t-70.5 201.5q0 118 71.5 195t181.5 77q119 0 188.5 -85.5t56.5 -214.5h-395q6 -81 45.5 -126t105.5 -45q56 0 93.5 29t50.5 81h100q-19 -88 -83.5 -138.5t-158.5 -50.5zM283 464
q-61 0 -100 -41.5t-47 -115.5h287q-4 73 -41 115t-99 42z" />
    <glyph glyph-name="edieresis" unicode="&#xeb;" horiz-adv-x="567" 
d="M451 653q0 -29 -19.5 -48t-49.5 -19q-31 0 -50.5 19t-19.5 48q0 30 19.5 48.5t50.5 18.5q30 0 49.5 -18.5t19.5 -48.5zM252 653q0 -29 -19.5 -48t-50.5 -19q-30 0 -49.5 19t-19.5 48q0 30 19.5 48.5t49.5 18.5q31 0 50.5 -18.5t19.5 -48.5zM288 -10q-115 0 -185.5 76.5
t-70.5 201.5q0 118 71.5 195t181.5 77q119 0 188.5 -85.5t56.5 -214.5h-395q6 -81 45.5 -126t105.5 -45q56 0 93.5 29t50.5 81h100q-19 -88 -83.5 -138.5t-158.5 -50.5zM283 464q-61 0 -100 -41.5t-47 -115.5h287q-4 73 -41 115t-99 42z" />
    <glyph glyph-name="igrave" unicode="&#xec;" horiz-adv-x="241" 
d="M172 583h-109l-101 142h119zM171 0h-101v530h101v-530z" />
    <glyph glyph-name="iacute" unicode="&#xed;" horiz-adv-x="241" 
d="M176 583h-109l91 142h118zM171 0h-101v530h101v-530z" />
    <glyph glyph-name="icircumflex" unicode="&#xee;" horiz-adv-x="241" 
d="M49 583h-113l122 142h124l121 -142h-113l-70 85zM171 0h-101v530h101v-530z" />
    <glyph glyph-name="idieresis" unicode="&#xef;" horiz-adv-x="241" 
d="M280 653q0 -29 -19 -48t-48 -19q-30 0 -49 19t-19 48q0 30 19 48.5t49 18.5q29 0 48 -18.5t19 -48.5zM95 653q0 -29 -19 -48t-49 -19q-29 0 -48 19t-19 48q0 30 19 48.5t48 18.5q30 0 49 -18.5t19 -48.5zM171 0h-101v530h101v-530z" />
    <glyph glyph-name="eth" unicode="&#xf0;" horiz-adv-x="580" 
d="M32 262q0 117 66 191.5t175 74.5q39 0 72 -21l-72 92l-130 -46v70l86 32l-48 63h114l29 -37l135 46l1 -69l-93 -34l92 -118q49 -63 68.5 -118t19.5 -131q0 -112 -72 -189.5t-185 -77.5q-112 0 -185 78t-73 194zM136 263q0 -84 43 -133.5t111 -49.5q67 0 109.5 48
t42.5 130q0 88 -42.5 139t-109.5 51q-69 0 -111.5 -49t-42.5 -136z" />
    <glyph glyph-name="ntilde" unicode="&#xf1;" horiz-adv-x="578" 
d="M182 580h-65q-8 64 19 103.5t77 39.5q36 0 82 -31t62 -31q40 0 39 69h65q8 -64 -19.5 -103.5t-76.5 -39.5q-36 0 -82 31t-62 31q-40 0 -39 -69zM171 299v-299h-101v530h94v-88q60 98 169 98q83 0 132 -51.5t49 -145.5v-343h-101v309q0 69 -29.5 105.5t-85.5 36.5
q-53 0 -90 -41.5t-37 -110.5z" />
    <glyph glyph-name="ograve" unicode="&#xf2;" horiz-adv-x="585" 
d="M345 583h-109l-111 142h119zM292 -10q-112 0 -186 78.5t-74 196.5t74 196.5t186 78.5t186 -78.5t74 -196.5t-74 -196.5t-186 -78.5zM292 79q67 0 111.5 50.5t44.5 135.5t-44.5 135t-111.5 50t-111 -50t-44 -135t44 -135.5t111 -50.5z" />
    <glyph glyph-name="oacute" unicode="&#xf3;" horiz-adv-x="585" 
d="M349 583h-109l100 142h119zM292 -10q-112 0 -186 78.5t-74 196.5t74 196.5t186 78.5t186 -78.5t74 -196.5t-74 -196.5t-186 -78.5zM292 79q67 0 111.5 50.5t44.5 135.5t-44.5 135t-111.5 50t-111 -50t-44 -135t44 -135.5t111 -50.5z" />
    <glyph glyph-name="ocircumflex" unicode="&#xf4;" horiz-adv-x="585" 
d="M211 583h-114l135 142h121l135 -142h-113l-83 85zM292 -10q-112 0 -186 78.5t-74 196.5t74 196.5t186 78.5t186 -78.5t74 -196.5t-74 -196.5t-186 -78.5zM292 79q67 0 111.5 50.5t44.5 135.5t-44.5 135t-111.5 50t-111 -50t-44 -135t44 -135.5t111 -50.5z" />
    <glyph glyph-name="otilde" unicode="&#xf5;" horiz-adv-x="585" 
d="M183 580h-64q-8 64 19 103.5t76 39.5q36 0 82 -31t62 -31q41 0 40 69h65q7 -64 -20 -103.5t-77 -39.5q-36 0 -81.5 31t-61.5 31q-41 0 -40 -69zM292 -10q-112 0 -186 78.5t-74 196.5t74 196.5t186 78.5t186 -78.5t74 -196.5t-74 -196.5t-186 -78.5zM292 79
q67 0 111.5 50.5t44.5 135.5t-44.5 135t-111.5 50t-111 -50t-44 -135t44 -135.5t111 -50.5z" />
    <glyph glyph-name="odieresis" unicode="&#xf6;" horiz-adv-x="585" 
d="M461 653q0 -29 -19.5 -48t-49.5 -19q-31 0 -50.5 19t-19.5 48q0 30 19.5 48.5t50.5 18.5q30 0 49.5 -18.5t19.5 -48.5zM263 653q0 -29 -19.5 -48t-50.5 -19q-30 0 -50 19t-20 48q0 30 20 48.5t50 18.5q31 0 50.5 -18.5t19.5 -48.5zM292 -10q-112 0 -186 78.5t-74 196.5
t74 196.5t186 78.5t186 -78.5t74 -196.5t-74 -196.5t-186 -78.5zM292 79q67 0 111.5 50.5t44.5 135.5t-44.5 135t-111.5 50t-111 -50t-44 -135t44 -135.5t111 -50.5z" />
    <glyph glyph-name="divide" unicode="&#xf7;" horiz-adv-x="660" 
d="M407 523q0 -34 -21.5 -56t-55.5 -22t-55.5 22t-21.5 56t21.5 56t55.5 22t55.5 -22t21.5 -56zM580 295h-500v87h500v-87zM407 157q0 -34 -21.5 -56t-55.5 -22t-55.5 22t-21.5 56t21.5 56t55.5 22t55.5 -22t21.5 -56z" />
    <glyph glyph-name="oslash" unicode="&#xf8;" horiz-adv-x="585" 
d="M128 0h-81l56 72q-71 77 -71 193q0 118 74 196.5t186 78.5q78 0 141 -41l24 31h81l-56 -73q70 -76 70 -192q0 -118 -74 -196.5t-186 -78.5q-78 0 -140 40zM137 265q0 -66 28 -113l211 273q-38 25 -84 25q-67 0 -111 -50t-44 -135zM292 79q67 0 111.5 50.5t44.5 135.5
q0 67 -28 112l-211 -273q37 -25 83 -25z" />
    <glyph glyph-name="ugrave" unicode="&#xf9;" horiz-adv-x="572" 
d="M338 583h-109l-111 142h120zM401 218v312h101v-530h-94v84q-21 -42 -65 -68t-97 -26q-83 0 -132 50t-49 149v341h101v-321q0 -66 30 -98t82 -32t87.5 39t35.5 100z" />
    <glyph glyph-name="uacute" unicode="&#xfa;" horiz-adv-x="572" 
d="M342 583h-109l101 142h119zM401 218v312h101v-530h-94v84q-21 -42 -65 -68t-97 -26q-83 0 -132 50t-49 149v341h101v-321q0 -66 30 -98t82 -32t87.5 39t35.5 100z" />
    <glyph glyph-name="ucircumflex" unicode="&#xfb;" horiz-adv-x="572" 
d="M204 583h-113l135 142h120l135 -142h-113l-82 85zM401 218v312h101v-530h-94v84q-21 -42 -65 -68t-97 -26q-83 0 -132 50t-49 149v341h101v-321q0 -66 30 -98t82 -32t87.5 39t35.5 100z" />
    <glyph glyph-name="udieresis" unicode="&#xfc;" horiz-adv-x="572" 
d="M455 653q0 -28 -20 -47.5t-49 -19.5q-31 0 -51 19t-20 48q0 30 20 48.5t51 18.5q30 0 49.5 -18.5t19.5 -48.5zM256 653q0 -29 -19.5 -48t-50.5 -19q-30 0 -49.5 19t-19.5 48q0 30 19.5 48.5t49.5 18.5q31 0 50.5 -18.5t19.5 -48.5zM401 218v312h101v-530h-94v84
q-21 -42 -65 -68t-97 -26q-83 0 -132 50t-49 149v341h101v-321q0 -66 30 -98t82 -32t87.5 39t35.5 100z" />
    <glyph glyph-name="yacute" unicode="&#xfd;" horiz-adv-x="512" 
d="M313 583h-109l101 142h119zM510 530l-265 -723h-110l76 200l-209 523h109l154 -404l143 404h102z" />
    <glyph glyph-name="thorn" unicode="&#xfe;" horiz-adv-x="608" 
d="M576 265q0 -121 -64.5 -198t-169.5 -77q-112 0 -171 100v-283h-101v911h101v-278q58 100 171 100q105 0 169.5 -77t64.5 -198zM471 265q0 87 -41.5 136.5t-108.5 49.5q-65 0 -107.5 -49.5t-42.5 -136.5q0 -86 42 -135.5t108 -49.5q67 0 108.5 49t41.5 136z" />
    <glyph glyph-name="ydieresis" unicode="&#xff;" horiz-adv-x="512" 
d="M425 653q0 -29 -19.5 -48t-48.5 -19q-31 0 -51 19t-20 48q0 30 19.5 48.5t51.5 18.5q30 0 49 -18.5t19 -48.5zM227 653q0 -29 -19.5 -48t-50.5 -19q-30 0 -50 19t-20 48q0 30 20 48.5t50 18.5q31 0 50.5 -18.5t19.5 -48.5zM510 530l-265 -723h-110l76 200l-209 523h109
l154 -404l143 404h102z" />
    <glyph glyph-name="Amacron" unicode="&#x100;" horiz-adv-x="710" 
d="M507 784h-303v68h303v-68zM572 0l-65 178h-310l-66 -178h-111l275 718h121l273 -718h-117zM353 598l-123 -331h244z" />
    <glyph glyph-name="amacron" unicode="&#x101;" horiz-adv-x="540" 
d="M421 596h-303v68h303v-68zM391 0v82q-51 -92 -170 -92q-83 0 -132.5 43.5t-49.5 116.5q0 158 241 158q47 0 99 -6v39q0 57 -29 88t-82 31q-55 0 -87.5 -31t-34.5 -87h-92q4 89 62.5 143.5t151.5 54.5q98 0 152.5 -52.5t54.5 -147.5v-340h-84zM135 153q0 -41 28.5 -66
t77.5 -25q63 0 100.5 36.5t37.5 97.5v43q-47 6 -93 6q-151 0 -151 -92z" />
    <glyph glyph-name="Abreve" unicode="&#x102;" horiz-adv-x="710" 
d="M438 913h76q0 -66 -43.5 -106.5t-115.5 -40.5q-73 0 -115.5 40.5t-42.5 106.5h75q0 -36 22.5 -58t60.5 -22q39 0 61 22t22 58zM572 0l-65 178h-310l-66 -178h-111l275 718h121l273 -718h-117zM353 598l-123 -331h244z" />
    <glyph glyph-name="abreve" unicode="&#x103;" horiz-adv-x="540" 
d="M353 725h75q0 -65 -43.5 -105.5t-115.5 -40.5t-115 40.5t-43 105.5h75q0 -36 22.5 -58t60.5 -22q39 0 61.5 22t22.5 58zM391 0v82q-51 -92 -170 -92q-83 0 -132.5 43.5t-49.5 116.5q0 158 241 158q47 0 99 -6v39q0 57 -29 88t-82 31q-55 0 -87.5 -31t-34.5 -87h-92
q4 89 62.5 143.5t151.5 54.5q98 0 152.5 -52.5t54.5 -147.5v-340h-84zM135 153q0 -41 28.5 -66t77.5 -25q63 0 100.5 36.5t37.5 97.5v43q-47 6 -93 6q-151 0 -151 -92z" />
    <glyph glyph-name="Aogonek" unicode="&#x104;" horiz-adv-x="710" 
d="M659 -118v-70q-30 -10 -61 -10q-47 0 -77 25.5t-30 70.5q0 59 74 121l-58 159h-310l-66 -178h-111l275 718h121l273 -718h-77q-40 -35 -40 -75q0 -24 13.5 -37.5t36.5 -13.5q18 0 37 8zM353 598l-123 -331h244z" />
    <glyph glyph-name="aogonek" unicode="&#x105;" horiz-adv-x="540" 
d="M478 -118v-70q-30 -10 -60 -10q-47 0 -77 25.5t-30 70.5q0 61 80 126v58q-51 -92 -170 -92q-83 0 -132.5 43.5t-49.5 116.5q0 158 241 158q47 0 99 -6v39q0 57 -29 88t-82 31q-55 0 -87.5 -31t-34.5 -87h-92q4 89 62.5 143.5t151.5 54.5q98 0 152.5 -52.5t54.5 -147.5
v-340h-44q-39 -34 -39 -75q0 -24 13 -37.5t36 -13.5q18 0 37 8zM135 153q0 -41 28.5 -66t77.5 -25q63 0 100.5 36.5t37.5 97.5v43q-47 6 -93 6q-151 0 -151 -92z" />
    <glyph glyph-name="Cacute" unicode="&#x106;" horiz-adv-x="778" 
d="M449 770h-108l100 143h119zM391 -15q-150 0 -252.5 108t-102.5 267q0 158 102.5 265.5t252.5 107.5q135 0 233 -82.5t118 -214.5h-117q-15 87 -79.5 142.5t-153.5 55.5q-106 0 -174 -77t-68 -197q0 -121 68 -198.5t174 -77.5q89 0 153.5 55.5t79.5 143.5h117
q-20 -133 -118 -215.5t-233 -82.5z" />
    <glyph glyph-name="cacute" unicode="&#x107;" horiz-adv-x="556" 
d="M336 583h-109l101 142h119zM279 -11q-109 0 -178 77t-69 199q0 120 70 197.5t177 77.5q98 0 164.5 -61t80.5 -164h-106q-8 63 -45 99.5t-93 36.5q-65 0 -104.5 -51t-39.5 -135q0 -85 39.5 -135.5t104.5 -50.5q56 0 93 36t46 100h105q-13 -105 -79 -165.5t-166 -60.5z" />
    <glyph glyph-name="Ccaron" unicode="&#x10c;" horiz-adv-x="778" 
d="M454 770h-121l-135 143h114l81 -85l82 85h113zM391 -15q-150 0 -252.5 108t-102.5 267q0 158 102.5 265.5t252.5 107.5q135 0 233 -82.5t118 -214.5h-117q-15 87 -79.5 142.5t-153.5 55.5q-106 0 -174 -77t-68 -197q0 -121 68 -198.5t174 -77.5q89 0 153.5 55.5
t79.5 143.5h117q-20 -133 -118 -215.5t-233 -82.5z" />
    <glyph glyph-name="ccaron" unicode="&#x10d;" horiz-adv-x="556" 
d="M340 583h-120l-135 142h113l82 -85l82 85h113zM279 -11q-109 0 -178 77t-69 199q0 120 70 197.5t177 77.5q98 0 164.5 -61t80.5 -164h-106q-8 63 -45 99.5t-93 36.5q-65 0 -104.5 -51t-39.5 -135q0 -85 39.5 -135.5t104.5 -50.5q56 0 93 36t46 100h105
q-13 -105 -79 -165.5t-166 -60.5z" />
    <glyph glyph-name="Dcaron" unicode="&#x10e;" horiz-adv-x="703" 
d="M401 770h-121l-135 143h114l81 -85l83 85h113zM305 0h-227v718h227q169 0 265 -98t96 -258q0 -158 -98 -260t-263 -102zM188 623v-528h112q122 0 188 71t66 196q0 123 -65.5 192t-188.5 69h-112z" />
    <glyph glyph-name="dcaron" unicode="&#x10f;" horiz-adv-x="608" 
d="M32 265q0 122 64.5 198.5t170.5 76.5q54 0 98 -26t72 -75v279h101v-718h-94v95q-60 -105 -177 -105q-106 0 -170.5 77t-64.5 198zM649 568h-67v150h87zM137 265q0 -87 41.5 -136t108.5 -49q66 0 108 50.5t42 136.5t-42.5 135t-107.5 49q-68 0 -109 -49t-41 -137z" />
    <glyph glyph-name="Dcroat" unicode="&#x110;" horiz-adv-x="739" 
d="M341 0h-227v325h-108v90h108v303h227q169 0 265.5 -98t96.5 -258q0 -158 -98.5 -260t-263.5 -102zM375 325h-151v-230h112q122 0 188 71t66 196q0 123 -65.5 192t-188.5 69h-112v-208h151v-90z" />
    <glyph glyph-name="dcroat" unicode="&#x111;" horiz-adv-x="608" 
d="M32 265q0 122 64.5 198.5t170.5 76.5q54 0 98 -26t72 -75v156h-135v68h135v55h101v-55h88v-68h-88v-595h-94v95q-60 -105 -177 -105q-106 0 -170.5 77t-64.5 198zM137 265q0 -87 41.5 -136t108.5 -49q66 0 108 50.5t42 136.5t-42.5 135t-107.5 49q-68 0 -109 -49
t-41 -137z" />
    <glyph glyph-name="Emacron" unicode="&#x112;" horiz-adv-x="584" 
d="M457 784h-303v68h303v-68zM533 96v-96h-455v718h448v-96h-338v-204h308v-96h-308v-226h345z" />
    <glyph glyph-name="emacron" unicode="&#x113;" horiz-adv-x="567" 
d="M433 596h-303v68h303v-68zM288 -10q-115 0 -185.5 76.5t-70.5 201.5q0 118 71.5 195t181.5 77q119 0 188.5 -85.5t56.5 -214.5h-395q6 -81 45.5 -126t105.5 -45q56 0 93.5 29t50.5 81h100q-19 -88 -83.5 -138.5t-158.5 -50.5zM283 464q-61 0 -100 -41.5t-47 -115.5h287
q-4 73 -41 115t-99 42z" />
    <glyph glyph-name="Edotaccent" unicode="&#x116;" horiz-adv-x="584" 
d="M379 841q0 -29 -20.5 -48t-52.5 -19t-53 19t-21 48t21 47.5t53 18.5t52.5 -18.5t20.5 -47.5zM533 96v-96h-455v718h448v-96h-338v-204h308v-96h-308v-226h345z" />
    <glyph glyph-name="edotaccent" unicode="&#x117;" horiz-adv-x="567" 
d="M355 653q0 -29 -20.5 -48t-52.5 -19t-52.5 19t-20.5 48t20.5 48t52.5 19t52.5 -19t20.5 -48zM288 -10q-115 0 -185.5 76.5t-70.5 201.5q0 118 71.5 195t181.5 77q119 0 188.5 -85.5t56.5 -214.5h-395q6 -81 45.5 -126t105.5 -45q56 0 93.5 29t50.5 81h100
q-19 -88 -83.5 -138.5t-158.5 -50.5zM283 464q-61 0 -100 -41.5t-47 -115.5h287q-4 73 -41 115t-99 42z" />
    <glyph glyph-name="Eogonek" unicode="&#x118;" horiz-adv-x="584" 
d="M496 -118v-70q-30 -10 -60 -10q-47 0 -77 25.5t-30 70.5q0 52 53 102h-304v718h448v-96h-338v-204h308v-96h-308v-226h345v-96h-84q-39 -34 -39 -75q0 -24 13 -37.5t36 -13.5q20 0 37 8z" />
    <glyph glyph-name="eogonek" unicode="&#x119;" horiz-adv-x="567" 
d="M288 -10q-115 0 -185.5 76.5t-70.5 201.5q0 118 71.5 195t181.5 77q119 0 188.5 -85.5t56.5 -214.5h-395q6 -81 45.5 -126t105.5 -45q56 0 93.5 29t50.5 81h100q-28 -123 -133 -168q-54 -40 -54 -86q0 -24 13 -37.5t36 -13.5q20 0 37 8v-70q-30 -10 -60 -10
q-47 0 -77 25.5t-30 70.5q0 46 43 92h-17zM283 464q-61 0 -100 -41.5t-47 -115.5h287q-4 73 -41 115t-99 42z" />
    <glyph glyph-name="Ecaron" unicode="&#x11a;" horiz-adv-x="584" 
d="M366 770h-120l-135 143h113l82 -85l82 85h113zM533 96v-96h-455v718h448v-96h-338v-204h308v-96h-308v-226h345z" />
    <glyph glyph-name="ecaron" unicode="&#x11b;" horiz-adv-x="567" 
d="M342 583h-120l-135 142h113l82 -85l82 85h113zM288 -10q-115 0 -185.5 76.5t-70.5 201.5q0 118 71.5 195t181.5 77q119 0 188.5 -85.5t56.5 -214.5h-395q6 -81 45.5 -126t105.5 -45q56 0 93.5 29t50.5 81h100q-19 -88 -83.5 -138.5t-158.5 -50.5zM283 464
q-61 0 -100 -41.5t-47 -115.5h287q-4 73 -41 115t-99 42z" />
    <glyph glyph-name="Gbreve" unicode="&#x11e;" horiz-adv-x="797" 
d="M480 913h75q0 -66 -43 -106.5t-115 -40.5q-73 0 -116 40.5t-43 106.5h75q0 -36 22.5 -58t61.5 -22t61 22t22 58zM403 -15q-156 0 -261.5 106.5t-105.5 268.5q0 160 102.5 266.5t258.5 106.5q134 0 227 -72.5t127 -189.5h-128q-21 73 -80.5 118t-148.5 45
q-108 0 -176 -75.5t-68 -200.5q0 -122 69.5 -200.5t187.5 -78.5q98 0 160 55.5t77 149.5h-248v88h364q3 -173 -95 -280t-262 -107z" />
    <glyph glyph-name="gbreve" unicode="&#x11f;" horiz-adv-x="591" 
d="M365 725h76q0 -65 -43.5 -105.5t-115.5 -40.5t-115 40.5t-43 105.5h75q0 -36 22.5 -58t60.5 -22q39 0 61 22t22 58zM282 -204q-104 0 -167.5 52t-67.5 142h98q4 -55 39 -84.5t97 -29.5q68 0 103.5 36t35.5 104v96q-22 -48 -65 -74.5t-97 -26.5q-99 0 -162.5 74t-63.5 191
q0 118 61.5 191t161.5 73q116 0 172 -104v94h94v-512q0 -104 -63.5 -163t-175.5 -59zM134 276q0 -82 38 -129.5t104 -47.5q65 0 104.5 47.5t39.5 126.5q0 82 -39.5 131t-104.5 49t-103.5 -47.5t-38.5 -129.5z" />
    <glyph glyph-name="Gcommaaccent" unicode="&#x122;" horiz-adv-x="797" 
d="M403 -15q-156 0 -261.5 106.5t-105.5 268.5q0 160 102.5 266.5t258.5 106.5q134 0 227 -72.5t127 -189.5h-128q-21 73 -80.5 118t-148.5 45q-108 0 -176 -75.5t-68 -200.5q0 -122 69.5 -200.5t187.5 -78.5q98 0 160 55.5t77 149.5h-248v88h364q3 -173 -95 -280t-262 -107
zM464 -115q0 -47 -41.5 -78t-101.5 -25v41q75 -3 83 41q-29 -9 -50.5 3.5t-21.5 36.5q0 23 17 36t44 13q31 0 51 -19t20 -49z" />
    <glyph glyph-name="gcommaaccent" unicode="&#x123;" horiz-adv-x="591" 
d="M215 645q0 47 41 78t102 26v-42q-75 5 -83 -41q9 4 21 4q22 0 36.5 -12.5t14.5 -31.5q0 -22 -17 -35.5t-44 -13.5q-31 0 -51 19.5t-20 48.5zM282 -204q-104 0 -167.5 52t-67.5 142h98q4 -55 39 -84.5t97 -29.5q68 0 103.5 36t35.5 104v96q-22 -48 -65 -74.5t-97 -26.5
q-99 0 -162.5 74t-63.5 191q0 118 61.5 191t161.5 73q116 0 172 -104v94h94v-512q0 -104 -63.5 -163t-175.5 -59zM134 276q0 -82 38 -129.5t104 -47.5q65 0 104.5 47.5t39.5 126.5q0 82 -39.5 131t-104.5 49t-103.5 -47.5t-38.5 -129.5z" />
    <glyph glyph-name="Imacron" unicode="&#x12a;" horiz-adv-x="266" 
d="M285 784h-303v68h303v-68zM188 0h-110v718h110v-718z" />
    <glyph glyph-name="imacron" unicode="&#x12b;" horiz-adv-x="241" 
d="M271 596h-303v68h303v-68zM171 0h-101v530h101v-530z" />
    <glyph glyph-name="Iogonek" unicode="&#x12e;" horiz-adv-x="266" 
d="M188 0h-70q-40 -35 -40 -75q0 -24 13.5 -37.5t36.5 -13.5q18 0 37 8v-70q-30 -10 -61 -10q-47 0 -77 25.5t-30 70.5q0 60 81 127v693h110v-718z" />
    <glyph glyph-name="iogonek" unicode="&#x12f;" horiz-adv-x="241" 
d="M193 653q0 -29 -20.5 -48t-52.5 -19t-53 19t-21 48t21 48t53 19t52.5 -19t20.5 -48zM171 0h-61q-40 -35 -40 -75q0 -24 13.5 -37.5t36.5 -13.5q18 0 37 8v-70q-30 -10 -60 -10q-47 0 -77.5 25.5t-30.5 70.5q0 60 81 127v505h101v-530z" />
    <glyph glyph-name="Idotaccent" unicode="&#x130;" horiz-adv-x="266" 
d="M207 841q0 -29 -21 -48t-53 -19t-52.5 19t-20.5 48t20.5 47.5t52.5 18.5t53 -18.5t21 -47.5zM188 0h-110v718h110v-718z" />
    <glyph glyph-name="dotlessi" unicode="&#x131;" horiz-adv-x="241" 
d="M171 0h-101v530h101v-530z" />
    <glyph glyph-name="Kcommaaccent" unicode="&#x136;" horiz-adv-x="646" 
d="M188 0h-110v718h110v-332l304 332h127l-320 -352l328 -366h-138l-301 333v-333zM402 -115q0 -47 -41.5 -78t-101.5 -25v41q75 -3 83 41q-29 -9 -50.5 3.5t-21.5 36.5q0 23 17 36t44 13q31 0 51 -19t20 -49z" />
    <glyph glyph-name="kcommaaccent" unicode="&#x137;" horiz-adv-x="541" 
d="M171 0h-101v718h101v-425l227 237h119l-245 -257l268 -273h-130l-239 251v-251zM353 -115q0 -47 -41 -78t-101 -25v41q74 -3 83 41q-29 -9 -50.5 3.5t-21.5 36.5q0 23 16.5 36t44.5 13q31 0 50.5 -19t19.5 -49z" />
    <glyph glyph-name="Lacute" unicode="&#x139;" horiz-adv-x="543" 
d="M191 770h-109l100 143h119zM513 0h-435v718h110v-619h325v-99z" />
    <glyph glyph-name="lacute" unicode="&#x13a;" horiz-adv-x="242" 
d="M177 770h-108l100 143h119zM172 0h-102v718h102v-718z" />
    <glyph glyph-name="Lcommaaccent" unicode="&#x13b;" horiz-adv-x="543" 
d="M513 0h-435v718h110v-619h325v-99zM366 -115q0 -47 -41.5 -78t-101.5 -25v41q75 -3 83 41q-28 -9 -50 3.5t-22 36.5q0 23 17 36t44 13q31 0 51 -19t20 -49z" />
    <glyph glyph-name="lcommaaccent" unicode="&#x13c;" horiz-adv-x="242" 
d="M172 0h-102v718h102v-718zM188 -115q0 -47 -41 -78t-101 -25v41q74 -3 83 41q-29 -9 -50.5 3.5t-21.5 36.5q0 23 16.5 36t44.5 13q31 0 50.5 -19t19.5 -49z" />
    <glyph glyph-name="Lcaron" unicode="&#x13d;" horiz-adv-x="543" 
d="M513 0h-435v718h110v-619h325v-99zM345 568h-67v150h87z" />
    <glyph glyph-name="lcaron" unicode="&#x13e;" horiz-adv-x="242" 
d="M172 0h-102v718h102v-718zM283 568h-67v150h87z" />
    <glyph glyph-name="Lslash" unicode="&#x141;" horiz-adv-x="543" 
d="M513 0h-435v298l-99 -26v88l99 26v332h110v-304l204 53v-88l-204 -53v-227h325v-99z" />
    <glyph glyph-name="lslash" unicode="&#x142;" horiz-adv-x="242" 
d="M172 0h-102v307l-106 -27v84l106 27v327h102v-302l106 27v-84l-106 -27v-332z" />
    <glyph glyph-name="Nacute" unicode="&#x143;" horiz-adv-x="746" 
d="M429 770h-108l100 143h119zM558 0l-378 561v-561h-102v718h120l369 -546v546h102v-718h-111z" />
    <glyph glyph-name="nacute" unicode="&#x144;" horiz-adv-x="578" 
d="M347 583h-109l101 142h119zM171 299v-299h-101v530h94v-88q60 98 169 98q83 0 132 -51.5t49 -145.5v-343h-101v309q0 69 -29.5 105.5t-85.5 36.5q-53 0 -90 -41.5t-37 -110.5z" />
    <glyph glyph-name="Ncommaaccent" unicode="&#x145;" horiz-adv-x="746" 
d="M558 0l-378 561v-561h-102v718h120l369 -546v546h102v-718h-111zM440 -115q0 -47 -41 -78t-101 -25v41q74 -3 83 41q-29 -9 -50.5 3.5t-21.5 36.5q0 23 17 36t44 13q31 0 50.5 -19t19.5 -49z" />
    <glyph glyph-name="ncommaaccent" unicode="&#x146;" horiz-adv-x="578" 
d="M171 299v-299h-101v530h94v-88q60 98 169 98q83 0 132 -51.5t49 -145.5v-343h-101v309q0 69 -29.5 105.5t-85.5 36.5q-53 0 -90 -41.5t-37 -110.5zM358 -115q0 -47 -41.5 -78t-101.5 -25v41q75 -3 83 41q-28 -9 -50 3.5t-22 36.5q0 23 17 36t44 13q31 0 51 -19t20 -49z
" />
    <glyph glyph-name="Ncaron" unicode="&#x147;" horiz-adv-x="746" 
d="M434 770h-121l-135 143h114l81 -85l83 85h113zM558 0l-378 561v-561h-102v718h120l369 -546v546h102v-718h-111z" />
    <glyph glyph-name="ncaron" unicode="&#x148;" horiz-adv-x="578" 
d="M351 583h-120l-135 142h113l82 -85l82 85h113zM171 299v-299h-101v530h94v-88q60 98 169 98q83 0 132 -51.5t49 -145.5v-343h-101v309q0 69 -29.5 105.5t-85.5 36.5q-53 0 -90 -41.5t-37 -110.5z" />
    <glyph glyph-name="Omacron" unicode="&#x14c;" horiz-adv-x="802" 
d="M553 784h-303v68h303v-68zM401 -15q-156 0 -260.5 108t-104.5 267t104.5 266t260.5 107t260.5 -107t104.5 -266t-104.5 -267t-260.5 -108zM401 84q112 0 181.5 79t69.5 197t-69.5 196t-181.5 78t-181.5 -78t-69.5 -196t69.5 -197t181.5 -79z" />
    <glyph glyph-name="omacron" unicode="&#x14d;" horiz-adv-x="585" 
d="M444 596h-303v68h303v-68zM292 -10q-112 0 -186 78.5t-74 196.5t74 196.5t186 78.5t186 -78.5t74 -196.5t-74 -196.5t-186 -78.5zM292 79q67 0 111.5 50.5t44.5 135.5t-44.5 135t-111.5 50t-111 -50t-44 -135t44 -135.5t111 -50.5z" />
    <glyph glyph-name="Ohungarumlaut" unicode="&#x150;" horiz-adv-x="802" 
d="M535 770h-103l105 143h109zM345 770h-103l100 143h108zM401 -15q-156 0 -260.5 108t-104.5 267t104.5 266t260.5 107t260.5 -107t104.5 -266t-104.5 -267t-260.5 -108zM401 84q112 0 181.5 79t69.5 197t-69.5 196t-181.5 78t-181.5 -78t-69.5 -196t69.5 -197t181.5 -79z
" />
    <glyph glyph-name="ohungarumlaut" unicode="&#x151;" horiz-adv-x="585" 
d="M426 583h-103l105 142h109zM236 583h-103l100 142h108zM292 -10q-112 0 -186 78.5t-74 196.5t74 196.5t186 78.5t186 -78.5t74 -196.5t-74 -196.5t-186 -78.5zM292 79q67 0 111.5 50.5t44.5 135.5t-44.5 135t-111.5 50t-111 -50t-44 -135t44 -135.5t111 -50.5z" />
    <glyph glyph-name="OE" unicode="&#x152;" horiz-adv-x="1083" 
d="M36 360q0 166 91 269.5t234 103.5q75 0 136.5 -34.5t93.5 -94.5v114h433v-95h-333v-205h304v-96h-304v-227h340v-95h-440v118q-37 -63 -96.5 -98t-133.5 -35q-143 0 -234 104.5t-91 270.5zM150 360q0 -124 58 -200t157 -76t157.5 76t58.5 200t-58 199t-158 75
q-99 0 -157 -75t-58 -199z" />
    <glyph glyph-name="oe" unicode="&#x153;" horiz-adv-x="951" 
d="M32 265q0 121 71.5 198t179.5 77q65 0 118 -32.5t83 -89.5q28 58 78.5 90t113.5 32q119 0 185 -82.5t55 -217.5h-382q2 -82 40 -126.5t106 -44.5q56 0 91 29.5t43 80.5h102q-20 -88 -82.5 -138.5t-152.5 -50.5q-140 0 -198 122q-30 -57 -82.5 -89.5t-117.5 -32.5
q-108 0 -179.5 77t-71.5 198zM676 464q-59 0 -97 -41t-42 -116h275q-3 76 -38.5 116.5t-97.5 40.5zM137 265q0 -86 41.5 -136t106.5 -50t107 50t42 136t-41.5 135.5t-107.5 49.5q-65 0 -106.5 -49.5t-41.5 -135.5z" />
    <glyph glyph-name="Racute" unicode="&#x154;" horiz-adv-x="659" 
d="M384 770h-109l101 143h119zM188 0h-110v718h268q124 0 194 -58.5t70 -165.5q0 -77 -46 -133t-128 -75l195 -286h-132l-179 270h-132v-270zM188 626v-264h151q77 0 118.5 33.5t41.5 98.5q0 64 -41.5 98t-118.5 34h-151z" />
    <glyph glyph-name="racute" unicode="&#x155;" horiz-adv-x="378" 
d="M286 583h-109l101 142h119zM171 271v-271h-101v530h94v-112q28 55 83.5 87t120.5 32v-105q-89 5 -143 -35.5t-54 -125.5z" />
    <glyph glyph-name="Rcommaaccent" unicode="&#x156;" horiz-adv-x="659" 
d="M188 0h-110v718h268q124 0 194 -58.5t70 -165.5q0 -77 -46 -133t-128 -75l195 -286h-132l-179 270h-132v-270zM188 626v-264h151q77 0 118.5 33.5t41.5 98.5q0 64 -41.5 98t-118.5 34h-151zM394 -115q0 -47 -41 -78t-101 -25v41q75 -3 83 41q-29 -9 -50.5 3.5t-21.5 36.5
q0 23 17 36t44 13q31 0 50.5 -19t19.5 -49z" />
    <glyph glyph-name="rcommaaccent" unicode="&#x157;" horiz-adv-x="378" 
d="M171 271v-271h-101v530h94v-112q28 55 83.5 87t120.5 32v-105q-89 5 -143 -35.5t-54 -125.5zM190 -115q0 -48 -41 -78.5t-102 -24.5v41q75 -3 84 41q-29 -9 -50.5 3.5t-21.5 36.5q0 23 16.5 36t44.5 13q31 0 50.5 -19t19.5 -49z" />
    <glyph glyph-name="Rcaron" unicode="&#x158;" horiz-adv-x="659" 
d="M388 770h-121l-134 143h113l81 -85l83 85h113zM188 0h-110v718h268q124 0 194 -58.5t70 -165.5q0 -77 -46 -133t-128 -75l195 -286h-132l-179 270h-132v-270zM188 626v-264h151q77 0 118.5 33.5t41.5 98.5q0 64 -41.5 98t-118.5 34h-151z" />
    <glyph glyph-name="rcaron" unicode="&#x159;" horiz-adv-x="378" 
d="M290 583h-121l-134 142h113l82 -85l82 85h113zM171 271v-271h-101v530h94v-112q28 55 83.5 87t120.5 32v-105q-89 5 -143 -35.5t-54 -125.5z" />
    <glyph glyph-name="Sacute" unicode="&#x15a;" horiz-adv-x="652" 
d="M375 770h-109l101 143h119zM603 210q0 -96 -73.5 -158t-200.5 -62q-128 0 -204 64.5t-83 173.5h112q4 -70 48 -110t125 -40q70 0 114.5 31.5t44.5 85.5q0 44 -29 69t-93 39l-104 20q-193 38 -193 193q0 91 72 151.5t183 60.5q113 0 188.5 -64t82.5 -170h-112
q-5 65 -48 105.5t-110 40.5t-105.5 -34t-38.5 -83q0 -47 33.5 -70.5t92.5 -35.5l106 -21q96 -19 144 -63.5t48 -122.5z" />
    <glyph glyph-name="sacute" unicode="&#x15b;" horiz-adv-x="530" 
d="M317 583h-108l100 143h119zM490 158q0 -78 -58.5 -123t-163.5 -45q-104 0 -164.5 48.5t-68.5 134.5h97q3 -49 40 -78t98 -29q55 0 86.5 19t31.5 56q0 32 -21.5 49t-71.5 27l-86 16q-153 30 -153 149q0 70 56 114t148 44q95 0 155 -47.5t67 -129.5h-97q-4 48 -37 74.5
t-87 26.5q-49 0 -78 -19.5t-29 -53.5q0 -32 21 -49t70 -26l90 -17q155 -28 155 -141z" />
    <glyph glyph-name="Scedilla" unicode="&#x15e;" horiz-adv-x="652" 
d="M434 -116q0 -36 -31.5 -59t-79.5 -23q-50 0 -82 23.5t-37 66.5h65q8 -40 50 -40q19 0 30.5 10.5t11.5 26.5q0 27 -22.5 38.5t-59.5 7.5l16 56q-114 9 -180.5 72.5t-72.5 164.5h112q4 -70 48 -110t125 -40q70 0 114.5 31.5t44.5 85.5q0 44 -29 69t-93 39l-104 20
q-193 38 -193 193q0 91 72 151.5t183 60.5q113 0 188.5 -64t82.5 -170h-112q-5 65 -48 105.5t-110 40.5t-105.5 -34t-38.5 -83q0 -47 33.5 -70.5t92.5 -35.5l106 -21q96 -19 144 -63.5t48 -122.5q0 -92 -68 -153.5t-187 -66.5l-8 -25q42 -4 68 -26t26 -55z" />
    <glyph glyph-name="scedilla" unicode="&#x15f;" horiz-adv-x="530" 
d="M379 -116q0 -36 -31.5 -59t-79.5 -23q-49 0 -81 23.5t-38 66.5h66q6 -40 50 -40q19 0 30.5 10.5t11.5 26.5q0 27 -23 38.5t-60 7.5l16 56q-92 6 -145 54t-60 128h97q3 -49 40 -78t98 -29q55 0 86.5 19t31.5 56q0 32 -21.5 49t-71.5 27l-86 16q-153 30 -153 149
q0 70 56 114t148 44q95 0 155 -47.5t67 -129.5h-97q-4 48 -37 74.5t-87 26.5q-49 0 -78 -19.5t-29 -53.5q0 -32 21 -49t70 -26l90 -17q155 -28 155 -141q0 -73 -51.5 -117.5t-144.5 -49.5l-8 -26q42 -4 67.5 -26t25.5 -55z" />
    <glyph glyph-name="Scaron" unicode="&#x160;" horiz-adv-x="652" 
d="M379 770h-120l-135 143h113l82 -85l82 85h113zM603 210q0 -96 -73.5 -158t-200.5 -62q-128 0 -204 64.5t-83 173.5h112q4 -70 48 -110t125 -40q70 0 114.5 31.5t44.5 85.5q0 44 -29 69t-93 39l-104 20q-193 38 -193 193q0 91 72 151.5t183 60.5q113 0 188.5 -64
t82.5 -170h-112q-5 65 -48 105.5t-110 40.5t-105.5 -34t-38.5 -83q0 -47 33.5 -70.5t92.5 -35.5l106 -21q96 -19 144 -63.5t48 -122.5z" />
    <glyph glyph-name="scaron" unicode="&#x161;" horiz-adv-x="530" 
d="M322 583h-121l-135 143h114l81 -85l83 85h113zM490 158q0 -78 -58.5 -123t-163.5 -45q-104 0 -164.5 48.5t-68.5 134.5h97q3 -49 40 -78t98 -29q55 0 86.5 19t31.5 56q0 32 -21.5 49t-71.5 27l-86 16q-153 30 -153 149q0 70 56 114t148 44q95 0 155 -47.5t67 -129.5h-97
q-4 48 -37 74.5t-87 26.5q-49 0 -78 -19.5t-29 -53.5q0 -32 21 -49t70 -26l90 -17q155 -28 155 -141z" />
    <glyph glyph-name="Tcedilla" unicode="&#x162;" horiz-adv-x="616" 
d="M363 0h-32l-11 -35q42 -4 67.5 -26t25.5 -55q0 -36 -31.5 -59t-79.5 -23q-50 0 -82 23.5t-37 66.5h66q6 -40 50 -40q18 0 30 11t12 26q0 27 -23 38.5t-60 7.5l18 65h-23v619h-234v99h578v-99h-234v-619z" />
    <glyph glyph-name="tcedilla" unicode="&#x163;" horiz-adv-x="400" 
d="M348 -116q0 -36 -31.5 -59t-79.5 -23q-50 0 -82 23.5t-38 66.5h66q8 -40 50 -40q19 0 30.5 10.5t11.5 26.5q0 27 -23 38.5t-60 7.5l19 65q-98 34 -98 160v284h-117v86h117v157h101v-157h160v-86h-160v-261q0 -99 89 -99q37 0 66 14v-89q-42 -19 -90 -19q-11 0 -17 1
l-8 -26q42 -4 68 -26t26 -55z" />
    <glyph glyph-name="Tcaron" unicode="&#x164;" horiz-adv-x="616" 
d="M368 770h-120l-135 143h113l82 -85l82 85h113zM363 0h-110v619h-234v99h578v-99h-234v-619z" />
    <glyph glyph-name="tcaron" unicode="&#x165;" horiz-adv-x="400" 
d="M325 568h-67v150h87zM369 98v-89q-42 -19 -90 -19q-77 0 -121.5 42.5t-44.5 127.5v284h-117v86h117v157h101v-157h160v-86h-160v-261q0 -99 89 -99q37 0 66 14z" />
    <glyph glyph-name="Umacron" unicode="&#x16a;" horiz-adv-x="706" 
d="M505 784h-303v68h303v-68zM631 718v-460q0 -124 -75 -198.5t-203 -74.5t-202.5 74t-74.5 199v460h110v-463q0 -79 44 -125t123 -46t123.5 46t44.5 125v463h110z" />
    <glyph glyph-name="umacron" unicode="&#x16b;" horiz-adv-x="572" 
d="M437 596h-303v68h303v-68zM401 218v312h101v-530h-94v84q-21 -42 -65 -68t-97 -26q-83 0 -132 50t-49 149v341h101v-321q0 -66 30 -98t82 -32t87.5 39t35.5 100z" />
    <glyph glyph-name="Uring" unicode="&#x16e;" horiz-adv-x="706" 
d="M353 766q-53 0 -88 33.5t-35 80.5t35 80.5t88 33.5t89 -33.5t36 -80.5t-36 -80.5t-89 -33.5zM353 820q27 0 44 15.5t17 44.5q0 28 -17 44t-44 16q-25 0 -42.5 -16t-17.5 -44q0 -29 17 -44.5t43 -15.5zM631 718v-460q0 -124 -75 -198.5t-203 -74.5t-202.5 74t-74.5 199
v460h110v-463q0 -79 44 -125t123 -46t123.5 46t44.5 125v463h110z" />
    <glyph glyph-name="uring" unicode="&#x16f;" horiz-adv-x="572" 
d="M286 578q-53 0 -88.5 33.5t-35.5 80.5q0 48 35.5 81.5t88.5 33.5t88.5 -33.5t35.5 -81.5q0 -47 -35.5 -80.5t-88.5 -33.5zM286 633q26 0 43 15t17 44t-17 44.5t-43 15.5t-43.5 -15.5t-17.5 -44.5q0 -28 17.5 -43.5t43.5 -15.5zM401 218v312h101v-530h-94v84
q-21 -42 -65 -68t-97 -26q-83 0 -132 50t-49 149v341h101v-321q0 -66 30 -98t82 -32t87.5 39t35.5 100z" />
    <glyph glyph-name="Uhungarumlaut" unicode="&#x170;" horiz-adv-x="706" 
d="M488 770h-104l105 143h109zM297 770h-103l100 143h108zM631 718v-460q0 -124 -75 -198.5t-203 -74.5t-202.5 74t-74.5 199v460h110v-463q0 -79 44 -125t123 -46t123.5 46t44.5 125v463h110z" />
    <glyph glyph-name="uhungarumlaut" unicode="&#x171;" horiz-adv-x="572" 
d="M420 583h-104l105 142h110zM229 583h-103l100 142h108zM401 218v312h101v-530h-94v84q-21 -42 -65 -68t-97 -26q-83 0 -132 50t-49 149v341h101v-321q0 -66 30 -98t82 -32t87.5 39t35.5 100z" />
    <glyph glyph-name="Uogonek" unicode="&#x172;" horiz-adv-x="706" 
d="M519 -118v-70q-30 -10 -61 -10q-47 0 -77 25.5t-30 70.5q0 46 40 89q-24 -2 -38 -2q-128 0 -202.5 74t-74.5 199v460h110v-463q0 -79 44 -125t123 -46t123.5 46t44.5 125v463h110v-460q0 -87 -37.5 -150.5t-105.5 -95.5q-56 -40 -56 -87q0 -24 13 -37.5t36 -13.5
q19 0 38 8z" />
    <glyph glyph-name="uogonek" unicode="&#x173;" horiz-adv-x="572" 
d="M401 218v312h101v-530h-53q-40 -35 -40 -75q0 -24 13 -37.5t36 -13.5q20 0 37 8v-70q-29 -10 -60 -10q-47 0 -77 25.5t-30 70.5q0 61 80 126v60q-21 -42 -65 -68t-97 -26q-83 0 -132 50t-49 149v341h101v-321q0 -66 30 -98t82 -32t87.5 39t35.5 100z" />
    <glyph glyph-name="Wcircumflex" unicode="&#x174;" horiz-adv-x="946" 
d="M392 770h-114l135 143h121l135 -143h-114l-82 86zM625 0l-152 563l-153 -563h-113l-187 718h108l138 -553l151 553h114l149 -554l138 554h108l-187 -718h-114z" />
    <glyph glyph-name="wcircumflex" unicode="&#x175;" horiz-adv-x="775" 
d="M306 583h-113l135 142h120l135 -142h-113l-82 85zM508 0l-120 394l-121 -394h-102l-153 530h99l107 -386l120 386h100l118 -387l107 387h100l-154 -530h-101z" />
    <glyph glyph-name="Ycircumflex" unicode="&#x176;" horiz-adv-x="644" 
d="M243 770h-113l135 143h120l135 -143h-113l-82 86zM377 269v-269h-111v269l-258 449h120l197 -346l199 346h112z" />
    <glyph glyph-name="ycircumflex" unicode="&#x177;" horiz-adv-x="512" 
d="M175 583h-113l134 142h121l135 -142h-113l-83 85zM510 530l-265 -723h-110l76 200l-209 523h109l154 -404l143 404h102z" />
    <glyph glyph-name="Ydieresis" unicode="&#x178;" horiz-adv-x="644" 
d="M494 841q0 -29 -19.5 -48t-49.5 -19q-31 0 -50.5 19t-19.5 48q0 30 19.5 48.5t50.5 18.5q30 0 49.5 -18.5t19.5 -48.5zM295 841q0 -29 -19.5 -48t-50.5 -19q-30 0 -49.5 19t-19.5 48q0 30 19.5 48.5t49.5 18.5q31 0 50.5 -18.5t19.5 -48.5zM377 269v-269h-111v269
l-258 449h120l197 -346l199 346h112z" />
    <glyph glyph-name="Zacute" unicode="&#x179;" horiz-adv-x="621" 
d="M368 770h-109l101 143h119zM584 0h-545v84l394 539h-386v95h523v-86l-395 -537h409v-95z" />
    <glyph glyph-name="zacute" unicode="&#x17a;" horiz-adv-x="501" 
d="M308 583h-108l100 142h119zM471 0h-437v79l301 364h-296v87h422v-81l-301 -361h311v-88z" />
    <glyph glyph-name="Zdotaccent" unicode="&#x17b;" horiz-adv-x="621" 
d="M385 841q0 -29 -20.5 -48t-52.5 -19q-33 0 -53.5 19t-20.5 48t20.5 47.5t53.5 18.5q32 0 52.5 -18.5t20.5 -47.5zM584 0h-545v84l394 539h-386v95h523v-86l-395 -537h409v-95z" />
    <glyph glyph-name="zdotaccent" unicode="&#x17c;" horiz-adv-x="501" 
d="M325 653q0 -29 -20.5 -48t-52.5 -19t-52.5 19t-20.5 48t20.5 48t52.5 19t52.5 -19t20.5 -48zM471 0h-437v79l301 364h-296v87h422v-81l-301 -361h311v-88z" />
    <glyph glyph-name="Zcaron" unicode="&#x17d;" horiz-adv-x="621" 
d="M372 770h-121l-134 143h113l82 -85l82 85h113zM584 0h-545v84l394 539h-386v95h523v-86l-395 -537h409v-95z" />
    <glyph glyph-name="zcaron" unicode="&#x17e;" horiz-adv-x="501" 
d="M313 583h-121l-135 142h114l81 -85l82 85h113zM471 0h-437v79l301 364h-296v87h422v-81l-301 -361h311v-88z" />
    <glyph glyph-name="florin" unicode="&#x192;" horiz-adv-x="554" 
d="M320 295l-48 -192q-20 -82 -65 -124t-127 -42q-27 0 -57 6v93q23 -6 43 -6q86 0 107 87l45 178h-165v87h185l35 142q39 162 180 162q41 0 70 -11v-81q-23 10 -49 10q-40 0 -64.5 -21.5t-36.5 -71.5l-33 -129h153v-87h-173z" />
    <glyph glyph-name="Scommaaccent" unicode="&#x218;" horiz-adv-x="652" 
d="M603 210q0 -96 -73.5 -158t-200.5 -62q-128 0 -204 64.5t-83 173.5h112q4 -70 48 -110t125 -40q70 0 114.5 31.5t44.5 85.5q0 44 -29 69t-93 39l-104 20q-193 38 -193 193q0 91 72 151.5t183 60.5q113 0 188.5 -64t82.5 -170h-112q-5 65 -48 105.5t-110 40.5t-105.5 -34
t-38.5 -83q0 -47 33.5 -70.5t92.5 -35.5l106 -21q96 -19 144 -63.5t48 -122.5zM395 -115q0 -47 -41 -78t-101 -25v41q75 -3 83 41q-29 -9 -50.5 3.5t-21.5 36.5q0 23 17 36t44 13q31 0 50.5 -19t19.5 -49z" />
    <glyph glyph-name="scommaaccent" unicode="&#x219;" horiz-adv-x="530" 
d="M490 158q0 -78 -58.5 -123t-163.5 -45q-104 0 -164.5 48.5t-68.5 134.5h97q3 -49 40 -78t98 -29q55 0 86.5 19t31.5 56q0 32 -21.5 49t-71.5 27l-86 16q-153 30 -153 149q0 70 56 114t148 44q95 0 155 -47.5t67 -129.5h-97q-4 48 -37 74.5t-87 26.5q-49 0 -78 -19.5
t-29 -53.5q0 -32 21 -49t70 -26l90 -17q155 -28 155 -141zM341 -115q0 -47 -41.5 -78t-101.5 -25v41q75 -3 83 41q-28 -9 -50 3.5t-22 36.5q0 23 17 36t44 13q31 0 51 -19t20 -49z" />
    <glyph glyph-name="Tcommaaccent" unicode="&#x21a;" horiz-adv-x="616" 
d="M363 0h-110v619h-234v99h578v-99h-234v-619zM375 -115q0 -47 -41.5 -78t-101.5 -25v41q75 -3 83 41q-29 -9 -50.5 3.5t-21.5 36.5q0 23 17 36t44 13q31 0 51 -19t20 -49z" />
    <glyph glyph-name="tcommaaccent" unicode="&#x21b;" horiz-adv-x="400" 
d="M369 98v-89q-42 -19 -90 -19q-77 0 -121.5 42.5t-44.5 127.5v284h-117v86h117v157h101v-157h160v-86h-160v-261q0 -99 89 -99q37 0 66 14zM309 -115q0 -48 -41 -78.5t-102 -24.5v41q75 -3 84 41q-29 -9 -50.5 3.5t-21.5 36.5q0 23 16.5 36t44.5 13q31 0 50.5 -19
t19.5 -49z" />
    <glyph glyph-name="dotlessj" unicode="&#x237;" horiz-adv-x="240" 
d="M170 530v-556q0 -88 -44 -132.5t-119 -44.5q-44 0 -70 10v95q23 -11 58 -11q74 0 74 85v554h101z" />
    <glyph glyph-name="circumflex" unicode="&#x2c6;" 
d="M169 583h-114l135 142h121l134 -142h-113l-82 85z" />
    <glyph glyph-name="caron" unicode="&#x2c7;" 
d="M310 583h-121l-134 142h113l81 -85l83 85h113z" />
    <glyph glyph-name="macronmod" unicode="&#x2c9;" 
d="M402 589h-304v68h304v-68z" />
    <glyph glyph-name="breve" unicode="&#x2d8;" 
d="M333 725h75q0 -65 -43 -105.5t-115 -40.5q-73 0 -115.5 40.5t-42.5 105.5h75q0 -36 22.5 -58t60.5 -22q39 0 61 22t22 58z" />
    <glyph glyph-name="dotaccent" unicode="&#x2d9;" 
d="M323 653q0 -29 -20.5 -48t-52.5 -19t-52.5 19t-20.5 48t20.5 48t52.5 19t52.5 -19t20.5 -48z" />
    <glyph glyph-name="ring" unicode="&#x2da;" 
d="M250 578q-54 0 -89 33.5t-35 80.5q0 48 35 81.5t89 33.5q53 0 88.5 -33.5t35.5 -81.5q0 -47 -35.5 -80.5t-88.5 -33.5zM250 633q26 0 43 15t17 44t-17 44.5t-43 15.5t-43.5 -15.5t-17.5 -44.5t17.5 -44t43.5 -15z" />
    <glyph glyph-name="ogonek" unicode="&#x2db;" 
d="M334 -118v-70q-30 -10 -60 -10q-47 0 -77 25.5t-30 70.5q0 43 30.5 78.5t92.5 80.5l32 -32q-74 -47 -74 -100q0 -24 13 -37.5t36 -13.5q20 0 37 8z" />
    <glyph glyph-name="tilde" unicode="&#x2dc;" 
d="M143 581h-65q-8 64 19 103.5t77 39.5q36 0 82 -31t62 -31q40 0 39 69h65q7 -64 -20 -103.5t-77 -39.5q-36 0 -81.5 31t-61.5 31q-40 0 -39 -69z" />
    <glyph glyph-name="hungarumlaut" unicode="&#x2dd;" 
d="M342 583h-104l105 142h109zM151 583h-103l100 142h108z" />
    <glyph glyph-name="gravecomb" unicode="&#x300;" 
d="M360 583h-109l-111 142h119z" />
    <glyph glyph-name="acutecomb" unicode="&#x301;" 
d="M248 583h-108l100 142h119z" />
    <glyph glyph-name="circumflexcomb" unicode="&#x302;" 
d="M169 583h-114l135 142h121l134 -142h-113l-82 85z" />
    <glyph glyph-name="tildecomb" unicode="&#x303;" 
d="M143 581h-65q-8 64 19 103.5t77 39.5q36 0 82 -31t62 -31q40 0 39 69h65q7 -64 -20 -103.5t-77 -39.5q-36 0 -81.5 31t-61.5 31q-40 0 -39 -69z" />
    <glyph glyph-name="macroncomb" unicode="&#x304;" 
d="M402 596h-303v68h303v-68z" />
    <glyph glyph-name="brevecomb" unicode="&#x306;" 
d="M333 725h75q0 -65 -43 -105.5t-115 -40.5q-73 0 -115.5 40.5t-42.5 105.5h75q0 -36 22.5 -58t60.5 -22q39 0 61 22t22 58z" />
    <glyph glyph-name="dotaccentcomb" unicode="&#x307;" 
d="M323 653q0 -29 -20.5 -48t-52.5 -19t-52.5 19t-20.5 48t20.5 48t52.5 19t52.5 -19t20.5 -48z" />
    <glyph glyph-name="dieresiscomb" unicode="&#x308;" 
d="M419 653q0 -29 -19.5 -48t-49.5 -19q-31 0 -50.5 19t-19.5 48q0 30 19.5 48.5t50.5 18.5q30 0 49.5 -18.5t19.5 -48.5zM220 653q0 -29 -19.5 -48t-50.5 -19q-30 0 -49.5 19t-19.5 48q0 30 19.5 48.5t49.5 18.5q31 0 50.5 -18.5t19.5 -48.5z" />
    <glyph glyph-name="ringcomb" unicode="&#x30a;" 
d="M250 578q-54 0 -89 33.5t-35 80.5q0 48 35 81.5t89 33.5q53 0 88.5 -33.5t35.5 -81.5q0 -47 -35.5 -80.5t-88.5 -33.5zM250 633q26 0 43 15t17 44t-17 44.5t-43 15.5t-43.5 -15.5t-17.5 -44.5t17.5 -44t43.5 -15z" />
    <glyph glyph-name="hungarumlautcomb" unicode="&#x30b;" 
d="M342 583h-104l105 142h109zM151 583h-103l100 142h108z" />
    <glyph glyph-name="caroncomb" unicode="&#x30c;" 
d="M310 583h-121l-134 142h113l81 -85l83 85h113z" />
    <glyph glyph-name="commaturnedabovecomb" unicode="&#x312;" 
d="M179 645q0 47 41 78t102 26v-42q-75 5 -84 -41q9 4 22 4q22 0 36 -12.5t14 -31.5q0 -22 -16.5 -35.5t-44.5 -13.5q-31 0 -50.5 19.5t-19.5 48.5z" />
    <glyph glyph-name="commaaccentcomb" unicode="&#x326;" 
d="M321 -115q0 -48 -41 -78.5t-102 -24.5v41q75 -3 84 41q-29 -9 -50.5 3.5t-21.5 36.5q0 23 16.5 36t44.5 13q31 0 50.5 -19t19.5 -49z" />
    <glyph glyph-name="cedillacomb" unicode="&#x327;" 
d="M365 -116q0 -36 -31.5 -59t-79.5 -23q-50 0 -82 23.5t-37 66.5h66q6 -40 50 -40q18 0 29.5 11t11.5 26q0 27 -22.5 38.5t-59.5 7.5l22 78h55l-15 -48q42 -4 67.5 -26t25.5 -55z" />
    <glyph glyph-name="ogonekcomb" unicode="&#x328;" 
d="M334 -118v-70q-30 -10 -60 -10q-47 0 -77 25.5t-30 70.5q0 43 30.5 78.5t92.5 80.5l32 -32q-74 -47 -74 -100q0 -24 13 -37.5t36 -13.5q20 0 37 8z" />
    <glyph glyph-name="strokeshortcomb" unicode="&#x335;" 
d="M412 589h-323v68h323v-68z" />
    <glyph glyph-name="slashshortcomb" unicode="&#x337;" 
d="M408 355l-315 -78v84l315 79v-85z" />
    <glyph glyph-name="slashlongcomb" unicode="&#x338;" 
d="M85 0h-81l410 530h81z" />
    <glyph glyph-name="Delta" unicode="&#x394;" horiz-adv-x="700" 
d="M683 0h-665l275 718h115zM348 605l-194 -517h386z" />
    <glyph glyph-name="Omega" unicode="&#x3a9;" horiz-adv-x="712" 
d="M320 0h-288v94l202 -6v53q-95 34 -151 106.5t-56 177.5q0 129 92 216t237 87t237 -87t92 -216q0 -105 -56 -177t-151 -107v-53l202 6v-94h-287v191q87 20 135.5 78.5t48.5 143.5q0 94 -60.5 158t-160.5 64t-160.5 -64t-60.5 -158q0 -85 49 -143.5t136 -78.5v-191z" />
    <glyph glyph-name="mu" unicode="&#x3bc;" horiz-adv-x="583" 
d="M283 -10q-83 0 -121 54l8 -237h-100v723h101v-313q0 -69 31.5 -103.5t87.5 -34.5q57 0 89.5 39.5t32.5 99.5v312h101v-530h-99v72q-18 -37 -52.5 -59.5t-78.5 -22.5z" />
    <glyph glyph-name="pi" unicode="&#x3c0;" horiz-adv-x="595" 
d="M493 -10q-72 0 -109 37t-37 125v292h-129l-36 -444h-100l43 444h-129v86h572v-86h-120v-271q0 -87 73 -87q26 0 43 8v-92q-33 -12 -71 -12z" />
    <glyph glyph-name="Wgrave" unicode="&#x1e80;" horiz-adv-x="946" 
d="M525 770h-108l-112 143h120zM625 0l-152 563l-153 -563h-113l-187 718h108l138 -553l151 553h114l149 -554l138 554h108l-187 -718h-114z" />
    <glyph glyph-name="wgrave" unicode="&#x1e81;" horiz-adv-x="775" 
d="M440 583h-109l-111 142h119zM508 0l-120 394l-121 -394h-102l-153 530h99l107 -386l120 386h100l118 -387l107 387h100l-154 -530h-101z" />
    <glyph glyph-name="Wacute" unicode="&#x1e82;" horiz-adv-x="946" 
d="M529 770h-108l100 143h119zM625 0l-152 563l-153 -563h-113l-187 718h108l138 -553l151 553h114l149 -554l138 554h108l-187 -718h-114z" />
    <glyph glyph-name="wacute" unicode="&#x1e83;" horiz-adv-x="775" 
d="M444 583h-109l101 142h119zM508 0l-120 394l-121 -394h-102l-153 530h99l107 -386l120 386h100l118 -387l107 387h100l-154 -530h-101z" />
    <glyph glyph-name="Wdieresis" unicode="&#x1e84;" horiz-adv-x="946" 
d="M642 841q0 -29 -19.5 -48t-49.5 -19q-31 0 -50.5 19t-19.5 48q0 30 19.5 48.5t50.5 18.5q30 0 49.5 -18.5t19.5 -48.5zM443 841q0 -29 -19.5 -48t-50.5 -19q-30 0 -49.5 19t-19.5 48q0 30 19.5 48.5t49.5 18.5q31 0 50.5 -18.5t19.5 -48.5zM625 0l-152 563l-153 -563
h-113l-187 718h108l138 -553l151 553h114l149 -554l138 554h108l-187 -718h-114z" />
    <glyph glyph-name="wdieresis" unicode="&#x1e85;" horiz-adv-x="775" 
d="M557 653q0 -28 -20 -47.5t-49 -19.5q-31 0 -51 19t-20 48q0 30 19.5 48.5t51.5 18.5q30 0 49.5 -18.5t19.5 -48.5zM358 653q0 -29 -19.5 -48t-50.5 -19q-30 0 -49.5 19t-19.5 48q0 30 19.5 48.5t49.5 18.5q31 0 50.5 -18.5t19.5 -48.5zM508 0l-120 394l-121 -394h-102
l-153 530h99l107 -386l120 386h100l118 -387l107 387h100l-154 -530h-101z" />
    <glyph glyph-name="Ygrave" unicode="&#x1ef2;" horiz-adv-x="644" 
d="M377 770h-108l-112 143h120zM377 269v-269h-111v269l-258 449h120l197 -346l199 346h112z" />
    <glyph glyph-name="ygrave" unicode="&#x1ef3;" horiz-adv-x="512" 
d="M309 583h-109l-111 142h119zM510 530l-265 -723h-110l76 200l-209 523h109l154 -404l143 404h102z" />
    <glyph glyph-name="endash" unicode="&#x2013;" 
d="M480 232h-460v88h460v-88z" />
    <glyph glyph-name="emdash" unicode="&#x2014;" horiz-adv-x="750" 
d="M730 232h-710v88h710v-88z" />
    <glyph glyph-name="quoteleft" unicode="&#x2018;" horiz-adv-x="265" 
d="M48 571q0 66 50.5 111.5t124.5 39.5v-54q-42 1 -70 -17.5t-35 -51.5q11 4 23 4q28 0 46.5 -18t18.5 -45q0 -29 -20.5 -47.5t-53.5 -18.5q-39 0 -61.5 26.5t-22.5 70.5z" />
    <glyph glyph-name="quoteright" unicode="&#x2019;" horiz-adv-x="265" 
d="M217 627q0 -66 -50.5 -111.5t-124.5 -39.5v54q42 -2 70 17t35 52q-11 -4 -23 -4q-28 0 -46.5 18t-18.5 44q0 30 20.5 48.5t53.5 18.5q39 0 61.5 -26.5t22.5 -70.5z" />
    <glyph glyph-name="quotesinglbase" unicode="&#x201a;" horiz-adv-x="265" 
d="M217 53q0 -66 -51 -111.5t-124 -38.5v53q42 -1 70 17.5t35 51.5q-11 -4 -23 -4q-28 0 -46.5 18.5t-18.5 44.5q0 29 20.5 47.5t53.5 18.5q39 0 61.5 -26.5t22.5 -70.5z" />
    <glyph glyph-name="quotedblleft" unicode="&#x201c;" horiz-adv-x="478" 
d="M48 571q0 66 50.5 111.5t124.5 39.5v-54q-42 1 -70 -17.5t-35 -51.5q11 4 23 4q28 0 46.5 -18t18.5 -45q0 -29 -20.5 -47.5t-53.5 -18.5q-39 0 -61.5 26.5t-22.5 70.5zM261 571q0 66 50.5 111.5t124.5 39.5v-54q-42 1 -70 -17.5t-35 -51.5q11 4 23 4q28 0 46.5 -18.5
t18.5 -44.5q0 -29 -21 -47.5t-53 -18.5q-39 0 -61.5 26.5t-22.5 70.5z" />
    <glyph glyph-name="quotedblright" unicode="&#x201d;" horiz-adv-x="478" 
d="M217 627q0 -66 -50.5 -111.5t-124.5 -39.5v54q42 -2 70 17t35 52q-11 -4 -23 -4q-28 0 -46.5 18t-18.5 44q0 30 20.5 48.5t53.5 18.5q39 0 61.5 -26.5t22.5 -70.5zM430 627q0 -66 -50.5 -111.5t-124.5 -39.5v54q42 -2 70 17t35 52q-11 -4 -24 -4q-27 0 -45.5 18t-18.5 44
q0 30 20.5 48.5t53.5 18.5q39 0 61.5 -26.5t22.5 -70.5z" />
    <glyph glyph-name="quotedblbase" unicode="&#x201e;" horiz-adv-x="478" 
d="M217 53q0 -66 -51 -111.5t-124 -38.5v53q42 -1 70 17.5t35 51.5q-11 -4 -23 -4q-28 0 -46.5 18.5t-18.5 44.5q0 29 20.5 47.5t53.5 18.5q39 0 61.5 -26.5t22.5 -70.5zM430 53q0 -66 -51 -111.5t-124 -38.5v53q42 -1 70 17.5t35 51.5q-11 -4 -24 -4q-27 0 -45.5 18.5
t-18.5 44.5q0 29 20.5 47.5t53.5 18.5q39 0 61.5 -26.5t22.5 -70.5z" />
    <glyph glyph-name="dagger" unicode="&#x2020;" horiz-adv-x="660" 
d="M377 -193h-94v621h-203v87h203v203h94v-203h203v-87h-203v-621z" />
    <glyph glyph-name="daggerdbl" unicode="&#x2021;" horiz-adv-x="660" 
d="M377 -193h-94v203h-203v87h203v331h-203v87h203v203h94v-203h203v-87h-203v-331h203v-87h-203v-203z" />
    <glyph glyph-name="bullet" unicode="&#x2022;" 
d="M405 263q0 -67 -44 -110t-111 -43t-111 43t-44 110q0 69 44 113t111 44t111 -44t44 -113z" />
    <glyph glyph-name="ellipsis" unicode="&#x2026;" horiz-adv-x="849" 
d="M207 72q0 -34 -21.5 -55.5t-55.5 -21.5t-55.5 21.5t-21.5 55.5q0 35 21.5 57t55.5 22t55.5 -22t21.5 -57zM502 72q0 -34 -21.5 -55.5t-55.5 -21.5t-55.5 21.5t-21.5 55.5q0 35 21.5 57t55.5 22t55.5 -22t21.5 -57zM796 72q0 -34 -21.5 -55.5t-55.5 -21.5t-55.5 21.5
t-21.5 55.5q0 35 21.5 57t55.5 22t55.5 -22t21.5 -57z" />
    <glyph glyph-name="perthousand" unicode="&#x2030;" horiz-adv-x="1552" 
d="M240 262q-90 0 -150 61t-60 149t60 149t150 61q91 0 151 -61t60 -149t-60 -149t-151 -61zM384 0h-83l382 676h83zM240 335q54 0 90 36.5t36 100.5q0 65 -36 101t-90 36q-53 0 -89 -36t-36 -101q0 -64 36 -100.5t89 -36.5zM838 -8q-91 0 -150.5 60.5t-59.5 149.5
q0 88 59.5 149t150.5 61t150.5 -61t59.5 -149q0 -89 -59.5 -149.5t-150.5 -60.5zM1311 -8q-91 0 -150.5 60.5t-59.5 149.5q0 88 60 149t150 61q91 0 151 -61t60 -149q0 -89 -60 -149.5t-151 -60.5zM838 65q53 0 89 36.5t36 100.5t-35.5 100t-89.5 36q-53 0 -89.5 -36
t-36.5 -100t36.5 -100.5t89.5 -36.5zM1311 65q54 0 90 36.5t36 100.5t-36 100t-90 36q-53 0 -89 -36t-36 -100t36 -100.5t89 -36.5z" />
    <glyph glyph-name="guilsinglleft" unicode="&#x2039;" horiz-adv-x="303" 
d="M278 62h-110l-143 205l143 205h110l-137 -205z" />
    <glyph glyph-name="guilsinglright" unicode="&#x203a;" horiz-adv-x="303" 
d="M25 472h111l142 -205l-142 -205h-111l138 205z" />
    <glyph glyph-name="fraction" unicode="&#x2044;" horiz-adv-x="187" 
d="M-54 0h-82l381 676h83z" />
    <glyph glyph-name="zero.superior" unicode="&#x2070;" horiz-adv-x="394" 
d="M362 717q0 -101 -42.5 -154.5t-122.5 -53.5q-81 0 -123.5 53.5t-42.5 154.5t43 155.5t123 54.5t122.5 -54.5t42.5 -155.5zM103 717q0 -145 94 -145t94 145q0 147 -94 147t-94 -147z" />
    <glyph glyph-name="four.superior" unicode="&#x2074;" horiz-adv-x="384" 
d="M362 601h-61v-86h-70v86h-214v50l230 270h54v-259h61v-61zM99 662h132v158z" />
    <glyph glyph-name="five.superior" unicode="&#x2075;" horiz-adv-x="371" 
d="M347 645q0 -56 -43 -96t-118 -40q-67 0 -111.5 35.5t-46.5 90.5h69q4 -30 28 -46.5t61 -16.5q43 0 66.5 21t23.5 53q0 30 -24.5 51.5t-66.5 21.5q-59 0 -87 -43l-56 18l40 227h240v-62h-191l-18 -104q36 24 83 24q71 0 111 -39t40 -95z" />
    <glyph glyph-name="six.superior" unicode="&#x2076;" horiz-adv-x="385" 
d="M356 648q0 -60 -47.5 -99t-116.5 -39q-70 0 -117 39t-47 95q0 38 14.5 65.5t44.5 61.5l134 150h79l-129 -145q18 5 34 5q64 0 107.5 -35.5t43.5 -97.5zM284 646q0 37 -26 58t-65 21q-40 0 -66 -20.5t-26 -58.5q0 -34 26.5 -55t65.5 -21t65 21t26 55z" />
    <glyph glyph-name="seven.superior" unicode="&#x2077;" horiz-adv-x="323" 
d="M313 879l-172 -364h-75l169 344h-225v62h303v-42z" />
    <glyph glyph-name="eight.superior" unicode="&#x2078;" horiz-adv-x="399" 
d="M364 630q0 -53 -45.5 -86.5t-118.5 -33.5t-119 33.5t-46 86.5q0 68 81 96q-64 28 -64 87q0 50 42 82t106 32t105.5 -32.5t41.5 -81.5q0 -58 -63 -87q80 -28 80 -96zM124 810q0 -26 21 -41.5t55 -15.5t54.5 15.5t20.5 41.5q0 28 -20.5 44t-54.5 16t-55 -16t-21 -44z
M107 632q0 -30 25.5 -48t67.5 -18q41 0 66.5 18t25.5 48t-25.5 47t-66.5 17q-42 0 -67.5 -17t-25.5 -47z" />
    <glyph glyph-name="nine.superior" unicode="&#x2079;" horiz-adv-x="386" 
d="M29 789q0 60 47.5 99t116.5 39q71 0 117.5 -39t46.5 -95q0 -38 -14 -65.5t-45 -61.5l-134 -151h-79l129 146q-18 -5 -34 -5q-64 0 -107.5 35.5t-43.5 97.5zM101 791q0 -37 26 -58t65 -21q40 0 66 20.5t26 58.5q0 34 -26.5 55t-65.5 21t-65 -21t-26 -55z" />
    <glyph glyph-name="zero.inferior" unicode="&#x2080;" horiz-adv-x="394" 
d="M362 -1q0 -101 -42.5 -154.5t-122.5 -53.5q-81 0 -123.5 53.5t-42.5 154.5t43 155.5t123 54.5t122.5 -54.5t42.5 -155.5zM103 -1q0 -145 94 -145t94 145q0 147 -94 147t-94 -147z" />
    <glyph glyph-name="one.inferior" unicode="&#x2081;" horiz-adv-x="230" 
d="M168 -203h-70v345h-86v61h156v-406z" />
    <glyph glyph-name="two.inferior" unicode="&#x2082;" horiz-adv-x="352" 
d="M324 -141v-62h-291l1 40l138 133q39 37 56.5 61t17.5 51q0 28 -21 46t-56 18q-36 0 -58 -18.5t-22 -51.5h-67q0 59 42.5 96t108.5 37q65 0 105.5 -35t40.5 -83q0 -38 -21.5 -69.5t-73.5 -79.5l-82 -83h182z" />
    <glyph glyph-name="three.inferior" unicode="&#x2083;" horiz-adv-x="388" 
d="M353 -85q0 -55 -44.5 -89t-116.5 -34q-69 0 -113 33.5t-45 88.5h68q1 -30 26.5 -48t64.5 -18q41 0 64.5 17.5t23.5 47.5t-27 47t-72 17h-47v56h43q38 0 60.5 16.5t22.5 44.5q0 26 -20 42t-54 16q-33 0 -53 -17t-22 -45h-68q2 51 43.5 85t102.5 34q65 0 104 -30.5
t39 -79.5q0 -58 -68 -90q42 -11 65 -35.5t23 -58.5z" />
    <glyph glyph-name="four.inferior" unicode="&#x2084;" horiz-adv-x="384" 
d="M362 -117h-61v-86h-70v86h-214v50l230 270h54v-259h61v-61zM99 -56h132v158z" />
    <glyph glyph-name="five.inferior" unicode="&#x2085;" horiz-adv-x="371" 
d="M347 -73q0 -56 -43 -96t-118 -40q-67 0 -111.5 35.5t-46.5 90.5h69q4 -30 28 -46.5t61 -16.5q43 0 66.5 21t23.5 53q0 30 -24.5 51.5t-66.5 21.5q-59 0 -87 -43l-56 18l40 227h240v-62h-191l-18 -104q36 24 83 24q71 0 111 -39t40 -95z" />
    <glyph glyph-name="six.inferior" unicode="&#x2086;" horiz-adv-x="385" 
d="M356 -70q0 -60 -47.5 -99t-116.5 -39q-70 0 -117 39t-47 95q0 38 14.5 65.5t44.5 61.5l134 150h79l-129 -145q18 5 34 5q64 0 107.5 -35.5t43.5 -97.5zM284 -72q0 37 -26 58t-65 21q-40 0 -66 -20.5t-26 -58.5q0 -34 26.5 -55t65.5 -21t65 21t26 55z" />
    <glyph glyph-name="seven.inferior" unicode="&#x2087;" horiz-adv-x="323" 
d="M313 161l-172 -364h-75l169 344h-225v62h303v-42z" />
    <glyph glyph-name="eight.inferior" unicode="&#x2088;" horiz-adv-x="399" 
d="M364 -88q0 -53 -45.5 -86.5t-118.5 -33.5t-119 33.5t-46 86.5q0 68 81 96q-64 28 -64 87q0 50 42 82t106 32t105.5 -32.5t41.5 -81.5q0 -58 -63 -87q80 -28 80 -96zM124 92q0 -26 21 -41.5t55 -15.5t54.5 15.5t20.5 41.5q0 28 -20.5 44t-54.5 16t-55 -16t-21 -44z
M107 -86q0 -30 25.5 -48t67.5 -18q41 0 66.5 18t25.5 48t-25.5 47t-66.5 17q-42 0 -67.5 -17t-25.5 -47z" />
    <glyph glyph-name="nine.inferior" unicode="&#x2089;" horiz-adv-x="386" 
d="M29 71q0 60 47.5 99t116.5 39q71 0 117.5 -39t46.5 -95q0 -38 -14 -65.5t-45 -61.5l-134 -151h-79l129 146q-18 -5 -34 -5q-64 0 -107.5 35.5t-43.5 97.5zM101 73q0 -37 26 -58t65 -21q40 0 66 20.5t26 58.5q0 34 -26.5 55t-65.5 21t-65 -21t-26 -55z" />
    <glyph glyph-name="Euro" unicode="&#x20ac;" horiz-adv-x="592" 
d="M561 116v-95q-58 -31 -136 -31q-116 0 -193.5 67.5t-100.5 188.5h-106v63h97q-1 26 1 75h-98v63h108q26 114 102.5 176.5t189.5 62.5q81 0 136 -29v-97q-53 35 -126 35q-74 0 -123.5 -38t-69.5 -110h219v-63h-238q-3 -30 -1 -75h239v-63h-222q18 -79 68.5 -121.5
t127.5 -42.5q73 0 126 34z" />
    <glyph glyph-name="indianrupee" unicode="&#x20b9;" horiz-adv-x="607" 
d="M567 432h-93q-7 -64 -50 -107.5t-111 -58.5l183 -266h-114l-168 255h-163v74h161q66 0 107 27t50 76h-318v67h317q-9 50 -49.5 76.5t-106.5 26.5h-161v74h516v-67h-178q71 -34 81 -110h97v-67z" />
    <glyph glyph-name="turkishlira" unicode="&#x20ba;" horiz-adv-x="590" 
d="M470 285h95q-6 -128 -102.5 -210t-238.5 -82q-44 0 -77 9v288l-122 -30v67l122 30v77l-122 -30v66l122 31v175h102v-151l224 56v-66l-224 -56v-77l224 55v-66l-224 -56v-235q94 2 155.5 59t65.5 146z" />
    <glyph glyph-name="ruble" unicode="&#x20bd;" horiz-adv-x="602" 
d="M545 132h-287v-132h-102v132h-131v67h131v77h-131v68h131v332h175q111 0 175 -51.5t64 -147.5q0 -94 -67 -147.5t-182 -53.5h-63v-77h287v-67zM320 602h-62v-258h62q75 0 114 33t39 94q0 131 -153 131z" />
    <glyph glyph-name="trademark" unicode="&#x2122;" horiz-adv-x="828" 
d="M199 366h-69v289h-111v63h291v-63h-111v-289zM518 366l-108 275v-275h-65v352h102l103 -268l103 268h97v-352h-65v272l-106 -272h-61z" />
    <glyph glyph-name="estimated" unicode="&#x212e;" horiz-adv-x="833" 
d="M705 136h42q-109 -146 -319 -146q-175 0 -289 106t-114 262q0 145 114.5 256.5t277.5 111.5q167 0 274 -105.5t117 -273.5h-613q-21 0 -21 -22v-169q0 -58 78 -98.5t176 -40.5q95 0 167 30.5t110 88.5zM174 569v-175q0 -22 21 -22h444q20 0 20 22v169q0 53 -74 95
t-168 42q-93 0 -168 -40.5t-75 -90.5z" />
    <glyph glyph-name="partialdiff" unicode="&#x2202;" horiz-adv-x="589" 
d="M32 260q0 119 72 190.5t179 71.5q33 0 63 -13l-161 209h114l168 -217q48 -62 69 -116.5t21 -129.5q0 -111 -74 -188t-188 -77q-115 0 -189 77.5t-74 192.5zM136 261q0 -85 44 -132.5t115 -47.5q70 0 113.5 46t43.5 129q0 88 -44 137.5t-113 49.5q-71 0 -115 -48t-44 -134
z" />
    <glyph glyph-name="increment" unicode="&#x2206;" horiz-adv-x="700" 
d="M683 0h-665l275 718h115zM348 605l-194 -517h386z" />
    <glyph glyph-name="product" unicode="&#x220f;" horiz-adv-x="735" 
d="M183 -193h-105v911h580v-911h-105v820h-370v-820z" />
    <glyph glyph-name="summation" unicode="&#x2211;" horiz-adv-x="621" 
d="M584 -193h-547v80l285 385l-272 365v81h524v-91h-393l264 -356l-279 -373h418v-91z" />
    <glyph glyph-name="minus" unicode="&#x2212;" horiz-adv-x="660" 
d="M580 295h-500v87h500v-87z" />
    <glyph glyph-name="divisionslash" unicode="&#x2215;" horiz-adv-x="660" 
d="M217 0h-94l320 676h94z" />
    <glyph glyph-name="bulletoperator" unicode="&#x2219;" horiz-adv-x="660" 
d="M407 341q0 -34 -21.5 -55.5t-55.5 -21.5t-55.5 21.5t-21.5 55.5t21.5 56t55.5 22t55.5 -22t21.5 -56z" />
    <glyph glyph-name="radical" unicode="&#x221a;" horiz-adv-x="885" 
d="M870 718l-337 -911h-115l-158 423h-180v91h258l140 -394l287 791h105z" />
    <glyph glyph-name="infinity" unicode="&#x221e;" horiz-adv-x="1069" 
d="M1037 265q0 -121 -68.5 -198t-176.5 -77q-85 0 -146 50t-112 140q-49 -89 -110.5 -139.5t-146.5 -50.5q-108 0 -176.5 77t-68.5 198t68.5 198t176.5 77q152 0 258 -188q50 88 111 138t146 50q108 0 176.5 -77t68.5 -198zM137 265q0 -82 42 -134t109 -52q64 0 110 48
t89 138q-43 90 -89 138t-110 48q-67 0 -109 -52t-42 -134zM582 265q42 -89 88 -137.5t110 -48.5q67 0 109.5 52t42.5 134q0 83 -42.5 134.5t-109.5 51.5q-64 0 -110 -48.5t-88 -137.5z" />
    <glyph glyph-name="integral" unicode="&#x222b;" 
d="M301 559v-591q0 -84 -47.5 -127.5t-126.5 -43.5q-41 0 -70 10v95q25 -11 58 -11q84 0 84 84v585q0 82 47 124t122 42q39 0 75 -13v-79q-21 11 -56 11q-39 0 -62.5 -21.5t-23.5 -64.5z" />
    <glyph glyph-name="approxequal" unicode="&#x2248;" horiz-adv-x="660" 
d="M455 358q-39 0 -87.5 22.5t-90.5 45t-65 22.5q-31 0 -46 -20t-16 -69h-83q-9 81 30 130.5t108 49.5q40 0 88.5 -22.5t89.5 -45t65 -22.5q64 0 61 89h84q10 -81 -28.5 -130.5t-109.5 -49.5zM455 144q-39 0 -87.5 22.5t-90.5 45.5t-65 23q-31 0 -46 -20.5t-16 -69.5h-83
q-9 81 30 130.5t108 49.5q40 0 88.5 -22.5t89.5 -45t65 -22.5q64 0 61 89h84q10 -81 -28.5 -130.5t-109.5 -49.5z" />
    <glyph glyph-name="notequal" unicode="&#x2260;" horiz-adv-x="660" 
d="M216 187h-136v88h171l63 127h-234v87h269l94 187h94l-94 -187h137v-87h-172l-63 -127h235v-88h-271l-92 -187h-94z" />
    <glyph glyph-name="lessequal" unicode="&#x2264;" horiz-adv-x="660" 
d="M80 439l500 213v-89l-397 -164l397 -165v-88l-500 212v81zM580 1h-500v87h500v-87z" />
    <glyph glyph-name="greaterequal" unicode="&#x2265;" horiz-adv-x="660" 
d="M580 358l-500 -212v88l397 165l-397 164v89l500 -213v-81zM580 1h-500v87h500v-87z" />
    <glyph glyph-name="lozenge" unicode="&#x25ca;" horiz-adv-x="703" 
d="M410 -193h-115l-175 456l175 455h115l173 -455zM221 263l128 -343l127 343l-127 342z" />
    <glyph glyph-name="ITF" unicode="&#xf8ff;" horiz-adv-x="1739" 
d="M86 0v700h216v-700h-216zM347 496v204h216v-204h-216zM607 0v700h217v-700h-217zM868 496v204h216v-204h-216zM1128 0v700h217v-700h-217zM1389 496v204h216v-204h-216zM1389 247v205h216v-205h-216z" />
    <glyph glyph-name="Q.ss02" horiz-adv-x="802" 
d="M354 -160v148q-138 17 -228 121t-90 251q0 159 104.5 266t260.5 107t260.5 -107t104.5 -266q0 -147 -90 -251t-228 -121v-148h-94zM448 246v-158q93 17 148.5 92.5t55.5 179.5q0 118 -69.5 196t-181.5 78t-181.5 -78t-69.5 -196q0 -104 55.5 -179.5t148.5 -92.5v158h94z
" />
    <glyph glyph-name="zero.case" horiz-adv-x="652" 
d="M326 727q130 0 200.5 -96t70.5 -274t-69.5 -273t-201.5 -95t-201.5 95t-69.5 273t70 274t201 96zM326 637q-81 0 -124.5 -71.5t-43.5 -208.5q0 -136 43 -206.5t125 -70.5t125 70.5t43 206.5q0 137 -43 208.5t-125 71.5z" />
    <glyph glyph-name="one.case" horiz-adv-x="353" 
d="M266 0h-101v630h-145v88h246v-718z" />
    <glyph glyph-name="two.case" horiz-adv-x="575" 
d="M527 90v-90h-471v58l233 245q66 69 94.5 113t28.5 95q0 54 -37 90t-99 36q-64 0 -102 -37t-38 -98h-99q1 100 70.5 162.5t174.5 62.5t170 -59t65 -144q0 -69 -36 -125t-115 -138l-156 -171h317z" />
    <glyph glyph-name="three.case" horiz-adv-x="630" 
d="M310 -10q-113 0 -185 59t-74 153h98q4 -59 48 -95t114 -36q73 0 115 35t42 95q0 59 -47 93t-127 34h-76v81h72q65 0 104.5 33t39.5 87q0 52 -36 84.5t-95 32.5q-60 0 -97 -33.5t-39 -89.5h-98q3 88 70.5 146t167.5 58q104 0 167.5 -53t63.5 -138q0 -107 -120 -162
q73 -20 113.5 -64.5t40.5 -106.5q0 -95 -72.5 -154t-189.5 -59z" />
    <glyph glyph-name="four.case" horiz-adv-x="634" 
d="M591 161h-101v-161h-101v161h-359v70l384 487h76v-470h101v-87zM145 248h244v317z" />
    <glyph glyph-name="five.case" horiz-adv-x="603" 
d="M299 -11q-107 0 -179.5 61.5t-76.5 155.5h101q5 -58 47.5 -92t107.5 -34q78 0 119.5 41t41.5 107q0 59 -44 101t-117 42q-103 0 -151 -79l-81 25l66 401h388v-90h-316l-35 -218q64 49 144 49q115 0 182.5 -67t67.5 -164q0 -101 -71 -170t-194 -69z" />
    <glyph glyph-name="six.case" horiz-adv-x="630" 
d="M315 -10q-116 0 -192 68.5t-76 167.5q0 66 23 113t74 109l224 270h115l-219 -266q35 12 67 12q109 0 180.5 -65t71.5 -168q0 -102 -76.5 -171.5t-191.5 -69.5zM316 75q69 0 116 43t47 110q0 71 -46.5 114t-116.5 43q-73 0 -119 -40.5t-46 -115.5q0 -68 47 -111t118 -43z
" />
    <glyph glyph-name="seven.case" horiz-adv-x="528" 
d="M512 659l-289 -659h-108l285 627h-384v91h496v-59z" />
    <glyph glyph-name="eight.case" horiz-adv-x="654" 
d="M596 200q0 -93 -74.5 -151.5t-193.5 -58.5q-120 0 -195 58.5t-75 151.5q0 64 39 107.5t103 65.5q-50 21 -81 62.5t-31 94.5q0 87 67.5 142t172.5 55q103 0 171 -55.5t68 -141.5q0 -53 -31 -94.5t-80 -62.5q63 -22 101.5 -65.5t38.5 -107.5zM192 527q0 -53 37.5 -84.5
t98.5 -31.5t98 31.5t37 84.5q0 54 -37 86.5t-98 32.5t-98.5 -32.5t-37.5 -86.5zM163 202q0 -61 45.5 -96t119.5 -35q73 0 119 35.5t46 95.5q0 59 -46 93.5t-119 34.5q-74 0 -119.5 -34.5t-45.5 -93.5z" />
    <glyph glyph-name="nine.case" horiz-adv-x="630" 
d="M316 727q114 0 190.5 -68.5t76.5 -167.5q0 -62 -22.5 -110.5t-75.5 -111.5l-224 -269h-114l219 266q-36 -12 -69 -12q-108 0 -179 64.5t-71 167.5t76 172t193 69zM315 642q-71 0 -117.5 -42.5t-46.5 -110.5q0 -71 46.5 -113.5t117.5 -42.5t117 40.5t46 114.5
q0 68 -47 111t-116 43z" />
    <glyph glyph-name="zero.dnom" horiz-adv-x="397" 
d="M364 202q0 -101 -42.5 -154.5t-122.5 -53.5q-81 0 -123.5 53.5t-42.5 154.5t43 155.5t123 54.5t122.5 -54.5t42.5 -155.5zM105 202q0 -145 94 -145t94 145q0 147 -94 147t-94 -147z" />
    <glyph glyph-name="one.dnom" horiz-adv-x="230" 
d="M168 0h-70v345h-86v61h156v-406z" />
    <glyph glyph-name="two.dnom" horiz-adv-x="352" 
d="M324 62v-62h-291l1 40l138 133q39 37 56.5 61t17.5 51q0 28 -21 46t-56 18q-36 0 -58 -18.5t-22 -51.5h-67q0 59 42.5 96t108.5 37q65 0 105.5 -35t40.5 -83q0 -38 -21.5 -69.5t-73.5 -79.5l-82 -83h182z" />
    <glyph glyph-name="three.dnom" horiz-adv-x="388" 
d="M353 118q0 -55 -44.5 -89t-116.5 -34q-69 0 -113 33.5t-45 88.5h68q1 -30 26.5 -48t64.5 -18q41 0 64.5 17.5t23.5 47.5t-27 47t-72 17h-47v56h43q38 0 60.5 16.5t22.5 44.5q0 26 -20 42t-54 16q-33 0 -53 -17t-22 -45h-68q2 51 43.5 85t102.5 34q65 0 104 -30.5
t39 -79.5q0 -58 -68 -90q42 -11 65 -35.5t23 -58.5z" />
    <glyph glyph-name="four.dnom" horiz-adv-x="384" 
d="M362 86h-61v-86h-70v86h-214v50l230 270h54v-259h61v-61zM99 147h132v158z" />
    <glyph glyph-name="five.dnom" horiz-adv-x="371" 
d="M347 130q0 -56 -43 -96t-118 -40q-67 0 -111.5 35.5t-46.5 90.5h69q4 -30 28 -46.5t61 -16.5q43 0 66.5 21t23.5 53q0 30 -24.5 51.5t-66.5 21.5q-59 0 -87 -43l-56 18l40 227h240v-62h-191l-18 -104q36 24 83 24q71 0 111 -39t40 -95z" />
    <glyph glyph-name="six.dnom" horiz-adv-x="385" 
d="M356 133q0 -60 -47.5 -99t-116.5 -39q-70 0 -117 39t-47 95q0 38 14.5 65.5t44.5 61.5l134 150h79l-129 -145q18 5 34 5q64 0 107.5 -35.5t43.5 -97.5zM284 131q0 37 -26 58t-65 21q-40 0 -66 -20.5t-26 -58.5q0 -34 26.5 -55t65.5 -21t65 21t26 55z" />
    <glyph glyph-name="seven.dnom" horiz-adv-x="323" 
d="M313 364l-172 -364h-75l169 344h-225v62h303v-42z" />
    <glyph glyph-name="eight.dnom" horiz-adv-x="399" 
d="M364 115q0 -53 -45.5 -86.5t-118.5 -33.5t-119 33.5t-46 86.5q0 68 81 96q-64 28 -64 87q0 50 42 82t106 32t105.5 -32.5t41.5 -81.5q0 -58 -63 -87q80 -28 80 -96zM124 295q0 -26 21 -41.5t55 -15.5t54.5 15.5t20.5 41.5q0 28 -20.5 44t-54.5 16t-55 -16t-21 -44z
M107 117q0 -30 25.5 -48t67.5 -18q41 0 66.5 18t25.5 48t-25.5 47t-66.5 17q-42 0 -67.5 -17t-25.5 -47z" />
    <glyph glyph-name="nine.dnom" horiz-adv-x="386" 
d="M29 274q0 60 47.5 99t116.5 39q71 0 117.5 -39t46.5 -95q0 -38 -14 -65.5t-45 -61.5l-134 -151h-79l129 146q-18 -5 -34 -5q-64 0 -107.5 35.5t-43.5 97.5zM101 276q0 -37 26 -58t65 -21q40 0 66 20.5t26 58.5q0 34 -26.5 55t-65.5 21t-65 -21t-26 -55z" />
    <glyph glyph-name="zero.numr_alt" horiz-adv-x="470" 
d="M237 262q-90 0 -150 61t-60 149t60 149t150 61q91 0 151 -61t60 -149t-60 -149t-151 -61zM237 335q54 0 90 36.5t36 100.5q0 65 -36 101t-90 36q-53 0 -89 -36t-36 -101q0 -64 36 -100.5t89 -36.5z" />
    <glyph glyph-name="zero.numr" horiz-adv-x="394" 
d="M362 472q0 -101 -42.5 -154.5t-122.5 -53.5q-81 0 -123.5 53.5t-42.5 154.5t43 155.5t123 54.5t122.5 -54.5t42.5 -155.5zM103 472q0 -145 94 -145t94 145q0 147 -94 147t-94 -147z" />
    <glyph glyph-name="one.numr" horiz-adv-x="230" 
d="M168 270h-70v345h-86v61h156v-406z" />
    <glyph glyph-name="two.numr" horiz-adv-x="352" 
d="M324 332v-62h-291l1 40l138 133q39 37 56.5 61t17.5 51q0 28 -21 46t-56 18q-36 0 -58 -18.5t-22 -51.5h-67q0 59 42.5 96t108.5 37q65 0 105.5 -35t40.5 -83q0 -38 -21.5 -69.5t-73.5 -79.5l-82 -83h182z" />
    <glyph glyph-name="three.numr" horiz-adv-x="388" 
d="M353 389q0 -55 -44.5 -89t-116.5 -34q-69 0 -113 33.5t-45 88.5h68q1 -30 26.5 -48t64.5 -18q41 0 64.5 17.5t23.5 47.5t-27 47t-72 17h-47v56h43q38 0 60.5 16.5t22.5 44.5q0 26 -20 42t-54 16q-33 0 -53 -17t-22 -45h-68q2 51 43.5 85t102.5 34q65 0 104 -30.5
t39 -79.5q0 -58 -68 -90q42 -11 65 -35.5t23 -58.5z" />
    <glyph glyph-name="four.numr" horiz-adv-x="384" 
d="M362 356h-61v-86h-70v86h-214v50l230 270h54v-259h61v-61zM99 417h132v158z" />
    <glyph glyph-name="five.numr" horiz-adv-x="371" 
d="M347 400q0 -56 -43 -96t-118 -40q-67 0 -111.5 35.5t-46.5 90.5h69q4 -30 28 -46.5t61 -16.5q43 0 66.5 21t23.5 53q0 30 -24.5 51.5t-66.5 21.5q-59 0 -87 -43l-56 18l40 227h240v-62h-191l-18 -104q36 24 83 24q71 0 111 -39t40 -95z" />
    <glyph glyph-name="six.numr" horiz-adv-x="385" 
d="M356 403q0 -60 -47.5 -99t-116.5 -39q-70 0 -117 39t-47 95q0 38 14.5 65.5t44.5 61.5l134 150h79l-129 -145q18 5 34 5q64 0 107.5 -35.5t43.5 -97.5zM284 401q0 37 -26 58t-65 21q-40 0 -66 -20.5t-26 -58.5q0 -34 26.5 -55t65.5 -21t65 21t26 55z" />
    <glyph glyph-name="seven.numr" horiz-adv-x="323" 
d="M313 634l-172 -364h-75l169 344h-225v62h303v-42z" />
    <glyph glyph-name="eight.numr" horiz-adv-x="399" 
d="M364 385q0 -53 -45.5 -86.5t-118.5 -33.5t-119 33.5t-46 86.5q0 68 81 96q-64 28 -64 87q0 50 42 82t106 32t105.5 -32.5t41.5 -81.5q0 -58 -63 -87q80 -28 80 -96zM124 565q0 -26 21 -41.5t55 -15.5t54.5 15.5t20.5 41.5q0 28 -20.5 44t-54.5 16t-55 -16t-21 -44z
M107 387q0 -30 25.5 -48t67.5 -18q41 0 66.5 18t25.5 48t-25.5 47t-66.5 17q-42 0 -67.5 -17t-25.5 -47z" />
    <glyph glyph-name="nine.numr" horiz-adv-x="386" 
d="M29 544q0 60 47.5 99t116.5 39q71 0 117.5 -39t46.5 -95q0 -38 -14 -65.5t-45 -61.5l-134 -151h-79l129 146q-18 -5 -34 -5q-64 0 -107.5 35.5t-43.5 97.5zM101 546q0 -37 26 -58t65 -21q40 0 66 20.5t26 58.5q0 34 -26.5 55t-65.5 21t-65 -21t-26 -55z" />
    <glyph glyph-name="caroncomb.alt" 
d="M300 568h-67v150h87z" />
    <glyph glyph-name="caroncomb.alt2" 
d="M274 529h-67v189h86z" />
    <glyph glyph-name="strokeshortcomb.case" 
d="M434 325h-369v90h369v-90z" />
    <glyph glyph-name="slashshortcomb.case" 
d="M456 379l-412 -107v88l412 107v-88z" />
    <glyph glyph-name="slashlongcomb.case" 
d="M9 0h-101l583 718h101z" />
    <glyph glyph-name="dieresiscomb.narrow" 
d="M410 646q0 -29 -19 -48t-48 -19q-30 0 -49 19t-19 48q0 30 19 48.5t49 18.5q29 0 48 -18.5t19 -48.5zM225 646q0 -29 -19 -48t-49 -19q-29 0 -48 19t-19 48q0 30 19 48.5t48 18.5q30 0 49 -18.5t19 -48.5z" />
    <glyph glyph-name="gravecomb.narrow" 
d="M355 575h-109l-101 143h119z" />
    <glyph glyph-name="acutecomb.narrow" 
d="M254 575h-108l90 143h119z" />
    <glyph glyph-name="circumflexcomb.narrow" 
d="M180 575h-113l121 143h125l121 -143h-113l-71 86z" />
    <glyph glyph-name="a.ss01" horiz-adv-x="603" 
d="M32 265q0 122 65.5 198.5t173.5 76.5q116 0 173 -103v93h94v-530h-94v95q-60 -105 -177 -105q-106 0 -170.5 77t-64.5 198zM137 265q0 -87 41.5 -136t108.5 -49q66 0 108 50.5t42 136.5t-42.5 135t-107.5 49q-68 0 -109 -49t-41 -137z" />
    <glyph glyph-name="aacute.ss01" horiz-adv-x="603" 
d="M342 583h-109l100 142h119zM32 265q0 122 65.5 198.5t173.5 76.5q116 0 173 -103v93h94v-530h-94v95q-60 -105 -177 -105q-106 0 -170.5 77t-64.5 198zM137 265q0 -87 41.5 -136t108.5 -49q66 0 108 50.5t42 136.5t-42.5 135t-107.5 49q-68 0 -109 -49t-41 -137z" />
    <glyph glyph-name="abreve.ss01" horiz-adv-x="603" 
d="M369 725h75q0 -65 -43.5 -105.5t-115.5 -40.5t-115 40.5t-43 105.5h75q0 -36 22.5 -58t60.5 -22q39 0 61.5 22t22.5 58zM32 265q0 122 65.5 198.5t173.5 76.5q116 0 173 -103v93h94v-530h-94v95q-60 -105 -177 -105q-106 0 -170.5 77t-64.5 198zM137 265q0 -87 41.5 -136
t108.5 -49q66 0 108 50.5t42 136.5t-42.5 135t-107.5 49q-68 0 -109 -49t-41 -137z" />
    <glyph glyph-name="acircumflex.ss01" horiz-adv-x="603" 
d="M204 583h-114l135 142h121l135 -142h-113l-83 85zM32 265q0 122 65.5 198.5t173.5 76.5q116 0 173 -103v93h94v-530h-94v95q-60 -105 -177 -105q-106 0 -170.5 77t-64.5 198zM137 265q0 -87 41.5 -136t108.5 -49q66 0 108 50.5t42 136.5t-42.5 135t-107.5 49
q-68 0 -109 -49t-41 -137z" />
    <glyph glyph-name="adieresis.ss01" horiz-adv-x="603" 
d="M454 653q0 -29 -19.5 -48t-49.5 -19q-31 0 -50.5 19t-19.5 48q0 30 19.5 48.5t50.5 18.5q30 0 49.5 -18.5t19.5 -48.5zM256 653q0 -29 -19.5 -48t-50.5 -19q-30 0 -50 19t-20 48q0 30 20 48.5t50 18.5q31 0 50.5 -18.5t19.5 -48.5zM32 265q0 122 65.5 198.5t173.5 76.5
q116 0 173 -103v93h94v-530h-94v95q-60 -105 -177 -105q-106 0 -170.5 77t-64.5 198zM137 265q0 -87 41.5 -136t108.5 -49q66 0 108 50.5t42 136.5t-42.5 135t-107.5 49q-68 0 -109 -49t-41 -137z" />
    <glyph glyph-name="agrave.ss01" horiz-adv-x="603" 
d="M338 583h-109l-111 142h119zM32 265q0 122 65.5 198.5t173.5 76.5q116 0 173 -103v93h94v-530h-94v95q-60 -105 -177 -105q-106 0 -170.5 77t-64.5 198zM137 265q0 -87 41.5 -136t108.5 -49q66 0 108 50.5t42 136.5t-42.5 135t-107.5 49q-68 0 -109 -49t-41 -137z" />
    <glyph glyph-name="amacron.ss01" horiz-adv-x="603" 
d="M437 596h-303v68h303v-68zM32 265q0 122 65.5 198.5t173.5 76.5q116 0 173 -103v93h94v-530h-94v95q-60 -105 -177 -105q-106 0 -170.5 77t-64.5 198zM137 265q0 -87 41.5 -136t108.5 -49q66 0 108 50.5t42 136.5t-42.5 135t-107.5 49q-68 0 -109 -49t-41 -137z" />
    <glyph glyph-name="aogonek.ss01" horiz-adv-x="603" 
d="M32 265q0 122 65.5 198.5t173.5 76.5q116 0 173 -103v93h94v-530h-54q-39 -34 -39 -75q0 -24 13 -37.5t36 -13.5q18 0 37 8v-70q-30 -10 -60 -10q-47 0 -77 25.5t-30 70.5q0 61 80 126v71q-60 -105 -177 -105q-106 0 -170.5 77t-64.5 198zM137 265q0 -87 41.5 -136
t108.5 -49q66 0 108 50.5t42 136.5t-42.5 135t-107.5 49q-68 0 -109 -49t-41 -137z" />
    <glyph glyph-name="aring.ss01" horiz-adv-x="603" 
d="M285 578q-53 0 -88 33.5t-35 80.5q0 48 35 81.5t88 33.5t89 -33.5t36 -81.5q0 -47 -36 -80.5t-89 -33.5zM285 633q27 0 44 15t17 44t-17 44.5t-44 15.5q-25 0 -42.5 -15.5t-17.5 -44.5t17 -44t43 -15zM32 265q0 122 65.5 198.5t173.5 76.5q116 0 173 -103v93h94v-530h-94
v95q-60 -105 -177 -105q-106 0 -170.5 77t-64.5 198zM137 265q0 -87 41.5 -136t108.5 -49q66 0 108 50.5t42 136.5t-42.5 135t-107.5 49q-68 0 -109 -49t-41 -137z" />
    <glyph glyph-name="atilde.ss01" horiz-adv-x="603" 
d="M176 580h-64q-8 64 19 103.5t76 39.5q28 0 56 -15.5t50.5 -31t37.5 -15.5q40 0 40 69h65q7 -64 -20 -103.5t-77 -39.5q-36 0 -81.5 31t-61.5 31q-41 0 -40 -69zM32 265q0 122 65.5 198.5t173.5 76.5q116 0 173 -103v93h94v-530h-94v95q-60 -105 -177 -105
q-106 0 -170.5 77t-64.5 198zM137 265q0 -87 41.5 -136t108.5 -49q66 0 108 50.5t42 136.5t-42.5 135t-107.5 49q-68 0 -109 -49t-41 -137z" />
    </font>
</defs>
</svg>
