<?xml version="1.0" standalone="no"?>
<!DOCTYPE svg PUBLIC "-//W3C//DTD SVG 1.1//EN" "http://www.w3.org/Graphics/SVG/1.1/DTD/svg11.dtd" >
<svg xmlns="http://www.w3.org/2000/svg" xmlns:xlink="http://www.w3.org/1999/xlink" version="1.1">
<metadata>
Created by FontForge 20201107 at Tue Apr 23 03:49:11 2024
 By 
Copyright (c) 2016 Martin Va'cha, Displaay Type Foundry. All rights reserved.
</metadata>
<defs>
<font id="RecklessNeue-Bold" horiz-adv-x="0" >
  <font-face 
    font-family="Reckless Neue"
    font-weight="700"
    font-stretch="normal"
    units-per-em="2048"
    panose-1="0 0 0 0 0 0 0 0 0 0"
    ascent="1638"
    descent="-410"
    x-height="1042"
    cap-height="1368"
    bbox="-281 -479 2329 2193"
    underline-thickness="102"
    underline-position="-255"
    unicode-range="U+000D-F8FF"
  />
<missing-glyph horiz-adv-x="2187" 
d="M72 588q0 201 77 386t207.5 322t311.5 222.5t381 95.5v-2048q-201 9 -382 94t-311.5 221t-207 320.5t-76.5 386.5zM1143 1599q79 -38 145.5 -183t105 -365t38.5 -463q0 -369 -83.5 -660t-205.5 -350v2021zM1792 588q0 -217 -59 -413t-166 -340.5t-246 -213.5
q97 146 152 403.5t55 563.5t-55 564t-152 407q209 -106 340 -375.5t131 -595.5zM2120 588q0 -293 -154 -540.5t-414 -375.5q159 159 248.5 401t89.5 515q0 271 -90 515t-248 402q260 -129 414 -377.5t154 -539.5z" />
    <glyph glyph-name="f_f" unicode="ff" horiz-adv-x="1513" 
d="M27 985v57h170v9q0 109 42.5 195.5t115.5 140t165.5 81t196.5 27.5q107 0 187.5 -23t137.5 -83q135 106 330 106q280 0 340 -164l-227 -127q-9 98 -48.5 166t-93.5 68q-41 0 -71 -28t-46.5 -77t-24 -106.5t-7.5 -124.5v-60h285v-57h-285v-829q0 -62 34 -87t140 -40v-29
h-608v29q75 15 102 41t27 86v829h-387v-829q0 -62 34 -87t140 -40v-29h-608v29q75 15 102 41t27 86v829h-170zM502 1042h389v31q0 57 12 103q-25 125 -82 193.5t-125 68.5q-55 0 -95 -28.5t-60.5 -77t-29.5 -101t-9 -111.5v-78z" />
    <glyph glyph-name="f_f_i" unicode="ffi" horiz-adv-x="2043" 
d="M27 985v57h170v9q0 109 42.5 195.5t115.5 140t165.5 81t196.5 27.5q110 0 191.5 -24.5t140.5 -88.5q149 113 378 113q356 0 435 -180l-246 -127q-10 112 -71.5 181t-137.5 69q-68 0 -117.5 -46.5t-72.5 -119.5t-23 -160v-70h520l144 31h28v-917q0 -60 22 -85.5t83 -43.5
v-27h-514v27q60 18 82 43.5t22 85.5v829h-387v-829q0 -62 34 -87t140 -40v-29h-608v29q75 15 102 41t27 86v829h-387v-829q0 -62 34 -87t140 -40v-29h-608v29q75 15 102 41t27 86v829h-170zM502 1042h387v9q0 59 16 118q-25 127 -84 198t-125 71q-55 0 -95 -28.5t-60.5 -77
t-29.5 -101t-9 -111.5v-78z" />
    <glyph glyph-name="f_f_l" unicode="ffl" horiz-adv-x="2033" 
d="M27 985v57h170v9q0 109 42.5 195.5t115.5 140t165.5 81t196.5 27.5q109 0 191 -24.5t141 -88.5q149 113 378 113q225 0 338 -72l93 41h28v-1308q0 -60 22 -85.5t83 -43.5v-27h-514v27q60 18 82 43.5t22 85.5v1157q-30 59 -77 92t-97 33q-101 0 -157 -97t-56 -243v-56h254
v-57h-254v-829q0 -62 34 -87t140 -40v-29h-608v29q75 15 102 41t27 86v829h-387v-829q0 -62 34 -87t140 -40v-29h-608v29q75 15 102 41t27 86v829h-170zM502 1042h387v17q0 54 14 115q-24 123 -83 193.5t-124 70.5q-55 0 -95 -28.5t-60.5 -77t-29.5 -101t-9 -111.5v-78z" />
    <glyph glyph-name="f_i" unicode="fi" horiz-adv-x="1351" 
d="M68 29q75 15 102 41t27 86v829h-170v57h170v9q0 109 45 195.5t121 140t171 81t201 27.5q355 0 434 -180l-245 -127q-10 112 -71.5 181t-137.5 69q-68 0 -117.5 -46.5t-72.5 -119.5t-23 -160v-70h520l143 31h29v-917q0 -60 22 -85.5t82 -43.5v-27h-514v27q61 18 83 43.5
t22 85.5v829h-387v-829q0 -62 34 -87t140 -40v-29h-608v29z" />
    <glyph glyph-name="f_l" unicode="fl" horiz-adv-x="1339" 
d="M784 27q61 18 83 43.5t22 85.5v1157q-30 59 -77 92t-97 33q-101 0 -157 -97t-56 -243v-56h254v-57h-254v-829q0 -62 34 -87t140 -40v-29h-608v29q75 15 102 41t27 86v829h-170v57h170v17q0 106 45 191t121 137.5t171 80t201 27.5q225 0 338 -72l92 41h29v-1308
q0 -60 22 -85.5t82 -43.5v-27h-514v27z" />
    <glyph glyph-name=".notdef" horiz-adv-x="2187" 
d="M72 588q0 201 77 386t207.5 322t311.5 222.5t381 95.5v-2048q-201 9 -382 94t-311.5 221t-207 320.5t-76.5 386.5zM1143 1599q79 -38 145.5 -183t105 -365t38.5 -463q0 -369 -83.5 -660t-205.5 -350v2021zM1792 588q0 -217 -59 -413t-166 -340.5t-246 -213.5
q97 146 152 403.5t55 563.5t-55 564t-152 407q209 -106 340 -375.5t131 -595.5zM2120 588q0 -293 -154 -540.5t-414 -375.5q159 159 248.5 401t89.5 515q0 271 -90 515t-248 402q260 -129 414 -377.5t154 -539.5z" />
    <glyph glyph-name=".null" 
 />
    <glyph glyph-name="nonmarkingreturn" horiz-adv-x="682" 
 />
    <glyph glyph-name="CR" unicode="&#xd;" horiz-adv-x="1228" 
 />
    <glyph glyph-name="space" unicode=" " horiz-adv-x="460" 
 />
    <glyph glyph-name="exclam" unicode="!" horiz-adv-x="595" 
d="M285 422l-154 946h334l-152 -946h-28zM297 -29q-69 0 -118.5 49t-49.5 119q0 69 49.5 117.5t118.5 48.5q74 0 121 -48t47 -118q0 -71 -48.5 -119.5t-119.5 -48.5z" />
    <glyph glyph-name="quotedbl" unicode="&#x22;" horiz-adv-x="792" 
d="M219 840l-115 528h261l-117 -528h-29zM543 840l-115 528h260l-117 -528h-28z" />
    <glyph glyph-name="numbersign" unicode="#" horiz-adv-x="1253" 
d="M582 -76l143 510h-348l-144 -510h-104l143 510h-213v94h240l98 353h-256v92h283l145 518h105l-146 -518h349l145 518h104l-145 -518h215v-92h-242l-98 -353h258v-94h-285l-143 -510h-104zM403 528h349l98 353h-348z" />
    <glyph glyph-name="dollar" unicode="$" horiz-adv-x="1273" 
d="M602 -240v211q-196 9 -337 94t-191 236l270 72q28 -127 96.5 -216t161.5 -118v510q-180 70 -183 71q-174 75 -242 173q-58 83 -58 200q0 176 129.5 286t353.5 120v188h74v-188q189 -8 328.5 -90.5t189.5 -229.5l-266 -73q-28 133 -93 218.5t-159 108.5v-465
q25 -10 76 -29q48 -19 73 -28.5t69.5 -29t69.5 -33.5t62.5 -37.5t58.5 -45t46 -51.5t38 -62t22 -72t9 -85q0 -192 -142 -305t-382 -119v-211h-74zM397 1139q0 -84 53 -139.5t152 -100.5v442q-91 -2 -148 -57.5t-57 -144.5zM676 29h2q101 0 163 61.5t62 161.5
q0 96 -59.5 157.5t-167.5 108.5v-489z" />
    <glyph glyph-name="percent" unicode="%" horiz-adv-x="1445" 
d="M311 0l754 1368h72l-754 -1368h-72zM354 737q-137 0 -218 90.5t-81 239.5t81.5 240.5t217.5 91.5q133 0 214 -92.5t81 -239.5t-81 -238.5t-214 -91.5zM365 788q37 0 60.5 61.5t23.5 178.5q0 145 -33 232.5t-78 87.5q-36 0 -59 -62t-23 -180q0 -142 31 -230t78 -88z
M1096 -29q-137 0 -218 90.5t-81 239.5t81.5 240.5t217.5 91.5q133 0 214 -92.5t81 -239.5t-81 -238.5t-214 -91.5zM1106 23q37 0 60.5 61t23.5 178q0 145 -33 232.5t-78 87.5q-36 0 -59 -62t-23 -180q0 -142 31 -229.5t78 -87.5z" />
    <glyph glyph-name="ampersand" unicode="&#x26;" horiz-adv-x="1583" 
d="M412 741q-154 167 -154 330q0 144 110.5 236t299.5 92q190 0 302.5 -85t112.5 -204q0 -98 -87.5 -175.5t-254.5 -105.5l340 -372q62 122 33 364l260 -24q-57 -165 -250 -389l185 -203q80 -90 139.5 -129t120.5 -47v-29h-492l-151 168q-76 -95 -180.5 -147t-217.5 -52
q-206 0 -335.5 105t-129.5 272q0 144 99 246t264 133zM358 432q0 -135 80.5 -224t218.5 -89q124 0 228 96l-422 471q-105 -105 -105 -254zM547 1184q0 -83 40 -156t124 -166q108 86 108 248q0 96 -41.5 163.5t-113.5 67.5q-52 0 -84.5 -42.5t-32.5 -114.5z" />
    <glyph glyph-name="quotesingle" unicode="'" horiz-adv-x="468" 
d="M219 840l-115 528h261l-117 -528h-29z" />
    <glyph glyph-name="parenleft" unicode="(" horiz-adv-x="743" 
d="M690 -434q-99 43 -191 111.5t-172.5 163t-140.5 205t-94.5 243.5t-34.5 272q0 173 52.5 336.5t142 290t202 223t236.5 150.5l23 -21q-178 -133 -266.5 -390t-88.5 -587q0 -331 88.5 -587.5t266.5 -389.5z" />
    <glyph glyph-name="parenright" unicode=")" horiz-adv-x="743" 
d="M31 -414q178 133 266 389t88 588q0 330 -88 587t-266 390l22 21q124 -54 236.5 -150.5t202 -223t142 -290t52.5 -336.5q0 -139 -34.5 -272t-94.5 -243.5t-140.5 -205t-172.5 -163t-191 -111.5z" />
    <glyph glyph-name="asterisk" unicode="*" horiz-adv-x="864" 
d="M285 737l-183 140l295 227l-358 16l70 215l307 -196l-97 342h238l-108 -342l307 196l69 -215l-358 -16l297 -227l-184 -140l-148 346z" />
    <glyph glyph-name="plus" unicode="+" horiz-adv-x="972" 
d="M61 616v76h400v395h76v-395h376v-76h-376v-380h-76v380h-400z" />
    <glyph glyph-name="comma" unicode="," horiz-adv-x="512" 
d="M90 -225q88 20 152 75t67 144q-57 -17 -82 -17q-64 0 -103.5 44t-39.5 116q0 71 49.5 119.5t120.5 48.5q79 0 126.5 -54t47.5 -149q0 -141 -91.5 -241t-246.5 -115v29z" />
    <glyph glyph-name="hyphen" unicode="-" horiz-adv-x="620" 
d="M53 543v104h512v-104h-512z" />
    <glyph glyph-name="period" unicode="." horiz-adv-x="503" 
d="M252 -29q-69 0 -118.5 49t-49.5 119q0 69 49.5 117.5t118.5 48.5q74 0 121 -48t47 -118q0 -71 -49 -119.5t-119 -48.5z" />
    <glyph glyph-name="slash" unicode="/" horiz-adv-x="751" 
d="M41 -92l565 1497h105l-566 -1497h-104z" />
    <glyph glyph-name="zero" unicode="0" horiz-adv-x="1351" 
d="M680 -29q-119 0 -217.5 37.5t-168 103t-117.5 156t-70.5 195.5t-22.5 221t22.5 221t70.5 195.5t117.5 156t168 103t217.5 37.5q116 0 213 -37.5t165.5 -103t116.5 -156t70.5 -195.5t22.5 -221t-22.5 -221t-70.5 -195.5t-116.5 -156t-165.5 -103t-213 -37.5zM707 27
q66 0 119.5 77.5t82.5 206t29 279.5q0 200 -33.5 368.5t-102 275.5t-159.5 107q-66 0 -119 -77t-81.5 -205t-28.5 -279q0 -205 34 -375t102 -274t157 -104z" />
    <glyph glyph-name="one" unicode="1" horiz-adv-x="886" 
d="M94 29q125 12 172 40.5t47 94.5v962h-215v29q171 46 288.5 100.5t215.5 135.5h29v-1227q0 -64 40.5 -93.5t137.5 -41.5v-29h-715v29z" />
    <glyph glyph-name="two" unicode="2" horiz-adv-x="1128" 
d="M33 0v29l399 463q114 130 174 241.5t60 241.5q0 113 -68 181.5t-180 68.5q-96 0 -180 -59.5t-119 -170.5l-27 6q6 53 25.5 106t57.5 106t90 93t129 65.5t169 25.5q191 0 307.5 -107.5t116.5 -285.5q0 -57 -11.5 -110t-37.5 -102t-56 -92t-78 -88.5t-92.5 -83t-111 -84.5
t-121 -83.5t-134.5 -88.5q-31 -20 -46 -30h444q129 0 185 45.5t90 173.5h29l-62 -461h-952z" />
    <glyph glyph-name="three" unicode="3" horiz-adv-x="1159" 
d="M528 -29q-203 0 -341 88.5t-160 239.5l305 84q18 -164 78.5 -259t154.5 -95q81 0 135 80.5t54 230.5q0 152 -103 246.5t-293 93.5v31q163 28 245.5 101t82.5 175q0 104 -68.5 171t-177.5 67q-97 0 -181.5 -58.5t-119.5 -167.5l-26 9q6 51 25.5 102.5t57.5 104t89.5 92.5
t129 65t169.5 25q201 0 311.5 -96.5t110.5 -239.5q0 -75 -30 -133.5t-76.5 -95t-117 -62.5t-137.5 -38.5t-153 -20.5q93 1 172 -8t156.5 -33.5t131.5 -64t87.5 -103.5t33.5 -148q0 -179 -147.5 -281t-397.5 -102z" />
    <glyph glyph-name="four" unicode="4" horiz-adv-x="1210" 
d="M449 29q108 12 151 41t43 94v219h-608v45l661 940h265v-924h213v-61h-213v-219q0 -64 40.5 -93.5t135.5 -41.5v-29h-688v29zM121 444h522v742z" />
    <glyph glyph-name="five" unicode="5" horiz-adv-x="1144" 
d="M528 -29q-204 0 -343 89t-160 239l307 84q15 -163 78 -258.5t157 -95.5q87 0 141 83t54 240q0 172 -81 271.5t-232 99.5q-85 0 -151 -21.5t-148 -70.5l-17 10l123 727h741v-268h-727l-67 -377q78 77 183 117.5t216 40.5q213 0 346 -123.5t133 -317.5
q0 -230 -146.5 -349.5t-406.5 -119.5z" />
    <glyph glyph-name="six" unicode="6" horiz-adv-x="1263" 
d="M655 -31q-275 0 -423 174t-148 510q0 183 47.5 327.5t130.5 234.5t190.5 137t231.5 47q191 0 330.5 -82.5t167.5 -214.5l-320 -92q-7 149 -69 240t-146 91q-113 0 -172.5 -163t-62.5 -443q65 69 158 107.5t190 38.5q188 0 311 -123t123 -322q0 -204 -143 -335.5
t-396 -131.5zM412 672q3 -116 20.5 -226.5t49 -206.5t83 -154t115.5 -58q62 0 107 48.5t66 125.5t21 172q0 177 -78.5 278t-201.5 101q-49 0 -98 -20.5t-84 -59.5z" />
    <glyph glyph-name="seven" unicode="7" horiz-adv-x="1153" 
d="M303 0q-1 105 16 203t41.5 175.5t74.5 163.5t90 144t116 142t124 132.5t140 139.5h-528q-120 0 -179 -52.5t-92 -183.5h-28l61 504h1002v-29q-152 -196 -251.5 -365t-154 -331t-75.5 -311t-19 -332h-338z" />
    <glyph glyph-name="eight" unicode="8" horiz-adv-x="1241" 
d="M625 -31q-257 0 -397 90.5t-140 257.5q0 267 356 314q-68 35 -114.5 66t-93 76.5t-70 106t-23.5 134.5q0 164 124 274.5t347 110.5q219 0 351.5 -94.5t132.5 -229.5q0 -111 -83 -178.5t-231 -93.5q56 -26 91.5 -45t84 -49.5t78.5 -62t59 -73t42.5 -93.5t13.5 -113
q0 -172 -135 -285t-393 -113zM385 334q0 -131 72.5 -219t171.5 -88q89 0 148 67t59 172q0 51 -19 95t-45 74t-73.5 62t-84 51t-97.5 49q-15 7 -23 11q-109 -76 -109 -274zM444 1139q0 -48 17 -89t40.5 -70t67 -59t78 -48.5t90.5 -45.5q80 68 80 230q0 123 -61 203.5
t-142 80.5q-76 0 -123 -55.5t-47 -146.5z" />
    <glyph glyph-name="nine" unicode="9" horiz-adv-x="1263" 
d="M608 1399q275 0 423.5 -174t148.5 -510q0 -183 -47.5 -327.5t-130.5 -234.5t-190.5 -137t-231.5 -47q-191 0 -330.5 82.5t-167.5 214.5l319 92q7 -149 69 -240t146 -91q113 0 173 163t63 443q-65 -69 -158 -107.5t-190 -38.5q-188 0 -311 123t-123 322q0 204 142.5 335.5
t395.5 131.5zM389 995q0 -177 78.5 -278t202.5 -101q49 0 98 20.5t84 59.5q-3 116 -20.5 226.5t-49 206.5t-83 154t-115.5 58q-62 0 -107 -48.5t-66.5 -125.5t-21.5 -172z" />
    <glyph glyph-name="colon" unicode=":" horiz-adv-x="503" 
d="M252 741q-69 0 -118.5 49t-49.5 119q0 69 49.5 117.5t118.5 48.5q74 0 121 -48t47 -118q0 -71 -49 -119.5t-119 -48.5zM252 -29q-69 0 -118.5 49t-49.5 119q0 69 49.5 117.5t118.5 48.5q74 0 121 -48t47 -118q0 -71 -49 -119.5t-119 -48.5z" />
    <glyph glyph-name="semicolon" unicode=";" horiz-adv-x="512" 
d="M90 -225q88 20 152 75t67 144q-57 -17 -82 -17q-64 0 -103.5 44t-39.5 116q0 71 49.5 119.5t120.5 48.5q79 0 126.5 -54t47.5 -149q0 -141 -91.5 -241t-246.5 -115v29zM256 741q-69 0 -118.5 49t-49.5 119q0 69 49.5 117.5t118.5 48.5q74 0 121 -48t47 -118
q0 -71 -49 -119.5t-119 -48.5z" />
    <glyph glyph-name="less" unicode="&#x3c;" horiz-adv-x="892" 
d="M827 219l-772 383v107l772 383l31 -70l-745 -367l745 -366z" />
    <glyph glyph-name="equal" unicode="=" horiz-adv-x="972" 
d="M61 813v76h852v-76h-852zM61 479v76h852v-76h-852z" />
    <glyph glyph-name="greater" unicode="&#x3e;" horiz-adv-x="892" 
d="M66 219l-31 70l745 366l-745 367l31 70l772 -383v-107z" />
    <glyph glyph-name="question" unicode="?" horiz-adv-x="1003" 
d="M453 420q-28 69 -22.5 135.5t30.5 115.5t61 105.5t70 105t58 114.5t24 134q0 97 -44.5 154t-117.5 57q-87 0 -144 -97.5t-65 -254.5l-285 70q20 139 155.5 239.5t332.5 100.5q222 0 345.5 -84.5t123.5 -241.5q0 -66 -27 -125.5t-70.5 -104t-96 -86t-105 -80t-96 -77
t-70.5 -84.5t-27 -96h-30zM483 -29q-69 0 -118.5 49t-49.5 119q0 69 49.5 117.5t118.5 48.5q74 0 121 -48t47 -118q0 -71 -48.5 -119.5t-119.5 -48.5z" />
    <glyph glyph-name="at" unicode="@" horiz-adv-x="1957" 
d="M950 -299q-216 0 -387 58.5t-281 163.5t-167.5 249.5t-57.5 319.5q0 197 73 365t204 287.5t321.5 187t417.5 67.5q194 0 351.5 -50.5t261.5 -140t159.5 -213t55.5 -270.5q0 -110 -31.5 -205t-86.5 -165t-128.5 -120t-159.5 -75t-178 -25q-152 0 -226 68.5t-44 189.5
q-21 -60 -51 -106t-61.5 -74t-68.5 -45.5t-69 -24t-64 -6.5q-121 0 -189.5 88t-68.5 238q0 123 49 235t127.5 189t177 122.5t197.5 45.5q152 0 207 -119l76 90h151l-172 -573q-21 -67 -21.5 -120.5t26 -89.5t81.5 -36q79 0 145.5 63.5t105 175t38.5 246.5q0 287 -171 467
t-445 180q-156 0 -294.5 -63t-238 -172.5t-157.5 -264t-58 -331.5q0 -167 52 -304.5t145.5 -232t227 -146.5t294.5 -52q139 0 280.5 38.5t260.5 112.5l26 -39q-107 -87 -271 -135.5t-364 -48.5zM829 270q59 0 115 60.5t94 167.5q93 259 103 305q6 28 6 53q0 54 -25.5 83.5
t-72.5 29.5q-77 0 -153.5 -75.5t-124.5 -196t-48 -242.5q0 -92 27.5 -138.5t78.5 -46.5z" />
    <glyph glyph-name="A" unicode="A" horiz-adv-x="1626" 
d="M1384 209q41 -88 92.5 -128t139.5 -52v-29h-690v29q98 12 119.5 52t-21.5 128l-104 223h-531l-102 -223q-41 -88 -15.5 -128t131.5 -52v-29h-393v29q77 14 124.5 53.5t88.5 126.5l551 1190h29zM414 489h477l-242 515z" />
    <glyph glyph-name="B" unicode="B" horiz-adv-x="1427" 
d="M59 29q97 12 138 41.5t41 93.5v1040q0 64 -41 93.5t-138 41.5v29h680q242 0 384.5 -90t142.5 -244q0 -126 -92.5 -209t-249.5 -96q198 -17 316 -111.5t118 -236.5q0 -174 -139 -277.5t-373 -103.5h-787v29zM702 739q109 0 171.5 77t62.5 212q0 132 -70 207.5t-192 75.5
h-119v-572h147zM772 57q109 0 181.5 95t72.5 229q0 128 -84 214.5t-233 86.5h-154v-506q0 -56 34 -87.5t99 -31.5h84z" />
    <glyph glyph-name="C" unicode="C" horiz-adv-x="1411" 
d="M760 -31q-149 0 -278 53.5t-218 145.5t-140 217.5t-52 267.5q-2 212 78 379.5t240.5 267t377.5 99.5q209 0 359.5 -85.5t201.5 -236.5l-282 -84q-25 159 -104 253.5t-193 94.5q-160 0 -258 -156.5t-97 -410.5q3 -257 145.5 -416t358.5 -159q153 0 265.5 77.5t158.5 210.5
l29 -6q-40 -234 -200 -373t-392 -139z" />
    <glyph glyph-name="D" unicode="D" horiz-adv-x="1548" 
d="M700 1368q162 0 294.5 -35t222 -95t150.5 -142.5t88.5 -174t27.5 -192.5q0 -167 -64 -307t-170 -230.5t-240.5 -141t-279.5 -50.5h-670v29q97 12 138 41.5t41 93.5v1040q0 64 -41 93.5t-138 41.5v29h641zM729 57q190 0 306 169t116 458q0 115 -34 226.5t-95 201
t-154 144.5t-202 55h-111v-1155q0 -54 38 -76.5t136 -22.5z" />
    <glyph glyph-name="E" unicode="E" horiz-adv-x="1304" 
d="M59 29q97 12 138 41.5t41 93.5v1040q0 64 -41 93.5t-138 41.5v29h1102l47 -389h-28q-39 155 -143.5 243.5t-282.5 88.5h-199v-580h154q109 0 154 50.5t50 154.5h29v-469h-29q-5 106 -50 156.5t-154 50.5h-154v-510q0 -51 23.5 -79t66.5 -28h129q178 0 282.5 88.5
t143.5 243.5h29l-47 -389h-1123v29z" />
    <glyph glyph-name="F" unicode="F" horiz-adv-x="1243" 
d="M59 29q97 12 138 41.5t41 93.5v1040q0 64 -41 93.5t-138 41.5v29h1100l49 -389h-28q-39 155 -143.5 243.5t-282.5 88.5h-199v-580h152q110 0 155.5 50.5t50.5 154.5h29v-469h-29q-5 106 -50.5 156.5t-155.5 50.5h-152v-494q0 -77 49.5 -108t190.5 -43v-29h-736v29z" />
    <glyph glyph-name="G" unicode="G" horiz-adv-x="1585" 
d="M788 -31q-161 0 -296 53.5t-226 146t-142 217.5t-52 267q-2 219 85.5 387.5t256 263.5t395.5 95q211 0 364.5 -85.5t204.5 -236.5l-284 -84q-24 157 -109 252.5t-207 95.5q-172 0 -275 -175.5t-100 -456.5q3 -196 64.5 -351t167.5 -241t237 -86q112 0 183 53v389
q0 84 -43 134t-148 57v28h697v-28q-189 -13 -189 -191v-225q-87 -125 -246.5 -202t-337.5 -77z" />
    <glyph glyph-name="H" unicode="H" horiz-adv-x="1697" 
d="M965 29q97 12 137.5 41.5t40.5 93.5v508h-588v-508q0 -64 40.5 -93.5t137.5 -41.5v-29h-674v29q97 12 138 41.5t41 93.5v1040q0 64 -41 93.5t-138 41.5v29h674v-29q-97 -12 -137.5 -41.5t-40.5 -93.5v-475h588v475q0 64 -40.5 93.5t-137.5 41.5v29h673v-29
q-97 -12 -137.5 -41.5t-40.5 -93.5v-1040q0 -64 40.5 -93.5t137.5 -41.5v-29h-673v29z" />
    <glyph glyph-name="I" unicode="I" horiz-adv-x="792" 
d="M59 29q97 12 138 41.5t41 93.5v1040q0 64 -41 93.5t-138 41.5v29h674v-29q-97 -12 -137.5 -41.5t-40.5 -93.5v-1040q0 -64 40.5 -93.5t137.5 -41.5v-29h-674v29z" />
    <glyph glyph-name="J" unicode="J" horiz-adv-x="1216" 
d="M1169 1339q-102 -6 -139 -38t-37 -109v-805q0 -199 -130 -307.5t-365 -108.5q-199 0 -330 89.5t-152 230.5l328 86q1 -159 48 -253.5t124 -94.5q73 0 117.5 74.5t44.5 205.5v883q0 77 -37.5 109t-140.5 38v29h669v-29z" />
    <glyph glyph-name="K" unicode="K" horiz-adv-x="1626" 
d="M1073 0q0 58 -69 162l-336 522l-113 -104v-416q0 -64 40.5 -93.5t137.5 -41.5v-29h-674v29q97 12 138 41.5t41 93.5v1040q0 64 -41 93.5t-138 41.5v29h674v-29q-97 -12 -137.5 -41.5t-40.5 -93.5v-547l598 557q67 64 45 94.5t-133 30.5v29h434v-29q-65 -5 -142.5 -44
t-144.5 -103l-313 -293l459 -688q48 -73 115.5 -124t136.5 -58v-29h-537z" />
    <glyph glyph-name="L" unicode="L" horiz-adv-x="1245" 
d="M59 0v29q101 13 140 45t39 90v1040q0 58 -39 90t-140 45v29h674v-29q-100 -13 -139 -45t-39 -90v-1040q0 -51 23.5 -79t66.5 -28h117q178 0 282.5 88.5t143.5 243.5h29l-50 -389h-1108z" />
    <glyph glyph-name="M" unicode="M" horiz-adv-x="1964" 
d="M1905 1339q-108 -7 -146.5 -39t-38.5 -112v-1028q0 -56 41 -86t144 -45v-29h-682v29q102 13 141 44t39 87v897l-512 -1055h-72l-518 1092v-934q0 -54 41.5 -85.5t144.5 -45.5v-29h-426v29q102 13 142.5 44.5t40.5 86.5v1028q0 80 -38.5 112t-146.5 39v29h463l479 -1010
l488 1010h416v-29z" />
    <glyph glyph-name="N" unicode="N" horiz-adv-x="1544" 
d="M330 1133l-4 4v-928q0 -94 49.5 -131t179.5 -49v-29h-463v29q99 12 137.5 49.5t38.5 130.5v995q-61 68 -106.5 98.5t-102.5 36.5v29h490l700 -909v700q0 94 -48.5 131t-178.5 49v29h463v-29q-101 -12 -139.5 -49t-38.5 -131v-1190h-74z" />
    <glyph glyph-name="O" unicode="O" horiz-adv-x="1611" 
d="M805 -31q-171 0 -311.5 55.5t-231.5 150.5t-140.5 218.5t-49.5 261.5q0 216 96.5 386.5t266 264t380.5 93.5q170 0 310.5 -56t231 -150.5t140 -217.5t49.5 -260q0 -215 -96.5 -386t-265.5 -265.5t-379 -94.5zM848 27q111 0 194 76t127 210t45 308q0 190 -53 352.5
t-156 264.5t-235 103q-167 3 -267 -162.5t-100 -433.5q-1 -189 54 -352t158.5 -264t232.5 -102z" />
    <glyph glyph-name="P" unicode="P" horiz-adv-x="1341" 
d="M59 29q97 12 138 41.5t41 93.5v1040q0 64 -41 93.5t-138 41.5v29h664q264 0 416.5 -102t152.5 -289q0 -181 -152.5 -281t-416.5 -100h-168v-432q0 -64 40.5 -93.5t137.5 -41.5v-29h-674v29zM555 653h113q139 0 217 88.5t78 235.5q0 152 -78 243t-217 91h-113v-658z" />
    <glyph glyph-name="Q" unicode="Q" horiz-adv-x="1611" 
d="M805 -31q-171 0 -311.5 55.5t-231.5 150.5t-140.5 218.5t-49.5 261.5q0 216 96.5 386.5t266 264t380.5 93.5q170 0 310.5 -56t231 -150.5t140 -217.5t49.5 -260q0 -206 -89 -372t-245 -263t-352 -109q26 -74 82 -123t120.5 -69t138.5 -24.5t133.5 3.5t107.5 23l-58 -256
q-483 -7 -571 444h-8zM848 27q111 0 194 76t127 210t45 308q0 190 -53 352.5t-156 264.5t-235 103q-167 3 -267 -162.5t-100 -433.5q-1 -189 54 -352t158.5 -264t232.5 -102z" />
    <glyph glyph-name="R" unicode="R" horiz-adv-x="1540" 
d="M59 29q97 12 138 41.5t41 93.5v1040q0 64 -41 93.5t-138 41.5v29h664q264 0 416.5 -102t152.5 -289q0 -127 -77.5 -215.5t-219.5 -130.5l297 -453q38 -58 104 -99.5t132 -49.5v-29h-520q-7 45 -54 123l-292 473h-107v-432q0 -64 40.5 -93.5t137.5 -41.5v-29h-674v29z
M555 653h113q139 0 217 88.5t78 235.5q0 152 -78 243t-217 91h-113v-658z" />
    <glyph glyph-name="S" unicode="S" horiz-adv-x="1273" 
d="M647 -29q-212 0 -366 85t-207 245l270 72q32 -154 124.5 -249t209.5 -95q101 0 163 61.5t62 161.5q0 62 -27 111.5t-72 83t-104 61t-124 51.5t-130 49.5t-124 59.5t-104 76.5t-72 106t-27 142.5q0 184 140.5 295t381.5 111q131 0 242 -35.5t193.5 -108.5t117.5 -176
l-266 -73q-33 157 -116.5 246t-203.5 89q-94 0 -152.5 -55.5t-58.5 -146.5q0 -58 27.5 -104.5t74 -78.5t106.5 -59t126.5 -51.5t133.5 -51t127 -62.5t106.5 -80t74 -110t27.5 -147q0 -198 -150 -311t-403 -113z" />
    <glyph glyph-name="T" unicode="T" horiz-adv-x="1345" 
d="M831 164q0 -58 39.5 -90t139.5 -45v-29h-674v29q101 13 139.5 44.5t38.5 90.5v1147h-27q-178 0 -282.5 -88.5t-143.5 -243.5h-28l49 389h1184l47 -389h-29q-39 155 -143.5 243.5t-282.5 88.5h-27v-1147z" />
    <glyph glyph-name="U" unicode="U" horiz-adv-x="1525" 
d="M813 -29q-280 0 -440 137.5t-160 380.5v715q0 64 -40.5 93.5t-137.5 41.5v29h674v-29q-97 -12 -138 -41.5t-41 -93.5v-715q0 -183 97 -287t270 -104q164 0 261 106.5t97 284.5v715q0 64 -40.5 93.5t-135.5 41.5v29h412v-29q-97 -12 -137.5 -41.5t-40.5 -93.5v-715
q0 -233 -137 -375.5t-363 -142.5z" />
    <glyph glyph-name="V" unicode="V" horiz-adv-x="1624" 
d="M242 1159q-43 88 -95 128t-139 52v29h690v-29q-97 -12 -118.5 -51.5t20.5 -128.5l377 -794l360 794q41 89 16 128.5t-130 51.5v29h393v-29q-79 -14 -126.5 -53.5t-88.5 -126.5l-549 -1190h-31z" />
    <glyph glyph-name="W" unicode="W" horiz-adv-x="2148" 
d="M987 1159q-32 82 -78.5 125.5t-134.5 54.5v29h588v-29q-33 -6 -53 -17t-29.5 -25.5t-9.5 -37t6 -45t18 -55.5l291 -772l293 772q12 31 17.5 51.5t3.5 44t-16 39t-46 28t-82 17.5v29h383v-29q-79 -18 -122 -55.5t-77 -124.5l-454 -1190h-29l-375 949l-360 -949h-29
l-467 1190q-16 40 -30 64.5t-38.5 51.5t-60.5 42.5t-86 21.5v29h588v-29q-77 -14 -88.5 -59t22.5 -121l287 -774l232 612z" />
    <glyph glyph-name="X" unicode="X" horiz-adv-x="1536" 
d="M856 29q91 11 104.5 51t-45.5 129l-241 364l-279 -364q-69 -88 -59.5 -129t104.5 -51v-29h-417v29q98 14 165 53.5t134 126.5l321 412l-354 538q-57 88 -105.5 127.5t-115.5 52.5v29h655v-29q-90 -10 -103 -50.5t44 -129.5l202 -307l236 307q69 89 59.5 129.5
t-104.5 50.5v29h418v-29q-98 -14 -165 -53.5t-134 -126.5l-279 -354l393 -596q59 -87 107.5 -127t113.5 -53v-29h-655v29z" />
    <glyph glyph-name="Y" unicode="Y" horiz-adv-x="1402" 
d="M369 29q90 14 128 43.5t38 91.5v463l-324 532q-51 86 -96.5 126.5t-108.5 53.5v29h633v-29q-88 -12 -101.5 -51.5t40.5 -128.5l262 -440l258 440q52 89 25.5 128.5t-144.5 51.5v29h418v-29q-79 -14 -130 -53.5t-102 -126.5l-317 -532v-463q0 -62 38 -91.5t128 -43.5v-29
h-645v29z" />
    <glyph glyph-name="Z" unicode="Z" horiz-adv-x="1298" 
d="M53 0v29l799 1282h-277q-178 0 -282.5 -88.5t-145.5 -243.5h-28l49 389h1073v-29l-797 -1282h340q178 0 282.5 88.5t143.5 243.5h29l-49 -389h-1137z" />
    <glyph glyph-name="bracketleft" unicode="[" horiz-adv-x="618" 
d="M129 -387v1941h461v-69h-203v-1800h203v-72h-461z" />
    <glyph glyph-name="backslash" unicode="\" horiz-adv-x="720" 
d="M684 -92h-104l-566 1497h105z" />
    <glyph glyph-name="bracketright" unicode="]" horiz-adv-x="618" 
d="M489 -387h-460v72h202v1800h-202v69h460v-1941z" />
    <glyph glyph-name="asciicircum" unicode="^" horiz-adv-x="864" 
d="M39 883l367 549h57l364 -549h-96l-299 458l-297 -458h-96z" />
    <glyph glyph-name="underscore" unicode="_" horiz-adv-x="819" 
d="M53 -88v76h713v-76h-713z" />
    <glyph glyph-name="grave" unicode="`" horiz-adv-x="647" 
d="M547 1174h-29l-414 356h308z" />
    <glyph glyph-name="a" unicode="a" horiz-adv-x="1128" 
d="M350 -31q-127 0 -207 73t-80 189q0 158 120 241t409 142l102 21v78q0 142 -48 222.5t-134 80.5q-55 0 -96 -30t-58.5 -75.5t-15.5 -99.5t25 -100l-254 -78q-32 73 -29 138.5t42 121t101 95.5t147.5 62.5t180.5 22.5q209 0 325.5 -101t116.5 -274v-467q0 -96 115 -112
l31 -2v-29l-406 -119h-28l-15 254q-24 -119 -122 -186.5t-222 -67.5zM518 135q62 0 119 63.5t57 161.5v213l-94 -18q-112 -25 -171.5 -89t-59.5 -161q0 -75 41.5 -122.5t107.5 -47.5z" />
    <glyph glyph-name="b" unicode="b" horiz-adv-x="1257" 
d="M160 1202q0 98 -115 113l-31 4v29l420 116h29v-606q35 95 113 155t176 60q137 0 238 -73t149.5 -188.5t48.5 -254.5q0 -135 -38.5 -247t-106 -186t-159 -114.5t-196.5 -40.5q-173 0 -278 123l-222 -123h-28v1233zM463 385q0 -330 194 -330q91 0 152 122t61 302
q0 85 -13.5 162t-40.5 141.5t-74 103t-107 38.5q-54 0 -102.5 -39.5t-69.5 -96.5v-403z" />
    <glyph glyph-name="c" unicode="c" horiz-adv-x="1091" 
d="M584 -29q-159 0 -277.5 75.5t-177.5 200t-59 277.5q0 110 34 207.5t98.5 174t166.5 121t229 44.5q76 0 143.5 -17.5t114 -45.5t82 -63.5t54 -71t24.5 -68.5l-258 -70q-10 77 -31 137t-61.5 101t-94.5 41q-61 0 -108.5 -52t-72.5 -138.5t-25 -190.5q0 -214 98 -329.5
t264 -115.5q82 0 163 43t128 125l24 -8q-28 -171 -150.5 -274t-307.5 -103z" />
    <glyph glyph-name="d" unicode="d" horiz-adv-x="1247" 
d="M506 -31q-137 0 -238 73t-149.5 188.5t-48.5 254.5q0 135 38 247t102.5 186t149.5 114.5t179 40.5q175 0 256 -115v244q0 96 -113 113l-31 4v29l418 116h29v-1233q0 -96 114 -112l31 -2v-29l-405 -119h-29l-12 217q-38 -100 -117 -158.5t-174 -58.5zM623 133q59 0 106 33
t66 88v403q0 330 -195 330q-91 0 -152 -122t-61 -302q0 -84 13.5 -159t41 -137t74 -98t107.5 -36z" />
    <glyph glyph-name="e" unicode="e" horiz-adv-x="1114" 
d="M588 -29q-124 0 -224.5 43.5t-163.5 117.5t-96.5 168t-33.5 198q0 258 145.5 415.5t384.5 157.5q221 0 330.5 -120t111.5 -333h-677v-6q-7 -202 95 -314t275 -112q91 0 165 44.5t118 115.5l24 -8q-14 -76 -49.5 -141t-90.5 -116t-136 -80.5t-178 -29.5zM369 676h372
q-2 56 -12.5 112.5t-31 108.5t-54.5 84.5t-76 32.5q-86 0 -135.5 -95.5t-62.5 -242.5z" />
    <glyph glyph-name="f" unicode="f" horiz-adv-x="821" 
d="M68 29q75 15 102 41t27 86v829h-170v57h172v31q0 101 42 183.5t111.5 133.5t154 78t173.5 27q280 0 340 -164l-227 -127q-9 98 -48.5 166t-93.5 68q-41 0 -71 -28t-46.5 -77t-24 -106.5t-7.5 -124.5v-60h284v-57h-284v-829q0 -62 34 -87t140 -40v-29h-608v29z" />
    <glyph glyph-name="g" unicode="g" horiz-adv-x="1122" 
d="M530 1014q-59 0 -96 -75.5t-37 -193.5q0 -146 46 -240.5t118 -94.5q59 0 95 73t36 193q0 145 -45 241.5t-117 96.5zM547 1071q97 0 186 -29h344v-57h-225q152 -107 152 -274q0 -154 -126 -257.5t-331 -103.5q-121 0 -228 45q-38 -38 -38 -82q0 -33 45.5 -63.5
t107.5 -34.5l328 -29q157 -12 246.5 -82.5t89.5 -189.5q0 -151 -168.5 -249.5t-421.5 -98.5q-221 0 -356.5 65.5t-135.5 165.5q0 91 65 147.5t169 67.5q-127 68 -127 178q0 64 45.5 121.5t124.5 96.5q-92 44 -148.5 121t-56.5 182q0 153 127 256.5t332 103.5zM248 -111
q0 -84 49 -146t129 -92t178 -30q128 0 217.5 49.5t89.5 124.5q0 110 -206 137l-267 27q-76 8 -145 35q-45 -61 -45 -105z" />
    <glyph glyph-name="h" unicode="h" horiz-adv-x="1273" 
d="M834 711q0 79 -39 124.5t-107 45.5q-104 0 -199 -95v-628q0 -61 22.5 -87.5t82.5 -41.5v-29h-514v29q60 15 82 41t22 88v1044q0 98 -112 113l-31 4v29l420 116h28v-614q81 106 164.5 163.5t182.5 57.5q150 0 226.5 -90.5t76.5 -251.5v-571q0 -62 22 -88t82 -41v-29h-514
v29q60 15 82.5 41.5t22.5 87.5v553z" />
    <glyph glyph-name="i" unicode="i" horiz-adv-x="651" 
d="M84 29q61 16 83.5 42t22.5 87v653q0 98 -114 113l-31 4v28l420 117h29v-915q0 -61 22.5 -87t83.5 -42v-29h-516v29zM336 1184q-83 0 -138 53t-55 131q0 77 55 128.5t138 51.5t137.5 -51.5t54.5 -128.5q0 -78 -54.5 -131t-137.5 -53z" />
    <glyph glyph-name="j" unicode="j" horiz-adv-x="622" 
d="M489 150q0 -82 -12 -147.5t-45 -132t-88 -119.5t-144 -101.5t-210 -85.5l-13 26q41 26 66 45.5t55 56.5t46.5 80t28 112.5t11.5 158.5v768q0 98 -112 113l-31 4v28l420 117h28v-923zM324 1186q-84 0 -138.5 52t-54.5 132q0 76 54.5 128t138.5 52q82 0 136 -52t54 -128
q0 -80 -53.5 -132t-136.5 -52z" />
    <glyph glyph-name="k" unicode="k" horiz-adv-x="1314" 
d="M184 1202q0 98 -112 113l-31 4v29l420 116h28v-921l402 356q130 115 -57 115v28h401v-28q-76 0 -133.5 -29t-171.5 -129l-119 -108l315 -607q26 -50 63 -77t118 -35v-29h-465q-2 46 -41 125l-219 424l-93 -84v-307q0 -61 22.5 -87.5t82.5 -41.5v-29h-514v29q60 15 82 41
t22 88v1044z" />
    <glyph glyph-name="l" unicode="l" horiz-adv-x="634" 
d="M80 29q60 15 82 41t22 88v1044q0 98 -112 113l-31 4v29l420 116h28v-1306q0 -61 22.5 -87.5t82.5 -41.5v-29h-514v29z" />
    <glyph glyph-name="m" unicode="m" horiz-adv-x="1929" 
d="M84 29q61 16 83.5 42t22.5 87v653q0 98 -114 113l-31 4v28l420 117h29v-215q83 101 164 157t178 56q123 0 196.5 -62t95.5 -175q87 112 172.5 174.5t188.5 62.5q150 0 226.5 -90.5t76.5 -251.5v-571q0 -61 22.5 -87t83.5 -42v-29h-516v29q61 16 84 42t23 87v553
q0 79 -40 124.5t-108 45.5q-58 0 -104.5 -23t-99.5 -76q2 -16 2 -53v-571q0 -62 22 -88t82 -41v-29h-514v29q60 15 82.5 41.5t22.5 87.5v553q0 79 -39 124.5t-107 45.5q-105 0 -194 -86v-637q0 -61 22.5 -87t83.5 -42v-29h-516v29z" />
    <glyph glyph-name="n" unicode="n" horiz-adv-x="1280" 
d="M840 711q0 79 -40 124.5t-108 45.5q-54 0 -100.5 -22t-97.5 -73v-628q0 -61 22.5 -87t83.5 -42v-29h-516v29q61 16 83.5 42t22.5 87v653q0 98 -114 113l-31 2v28l420 119h29v-223q82 106 164.5 163.5t181.5 57.5q150 0 226.5 -90.5t76.5 -251.5v-571q0 -61 22.5 -87
t83.5 -42v-29h-516v29q61 16 84 42t23 87v553z" />
    <glyph glyph-name="o" unicode="o" horiz-adv-x="1218" 
d="M602 -31q-236 0 -384 147.5t-148 381.5q0 255 152 415t394 160q236 0 384.5 -147.5t148.5 -382.5q0 -255 -152 -414.5t-395 -159.5zM643 27q93 0 143 107.5t50 289.5q0 164 -31.5 298.5t-91 214t-135.5 79.5q-93 0 -144 -110t-51 -288q0 -165 32.5 -299.5t92.5 -213
t135 -78.5z" />
    <glyph glyph-name="p" unicode="p" horiz-adv-x="1288" 
d="M190 811q0 98 -114 113l-31 2v28l420 119h29v-209q38 96 116.5 152.5t171.5 56.5q104 0 188 -42t138 -114t82.5 -164.5t28.5 -195.5q0 -135 -38 -247t-102.5 -186t-149.5 -114.5t-179 -40.5q-176 0 -256 115v-332q0 -62 34 -87t140 -40v-28h-607v28q74 15 101.5 41
t27.5 86v1059zM494 385q0 -330 194 -330q91 0 152 122t61 302q0 115 -22.5 208.5t-77.5 157.5t-135 64q-59 0 -106 -33t-66 -88v-403z" />
    <glyph glyph-name="q" unicode="q" horiz-adv-x="1230" 
d="M1098 -248q0 -60 27.5 -86t101.5 -41v-28h-606v28q106 15 140 40t34 87v430q-35 -94 -115 -153.5t-184 -59.5q-100 0 -182 42t-134.5 113.5t-81 164t-28.5 196.5q0 135 38.5 247t105.5 186t158.5 114.5t196.5 40.5q178 0 283 -121l217 121h29v-1321zM387 561
q0 -84 13.5 -158.5t41 -136t74 -97.5t107.5 -36q57 0 106 35t66 86v465q0 268 -195 268q-91 0 -152 -122.5t-61 -303.5z" />
    <glyph glyph-name="r" unicode="r" horiz-adv-x="915" 
d="M494 156q0 -62 34 -87t140 -40v-29h-607v29q74 15 101.5 41t27.5 86v655q0 98 -114 113l-31 2v28l420 119h29v-317q51 148 133 232.5t184 84.5q48 0 88 -18l-18 -275q-51 43 -144 43q-73 0 -139.5 -35.5t-103.5 -99.5v-532z" />
    <glyph glyph-name="s" unicode="s" horiz-adv-x="1026" 
d="M530 -29q-165 0 -293.5 66t-179.5 166l211 112q31 -128 109 -207t176 -79q76 0 126 41t50 108q0 63 -34.5 106.5t-89 67.5t-121 43.5t-132.5 43.5t-121 57.5t-90 94.5t-35 146q0 148 118 241t311 93q144 0 256 -54.5t151 -152.5l-194 -100q-36 112 -104 181t-148 69
q-68 0 -112 -39.5t-44 -102.5q0 -49 27 -85.5t71 -57.5t100.5 -41.5t115.5 -37t115.5 -45t100.5 -63t71.5 -93.5t27.5 -136q1 -152 -124 -247t-315 -95z" />
    <glyph glyph-name="t" unicode="t" horiz-adv-x="792" 
d="M465 1321v-279h297v-57h-297v-696q0 -80 44 -134.5t118 -54.5q10 0 19 1t17.5 3t15 3.5t15 5.5t13.5 6.5t13.5 7.5t11.5 7t12.5 8.5t11.5 7.5l16 -17q-113 -164 -311 -164q-138 0 -218.5 82.5t-80.5 227.5v706h-113v29l387 307h29z" />
    <glyph glyph-name="u" unicode="u" horiz-adv-x="1280" 
d="M467 332q0 -80 39 -126t106 -46q56 0 103.5 23t99.5 75v553q0 98 -113 113l-30 4v28l420 117h28v-842q0 -96 113 -112l31 -2v-29l-404 -119h-29l-14 228q-84 -109 -168 -168.5t-184 -59.5q-150 0 -226.5 91t-76.5 251v500q0 98 -113 113l-31 4v28l420 117h29v-741z" />
    <glyph glyph-name="v" unicode="v" horiz-adv-x="1165" 
d="M141 891q-34 66 -65 91.5t-84 31.5v28h598v-28q-80 -3 -108.5 -34.5t-2.5 -88.5l246 -541l244 541q25 54 0.5 86.5t-95.5 36.5v28h300v-28q-51 -6 -80 -32t-60 -91l-430 -922h-29z" />
    <glyph glyph-name="w" unicode="w" horiz-adv-x="1746" 
d="M795 891q-28 62 -55.5 89.5t-82.5 33.5v28h574v-28q-72 -5 -99.5 -36t-3.5 -87l218 -518l217 518q24 52 2.5 85.5t-84.5 37.5v28h274v-28q-46 -6 -73 -31t-56 -92l-397 -922h-29l-319 729l-320 -729h-26l-408 922q-28 61 -55.5 89t-79.5 34v28h569v-28q-69 -5 -96.5 -36
t-3.5 -87l219 -518l168 397z" />
    <glyph glyph-name="x" unicode="x" horiz-adv-x="1206" 
d="M600 29q51 9 63 41t-18 82l-164 260l-202 -260q-38 -50 -22.5 -82t81.5 -41v-29h-324v29q59 13 101 38.5t90 84.5l246 309l-271 430q-35 56 -66.5 80t-93.5 43v28h584v-28q-51 -10 -62.5 -43t17.5 -80l129 -203l160 203q38 50 22 82t-82 41v28h324v-28
q-60 -13 -102 -38.5t-90 -84.5l-201 -252l309 -487q38 -61 70.5 -85t93.5 -38l2 -29h-594v29z" />
    <glyph glyph-name="y" unicode="y" horiz-adv-x="1148" 
d="M143 891q-32 67 -62 93.5t-77 29.5v28h590v-28q-77 -3 -107 -35.5t-4 -87.5l244 -535l246 535q52 117 -90 123v28h295v-28q-49 -3 -79.5 -29t-62.5 -94l-434 -940q-45 -95 -84.5 -159t-91 -118.5t-114 -81t-138.5 -26.5q-68 0 -111 18l82 275q94 -62 179 -62
q146 0 219 158l22 49z" />
    <glyph glyph-name="z" unicode="z" horiz-adv-x="1038" 
d="M997 1042v-28l-606 -957h291q84 0 159.5 80t114.5 234h29l-33 -371h-913v29l604 956h-252q-87 0 -164 -68.5t-121 -211.5h-28l28 337h891z" />
    <glyph glyph-name="braceleft" unicode="{" horiz-adv-x="684" 
d="M659 -406q-110 0 -194.5 18t-150.5 58.5t-101 111t-35 169.5v342q0 149 -28.5 204t-124.5 72v29q96 17 124.5 72.5t28.5 206.5v344q0 99 35 168.5t101 109t150.5 57t194.5 17.5v-29q-41 -5 -72.5 -15t-60.5 -32.5t-48 -56t-30.5 -87t-11.5 -124.5v-359q0 -262 -278 -286
q278 -24 278 -287v-354q0 -88 16.5 -149.5t48 -96.5t69.5 -51.5t89 -22.5v-29z" />
    <glyph glyph-name="bar" unicode="|" horiz-adv-x="321" 
d="M121 -434v2048h80v-2048h-80z" />
    <glyph glyph-name="braceright" unicode="}" horiz-adv-x="684" 
d="M25 -377q51 6 89 22.5t69.5 51.5t48 96.5t16.5 149.5v354q0 263 278 287q-278 24 -278 286v359q0 71 -11.5 124.5t-30.5 87t-48 56t-60.5 32.5t-72.5 15v29q110 0 194.5 -17.5t150.5 -57t101 -109t35 -168.5v-344q0 -151 28.5 -206.5t124.5 -72.5v-29q-96 -17 -124.5 -72
t-28.5 -204v-342q0 -99 -35 -169.5t-101 -111t-150.5 -58.5t-194.5 -18v29z" />
    <glyph glyph-name="asciitilde" unicode="~" horiz-adv-x="854" 
d="M571 575q-48 0 -98 16t-85.5 35.5t-81 35.5t-85.5 16q-99 0 -129 -103l-31 3q12 142 69.5 215t154.5 73q60 0 184 -52t168 -52q97 0 127 102l31 -2q-10 -141 -67.5 -214t-156.5 -73z" />
    <glyph glyph-name="uni00A0" unicode="&#xa0;" horiz-adv-x="409" 
 />
    <glyph glyph-name="exclamdown" unicode="&#xa1;" horiz-adv-x="595" 
d="M285 594h28l152 -946h-334zM297 1044q71 0 119.5 -48.5t48.5 -118.5t-47 -118t-121 -48q-69 0 -118.5 48.5t-49.5 117.5q0 70 49.5 118.5t118.5 48.5z" />
    <glyph glyph-name="cent" unicode="&#xa2;" horiz-adv-x="1091" 
d="M70 524q0 138 51 254t158.5 196t255.5 95v201h75v-199q92 -1 169 -28t125 -68t76.5 -84.5t35.5 -85.5l-258 -70q-10 77 -31 137t-61.5 101t-94.5 41q-61 0 -108.5 -52t-72.5 -138.5t-25 -190.5q0 -214 98 -329.5t264 -115.5q82 0 163 43t128 125l24 -8
q-27 -165 -142 -267.5t-290 -109.5v-211h-75v213q-144 12 -251 89.5t-160.5 197t-53.5 264.5z" />
    <glyph glyph-name="sterling" unicode="&#xa3;" horiz-adv-x="1185" 
d="M811 -29q-60 0 -122.5 15.5t-106.5 34t-104 34t-116 15.5q-119 0 -270 -72l-20 27q134 152 192 262.5t58 208.5q0 69 -46 170h-229v75h193q-22 47 -34.5 77.5t-24 77.5t-11.5 91q0 186 130.5 298t336.5 112q157 0 286 -80.5t183 -237.5l-287 -84q-23 162 -80 253t-131 91
q-69 0 -118.5 -56.5t-49.5 -164.5q0 -56 24 -119t58.5 -135.5t48.5 -122.5h373v-75h-358q2 -10 2 -31q0 -124 -58.5 -223.5t-197.5 -214.5q149 79 260 79q65 0 162.5 -33.5t146.5 -33.5q80 0 139 32.5t82 90.5l27 -6q-20 -163 -102 -259t-236 -96z" />
    <glyph glyph-name="currency" unicode="&#xa4;" horiz-adv-x="1173" 
d="M588 12q-188 0 -324 123l-176 -176l-55 51l178 180q-113 139 -113 320q0 180 113 319l-180 183l55 51l178 -178q138 125 324 125q184 0 319 -125l183 184l55 -53l-184 -185q112 -141 112 -321q0 -181 -112 -322l182 -182l-56 -53l-180 182q-136 -123 -319 -123zM586 86
q167 0 287 124.5t120 299.5q0 177 -119.5 301.5t-287.5 124.5t-288 -125t-120 -301t120 -300t288 -124z" />
    <glyph glyph-name="yen" unicode="&#xa5;" horiz-adv-x="1402" 
d="M223 561v76h305l-317 522q-51 86 -96.5 126.5t-108.5 53.5v29h633v-29q-88 -12 -101.5 -51.5t40.5 -128.5l262 -440l258 440q52 89 25.5 128.5t-144.5 51.5v29h418v-29q-79 -14 -130 -53.5t-102 -126.5l-311 -522h305v-76h-311v-397q0 -62 38 -91.5t128 -43.5v-29h-645
v29q90 14 128 43.5t38 91.5v397h-312z" />
    <glyph glyph-name="brokenbar" unicode="&#xa6;" horiz-adv-x="321" 
d="M201 365v-799h-80v799h80zM121 815v799h80v-799h-80z" />
    <glyph glyph-name="section" unicode="&#xa7;" horiz-adv-x="952" 
d="M438 -434q-146 0 -233 76.5t-107 203.5l289 52q6 -121 41 -195t92 -74q43 0 69.5 39.5t26.5 98.5q0 71 -31 147t-80.5 147.5t-109.5 147.5t-120.5 158t-110 166.5t-80.5 186t-31 204.5q0 207 121.5 340t337.5 133q157 0 244.5 -77.5t103.5 -201.5l-289 -51
q-7 125 -43.5 195.5t-89.5 70.5q-43 0 -73.5 -38t-30.5 -117q0 -75 31 -151.5t80 -145t109 -140t119.5 -149t108.5 -158.5t80 -182t31 -207q0 -217 -126.5 -348t-328.5 -131zM125 926q0 -95 30 -191.5t78.5 -178.5t107.5 -163t118.5 -157.5t109 -149t82 -150.5t35.5 -149
q3 -52 -8 -88q143 136 143 342q0 100 -31 197.5t-80.5 177.5t-109.5 157.5t-119.5 150t-109 142.5t-80.5 148t-31 153q0 67 29 123q-164 -136 -164 -364z" />
    <glyph glyph-name="dieresis" unicode="&#xa8;" horiz-adv-x="993" 
d="M279 1186q-76 0 -126.5 49t-50.5 121q0 69 50.5 116.5t126.5 47.5q75 0 125.5 -47.5t50.5 -116.5q0 -72 -50.5 -121t-125.5 -49zM723 1186q-75 0 -125.5 49t-50.5 121q0 69 50.5 116.5t125.5 47.5t125.5 -47.5t50.5 -116.5q0 -72 -50.5 -121t-125.5 -49z" />
    <glyph glyph-name="copyright" unicode="&#xa9;" horiz-adv-x="1630" 
d="M825 252q-178 0 -287.5 119t-109.5 313q0 195 110 314.5t287 119.5q131 0 218 -71t120 -193l-61 -16q-19 100 -95 161.5t-182 61.5q-155 0 -245.5 -101t-90.5 -276q0 -173 90.5 -274t245.5 -101q101 0 178.5 60.5t102.5 160.5l57 -12q-31 -120 -123.5 -193t-214.5 -73z
M815 -29q-144 0 -275.5 57t-227 152.5t-152 227.5t-56.5 276t56.5 276t152 227.5t227 152.5t275.5 57q145 0 277 -57t228 -152.5t153 -227.5t57 -276t-57 -276t-153 -227.5t-228 -152.5t-277 -57zM815 27q178 0 330 88.5t241 240t89 328.5t-89 328.5t-241 240t-330 88.5
q-133 0 -254 -52.5t-209 -140.5t-140 -209.5t-52 -254.5t52 -254.5t140 -209.5t209 -140.5t254 -52.5z" />
    <glyph glyph-name="ordfeminine" unicode="&#xaa;" horiz-adv-x="733" 
d="M416 1309q0 86 -22.5 133t-63.5 47q-40 0 -63.5 -31.5t-23 -74t18.5 -85.5l-194 -57q-34 85 -3.5 148t110.5 99t185 36q140 0 217.5 -61.5t77.5 -166.5v-266q0 -27 19 -45t51 -24l14 -3v-18l-305 -84h-18v139q-19 -66 -73.5 -102.5t-131.5 -36.5q-79 0 -128.5 43.5
t-49.5 114.5q0 42 15.5 74t42 55t72.5 41.5t95.5 31t122.5 25.5l35 6v62zM268 1079q0 -42 22 -69t56 -27q23 0 44.5 16t25.5 41v172l-31 -6q-50 -11 -83.5 -44.5t-33.5 -82.5z" />
    <glyph glyph-name="guillemotleft" unicode="&#xab;" horiz-adv-x="806" 
d="M25 614v29l364 256l19 -22l-148 -248l148 -250l-19 -21zM389 614v29l365 256l18 -22l-147 -248l147 -250l-18 -21z" />
    <glyph glyph-name="logicalnot" unicode="&#xac;" horiz-adv-x="1007" 
d="M61 635v76h852v-602h-82v526h-770z" />
    <glyph glyph-name="registered" unicode="&#xae;" horiz-adv-x="1630" 
d="M532 254v858h297q107 0 172.5 -62t65.5 -165q0 -77 -47.5 -135t-124.5 -78l256 -418h-74l-248 408h-235v-408h-62zM827 719q84 0 131.5 45t47.5 121q0 77 -47.5 123.5t-129.5 46.5h-235v-336h233zM815 -29q-144 0 -275.5 57t-227 152.5t-152 227.5t-56.5 276t56.5 276
t152 227.5t227 152.5t275.5 57q145 0 277 -57t228 -152.5t153 -227.5t57 -276t-57 -276t-153 -227.5t-228 -152.5t-277 -57zM815 27q178 0 330 88.5t241 240t89 328.5t-89 328.5t-241 240t-330 88.5q-133 0 -254 -52.5t-209 -140.5t-140 -209.5t-52 -254.5t52 -254.5
t140 -209.5t209 -140.5t254 -52.5z" />
    <glyph glyph-name="macron" unicode="&#xaf;" horiz-adv-x="839" 
d="M102 1225v80h635v-80h-635z" />
    <glyph glyph-name="degree" unicode="&#xb0;" horiz-adv-x="624" 
d="M315 862q-110 -1 -188 76.5t-78 187.5q0 108 76.5 184.5t183.5 78.5q112 1 190.5 -76.5t78.5 -186.5t-77 -185t-186 -79zM315 936q79 0 131 55t52 135q0 78 -55 133.5t-134 55.5q-78 0 -130 -55t-52 -134t55 -134.5t133 -55.5z" />
    <glyph glyph-name="plusminus" unicode="&#xb1;" horiz-adv-x="972" 
d="M61 702v76h400v396h76v-396h376v-76h-376v-380h-76v380h-400zM61 -27v76h852v-76h-852z" />
    <glyph glyph-name="uni00B2" unicode="&#xb2;" horiz-adv-x="696" 
d="M14 752v16l265 313q52 62 76 117t24 127q0 64 -39 103.5t-102 39.5q-53 0 -99 -33.5t-67 -97.5l-17 2q2 38 18 78t48.5 80t92.5 66t138 26q122 0 197.5 -68t75.5 -178q0 -48 -13.5 -90t-43 -78t-61.5 -65t-83.5 -60.5t-95 -55t-109.5 -57.5q-9 -5 -14 -7h268
q73 0 109.5 30t56.5 107h18l-39 -315h-604z" />
    <glyph glyph-name="uni00B3" unicode="&#xb3;" horiz-adv-x="706" 
d="M330 735q-131 0 -219 56t-97 139l232 63q11 -105 39.5 -165t70.5 -60q38 0 61 51t23 135q0 88 -57.5 144.5t-163.5 56.5v16q178 43 178 158q0 62 -39 100.5t-102 38.5q-54 0 -100.5 -34t-65.5 -97l-14 2q1 29 10.5 60.5t31.5 66t54.5 61.5t84 44.5t114.5 17.5
q131 0 200.5 -59.5t69.5 -147.5q0 -168 -223 -204q122 -8 194 -60.5t72 -156.5q0 -106 -96 -166t-258 -60z" />
    <glyph glyph-name="acute" unicode="&#xb4;" horiz-adv-x="647" 
d="M102 1174l136 356h307l-414 -356h-29z" />
    <glyph glyph-name="uni00B5" unicode="&#xb5;" horiz-adv-x="1077" 
d="M102 -406v1448h80v-673q0 -84 35.5 -156t108.5 -119t170 -47q180 0 290.5 149.5t110.5 389.5v456h80v-1042h-80v252q-41 -119 -149.5 -200t-255.5 -81q-109 0 -186.5 44.5t-123.5 111.5v-533h-80z" />
    <glyph glyph-name="paragraph" unicode="&#xb6;" horiz-adv-x="1181" 
d="M414 696q-151 0 -257 98t-106 238q0 141 106 238.5t257 97.5h692v-74h-139v-1728h-82v1726h-387v-1726h-84v1130z" />
    <glyph glyph-name="periodcentered" unicode="&#xb7;" horiz-adv-x="503" 
d="M252 584q-69 0 -118.5 49t-49.5 119q0 69 49.5 117.5t118.5 48.5q74 0 121 -48t47 -118t-49 -119t-119 -49z" />
    <glyph glyph-name="cedilla" unicode="&#xb8;" horiz-adv-x="571" 
d="M102 -410q93 -3 142 24t51 79q0 44 -30.5 68.5t-86.5 39.5l109 199h45l-37 -106q30 -2 58 -12t55.5 -28.5t44 -51.5t16.5 -76q0 -68 -50 -112t-131.5 -55t-185.5 3v28z" />
    <glyph glyph-name="uni00B9" unicode="&#xb9;" horiz-adv-x="565" 
d="M45 768q73 10 102 27.5t29 46.5v569h-127v16q126 36 206.5 70t147.5 84h17v-739q0 -28 25 -46t81 -28v-16h-481v16z" />
    <glyph glyph-name="ordmasculine" unicode="&#xba;" horiz-adv-x="772" 
d="M383 856q-153 0 -249.5 89.5t-96.5 230.5q0 154 98 251t254 97q154 0 250 -89.5t96 -232.5q0 -154 -97.5 -250t-254.5 -96zM410 891q82 0 82 221q0 168 -39.5 272.5t-87.5 104.5q-84 0 -84 -225q0 -170 40 -271.5t89 -101.5z" />
    <glyph glyph-name="guillemotright" unicode="&#xbb;" horiz-adv-x="806" 
d="M782 614l-364 -256l-19 21l148 250l-148 248l19 22l364 -256v-29zM418 614l-365 -256l-18 21l147 250l-147 248l18 22l365 -256v-29z" />
    <glyph glyph-name="onequarter" unicode="&#xbc;" horiz-adv-x="1568" 
d="M45 563q73 10 102 27.5t29 46.5v569h-127v17q127 37 207.5 70.5t146.5 82.5h17v-739q0 -28 25 -46t81 -28v-16h-481v16zM403 0l754 1368h72l-754 -1368h-72zM1081 16q103 19 103 74v139h-355v31l390 561h211v-555h118v-37h-118v-139q0 -28 24 -46t80 -28v-16h-453v16z
M881 266h303v439z" />
    <glyph glyph-name="onehalf" unicode="&#xbd;" horiz-adv-x="1644" 
d="M45 563q73 10 102 27.5t29 46.5v569h-127v17q127 37 207.5 70.5t146.5 82.5h17v-739q0 -28 25 -46t81 -28v-16h-481v16zM403 0l754 1368h72l-754 -1368h-72zM963 0v16l264 314q52 62 76 116.5t24 126.5q0 64 -39 104t-102 40q-53 0 -99 -33.5t-67 -97.5l-16 2q2 38 18 78
t48 80t92 66t138 26q122 0 197.5 -68t75.5 -178q0 -71 -27 -127.5t-98 -110.5t-119.5 -82t-164.5 -88q-7 -4 -11 -6h268q73 0 109.5 30t56.5 107h19l-39 -315h-604z" />
    <glyph glyph-name="threequarters" unicode="&#xbe;" horiz-adv-x="1622" 
d="M330 530q-131 0 -219 56t-97 139l232 63q11 -105 39.5 -165t70.5 -60q38 0 61 51.5t23 135.5q0 87 -57.5 143.5t-163.5 56.5v17q93 23 135.5 61.5t42.5 95.5q0 62 -39 101t-102 39q-54 0 -100.5 -34t-65.5 -97l-14 2q1 29 10.5 60.5t31.5 66t54.5 61t84 44t114.5 17.5
q131 0 200.5 -59t69.5 -147q0 -169 -223 -205q122 -8 194 -60.5t72 -156.5q0 -106 -96 -166t-258 -60zM457 0l753 1368h72l-754 -1368h-71zM1135 16q102 19 102 74v139h-354v31l389 561h211v-555h119v-37h-119v-139q0 -28 24 -46t80 -28v-16h-452v16zM934 266h303v439z" />
    <glyph glyph-name="questiondown" unicode="&#xbf;" horiz-adv-x="987" 
d="M586 596q23 -61 23 -117t-18 -103t-45 -91.5t-59 -90.5t-59 -91.5t-45 -102t-18 -115.5q0 -97 44 -154t117 -57q87 0 144 98t65 255l285 -70q-20 -139 -155.5 -239.5t-332.5 -100.5q-222 0 -345.5 84.5t-123.5 241.5q0 66 27 125.5t70.5 104t96 86t105 80t96 77
t70.5 84.5t27 96h31zM555 1044q69 0 118.5 -48.5t49.5 -118.5q0 -69 -49.5 -117.5t-118.5 -48.5q-74 0 -121 48t-47 118t48.5 118.5t119.5 48.5z" />
    <glyph glyph-name="Agrave" unicode="&#xc0;" horiz-adv-x="1626" 
d="M1401 209q41 -88 92.5 -128t138.5 -52v-29h-690v29q98 12 119.5 52t-21.5 128l-104 223h-530l-103 -223q-41 -88 -15 -128t132 -52v-29h-393v29q77 14 124.5 53.5t88.5 126.5l551 1190h28zM848 1499h-29l-413 356h307zM430 489h477l-241 515z" />
    <glyph glyph-name="Aacute" unicode="&#xc1;" horiz-adv-x="1626" 
d="M1401 209q41 -88 92.5 -128t138.5 -52v-29h-690v29q98 12 119.5 52t-21.5 128l-104 223h-530l-103 -223q-41 -88 -15 -128t132 -52v-29h-393v29q77 14 124.5 53.5t88.5 126.5l551 1190h28zM731 1499l135 356h308l-414 -356h-29zM430 489h477l-241 515z" />
    <glyph glyph-name="Acircumflex" unicode="&#xc2;" horiz-adv-x="1626" 
d="M1401 209q41 -88 92.5 -128t138.5 -52v-29h-690v29q98 12 119.5 52t-21.5 128l-104 223h-530l-103 -223q-41 -88 -15 -128t132 -52v-29h-393v29q77 14 124.5 53.5t88.5 126.5l551 1190h28zM676 1851h244l206 -356h-28l-299 221l-291 -221h-29zM430 489h477l-241 515z" />
    <glyph glyph-name="Atilde" unicode="&#xc3;" horiz-adv-x="1626" 
d="M1401 209q41 -88 92.5 -128t138.5 -52v-29h-690v29q98 12 119.5 52t-21.5 128l-104 223h-530l-103 -223q-41 -88 -15 -128t132 -52v-29h-393v29q77 14 124.5 53.5t88.5 126.5l551 1190h28zM948 1516q-60 0 -122 25.5t-120 51t-108 25.5q-99 0 -129 -102l-31 2
q12 142 69.5 215t154.5 73q60 0 184 -52t168 -52q97 0 127 102l30 -2q-10 -141 -67 -213.5t-156 -72.5zM430 489h477l-241 515z" />
    <glyph glyph-name="Adieresis" unicode="&#xc4;" horiz-adv-x="1626" 
d="M1401 209q41 -88 92.5 -128t138.5 -52v-29h-690v29q98 12 119.5 52t-21.5 128l-104 223h-530l-103 -223q-41 -88 -15 -128t132 -52v-29h-393v29q77 14 124.5 53.5t88.5 126.5l551 1190h28zM590 1513q-75 0 -125.5 48t-50.5 120q0 70 50.5 117t125.5 47q76 0 126 -46.5
t50 -117.5q0 -72 -50 -120t-126 -48zM1034 1513q-75 0 -125.5 48t-50.5 120q0 70 50.5 117t125.5 47q76 0 126 -46.5t50 -117.5q0 -72 -50 -120t-126 -48zM430 489h477l-241 515z" />
    <glyph glyph-name="Aring" unicode="&#xc5;" horiz-adv-x="1626" 
d="M1401 209q41 -88 92.5 -128t138.5 -52v-29h-690v29q98 12 119.5 52t-21.5 128l-104 223h-530l-103 -223q-41 -88 -15 -128t132 -52v-29h-393v29q77 14 124.5 53.5t88.5 126.5l551 1190h28zM807 1462q-98 0 -159.5 60t-61.5 151q0 93 61.5 153t159.5 60t159.5 -60
t61.5 -153q0 -91 -61.5 -151t-159.5 -60zM807 1530q62 0 100.5 40.5t38.5 104.5q0 62 -39 102t-100 40q-59 0 -99 -40.5t-40 -101.5q0 -64 40 -104.5t99 -40.5zM430 489h477l-241 515z" />
    <glyph glyph-name="AE" unicode="&#xc6;" horiz-adv-x="2060" 
d="M815 0v29q97 12 137.5 41.5t40.5 93.5v352h-467l-196 -301q-56 -85 -36 -128t124 -58v-29h-408v29q77 17 137 61t113 125l629 965q46 72 14 108.5t-149 50.5v29h1161l49 -389h-29q-41 155 -145.5 243.5t-282.5 88.5h-196v-580h198q147 0 160 205h29v-469h-29
q-12 207 -160 207h-198v-510q0 -51 23.5 -79t66.5 -28h127q178 0 282.5 88.5t145.5 243.5h29l-50 -389h-1120zM563 573h430v662z" />
    <glyph glyph-name="Ccedilla" unicode="&#xc7;" horiz-adv-x="1411" 
d="M760 -31q-31 0 -45 2l-27 -77q30 -2 58 -12t55.5 -28.5t44 -51.5t16.5 -76q0 -68 -50 -112t-131 -55t-185 3v28q92 -3 141 24t51 79q0 44 -30.5 68.5t-86.5 39.5l95 174q-263 32 -427.5 222.5t-166.5 455.5q-2 212 78 379.5t240.5 267t377.5 99.5q209 0 359.5 -85.5
t201.5 -236.5l-282 -84q-25 159 -104 253.5t-193 94.5q-160 0 -258 -156.5t-97 -410.5q3 -257 145.5 -416t358.5 -159q153 0 265.5 77.5t158.5 210.5l29 -6q-40 -234 -200 -373t-392 -139z" />
    <glyph glyph-name="Egrave" unicode="&#xc8;" horiz-adv-x="1304" 
d="M59 29q97 12 138 41.5t41 93.5v1040q0 64 -41 93.5t-138 41.5v29h1102l47 -389h-28q-39 155 -143.5 243.5t-282.5 88.5h-199v-580h154q109 0 154 50.5t50 154.5h29v-469h-29q-5 106 -50 156.5t-154 50.5h-154v-510q0 -51 23.5 -79t66.5 -28h129q178 0 282.5 88.5
t143.5 243.5h29l-47 -389h-1123v29zM721 1499h-29l-413 356h307z" />
    <glyph glyph-name="Eacute" unicode="&#xc9;" horiz-adv-x="1304" 
d="M59 29q97 12 138 41.5t41 93.5v1040q0 64 -41 93.5t-138 41.5v29h1102l47 -389h-28q-39 155 -143.5 243.5t-282.5 88.5h-199v-580h154q109 0 154 50.5t50 154.5h29v-469h-29q-5 106 -50 156.5t-154 50.5h-154v-510q0 -51 23.5 -79t66.5 -28h129q178 0 282.5 88.5
t143.5 243.5h29l-47 -389h-1123v29zM604 1499l135 356h308l-414 -356h-29z" />
    <glyph glyph-name="Ecircumflex" unicode="&#xca;" horiz-adv-x="1304" 
d="M59 29q97 12 138 41.5t41 93.5v1040q0 64 -41 93.5t-138 41.5v29h1102l47 -389h-28q-39 155 -143.5 243.5t-282.5 88.5h-199v-580h154q109 0 154 50.5t50 154.5h29v-469h-29q-5 106 -50 156.5t-154 50.5h-154v-510q0 -51 23.5 -79t66.5 -28h129q178 0 282.5 88.5
t143.5 243.5h29l-47 -389h-1123v29zM549 1849h244l206 -356h-28l-299 221l-291 -221h-29z" />
    <glyph glyph-name="Edieresis" unicode="&#xcb;" horiz-adv-x="1304" 
d="M59 29q97 12 138 41.5t41 93.5v1040q0 64 -41 93.5t-138 41.5v29h1102l47 -389h-28q-39 155 -143.5 243.5t-282.5 88.5h-199v-580h154q109 0 154 50.5t50 154.5h29v-469h-29q-5 106 -50 156.5t-154 50.5h-154v-510q0 -51 23.5 -79t66.5 -28h129q178 0 282.5 88.5
t143.5 243.5h29l-47 -389h-1123v29zM465 1511q-76 0 -126 49t-50 121q0 70 50 117t126 47q75 0 125.5 -47.5t50.5 -116.5q0 -72 -50.5 -121t-125.5 -49zM909 1511q-75 0 -125.5 49t-50.5 121q0 69 50.5 116.5t125.5 47.5t125.5 -47.5t50.5 -116.5q0 -72 -50.5 -121
t-125.5 -49z" />
    <glyph glyph-name="Igrave" unicode="&#xcc;" horiz-adv-x="792" 
d="M59 29q97 12 138 41.5t41 93.5v1040q0 64 -41 93.5t-138 41.5v29h674v-29q-97 -12 -137.5 -41.5t-40.5 -93.5v-1040q0 -64 40.5 -93.5t137.5 -41.5v-29h-674v29zM438 1499h-28l-414 356h307z" />
    <glyph glyph-name="Iacute" unicode="&#xcd;" horiz-adv-x="792" 
d="M59 29q97 12 138 41.5t41 93.5v1040q0 64 -41 93.5t-138 41.5v29h674v-29q-97 -12 -137.5 -41.5t-40.5 -93.5v-1040q0 -64 40.5 -93.5t137.5 -41.5v-29h-674v29zM322 1499l135 356h307l-414 -356h-28z" />
    <glyph glyph-name="Icircumflex" unicode="&#xce;" horiz-adv-x="792" 
d="M59 29q97 12 138 41.5t41 93.5v1040q0 64 -41 93.5t-138 41.5v29h674v-29q-97 -12 -137.5 -41.5t-40.5 -93.5v-1040q0 -64 40.5 -93.5t137.5 -41.5v-29h-674v29zM266 1849h244l207 -356h-29l-299 221l-291 -221h-28z" />
    <glyph glyph-name="Idieresis" unicode="&#xcf;" horiz-adv-x="792" 
d="M59 29q97 12 138 41.5t41 93.5v1040q0 64 -41 93.5t-138 41.5v29h674v-29q-97 -12 -137.5 -41.5t-40.5 -93.5v-1040q0 -64 40.5 -93.5t137.5 -41.5v-29h-674v29zM180 1511q-76 0 -126 49t-50 121q0 70 50 117t126 47q75 0 125.5 -47.5t50.5 -116.5q0 -72 -50.5 -121
t-125.5 -49zM625 1511q-75 0 -125.5 49t-50.5 121q0 69 50.5 116.5t125.5 47.5t125.5 -47.5t50.5 -116.5q0 -72 -50.5 -121t-125.5 -49z" />
    <glyph glyph-name="Eth" unicode="&#xd0;" horiz-adv-x="1548" 
d="M700 1368q162 0 294.5 -35t222 -95t150.5 -142.5t88.5 -174t27.5 -192.5q0 -167 -64 -307t-170 -230.5t-240.5 -141t-279.5 -50.5h-670v29q97 12 138 41.5t41 93.5v489h-199v58h199v493q0 64 -41 93.5t-138 41.5v29h641zM729 57q190 0 306 169t116 458q0 115 -34 226.5
t-95 201t-154 144.5t-202 55h-111v-600h248v-58h-248v-497q0 -54 38 -76.5t136 -22.5z" />
    <glyph glyph-name="Ntilde" unicode="&#xd1;" horiz-adv-x="1544" 
d="M330 1133l-4 4v-928q0 -94 49.5 -131t179.5 -49v-29h-463v29q99 12 137.5 49.5t38.5 130.5v995q-61 68 -106.5 98.5t-102.5 36.5v29h490l700 -909v700q0 94 -48.5 131t-178.5 49v29h463v-29q-101 -12 -139.5 -49t-38.5 -131v-1190h-74zM934 1516q-60 0 -122 25.5t-120 51
t-108 25.5q-99 0 -129 -102l-31 2q12 142 69 215t154 73q60 0 184 -52t168 -52q97 0 127 102l31 -2q-10 -141 -67 -213.5t-156 -72.5z" />
    <glyph glyph-name="Ograve" unicode="&#xd2;" horiz-adv-x="1611" 
d="M805 -31q-171 0 -311.5 55.5t-231.5 150.5t-140.5 218.5t-49.5 261.5q0 216 96.5 386.5t266 264t380.5 93.5q170 0 310.5 -56t231 -150.5t140 -217.5t49.5 -260q0 -215 -96.5 -386t-265.5 -265.5t-379 -94.5zM848 27q111 0 194 76t127 210t45 308q0 190 -53 352.5
t-156 264.5t-235 103q-167 3 -267 -162.5t-100 -433.5q-1 -189 54 -352t158.5 -264t232.5 -102zM850 1499h-29l-413 356h307z" />
    <glyph glyph-name="Oacute" unicode="&#xd3;" horiz-adv-x="1611" 
d="M805 -31q-171 0 -311.5 55.5t-231.5 150.5t-140.5 218.5t-49.5 261.5q0 216 96.5 386.5t266 264t380.5 93.5q170 0 310.5 -56t231 -150.5t140 -217.5t49.5 -260q0 -215 -96.5 -386t-265.5 -265.5t-379 -94.5zM848 27q111 0 194 76t127 210t45 308q0 190 -53 352.5
t-156 264.5t-235 103q-167 3 -267 -162.5t-100 -433.5q-1 -189 54 -352t158.5 -264t232.5 -102zM733 1499l135 356h308l-414 -356h-29z" />
    <glyph glyph-name="Ocircumflex" unicode="&#xd4;" horiz-adv-x="1611" 
d="M805 -31q-171 0 -311.5 55.5t-231.5 150.5t-140.5 218.5t-49.5 261.5q0 216 96.5 386.5t266 264t380.5 93.5q170 0 310.5 -56t231 -150.5t140 -217.5t49.5 -260q0 -215 -96.5 -386t-265.5 -265.5t-379 -94.5zM848 27q111 0 194 76t127 210t45 308q0 190 -53 352.5
t-156 264.5t-235 103q-167 3 -267 -162.5t-100 -433.5q-1 -189 54 -352t158.5 -264t232.5 -102zM678 1849h244l206 -356h-28l-299 221l-291 -221h-29z" />
    <glyph glyph-name="Otilde" unicode="&#xd5;" horiz-adv-x="1611" 
d="M805 -31q-171 0 -311.5 55.5t-231.5 150.5t-140.5 218.5t-49.5 261.5q0 216 96.5 386.5t266 264t380.5 93.5q170 0 310.5 -56t231 -150.5t140 -217.5t49.5 -260q0 -215 -96.5 -386t-265.5 -265.5t-379 -94.5zM848 27q111 0 194 76t127 210t45 308q0 190 -53 352.5
t-156 264.5t-235 103q-167 3 -267 -162.5t-100 -433.5q-1 -189 54 -352t158.5 -264t232.5 -102zM950 1516q-60 0 -122 25.5t-120 51t-108 25.5q-99 0 -129 -102l-31 2q12 142 69.5 215t154.5 73q60 0 184 -52t168 -52q97 0 127 102l31 -2q-10 -140 -67.5 -213t-156.5 -73z
" />
    <glyph glyph-name="Odieresis" unicode="&#xd6;" horiz-adv-x="1611" 
d="M805 -31q-171 0 -311.5 55.5t-231.5 150.5t-140.5 218.5t-49.5 261.5q0 216 96.5 386.5t266 264t380.5 93.5q170 0 310.5 -56t231 -150.5t140 -217.5t49.5 -260q0 -215 -96.5 -386t-265.5 -265.5t-379 -94.5zM848 27q111 0 194 76t127 210t45 308q0 190 -53 352.5
t-156 264.5t-235 103q-167 3 -267 -162.5t-100 -433.5q-1 -189 54 -352t158.5 -264t232.5 -102zM594 1511q-76 0 -126 49t-50 121q0 70 50 117t126 47q75 0 125.5 -47.5t50.5 -116.5q0 -72 -50.5 -121t-125.5 -49zM1038 1511q-75 0 -125.5 49t-50.5 121q0 69 50.5 116.5
t125.5 47.5t125.5 -47.5t50.5 -116.5q0 -72 -50.5 -121t-125.5 -49z" />
    <glyph glyph-name="multiply" unicode="&#xd7;" horiz-adv-x="868" 
d="M754 205l-320 319l-319 -319l-54 53l320 322l-320 319l54 53l319 -319l320 319l55 -55l-320 -319l320 -320z" />
    <glyph glyph-name="Oslash" unicode="&#xd8;" horiz-adv-x="1611" 
d="M805 -31q-140 0 -262 39l-88 -201l-58 25l86 197q-195 80 -303 249.5t-108 376.5q0 216 96.5 386.5t266 264t380.5 93.5q146 0 258 -37l90 201l58 -25l-88 -199q197 -80 305 -248.5t108 -375.5q0 -215 -96.5 -386t-265.5 -265.5t-379 -94.5zM848 27q111 0 194 76t127 210
t45 308q0 162 -40 307.5t-115 247.5l-457 -1035q111 -114 246 -114zM403 745q-1 -159 39.5 -303.5t114.5 -246.5l459 1034q-109 112 -246 112q-167 3 -267 -162.5t-100 -433.5z" />
    <glyph glyph-name="Ugrave" unicode="&#xd9;" horiz-adv-x="1525" 
d="M813 -29q-280 0 -440 137.5t-160 380.5v715q0 64 -40.5 93.5t-137.5 41.5v29h674v-29q-97 -12 -138 -41.5t-41 -93.5v-715q0 -183 97 -287t270 -104q164 0 261 106.5t97 284.5v715q0 64 -40.5 93.5t-135.5 41.5v29h412v-29q-97 -12 -137.5 -41.5t-40.5 -93.5v-715
q0 -233 -137 -375.5t-363 -142.5zM885 1499h-29l-414 356h308z" />
    <glyph glyph-name="Uacute" unicode="&#xda;" horiz-adv-x="1525" 
d="M813 -29q-280 0 -440 137.5t-160 380.5v715q0 64 -40.5 93.5t-137.5 41.5v29h674v-29q-97 -12 -138 -41.5t-41 -93.5v-715q0 -183 97 -287t270 -104q164 0 261 106.5t97 284.5v715q0 64 -40.5 93.5t-135.5 41.5v29h412v-29q-97 -12 -137.5 -41.5t-40.5 -93.5v-715
q0 -233 -137 -375.5t-363 -142.5zM768 1499l135 356h307l-413 -356h-29z" />
    <glyph glyph-name="Ucircumflex" unicode="&#xdb;" horiz-adv-x="1525" 
d="M813 -29q-280 0 -440 137.5t-160 380.5v715q0 64 -40.5 93.5t-137.5 41.5v29h674v-29q-97 -12 -138 -41.5t-41 -93.5v-715q0 -183 97 -287t270 -104q164 0 261 106.5t97 284.5v715q0 64 -40.5 93.5t-135.5 41.5v29h412v-29q-97 -12 -137.5 -41.5t-40.5 -93.5v-715
q0 -233 -137 -375.5t-363 -142.5zM711 1849h243l207 -356h-28l-299 221l-291 -221h-29z" />
    <glyph glyph-name="Udieresis" unicode="&#xdc;" horiz-adv-x="1525" 
d="M813 -29q-280 0 -440 137.5t-160 380.5v715q0 64 -40.5 93.5t-137.5 41.5v29h674v-29q-97 -12 -138 -41.5t-41 -93.5v-715q0 -183 97 -287t270 -104q164 0 261 106.5t97 284.5v715q0 64 -40.5 93.5t-135.5 41.5v29h412v-29q-97 -12 -137.5 -41.5t-40.5 -93.5v-715
q0 -233 -137 -375.5t-363 -142.5zM627 1511q-76 0 -126 49t-50 121q0 70 50 117t126 47q75 0 125.5 -47.5t50.5 -116.5q0 -72 -50.5 -121t-125.5 -49zM1071 1511q-75 0 -125.5 49t-50.5 121q0 69 50.5 116.5t125.5 47.5t125.5 -47.5t50.5 -116.5q0 -72 -50.5 -121
t-125.5 -49z" />
    <glyph glyph-name="Yacute" unicode="&#xdd;" horiz-adv-x="1402" 
d="M369 29q90 14 128 43.5t38 91.5v463l-324 532q-51 86 -96.5 126.5t-108.5 53.5v29h633v-29q-88 -12 -101.5 -51.5t40.5 -128.5l262 -440l258 440q52 89 25.5 128.5t-144.5 51.5v29h418v-29q-79 -14 -130 -53.5t-102 -126.5l-317 -532v-463q0 -62 38 -91.5t128 -43.5v-29
h-645v29zM664 1499l135 356h307l-414 -356h-28z" />
    <glyph glyph-name="Thorn" unicode="&#xde;" horiz-adv-x="1343" 
d="M59 29q97 12 138 41.5t41 93.5v1040q0 64 -41 93.5t-138 41.5v29h674v-29q-97 -12 -137.5 -41.5t-40.5 -93.5v-127h152q266 0 418.5 -102t152.5 -289q0 -181 -153 -281t-418 -100h-152v-141q0 -64 40.5 -93.5t137.5 -41.5v-29h-674v29zM555 362h96q140 0 217.5 88
t77.5 236q0 152 -78 243t-217 91h-96v-658z" />
    <glyph glyph-name="germandbls" unicode="&#xdf;" horiz-adv-x="1460" 
d="M1020 -29q-138 0 -254 57.5t-178 153.5l205 148q37 -141 108 -221t148 -80q58 0 90 38.5t32 100.5q0 56 -29.5 100t-77 73t-105 55t-115 54t-105 61.5t-77 86t-29.5 119.5q0 56 20.5 100t53.5 72.5t73 52.5t79.5 48t72.5 51.5t53.5 70.5t20.5 98q0 100 -67 164t-191 64
q-63 0 -110.5 -23t-72.5 -55.5t-40 -77t-19 -78t-4 -69.5v-1135h-434v29q75 15 102 41t27 86v829h-170v57h170v23q0 430 606 430q219 0 348 -65.5t129 -184.5q0 -51 -22 -90t-57 -63t-77.5 -43t-85.5 -35.5t-78 -35.5t-57 -49t-22 -69q0 -48 29 -86t76 -64.5t103.5 -52
t113 -56t103.5 -68t76 -96t29 -132.5q0 -67 -21 -123t-58 -94.5t-87 -65t-106.5 -39t-118.5 -12.5z" />
    <glyph glyph-name="agrave" unicode="&#xe0;" horiz-adv-x="1128" 
d="M350 -31q-127 0 -207 73t-80 189q0 158 120 241t409 142l102 21v78q0 142 -48 222.5t-134 80.5q-55 0 -96 -30t-58.5 -75.5t-15.5 -99.5t25 -100l-254 -78q-32 73 -29 138.5t42 121t101 95.5t147.5 62.5t180.5 22.5q209 0 325.5 -101t116.5 -274v-467q0 -96 115 -112
l31 -2v-29l-406 -119h-28l-15 254q-24 -119 -122 -186.5t-222 -67.5zM518 135q62 0 119 63.5t57 161.5v213l-94 -18q-112 -25 -171.5 -89t-59.5 -161q0 -75 41.5 -122.5t107.5 -47.5zM598 1174h-29l-413 356h307z" />
    <glyph glyph-name="aacute" unicode="&#xe1;" horiz-adv-x="1128" 
d="M350 -31q-127 0 -207 73t-80 189q0 158 120 241t409 142l102 21v78q0 142 -48 222.5t-134 80.5q-55 0 -96 -30t-58.5 -75.5t-15.5 -99.5t25 -100l-254 -78q-32 73 -29 138.5t42 121t101 95.5t147.5 62.5t180.5 22.5q209 0 325.5 -101t116.5 -274v-467q0 -96 115 -112
l31 -2v-29l-406 -119h-28l-15 254q-24 -119 -122 -186.5t-222 -67.5zM518 135q62 0 119 63.5t57 161.5v213l-94 -18q-112 -25 -171.5 -89t-59.5 -161q0 -75 41.5 -122.5t107.5 -47.5zM481 1174l135 356h308l-414 -356h-29z" />
    <glyph glyph-name="acircumflex" unicode="&#xe2;" horiz-adv-x="1128" 
d="M350 -31q-127 0 -207 73t-80 189q0 158 120 241t409 142l102 21v78q0 142 -48 222.5t-134 80.5q-55 0 -96 -30t-58.5 -75.5t-15.5 -99.5t25 -100l-254 -78q-32 73 -29 138.5t42 121t101 95.5t147.5 62.5t180.5 22.5q209 0 325.5 -101t116.5 -274v-467q0 -96 115 -112
l31 -2v-29l-406 -119h-28l-15 254q-24 -119 -122 -186.5t-222 -67.5zM518 135q62 0 119 63.5t57 161.5v213l-94 -18q-112 -25 -171.5 -89t-59.5 -161q0 -75 41.5 -122.5t107.5 -47.5zM426 1524h244l207 -357h-29l-299 222l-291 -222h-29z" />
    <glyph glyph-name="atilde" unicode="&#xe3;" horiz-adv-x="1128" 
d="M350 -31q-127 0 -207 73t-80 189q0 158 120 241t409 142l102 21v78q0 142 -48 222.5t-134 80.5q-55 0 -96 -30t-58.5 -75.5t-15.5 -99.5t25 -100l-254 -78q-32 73 -29 138.5t42 121t101 95.5t147.5 62.5t180.5 22.5q209 0 325.5 -101t116.5 -274v-467q0 -96 115 -112
l31 -2v-29l-406 -119h-28l-15 254q-24 -119 -122 -186.5t-222 -67.5zM518 135q62 0 119 63.5t57 161.5v213l-94 -18q-112 -25 -171.5 -89t-59.5 -161q0 -75 41.5 -122.5t107.5 -47.5zM698 1190q-60 0 -122 25.5t-120 51t-108 25.5q-99 0 -129 -102l-31 2q12 142 69.5 215.5
t154.5 73.5q60 0 184 -52.5t168 -52.5q97 0 127 103l31 -2q-10 -141 -67.5 -214t-156.5 -73z" />
    <glyph glyph-name="adieresis" unicode="&#xe4;" horiz-adv-x="1128" 
d="M350 -31q-127 0 -207 73t-80 189q0 158 120 241t409 142l102 21v78q0 142 -48 222.5t-134 80.5q-55 0 -96 -30t-58.5 -75.5t-15.5 -99.5t25 -100l-254 -78q-32 73 -29 138.5t42 121t101 95.5t147.5 62.5t180.5 22.5q209 0 325.5 -101t116.5 -274v-467q0 -96 115 -112
l31 -2v-29l-406 -119h-28l-15 254q-24 -119 -122 -186.5t-222 -67.5zM518 135q62 0 119 63.5t57 161.5v213l-94 -18q-112 -25 -171.5 -89t-59.5 -161q0 -75 41.5 -122.5t107.5 -47.5zM342 1186q-76 0 -126 49t-50 121q0 70 50 117t126 47q75 0 125.5 -47.5t50.5 -116.5
q0 -72 -50.5 -121t-125.5 -49zM786 1186q-75 0 -125.5 49t-50.5 121q0 69 50.5 116.5t125.5 47.5t126 -47.5t51 -116.5q0 -72 -51 -121t-126 -49z" />
    <glyph glyph-name="aring" unicode="&#xe5;" horiz-adv-x="1128" 
d="M350 -31q-127 0 -207 73t-80 189q0 158 120 241t409 142l102 21v78q0 142 -48 222.5t-134 80.5q-55 0 -96 -30t-58.5 -75.5t-15.5 -99.5t25 -100l-254 -78q-32 73 -29 138.5t42 121t101 95.5t147.5 62.5t180.5 22.5q209 0 325.5 -101t116.5 -274v-467q0 -96 115 -112
l31 -2v-29l-406 -119h-28l-15 254q-24 -119 -122 -186.5t-222 -67.5zM518 135q62 0 119 63.5t57 161.5v213l-94 -18q-112 -25 -171.5 -89t-59.5 -161q0 -75 41.5 -122.5t107.5 -47.5zM557 1137q-98 0 -159.5 60t-61.5 151q0 93 61.5 153t159.5 60t159.5 -60t61.5 -153
q0 -91 -61.5 -151t-159.5 -60zM557 1204q61 0 100 40.5t39 105.5q0 62 -39 101.5t-100 39.5q-59 0 -99 -40t-40 -101q0 -64 40 -105t99 -41z" />
    <glyph glyph-name="ae" unicode="&#xe6;" horiz-adv-x="1738" 
d="M362 -31q-135 0 -217 72.5t-82 191.5q0 153 119.5 232.5t409.5 136.5l102 21v90q0 142 -48 222.5t-134 80.5q-55 0 -95 -30t-57.5 -76.5t-15 -103.5t26.5 -108l-256 -80q-45 96 -26 179t81.5 144.5t163.5 96.5t221 35q224 0 326 -121q138 119 344 119q221 0 330.5 -120
t111.5 -333h-678v-6q-7 -202 95.5 -314t275.5 -112q91 0 164.5 44.5t117.5 115.5l25 -8q-14 -76 -49.5 -141t-91 -116t-136.5 -80.5t-178 -29.5q-164 0 -280.5 72t-177.5 195q-50 -134 -152 -201.5t-240 -67.5zM369 317q0 -77 42.5 -126.5t110.5 -49.5q70 0 127 44.5
t82 105.5q-37 98 -37 207v12v53l-94 -18q-109 -24 -170 -81t-61 -147zM993 676h373q-2 56 -12.5 112.5t-31 108.5t-54.5 84.5t-76 32.5q-86 0 -136 -95.5t-63 -242.5z" />
    <glyph glyph-name="ccedilla" unicode="&#xe7;" horiz-adv-x="1091" 
d="M584 -29h-19l-26 -77q30 -2 58 -12t55.5 -28.5t44 -51.5t16.5 -76q0 -68 -50 -112t-131.5 -55t-185.5 3v28q93 -3 142 24t51 79q0 44 -30.5 68.5t-86.5 39.5l94 174q-208 23 -327 176.5t-119 372.5q0 110 34 207.5t98.5 174t166.5 121t229 44.5q76 0 143.5 -17.5
t114 -45.5t82 -63.5t54 -71t24.5 -68.5l-258 -70q-10 77 -31 137t-61.5 101t-94.5 41q-61 0 -108.5 -52t-72.5 -138.5t-25 -190.5q0 -214 98 -329.5t264 -115.5q82 0 163 43t128 125l24 -8q-28 -171 -150.5 -274t-307.5 -103z" />
    <glyph glyph-name="egrave" unicode="&#xe8;" horiz-adv-x="1114" 
d="M588 -29q-124 0 -224.5 43.5t-163.5 117.5t-96.5 168t-33.5 198q0 258 145.5 415.5t384.5 157.5q221 0 330.5 -120t111.5 -333h-677v-6q-7 -202 95 -314t275 -112q91 0 165 44.5t118 115.5l24 -8q-14 -76 -49.5 -141t-90.5 -116t-136 -80.5t-178 -29.5zM637 1174h-29
l-413 356h307zM369 676h372q-2 56 -12.5 112.5t-31 108.5t-54.5 84.5t-76 32.5q-86 0 -135.5 -95.5t-62.5 -242.5z" />
    <glyph glyph-name="eacute" unicode="&#xe9;" horiz-adv-x="1114" 
d="M588 -29q-124 0 -224.5 43.5t-163.5 117.5t-96.5 168t-33.5 198q0 258 145.5 415.5t384.5 157.5q221 0 330.5 -120t111.5 -333h-677v-6q-7 -202 95 -314t275 -112q91 0 165 44.5t118 115.5l24 -8q-14 -76 -49.5 -141t-90.5 -116t-136 -80.5t-178 -29.5zM520 1174l135 356
h308l-414 -356h-29zM369 676h372q-2 56 -12.5 112.5t-31 108.5t-54.5 84.5t-76 32.5q-86 0 -135.5 -95.5t-62.5 -242.5z" />
    <glyph glyph-name="ecircumflex" unicode="&#xea;" horiz-adv-x="1114" 
d="M588 -29q-124 0 -224.5 43.5t-163.5 117.5t-96.5 168t-33.5 198q0 258 145.5 415.5t384.5 157.5q221 0 330.5 -120t111.5 -333h-677v-6q-7 -202 95 -314t275 -112q91 0 165 44.5t118 115.5l24 -8q-14 -76 -49.5 -141t-90.5 -116t-136 -80.5t-178 -29.5zM465 1524h244
l206 -357h-28l-299 222l-291 -222h-29zM369 676h372q-2 56 -12.5 112.5t-31 108.5t-54.5 84.5t-76 32.5q-86 0 -135.5 -95.5t-62.5 -242.5z" />
    <glyph glyph-name="edieresis" unicode="&#xeb;" horiz-adv-x="1114" 
d="M588 -29q-124 0 -224.5 43.5t-163.5 117.5t-96.5 168t-33.5 198q0 258 145.5 415.5t384.5 157.5q221 0 330.5 -120t111.5 -333h-677v-6q-7 -202 95 -314t275 -112q91 0 165 44.5t118 115.5l24 -8q-14 -76 -49.5 -141t-90.5 -116t-136 -80.5t-178 -29.5zM381 1186
q-76 0 -126 49t-50 121q0 70 50 117t126 47q75 0 125.5 -47.5t50.5 -116.5q0 -72 -50.5 -121t-125.5 -49zM825 1186q-75 0 -125.5 49t-50.5 121q0 69 50.5 116.5t125.5 47.5t125.5 -47.5t50.5 -116.5q0 -72 -50.5 -121t-125.5 -49zM369 676h372q-2 56 -12.5 112.5t-31 108.5
t-54.5 84.5t-76 32.5q-86 0 -135.5 -95.5t-62.5 -242.5z" />
    <glyph glyph-name="igrave" unicode="&#xec;" horiz-adv-x="688" 
d="M84 29q61 16 83.5 42t22.5 87v653q0 98 -114 113l-31 4v28l420 117h29v-915q0 -61 22.5 -87t83.5 -42v-29h-516v29zM377 1174h-29l-414 356h308z" />
    <glyph glyph-name="iacute" unicode="&#xed;" horiz-adv-x="688" 
d="M84 29q61 16 83.5 42t22.5 87v653q0 98 -114 113l-31 4v28l420 117h29v-915q0 -61 22.5 -87t83.5 -42v-29h-516v29zM260 1174l135 356h307l-413 -356h-29z" />
    <glyph glyph-name="icircumflex" unicode="&#xee;" horiz-adv-x="688" 
d="M84 29q61 16 83.5 42t22.5 87v653q0 98 -114 113l-31 4v28l420 117h29v-915q0 -61 22.5 -87t83.5 -42v-29h-516v29zM205 1524h244l206 -357h-28l-299 222l-291 -222h-29z" />
    <glyph glyph-name="idieresis" unicode="&#xef;" horiz-adv-x="688" 
d="M84 29q61 16 83.5 42t22.5 87v653q0 98 -114 113l-31 4v28l420 117h29v-915q0 -61 22.5 -87t83.5 -42v-29h-516v29zM119 1186q-76 0 -126 49t-50 121q0 70 50 117t126 47q75 0 125.5 -47.5t50.5 -116.5q0 -72 -50.5 -121t-125.5 -49zM563 1186q-75 0 -125.5 49t-50.5 121
q0 69 50.5 116.5t125.5 47.5t125.5 -47.5t50.5 -116.5q0 -72 -50.5 -121t-125.5 -49z" />
    <glyph glyph-name="eth" unicode="&#xf0;" horiz-adv-x="1218" 
d="M592 -31q-152 0 -269 58t-185 175t-68 279q0 248 150 393.5t394 145.5q117 0 217 -35q-51 147 -153 252l-293 -143l-25 53l275 133q-144 125 -344 170l14 45q263 -35 451 -158l274 133l25 -51l-246 -119q164 -127 251 -317.5t87 -425.5v-8q0 -259 -149 -419.5
t-406 -160.5zM647 27q89 0 139 103t50 269q0 143 -31 270.5t-92 210.5t-140 83q-89 0 -139.5 -111t-50.5 -283q0 -146 31.5 -269t92.5 -198t140 -75z" />
    <glyph glyph-name="ntilde" unicode="&#xf1;" horiz-adv-x="1280" 
d="M840 711q0 79 -40 124.5t-108 45.5q-54 0 -100.5 -22t-97.5 -73v-628q0 -61 22.5 -87t83.5 -42v-29h-516v29q61 16 83.5 42t22.5 87v653q0 98 -114 113l-31 2v28l420 119h29v-223q82 106 164.5 163.5t181.5 57.5q150 0 226.5 -90.5t76.5 -251.5v-571q0 -61 22.5 -87
t83.5 -42v-29h-516v29q61 16 84 42t23 87v553zM815 1190q-60 0 -122 25.5t-120 51t-108 25.5q-99 0 -129 -102l-31 2q12 142 69 215.5t154 73.5q60 0 184.5 -52.5t168.5 -52.5q97 0 127 103l30 -2q-10 -141 -67.5 -214t-155.5 -73z" />
    <glyph glyph-name="ograve" unicode="&#xf2;" horiz-adv-x="1218" 
d="M602 -31q-236 0 -384 147.5t-148 381.5q0 255 152 415t394 160q236 0 384.5 -147.5t148.5 -382.5q0 -255 -152 -414.5t-395 -159.5zM643 27q93 0 143 107.5t50 289.5q0 164 -31.5 298.5t-91 214t-135.5 79.5q-93 0 -144 -110t-51 -288q0 -165 32.5 -299.5t92.5 -213
t135 -78.5zM651 1174h-28l-414 356h307z" />
    <glyph glyph-name="oacute" unicode="&#xf3;" horiz-adv-x="1218" 
d="M602 -31q-236 0 -384 147.5t-148 381.5q0 255 152 415t394 160q236 0 384.5 -147.5t148.5 -382.5q0 -255 -152 -414.5t-395 -159.5zM643 27q93 0 143 107.5t50 289.5q0 164 -31.5 298.5t-91 214t-135.5 79.5q-93 0 -144 -110t-51 -288q0 -165 32.5 -299.5t92.5 -213
t135 -78.5zM535 1174l135 356h307l-414 -356h-28z" />
    <glyph glyph-name="ocircumflex" unicode="&#xf4;" horiz-adv-x="1218" 
d="M602 -31q-236 0 -384 147.5t-148 381.5q0 255 152 415t394 160q236 0 384.5 -147.5t148.5 -382.5q0 -255 -152 -414.5t-395 -159.5zM643 27q93 0 143 107.5t50 289.5q0 164 -31.5 298.5t-91 214t-135.5 79.5q-93 0 -144 -110t-51 -288q0 -165 32.5 -299.5t92.5 -213
t135 -78.5zM479 1524h244l207 -357h-29l-299 222l-291 -222h-28z" />
    <glyph glyph-name="otilde" unicode="&#xf5;" horiz-adv-x="1218" 
d="M602 -31q-236 0 -384 147.5t-148 381.5q0 255 152 415t394 160q236 0 384.5 -147.5t148.5 -382.5q0 -255 -152 -414.5t-395 -159.5zM643 27q93 0 143 107.5t50 289.5q0 164 -31.5 298.5t-91 214t-135.5 79.5q-93 0 -144 -110t-51 -288q0 -165 32.5 -299.5t92.5 -213
t135 -78.5zM752 1190q-60 0 -122.5 25.5t-120.5 51t-108 25.5q-99 0 -129 -102l-30 2q12 142 69 215.5t154 73.5q60 0 184 -52.5t168 -52.5q97 0 127 103l31 -2q-10 -141 -67.5 -214t-155.5 -73z" />
    <glyph glyph-name="odieresis" unicode="&#xf6;" horiz-adv-x="1218" 
d="M602 -31q-236 0 -384 147.5t-148 381.5q0 255 152 415t394 160q236 0 384.5 -147.5t148.5 -382.5q0 -255 -152 -414.5t-395 -159.5zM643 27q93 0 143 107.5t50 289.5q0 164 -31.5 298.5t-91 214t-135.5 79.5q-93 0 -144 -110t-51 -288q0 -165 32.5 -299.5t92.5 -213
t135 -78.5zM395 1186q-76 0 -126 49t-50 121q0 70 50 117t126 47q75 0 125.5 -47.5t50.5 -116.5q0 -72 -50.5 -121t-125.5 -49zM840 1186q-75 0 -125.5 49t-50.5 121q0 69 50.5 116.5t125.5 47.5t125.5 -47.5t50.5 -116.5q0 -72 -50.5 -121t-125.5 -49z" />
    <glyph glyph-name="divide" unicode="&#xf7;" horiz-adv-x="972" 
d="M487 821q-60 0 -99.5 40.5t-39.5 99.5t39.5 99t99.5 40q63 0 101.5 -39.5t38.5 -99.5q0 -59 -40.5 -99.5t-99.5 -40.5zM487 207q-60 0 -99.5 40t-39.5 99t39.5 99t99.5 40q63 0 101.5 -39.5t38.5 -99.5q0 -58 -40.5 -98.5t-99.5 -40.5zM61 616v76h852v-76h-852z" />
    <glyph glyph-name="oslash" unicode="&#xf8;" horiz-adv-x="1218" 
d="M602 -31q-89 0 -172 25l-63 -160l-54 23l64 155q-142 59 -224.5 187.5t-82.5 298.5q0 255 152 415t394 160q96 0 179 -24l63 157l51 -22l-61 -156q140 -59 220.5 -187t80.5 -298q0 -255 -152 -414.5t-395 -159.5zM643 27q93 0 143 107.5t50 289.5q0 242 -68 410
l-281 -699q68 -108 156 -108zM383 618q0 -242 70 -415l282 700q-66 113 -157 113q-93 0 -144 -110t-51 -288z" />
    <glyph glyph-name="ugrave" unicode="&#xf9;" horiz-adv-x="1280" 
d="M467 332q0 -80 39 -126t106 -46q56 0 103.5 23t99.5 75v553q0 98 -113 113l-30 4v28l420 117h28v-842q0 -96 113 -112l31 -2v-29l-404 -119h-29l-14 228q-84 -109 -168 -168.5t-184 -59.5q-150 0 -226.5 91t-76.5 251v500q0 98 -113 113l-31 4v28l420 117h29v-741z
M686 1174h-29l-413 356h307z" />
    <glyph glyph-name="uacute" unicode="&#xfa;" horiz-adv-x="1280" 
d="M467 332q0 -80 39 -126t106 -46q56 0 103.5 23t99.5 75v553q0 98 -113 113l-30 4v28l420 117h28v-842q0 -96 113 -112l31 -2v-29l-404 -119h-29l-14 228q-84 -109 -168 -168.5t-184 -59.5q-150 0 -226.5 91t-76.5 251v500q0 98 -113 113l-31 4v28l420 117h29v-741z
M569 1174l136 356h307l-414 -356h-29z" />
    <glyph glyph-name="ucircumflex" unicode="&#xfb;" horiz-adv-x="1280" 
d="M467 332q0 -80 39 -126t106 -46q56 0 103.5 23t99.5 75v553q0 98 -113 113l-30 4v28l420 117h28v-842q0 -96 113 -112l31 -2v-29l-404 -119h-29l-14 228q-84 -109 -168 -168.5t-184 -59.5q-150 0 -226.5 91t-76.5 251v500q0 98 -113 113l-31 4v28l420 117h29v-741z
M514 1524h244l207 -357h-29l-299 222l-291 -222h-29z" />
    <glyph glyph-name="udieresis" unicode="&#xfc;" horiz-adv-x="1280" 
d="M467 332q0 -80 39 -126t106 -46q56 0 103.5 23t99.5 75v553q0 98 -113 113l-30 4v28l420 117h28v-842q0 -96 113 -112l31 -2v-29l-404 -119h-29l-14 228q-84 -109 -168 -168.5t-184 -59.5q-150 0 -226.5 91t-76.5 251v500q0 98 -113 113l-31 4v28l420 117h29v-741z
M430 1186q-76 0 -126 49t-50 121q0 70 50 117t126 47q75 0 125.5 -47.5t50.5 -116.5q0 -72 -50.5 -121t-125.5 -49zM874 1186q-75 0 -125.5 49t-50.5 121q0 69 50.5 116.5t125.5 47.5t126 -47.5t51 -116.5q0 -72 -51 -121t-126 -49z" />
    <glyph glyph-name="yacute" unicode="&#xfd;" horiz-adv-x="1148" 
d="M143 891q-32 67 -62 93.5t-77 29.5v28h590v-28q-77 -3 -107 -35.5t-4 -87.5l244 -535l246 535q52 117 -90 123v28h295v-28q-49 -3 -79.5 -29t-62.5 -94l-434 -940q-45 -95 -84.5 -159t-91 -118.5t-114 -81t-138.5 -26.5q-68 0 -111 18l82 275q94 -62 179 -62
q146 0 219 158l22 49zM569 1174l136 356h307l-414 -356h-29z" />
    <glyph glyph-name="thorn" unicode="&#xfe;" horiz-adv-x="1284" 
d="M184 1202q0 98 -112 113l-31 2v29l420 118h28v-596q39 95 117.5 150t169.5 55q137 0 238 -73t149.5 -188.5t48.5 -254.5q0 -135 -38 -247t-102 -186t-149 -114.5t-180 -40.5q-179 0 -254 115v-332q0 -62 34 -87t141 -40v-28h-609v28q75 15 102 41t27 86v1450zM489 322
q19 -267 193 -267q91 0 153 122t62 302q0 84 -14 159t-41 137t-73.5 98t-106.5 36q-59 0 -106 -31t-67 -83v-473z" />
    <glyph glyph-name="ydieresis" unicode="&#xff;" horiz-adv-x="1148" 
d="M143 891q-32 67 -62 93.5t-77 29.5v28h590v-28q-77 -3 -107 -35.5t-4 -87.5l244 -535l246 535q52 117 -90 123v28h295v-28q-49 -3 -79.5 -29t-62.5 -94l-434 -940q-45 -95 -84.5 -159t-91 -118.5t-114 -81t-138.5 -26.5q-68 0 -111 18l82 275q94 -62 179 -62
q146 0 219 158l22 49zM428 1186q-76 0 -126 49t-50 121q0 70 50 117t126 47q75 0 125.5 -47.5t50.5 -116.5q0 -72 -50.5 -121t-125.5 -49zM872 1186q-75 0 -125.5 49t-50.5 121q0 69 50.5 116.5t125.5 47.5t126 -47.5t51 -116.5q0 -72 -51 -121t-126 -49z" />
    <glyph glyph-name="Amacron" unicode="&#x100;" horiz-adv-x="1626" 
d="M1401 209q41 -88 92.5 -128t138.5 -52v-29h-690v29q98 12 119.5 52t-21.5 128l-104 223h-530l-103 -223q-41 -88 -15 -128t132 -52v-29h-393v29q77 14 124.5 53.5t88.5 126.5l551 1190h28zM489 1550v80h635v-80h-635zM430 489h477l-241 515z" />
    <glyph glyph-name="amacron" unicode="&#x101;" horiz-adv-x="1128" 
d="M350 -31q-127 0 -207 73t-80 189q0 158 120 241t409 142l102 21v78q0 142 -48 222.5t-134 80.5q-55 0 -96 -30t-58.5 -75.5t-15.5 -99.5t25 -100l-254 -78q-32 73 -29 138.5t42 121t101 95.5t147.5 62.5t180.5 22.5q209 0 325.5 -101t116.5 -274v-467q0 -96 115 -112
l31 -2v-29l-406 -119h-28l-15 254q-24 -119 -122 -186.5t-222 -67.5zM518 135q62 0 119 63.5t57 161.5v213l-94 -18q-112 -25 -171.5 -89t-59.5 -161q0 -75 41.5 -122.5t107.5 -47.5zM240 1225v80h634v-80h-634z" />
    <glyph glyph-name="Abreve" unicode="&#x102;" horiz-adv-x="1626" 
d="M1401 209q41 -88 92.5 -128t138.5 -52v-29h-690v29q98 12 119.5 52t-21.5 128l-104 223h-530l-103 -223q-41 -88 -15 -128t132 -52v-29h-393v29q77 14 124.5 53.5t88.5 126.5l551 1190h28zM805 1491q-137 0 -211.5 90t-71.5 274h27q24 -169 256 -169q234 0 258 169h27
q3 -184 -72 -274t-213 -90zM430 489h477l-241 515z" />
    <glyph glyph-name="abreve" unicode="&#x103;" horiz-adv-x="1128" 
d="M350 -31q-127 0 -207 73t-80 189q0 158 120 241t409 142l102 21v78q0 142 -48 222.5t-134 80.5q-55 0 -96 -30t-58.5 -75.5t-15.5 -99.5t25 -100l-254 -78q-32 73 -29 138.5t42 121t101 95.5t147.5 62.5t180.5 22.5q209 0 325.5 -101t116.5 -274v-467q0 -96 115 -112
l31 -2v-29l-406 -119h-28l-15 254q-24 -119 -122 -186.5t-222 -67.5zM518 135q62 0 119 63.5t57 161.5v213l-94 -18q-112 -25 -171.5 -89t-59.5 -161q0 -75 41.5 -122.5t107.5 -47.5zM557 1165q-136 0 -211 90.5t-72 274.5h27q24 -170 256 -170q234 0 258 170h27
q3 -184 -72 -274.5t-213 -90.5z" />
    <glyph glyph-name="Aogonek" unicode="&#x104;" horiz-adv-x="1626" 
d="M1384 209q41 -88 92.5 -128t139.5 -52v-29h-221q-64 -58 -89.5 -99t-25.5 -106q0 -83 53 -120t148 -3l12 -20q-87 -84 -244 -84q-82 0 -139 42.5t-57 121.5q0 80 71 141.5t222 126.5h-420v29q98 12 119.5 52t-21.5 128l-104 223h-531l-102 -223q-41 -88 -15.5 -128
t131.5 -52v-29h-393v29q77 14 124.5 53.5t88.5 126.5l551 1190h29zM414 489h477l-242 515z" />
    <glyph glyph-name="aogonek" unicode="&#x105;" horiz-adv-x="1128" 
d="M350 -31q-127 0 -207 73t-80 189q0 158 120 241t409 142l102 21v78q0 142 -48 222.5t-134 80.5q-55 0 -96 -30t-58.5 -75.5t-15.5 -99.5t25 -100l-254 -78q-32 73 -29 138.5t42 121t101 95.5t147.5 62.5t180.5 22.5q209 0 325.5 -101t116.5 -274v-467q0 -96 115 -112
l31 -2v-29h-2l2 -2q-90 -75 -131 -141.5t-41 -151.5q0 -82 52.5 -119t147.5 -2l13 -20q-86 -86 -244 -86q-82 0 -139.5 43t-57.5 121q0 176 322 336l-328 -97h-28l-15 254q-24 -119 -122 -186.5t-222 -67.5zM518 135q62 0 119 63.5t57 161.5v213l-94 -18
q-112 -25 -171.5 -89t-59.5 -161q0 -75 41.5 -122.5t107.5 -47.5z" />
    <glyph glyph-name="Cacute" unicode="&#x106;" horiz-adv-x="1411" 
d="M760 -31q-149 0 -278 53.5t-218 145.5t-140 217.5t-52 267.5q-2 212 78 379.5t240.5 267t377.5 99.5q209 0 359.5 -85.5t201.5 -236.5l-282 -84q-25 159 -104 253.5t-193 94.5q-160 0 -258 -156.5t-97 -410.5q3 -257 145.5 -416t358.5 -159q153 0 265.5 77.5t158.5 210.5
l29 -6q-40 -234 -200 -373t-392 -139zM678 1499l135 356h307l-413 -356h-29z" />
    <glyph glyph-name="cacute" unicode="&#x107;" horiz-adv-x="1091" 
d="M584 -29q-159 0 -277.5 75.5t-177.5 200t-59 277.5q0 110 34 207.5t98.5 174t166.5 121t229 44.5q76 0 143.5 -17.5t114 -45.5t82 -63.5t54 -71t24.5 -68.5l-258 -70q-10 77 -31 137t-61.5 101t-94.5 41q-61 0 -108.5 -52t-72.5 -138.5t-25 -190.5q0 -214 98 -329.5
t264 -115.5q82 0 163 43t128 125l24 -8q-28 -171 -150.5 -274t-307.5 -103zM522 1174l135 356h308l-414 -356h-29z" />
    <glyph glyph-name="Ccircumflex" unicode="&#x108;" horiz-adv-x="1411" 
d="M760 -31q-149 0 -278 53.5t-218 145.5t-140 217.5t-52 267.5q-2 212 78 379.5t240.5 267t377.5 99.5q209 0 359.5 -85.5t201.5 -236.5l-282 -84q-25 159 -104 253.5t-193 94.5q-160 0 -258 -156.5t-97 -410.5q3 -257 145.5 -416t358.5 -159q153 0 265.5 77.5t158.5 210.5
l29 -6q-40 -234 -200 -373t-392 -139zM623 1849h243l207 -356h-29l-299 221l-290 -221h-29z" />
    <glyph glyph-name="ccircumflex" unicode="&#x109;" horiz-adv-x="1091" 
d="M584 -29q-159 0 -277.5 75.5t-177.5 200t-59 277.5q0 110 34 207.5t98.5 174t166.5 121t229 44.5q76 0 143.5 -17.5t114 -45.5t82 -63.5t54 -71t24.5 -68.5l-258 -70q-10 77 -31 137t-61.5 101t-94.5 41q-61 0 -108.5 -52t-72.5 -138.5t-25 -190.5q0 -214 98 -329.5
t264 -115.5q82 0 163 43t128 125l24 -8q-28 -171 -150.5 -274t-307.5 -103zM467 1524h244l207 -357h-29l-299 222l-291 -222h-29z" />
    <glyph glyph-name="Cdotaccent" unicode="&#x10a;" horiz-adv-x="1411" 
d="M760 -31q-149 0 -278 53.5t-218 145.5t-140 217.5t-52 267.5q-2 212 78 379.5t240.5 267t377.5 99.5q209 0 359.5 -85.5t201.5 -236.5l-282 -84q-25 159 -104 253.5t-193 94.5q-160 0 -258 -156.5t-97 -410.5q3 -257 145.5 -416t358.5 -159q153 0 265.5 77.5t158.5 210.5
l29 -6q-40 -234 -200 -373t-392 -139zM752 1509q-83 0 -138 53.5t-55 131.5q0 77 55 128.5t138 51.5t137.5 -51.5t54.5 -128.5q0 -79 -54.5 -132t-137.5 -53z" />
    <glyph glyph-name="cdotaccent" unicode="&#x10b;" horiz-adv-x="1091" 
d="M584 -29q-159 0 -277.5 75.5t-177.5 200t-59 277.5q0 110 34 207.5t98.5 174t166.5 121t229 44.5q76 0 143.5 -17.5t114 -45.5t82 -63.5t54 -71t24.5 -68.5l-258 -70q-10 77 -31 137t-61.5 101t-94.5 41q-61 0 -108.5 -52t-72.5 -138.5t-25 -190.5q0 -214 98 -329.5
t264 -115.5q82 0 163 43t128 125l24 -8q-28 -171 -150.5 -274t-307.5 -103zM598 1184q-83 0 -137.5 53t-54.5 131q0 77 54.5 128.5t137.5 51.5t138 -51.5t55 -128.5q0 -78 -55 -131t-138 -53z" />
    <glyph glyph-name="Ccaron" unicode="&#x10c;" horiz-adv-x="1411" 
d="M760 -31q-149 0 -278 53.5t-218 145.5t-140 217.5t-52 267.5q-2 212 78 379.5t240.5 267t377.5 99.5q209 0 359.5 -85.5t201.5 -236.5l-282 -84q-25 159 -104 253.5t-193 94.5q-160 0 -258 -156.5t-97 -410.5q3 -257 145.5 -416t358.5 -159q153 0 265.5 77.5t158.5 210.5
l29 -6q-40 -234 -200 -373t-392 -139zM625 1499l-197 356h29l291 -221l299 221h28l-207 -356h-243z" />
    <glyph glyph-name="ccaron" unicode="&#x10d;" horiz-adv-x="1091" 
d="M584 -29q-159 0 -277.5 75.5t-177.5 200t-59 277.5q0 110 34 207.5t98.5 174t166.5 121t229 44.5q76 0 143.5 -17.5t114 -45.5t82 -63.5t54 -71t24.5 -68.5l-258 -70q-10 77 -31 137t-61.5 101t-94.5 41q-61 0 -108.5 -52t-72.5 -138.5t-25 -190.5q0 -214 98 -329.5
t264 -115.5q82 0 163 43t128 125l24 -8q-28 -171 -150.5 -274t-307.5 -103zM471 1174l-197 356h29l291 -221l299 221h29l-207 -356h-244z" />
    <glyph glyph-name="Dcaron" unicode="&#x10e;" horiz-adv-x="1548" 
d="M700 1368q162 0 294.5 -35t222 -95t150.5 -142.5t88.5 -174t27.5 -192.5q0 -167 -64 -307t-170 -230.5t-240.5 -141t-279.5 -50.5h-670v29q97 12 138 41.5t41 93.5v1040q0 64 -41 93.5t-138 41.5v29h641zM729 57q190 0 306 169t116 458q0 115 -34 226.5t-95 201
t-154 144.5t-202 55h-111v-1155q0 -54 38 -76.5t136 -22.5zM645 1499l-196 356h28l291 -221l299 221h29l-207 -356h-244z" />
    <glyph glyph-name="dcaron" unicode="&#x10f;" horiz-adv-x="1431" 
d="M506 -31q-137 0 -238 73t-149.5 188.5t-48.5 254.5q0 135 38 247t102.5 186t149.5 114.5t179 40.5q175 0 256 -115v244q0 96 -113 113l-31 4v29l418 116h29v-1233q0 -96 114 -112l31 -2v-29l-405 -119h-29l-12 217q-38 -100 -117 -158.5t-174 -58.5zM623 133q59 0 106 33
t66 88v403q0 330 -195 330q-91 0 -152 -122t-61 -302q0 -84 13.5 -159t41 -137t74 -98t107.5 -36zM1182 1155l59 412h250l-281 -412h-28z" />
    <glyph glyph-name="Dcroat" unicode="&#x110;" horiz-adv-x="1548" 
d="M700 1368q162 0 294.5 -35t222 -95t150.5 -142.5t88.5 -174t27.5 -192.5q0 -167 -64 -307t-170 -230.5t-240.5 -141t-279.5 -50.5h-670v29q97 12 138 41.5t41 93.5v489h-199v58h199v493q0 64 -41 93.5t-138 41.5v29h641zM729 57q190 0 306 169t116 458q0 115 -34 226.5
t-95 201t-154 144.5t-202 55h-111v-600h246v-58h-246v-497q0 -54 38 -76.5t136 -22.5z" />
    <glyph glyph-name="dcroat" unicode="&#x111;" horiz-adv-x="1247" 
d="M795 657q0 330 -195 330q-91 0 -152 -122t-61 -302q0 -84 13.5 -159t41 -137t74 -98t107.5 -36q59 0 106 33t66 88v403zM506 -31q-137 0 -238 73t-149.5 188.5t-48.5 254.5q0 135 38 247t102.5 186t149.5 114.5t179 40.5q180 0 256 -117v193h-230v57h230v154l225 86h78
v-240h225v-57h-225v-918q0 -96 114 -112l31 -2v-29l-420 -119h-28v215q-34 -96 -113.5 -155.5t-175.5 -59.5z" />
    <glyph glyph-name="Emacron" unicode="&#x112;" horiz-adv-x="1304" 
d="M59 29q97 12 138 41.5t41 93.5v1040q0 64 -41 93.5t-138 41.5v29h1102l47 -389h-28q-39 155 -143.5 243.5t-282.5 88.5h-199v-580h154q109 0 154 50.5t50 154.5h29v-469h-29q-5 106 -50 156.5t-154 50.5h-154v-510q0 -51 23.5 -79t66.5 -28h129q178 0 282.5 88.5
t143.5 243.5h29l-47 -389h-1123v29zM362 1550v80h635v-80h-635z" />
    <glyph glyph-name="emacron" unicode="&#x113;" horiz-adv-x="1114" 
d="M588 -29q-124 0 -224.5 43.5t-163.5 117.5t-96.5 168t-33.5 198q0 258 145.5 415.5t384.5 157.5q221 0 330.5 -120t111.5 -333h-677v-6q-7 -202 95 -314t275 -112q91 0 165 44.5t118 115.5l24 -8q-14 -76 -49.5 -141t-90.5 -116t-136 -80.5t-178 -29.5zM279 1225v80h634
v-80h-634zM369 676h372q-2 56 -12.5 112.5t-31 108.5t-54.5 84.5t-76 32.5q-86 0 -135.5 -95.5t-62.5 -242.5z" />
    <glyph glyph-name="Ebreve" unicode="&#x114;" horiz-adv-x="1304" 
d="M59 29q97 12 138 41.5t41 93.5v1040q0 64 -41 93.5t-138 41.5v29h1102l47 -389h-28q-39 155 -143.5 243.5t-282.5 88.5h-199v-580h154q109 0 154 50.5t50 154.5h29v-469h-29q-5 106 -50 156.5t-154 50.5h-154v-510q0 -51 23.5 -79t66.5 -28h129q178 0 282.5 88.5
t143.5 243.5h29l-47 -389h-1123v29zM680 1491q-137 0 -211.5 90t-71.5 274h27q24 -169 256 -169q234 0 258 169h27q3 -184 -72 -274t-213 -90z" />
    <glyph glyph-name="ebreve" unicode="&#x115;" horiz-adv-x="1114" 
d="M588 -29q-124 0 -224.5 43.5t-163.5 117.5t-96.5 168t-33.5 198q0 258 145.5 415.5t384.5 157.5q221 0 330.5 -120t111.5 -333h-677v-6q-7 -202 95 -314t275 -112q91 0 165 44.5t118 115.5l24 -8q-14 -76 -49.5 -141t-90.5 -116t-136 -80.5t-178 -29.5zM594 1165
q-136 0 -211 90.5t-72 274.5h27q24 -170 256 -170q234 0 258 170h27q3 -184 -72 -274.5t-213 -90.5zM369 676h372q-2 56 -12.5 112.5t-31 108.5t-54.5 84.5t-76 32.5q-86 0 -135.5 -95.5t-62.5 -242.5z" />
    <glyph glyph-name="Edotaccent" unicode="&#x116;" horiz-adv-x="1304" 
d="M59 29q97 12 138 41.5t41 93.5v1040q0 64 -41 93.5t-138 41.5v29h1102l47 -389h-28q-39 155 -143.5 243.5t-282.5 88.5h-199v-580h154q109 0 154 50.5t50 154.5h29v-469h-29q-5 106 -50 156.5t-154 50.5h-154v-510q0 -51 23.5 -79t66.5 -28h129q178 0 282.5 88.5
t143.5 243.5h29l-47 -389h-1123v29zM680 1509q-83 0 -138 53.5t-55 131.5q0 77 55 128.5t138 51.5t137.5 -51.5t54.5 -128.5q0 -79 -54.5 -132t-137.5 -53z" />
    <glyph glyph-name="edotaccent" unicode="&#x117;" horiz-adv-x="1114" 
d="M588 -29q-124 0 -224.5 43.5t-163.5 117.5t-96.5 168t-33.5 198q0 258 145.5 415.5t384.5 157.5q221 0 330.5 -120t111.5 -333h-677v-6q-7 -202 95 -314t275 -112q91 0 165 44.5t118 115.5l24 -8q-14 -76 -49.5 -141t-90.5 -116t-136 -80.5t-178 -29.5zM596 1184
q-83 0 -138 53t-55 131q0 77 55 128.5t138 51.5t137.5 -51.5t54.5 -128.5q0 -78 -54.5 -131t-137.5 -53zM369 676h372q-2 56 -12.5 112.5t-31 108.5t-54.5 84.5t-76 32.5q-86 0 -135.5 -95.5t-62.5 -242.5z" />
    <glyph glyph-name="Eogonek" unicode="&#x118;" horiz-adv-x="1304" 
d="M59 29q97 12 138 41.5t41 93.5v1040q0 64 -41 93.5t-138 41.5v29h1102l47 -389h-28q-39 155 -143.5 243.5t-282.5 88.5h-199v-580h154q109 0 154 50.5t50 154.5h29v-469h-29q-5 106 -50 156.5t-154 50.5h-154v-510q0 -51 23.5 -79t66.5 -28h129q178 0 282.5 88.5
t143.5 243.5h29l-47 -389h-95q-64 -57 -89 -98.5t-25 -106.5q0 -83 53 -120t148 -3l12 -20q-87 -84 -244 -84q-82 0 -139.5 42.5t-57.5 121.5q0 80 71 141.5t222 126.5h-979v29z" />
    <glyph glyph-name="eogonek" unicode="&#x119;" horiz-adv-x="1114" 
d="M588 -29q-124 0 -224.5 43.5t-163.5 117.5t-96.5 168t-33.5 198q0 258 145.5 415.5t384.5 157.5q221 0 330.5 -120t111.5 -333h-677v-6q-7 -202 95 -314t275 -112q91 0 165 44.5t118 115.5l24 -8q-32 -179 -170 -281q-68 -72 -98.5 -131.5t-30.5 -132.5q0 -82 53 -119
t148 -2l12 -20q-86 -86 -243 -86q-81 0 -139 42.5t-58 115.5q0 35 10.5 64.5t26 50t44.5 43.5t53 38.5t64.5 41t67.5 44.5q-84 -35 -194 -35zM369 676h372q-2 56 -12.5 112.5t-31 108.5t-54.5 84.5t-76 32.5q-86 0 -135.5 -95.5t-62.5 -242.5z" />
    <glyph glyph-name="Ecaron" unicode="&#x11a;" horiz-adv-x="1304" 
d="M59 29q97 12 138 41.5t41 93.5v1040q0 64 -41 93.5t-138 41.5v29h1102l47 -389h-28q-39 155 -143.5 243.5t-282.5 88.5h-199v-580h154q109 0 154 50.5t50 154.5h29v-469h-29q-5 106 -50 156.5t-154 50.5h-154v-510q0 -51 23.5 -79t66.5 -28h129q178 0 282.5 88.5
t143.5 243.5h29l-47 -389h-1123v29zM553 1499l-197 356h29l291 -221l299 221h29l-207 -356h-244z" />
    <glyph glyph-name="ecaron" unicode="&#x11b;" horiz-adv-x="1114" 
d="M588 -29q-124 0 -224.5 43.5t-163.5 117.5t-96.5 168t-33.5 198q0 258 145.5 415.5t384.5 157.5q221 0 330.5 -120t111.5 -333h-677v-6q-7 -202 95 -314t275 -112q91 0 165 44.5t118 115.5l24 -8q-14 -76 -49.5 -141t-90.5 -116t-136 -80.5t-178 -29.5zM469 1174
l-197 356h29l291 -221l299 221h29l-207 -356h-244zM369 676h372q-2 56 -12.5 112.5t-31 108.5t-54.5 84.5t-76 32.5q-86 0 -135.5 -95.5t-62.5 -242.5z" />
    <glyph glyph-name="Gcircumflex" unicode="&#x11c;" horiz-adv-x="1585" 
d="M788 -31q-161 0 -296 53.5t-226 146t-142 217.5t-52 267q-2 219 85.5 387.5t256 263.5t395.5 95q211 0 364.5 -85.5t204.5 -236.5l-284 -84q-24 157 -109 252.5t-207 95.5q-172 0 -275 -175.5t-100 -456.5q3 -196 64.5 -351t167.5 -241t237 -86q112 0 183 53v389
q0 84 -43 134t-148 57v28h697v-28q-189 -13 -189 -191v-225q-87 -125 -246.5 -202t-337.5 -77zM670 1849h243l207 -356h-28l-299 221l-291 -221h-29z" />
    <glyph glyph-name="gcircumflex" unicode="&#x11d;" horiz-adv-x="1122" 
d="M530 1014q-59 0 -96 -75.5t-37 -193.5q0 -146 46 -240.5t118 -94.5q59 0 95 73t36 193q0 145 -45 241.5t-117 96.5zM547 1071q97 0 186 -29h344v-57h-225q152 -107 152 -274q0 -154 -126 -257.5t-331 -103.5q-121 0 -228 45q-38 -38 -38 -82q0 -33 45.5 -63.5
t107.5 -34.5l328 -29q157 -12 246.5 -82.5t89.5 -189.5q0 -151 -168.5 -249.5t-421.5 -98.5q-221 0 -356.5 65.5t-135.5 165.5q0 91 65 147.5t169 67.5q-127 68 -127 178q0 64 45.5 121.5t124.5 96.5q-92 44 -148.5 121t-56.5 182q0 153 127 256.5t332 103.5zM430 1524h244
l207 -357h-29l-299 222l-291 -222h-29zM248 -111q0 -84 49 -146t129 -92t178 -30q128 0 217.5 49.5t89.5 124.5q0 110 -206 137l-267 27q-76 8 -145 35q-45 -61 -45 -105z" />
    <glyph glyph-name="Gbreve" unicode="&#x11e;" horiz-adv-x="1585" 
d="M788 -31q-161 0 -296 53.5t-226 146t-142 217.5t-52 267q-2 219 85.5 387.5t256 263.5t395.5 95q211 0 364.5 -85.5t204.5 -236.5l-284 -84q-24 157 -109 252.5t-207 95.5q-172 0 -275 -175.5t-100 -456.5q3 -196 64.5 -351t167.5 -241t237 -86q112 0 183 53v389
q0 84 -43 134t-148 57v28h697v-28q-189 -13 -189 -191v-225q-87 -125 -246.5 -202t-337.5 -77zM801 1491q-137 0 -211.5 90t-71.5 274h27q24 -169 256 -169q234 0 258 169h26q3 -184 -71.5 -274t-212.5 -90z" />
    <glyph glyph-name="gbreve" unicode="&#x11f;" horiz-adv-x="1122" 
d="M530 1014q-59 0 -96 -75.5t-37 -193.5q0 -146 46 -240.5t118 -94.5q59 0 95 73t36 193q0 145 -45 241.5t-117 96.5zM547 1071q97 0 186 -29h344v-57h-225q152 -107 152 -274q0 -154 -126 -257.5t-331 -103.5q-121 0 -228 45q-38 -38 -38 -82q0 -33 45.5 -63.5
t107.5 -34.5l328 -29q157 -12 246.5 -82.5t89.5 -189.5q0 -151 -168.5 -249.5t-421.5 -98.5q-221 0 -356.5 65.5t-135.5 165.5q0 91 65 147.5t169 67.5q-127 68 -127 178q0 64 45.5 121.5t124.5 96.5q-92 44 -148.5 121t-56.5 182q0 153 127 256.5t332 103.5zM561 1165
q-136 0 -210.5 90.5t-71.5 274.5h26q24 -170 256 -170q234 0 258 170h27q3 -184 -72 -274.5t-213 -90.5zM248 -111q0 -84 49 -146t129 -92t178 -30q128 0 217.5 49.5t89.5 124.5q0 110 -206 137l-267 27q-76 8 -145 35q-45 -61 -45 -105z" />
    <glyph glyph-name="Gdotaccent" unicode="&#x120;" horiz-adv-x="1585" 
d="M788 -31q-161 0 -296 53.5t-226 146t-142 217.5t-52 267q-2 219 85.5 387.5t256 263.5t395.5 95q211 0 364.5 -85.5t204.5 -236.5l-284 -84q-24 157 -109 252.5t-207 95.5q-172 0 -275 -175.5t-100 -456.5q3 -196 64.5 -351t167.5 -241t237 -86q112 0 183 53v389
q0 84 -43 134t-148 57v28h697v-28q-189 -13 -189 -191v-225q-87 -125 -246.5 -202t-337.5 -77zM801 1509q-83 0 -138 53.5t-55 131.5q0 77 55 128.5t138 51.5t137.5 -51.5t54.5 -128.5q0 -79 -54.5 -132t-137.5 -53z" />
    <glyph glyph-name="gdotaccent" unicode="&#x121;" horiz-adv-x="1122" 
d="M530 1014q-59 0 -96 -75.5t-37 -193.5q0 -146 46 -240.5t118 -94.5q59 0 95 73t36 193q0 145 -45 241.5t-117 96.5zM547 1071q97 0 186 -29h344v-57h-225q152 -107 152 -274q0 -154 -126 -257.5t-331 -103.5q-121 0 -228 45q-38 -38 -38 -82q0 -33 45.5 -63.5
t107.5 -34.5l328 -29q157 -12 246.5 -82.5t89.5 -189.5q0 -151 -168.5 -249.5t-421.5 -98.5q-221 0 -356.5 65.5t-135.5 165.5q0 91 65 147.5t169 67.5q-127 68 -127 178q0 64 45.5 121.5t124.5 96.5q-92 44 -148.5 121t-56.5 182q0 153 127 256.5t332 103.5zM561 1184
q-83 0 -137.5 53t-54.5 131q0 77 54.5 128.5t137.5 51.5t138 -51.5t55 -128.5q0 -78 -55 -131t-138 -53zM248 -111q0 -84 49 -146t129 -92t178 -30q128 0 217.5 49.5t89.5 124.5q0 110 -206 137l-267 27q-76 8 -145 35q-45 -61 -45 -105z" />
    <glyph glyph-name="uni0122" unicode="&#x122;" horiz-adv-x="1585" 
d="M788 -31q-161 0 -296 53.5t-226 146t-142 217.5t-52 267q-2 219 85.5 387.5t256 263.5t395.5 95q211 0 364.5 -85.5t204.5 -236.5l-284 -84q-24 157 -109 252.5t-207 95.5q-172 0 -275 -175.5t-100 -456.5q3 -196 64.5 -351t167.5 -241t237 -86q112 0 183 53v389
q0 84 -43 134t-148 57v28h697v-28q-189 -13 -189 -191v-225q-87 -125 -246.5 -202t-337.5 -77zM649 -463q50 62 53.5 182t-43.5 189l289 18q14 -79 0 -144t-54.5 -113.5t-96 -84t-131.5 -63.5z" />
    <glyph glyph-name="uni0123" unicode="&#x123;" horiz-adv-x="1122" 
d="M530 1014q-59 0 -96 -75.5t-37 -193.5q0 -146 46 -240.5t118 -94.5q59 0 95 73t36 193q0 145 -45 241.5t-117 96.5zM547 1071q97 0 186 -29h344v-57h-225q152 -107 152 -274q0 -154 -126 -257.5t-331 -103.5q-121 0 -228 45q-38 -38 -38 -82q0 -33 45.5 -63.5
t107.5 -34.5l328 -29q157 -12 246.5 -82.5t89.5 -189.5q0 -151 -168.5 -249.5t-421.5 -98.5q-221 0 -356.5 65.5t-135.5 165.5q0 91 65 147.5t169 67.5q-127 68 -127 178q0 64 45.5 121.5t124.5 96.5q-92 44 -148.5 121t-56.5 182q0 153 127 256.5t332 103.5zM772 1534
q-50 -62 -53.5 -182t43.5 -189l-289 -18q-14 79 0 144t55 113.5t96.5 84t131.5 63.5zM248 -111q0 -84 49 -146t129 -92t178 -30q128 0 217.5 49.5t89.5 124.5q0 110 -206 137l-267 27q-76 8 -145 35q-45 -61 -45 -105z" />
    <glyph glyph-name="Hcircumflex" unicode="&#x124;" horiz-adv-x="1697" 
d="M965 29q97 12 137.5 41.5t40.5 93.5v508h-588v-508q0 -64 40.5 -93.5t137.5 -41.5v-29h-674v29q97 12 138 41.5t41 93.5v1040q0 64 -41 93.5t-138 41.5v29h674v-29q-97 -12 -137.5 -41.5t-40.5 -93.5v-475h588v475q0 64 -40.5 93.5t-137.5 41.5v29h673v-29
q-97 -12 -137.5 -41.5t-40.5 -93.5v-1040q0 -64 40.5 -93.5t137.5 -41.5v-29h-673v29zM717 1849h244l206 -356h-28l-299 221l-291 -221h-29z" />
    <glyph glyph-name="hcircumflex" unicode="&#x125;" horiz-adv-x="1292" 
d="M852 711q0 79 -38.5 124.5t-106.5 45.5q-104 0 -199 -95v-628q0 -62 22 -88t82 -41v-29h-514v29q60 15 82.5 41.5t22.5 87.5v1044q0 98 -113 113l-31 4v29l420 116h29v-614q82 106 164.5 163.5t181.5 57.5q150 0 226.5 -90.5t76.5 -251.5v-571q0 -61 22.5 -87.5
t82.5 -41.5v-29h-514v29q60 15 82 41t22 88v553zM211 1849h244l207 -356h-29l-299 221l-291 -221h-29z" />
    <glyph glyph-name="Hbar" unicode="&#x126;" horiz-adv-x="1697" 
d="M965 29q97 12 137.5 41.5t40.5 93.5v508h-588v-508q0 -64 40.5 -93.5t137.5 -41.5v-29h-674v29q97 12 138 41.5t41 93.5v821h-232v55h232v164q0 64 -41 93.5t-138 41.5v29h674v-29q-97 -12 -137.5 -41.5t-40.5 -93.5v-164h588v164q0 64 -40.5 93.5t-137.5 41.5v29h673
v-29q-97 -12 -137.5 -41.5t-40.5 -93.5v-164h228v-55h-228v-821q0 -64 40.5 -93.5t137.5 -41.5v-29h-673v29zM555 729h588v256h-588v-256z" />
    <glyph glyph-name="hbar" unicode="&#x127;" horiz-adv-x="1269" 
d="M829 711q0 79 -38.5 124.5t-106.5 45.5q-104 0 -199 -95v-628q0 -61 22.5 -87.5t82.5 -41.5v-29h-514v29q60 15 82 41t22 88v989h-190v57h190q0 96 -112 111l-31 4v29l420 116h28v-260h265v-57h-265v-297q82 106 164.5 163.5t181.5 57.5q150 0 227 -90.5t77 -251.5v-571
q0 -62 22 -88t82 -41v-29h-514v29q60 15 82 41t22 88v553z" />
    <glyph glyph-name="Itilde" unicode="&#x128;" horiz-adv-x="792" 
d="M59 29q97 12 138 41.5t41 93.5v1040q0 64 -41 93.5t-138 41.5v29h674v-29q-97 -12 -137.5 -41.5t-40.5 -93.5v-1040q0 -64 40.5 -93.5t137.5 -41.5v-29h-674v29zM539 1516q-60 0 -122.5 25.5t-120.5 51t-108 25.5q-99 0 -129 -102l-30 2q12 142 69 215t154 73
q60 0 184 -52t168 -52q97 0 127 102l31 -2q-10 -141 -67 -213.5t-156 -72.5z" />
    <glyph glyph-name="itilde" unicode="&#x129;" horiz-adv-x="688" 
d="M84 29q61 16 83.5 42t22.5 87v653q0 98 -114 113l-31 4v28l420 117h29v-915q0 -61 22.5 -87t83.5 -42v-29h-516v29zM477 1190q-60 0 -122 25.5t-120 51t-108 25.5q-99 0 -129 -102l-31 2q12 142 69 215.5t154 73.5q60 0 184.5 -52.5t168.5 -52.5q97 0 127 103l30 -2
q-10 -141 -67.5 -214t-155.5 -73z" />
    <glyph glyph-name="Imacron" unicode="&#x12a;" horiz-adv-x="792" 
d="M59 29q97 12 138 41.5t41 93.5v1040q0 64 -41 93.5t-138 41.5v29h674v-29q-97 -12 -137.5 -41.5t-40.5 -93.5v-1040q0 -64 40.5 -93.5t137.5 -41.5v-29h-674v29zM78 1550v80h635v-80h-635z" />
    <glyph glyph-name="imacron" unicode="&#x12b;" horiz-adv-x="688" 
d="M84 29q61 16 83.5 42t22.5 87v653q0 98 -114 113l-31 4v28l420 117h29v-915q0 -61 22.5 -87t83.5 -42v-29h-516v29zM16 1225v80h635v-80h-635z" />
    <glyph glyph-name="Ibreve" unicode="&#x12c;" horiz-adv-x="792" 
d="M59 29q97 12 138 41.5t41 93.5v1040q0 64 -41 93.5t-138 41.5v29h674v-29q-97 -12 -137.5 -41.5t-40.5 -93.5v-1040q0 -64 40.5 -93.5t137.5 -41.5v-29h-674v29zM395 1491q-136 0 -210.5 90t-71.5 274h26q24 -169 256 -169q234 0 258 169h27q3 -184 -72 -274t-213 -90z
" />
    <glyph glyph-name="ibreve" unicode="&#x12d;" horiz-adv-x="688" 
d="M84 29q61 16 83.5 42t22.5 87v653q0 98 -114 113l-31 4v28l420 117h29v-915q0 -61 22.5 -87t83.5 -42v-29h-516v29zM334 1165q-136 0 -211 90.5t-72 274.5h27q24 -170 256 -170q234 0 258 170h26q3 -184 -71.5 -274.5t-212.5 -90.5z" />
    <glyph glyph-name="Iogonek" unicode="&#x12e;" horiz-adv-x="792" 
d="M59 29q97 12 138 41.5t41 93.5v1040q0 64 -41 93.5t-138 41.5v29h674v-29q-97 -12 -137.5 -41.5t-40.5 -93.5v-1040q0 -64 40.5 -93.5t137.5 -41.5v-29h-223q-64 -58 -89.5 -99t-25.5 -106q0 -83 53 -120t148 -3l12 -20q-87 -84 -243 -84q-82 0 -139.5 42.5t-57.5 121.5
q0 80 71 141.5t222 126.5h-402v29z" />
    <glyph glyph-name="iogonek" unicode="&#x12f;" horiz-adv-x="688" 
d="M84 29q61 16 83.5 42t22.5 87v653q0 98 -114 113l-31 4v28l420 117h29v-915q0 -61 22.5 -87t83.5 -42v-29h-147q-64 -58 -89.5 -99t-25.5 -106q0 -83 53 -120t148 -3l12 -20q-87 -84 -244 -84q-82 0 -139 42.5t-57 121.5q0 80 71 141.5t221 126.5h-319v29zM334 1184
q-83 0 -138 53t-55 131q0 77 55 128.5t138 51.5t137.5 -51.5t54.5 -128.5q0 -78 -54.5 -131t-137.5 -53z" />
    <glyph glyph-name="Idotaccent" unicode="&#x130;" horiz-adv-x="792" 
d="M59 29q97 12 138 41.5t41 93.5v1040q0 64 -41 93.5t-138 41.5v29h674v-29q-97 -12 -137.5 -41.5t-40.5 -93.5v-1040q0 -64 40.5 -93.5t137.5 -41.5v-29h-674v29zM395 1509q-83 0 -137.5 53t-54.5 132q0 77 54.5 128.5t137.5 51.5t138 -51.5t55 -128.5q0 -78 -55 -131.5
t-138 -53.5z" />
    <glyph glyph-name="dotlessi" unicode="&#x131;" horiz-adv-x="688" 
d="M84 29q61 16 83.5 42t22.5 87v653q0 98 -114 113l-31 4v28l420 117h29v-915q0 -61 22.5 -87t83.5 -42v-29h-516v29z" />
    <glyph glyph-name="IJ" unicode="&#x132;" horiz-adv-x="1974" 
d="M59 29q97 12 138 41.5t41 93.5v1040q0 64 -41 93.5t-138 41.5v29h674v-29q-97 -12 -137.5 -41.5t-40.5 -93.5v-1040q0 -64 40.5 -93.5t137.5 -41.5v-29h-674v29zM1927 1339q-102 -6 -139 -38t-37 -109v-805q0 -199 -130 -307.5t-366 -108.5q-199 0 -329.5 89.5
t-151.5 230.5l328 86q1 -159 48 -253.5t124 -94.5q73 0 117.5 74.5t44.5 205.5v883q0 77 -38 109t-141 38v29h670v-29z" />
    <glyph glyph-name="ij" unicode="&#x133;" horiz-adv-x="1271" 
d="M84 29q61 16 83.5 42t22.5 87v653q0 98 -114 113l-31 4v28l420 117h29v-915q0 -61 22.5 -87t83.5 -42v-29h-516v29zM336 1184q-83 0 -138 53t-55 131q0 77 55 128.5t138 51.5t137.5 -51.5t54.5 -128.5q0 -78 -54.5 -131t-137.5 -53zM1141 150q0 -82 -12 -147.5
t-45.5 -132t-88.5 -119.5t-144 -101.5t-210 -85.5l-12 26q41 26 66 45.5t55 56.5t46.5 80t28 112.5t11.5 158.5v768q0 98 -113 113l-31 4v28l420 117h29v-923zM975 1186q-84 0 -138.5 52t-54.5 132q0 76 54.5 128t138.5 52q82 0 136 -52t54 -128q0 -80 -53.5 -132
t-136.5 -52z" />
    <glyph glyph-name="Jcircumflex" unicode="&#x134;" horiz-adv-x="1216" 
d="M1169 1339q-102 -6 -139 -38t-37 -109v-805q0 -199 -130 -307.5t-365 -108.5q-199 0 -330 89.5t-152 230.5l328 86q1 -159 48 -253.5t124 -94.5q73 0 117.5 74.5t44.5 205.5v883q0 77 -37.5 109t-140.5 38v29h669v-29zM692 1849h244l207 -356h-29l-299 221l-291 -221h-28
z" />
    <glyph glyph-name="jcircumflex" unicode="&#x135;" horiz-adv-x="622" 
d="M489 150q0 -82 -12 -147.5t-45 -132t-88 -119.5t-144 -101.5t-210 -85.5l-13 26q41 26 66 45.5t55 56.5t46.5 80t28 112.5t11.5 158.5v768q0 98 -112 113l-31 4v28l420 117h28v-923zM193 1524h243l207 -357h-29l-299 222l-290 -222h-29z" />
    <glyph glyph-name="uni0136" unicode="&#x136;" horiz-adv-x="1626" 
d="M1073 0q0 58 -69 162l-336 522l-113 -104v-416q0 -64 40.5 -93.5t137.5 -41.5v-29h-674v29q97 12 138 41.5t41 93.5v1040q0 64 -41 93.5t-138 41.5v29h674v-29q-97 -12 -137.5 -41.5t-40.5 -93.5v-547l598 557q67 64 45 94.5t-133 30.5v29h434v-29q-65 -5 -142.5 -44
t-144.5 -103l-313 -293l459 -688q48 -73 115.5 -124t136.5 -58v-29h-537zM629 -463q50 62 53.5 182t-43.5 189l289 18q14 -79 0 -144t-55 -113.5t-96.5 -84t-131.5 -63.5z" />
    <glyph glyph-name="uni0137" unicode="&#x137;" horiz-adv-x="1314" 
d="M184 1202q0 98 -112 113l-31 4v29l420 116h28v-921l402 356q130 115 -57 115v28h401v-28q-76 0 -133.5 -29t-171.5 -129l-119 -108l315 -607q26 -50 63 -77t118 -35v-29h-465q-2 46 -41 125l-219 424l-93 -84v-307q0 -61 22.5 -87.5t82.5 -41.5v-29h-514v29q60 15 82 41
t22 88v1044zM514 -463q50 62 53.5 182t-43.5 189l289 18q14 -79 0 -144t-55 -113.5t-96.5 -84t-131.5 -63.5z" />
    <glyph glyph-name="kgreenlandic" unicode="&#x138;" horiz-adv-x="1363" 
d="M885 0q-2 41 -43 125l-217 424l-95 -82v-311q0 -59 23 -85t84 -44v-27h-516v27q61 18 83.5 43.5t22.5 85.5v655q0 98 -112 113l-31 2v28l420 119h28v-526l400 352q130 115 -58 115v28h402v-28q-76 0 -132.5 -29t-172.5 -129l-119 -106l315 -609q26 -50 63.5 -77
t119.5 -35v-29h-465z" />
    <glyph glyph-name="Lacute" unicode="&#x139;" horiz-adv-x="1245" 
d="M59 0v29q101 13 140 45t39 90v1040q0 58 -39 90t-140 45v29h674v-29q-100 -13 -139 -45t-39 -90v-1040q0 -51 23.5 -79t66.5 -28h117q178 0 282.5 88.5t143.5 243.5h29l-50 -389h-1108zM322 1499l135 356h307l-414 -356h-28z" />
    <glyph glyph-name="lacute" unicode="&#x13a;" horiz-adv-x="634" 
d="M80 29q60 15 82 41t22 88v1044q0 98 -112 113l-31 4v29l420 116h28v-1306q0 -61 22.5 -87.5t82.5 -41.5v-29h-514v29zM264 1550l135 357h308l-414 -357h-29z" />
    <glyph glyph-name="uni013B" unicode="&#x13b;" horiz-adv-x="1245" 
d="M59 0v29q101 13 140 45t39 90v1040q0 58 -39 90t-140 45v29h674v-29q-100 -13 -139 -45t-39 -90v-1040q0 -51 23.5 -79t66.5 -28h117q178 0 282.5 88.5t143.5 243.5h29l-50 -389h-1108zM467 -463q50 62 53.5 182t-43.5 189l289 18q14 -79 0 -144t-55 -113.5t-96.5 -84
t-131.5 -63.5z" />
    <glyph glyph-name="uni013C" unicode="&#x13c;" horiz-adv-x="634" 
d="M80 29q60 15 82 41t22 88v1044q0 98 -112 113l-31 4v29l420 116h28v-1306q0 -61 22.5 -87.5t82.5 -41.5v-29h-514v29zM186 -463q50 62 54 182t-43 189l288 18q14 -79 0 -144t-54.5 -113.5t-96 -84t-131.5 -63.5z" />
    <glyph glyph-name="Lcaron" unicode="&#x13d;" horiz-adv-x="1245" 
d="M59 0v29q101 13 140 45t39 90v1040q0 58 -39 90t-140 45v29h674v-29q-100 -13 -139 -45t-39 -90v-1040q0 -51 23.5 -79t66.5 -28h117q178 0 282.5 88.5t143.5 243.5h29l-50 -389h-1108zM795 1155l59 412h250l-281 -412h-28z" />
    <glyph glyph-name="lcaron" unicode="&#x13e;" horiz-adv-x="823" 
d="M80 29q60 15 82 41t22 88v1044q0 98 -112 113l-31 4v29l420 116h28v-1306q0 -61 22.5 -87.5t82.5 -41.5v-29h-514v29zM573 1155l60 412h250l-281 -412h-29z" />
    <glyph glyph-name="Ldot" unicode="&#x13f;" horiz-adv-x="1245" 
d="M59 0v29q101 13 140 45t39 90v1040q0 58 -39 90t-140 45v29h674v-29q-100 -13 -139 -45t-39 -90v-1040q0 -51 23.5 -79t66.5 -28h117q178 0 282.5 88.5t143.5 243.5h29l-50 -389h-1108zM940 584q-69 0 -118.5 49t-49.5 119q0 69 49.5 117.5t118.5 48.5q74 0 121 -48
t47 -118t-49 -119t-119 -49z" />
    <glyph glyph-name="ldot" unicode="&#x140;" horiz-adv-x="948" 
d="M80 29q60 15 82 41t22 88v1044q0 98 -112 113l-31 4v29l420 116h28v-1306q0 -61 22.5 -87.5t82.5 -41.5v-29h-514v29zM754 584q-69 0 -118.5 49t-49.5 119q0 69 49.5 117.5t118.5 48.5q74 0 121 -48t47 -118t-49 -119t-119 -49z" />
    <glyph glyph-name="Lslash" unicode="&#x141;" horiz-adv-x="1245" 
d="M59 0v29q101 13 140 45t39 90v395l-177 -86v66l177 86v579q0 58 -39 90t-140 45v29h674v-29q-100 -13 -139 -45t-39 -90v-426l338 164v-63l-338 -164v-551q0 -51 23.5 -79t66.5 -28h117q178 0 282.5 88.5t143.5 243.5h29l-50 -389h-1108z" />
    <glyph glyph-name="lslash" unicode="&#x142;" horiz-adv-x="636" 
d="M80 29q60 15 82 41t22 88v471l-127 -62v66l127 61v508q0 98 -112 113l-31 4v29l420 116h28v-620l132 63v-63l-132 -64v-622q0 -61 22.5 -87.5t82.5 -41.5v-29h-514v29z" />
    <glyph glyph-name="Nacute" unicode="&#x143;" horiz-adv-x="1544" 
d="M330 1133l-4 4v-928q0 -94 49.5 -131t179.5 -49v-29h-463v29q99 12 137.5 49.5t38.5 130.5v995q-61 68 -106.5 98.5t-102.5 36.5v29h490l700 -909v700q0 94 -48.5 131t-178.5 49v29h463v-29q-101 -12 -139.5 -49t-38.5 -131v-1190h-74zM717 1499l135 356h307l-414 -356
h-28z" />
    <glyph glyph-name="nacute" unicode="&#x144;" horiz-adv-x="1280" 
d="M840 711q0 79 -40 124.5t-108 45.5q-54 0 -100.5 -22t-97.5 -73v-628q0 -61 22.5 -87t83.5 -42v-29h-516v29q61 16 83.5 42t22.5 87v653q0 98 -114 113l-31 2v28l420 119h29v-223q82 106 164.5 163.5t181.5 57.5q150 0 226.5 -90.5t76.5 -251.5v-571q0 -61 22.5 -87
t83.5 -42v-29h-516v29q61 16 84 42t23 87v553zM598 1174l135 356h307l-413 -356h-29z" />
    <glyph glyph-name="uni0145" unicode="&#x145;" horiz-adv-x="1544" 
d="M330 1133l-4 4v-928q0 -94 49.5 -131t179.5 -49v-29h-463v29q99 12 137.5 49.5t38.5 130.5v995q-61 68 -106.5 98.5t-102.5 36.5v29h490l700 -909v700q0 94 -48.5 131t-178.5 49v29h463v-29q-101 -12 -139.5 -49t-38.5 -131v-1190h-74zM641 -463q50 62 53.5 182
t-43.5 189l289 18q14 -79 0 -144t-55 -113.5t-96.5 -84t-131.5 -63.5z" />
    <glyph glyph-name="uni0146" unicode="&#x146;" horiz-adv-x="1280" 
d="M840 711q0 79 -40 124.5t-108 45.5q-54 0 -100.5 -22t-97.5 -73v-628q0 -61 22.5 -87t83.5 -42v-29h-516v29q61 16 83.5 42t22.5 87v653q0 98 -114 113l-31 2v28l420 119h29v-223q82 106 164.5 163.5t181.5 57.5q150 0 226.5 -90.5t76.5 -251.5v-571q0 -61 22.5 -87
t83.5 -42v-29h-516v29q61 16 84 42t23 87v553zM522 -463q50 62 53.5 182t-43.5 189l289 18q14 -79 0 -144t-54.5 -113.5t-96 -84t-131.5 -63.5z" />
    <glyph glyph-name="Ncaron" unicode="&#x147;" horiz-adv-x="1544" 
d="M330 1133l-4 4v-928q0 -94 49.5 -131t179.5 -49v-29h-463v29q99 12 137.5 49.5t38.5 130.5v995q-61 68 -106.5 98.5t-102.5 36.5v29h490l700 -909v700q0 94 -48.5 131t-178.5 49v29h463v-29q-101 -12 -139.5 -49t-38.5 -131v-1190h-74zM666 1499l-197 356h29l290 -221
l299 221h29l-207 -356h-243z" />
    <glyph glyph-name="ncaron" unicode="&#x148;" horiz-adv-x="1280" 
d="M840 711q0 79 -40 124.5t-108 45.5q-54 0 -100.5 -22t-97.5 -73v-628q0 -61 22.5 -87t83.5 -42v-29h-516v29q61 16 83.5 42t22.5 87v653q0 98 -114 113l-31 2v28l420 119h29v-223q82 106 164.5 163.5t181.5 57.5q150 0 226.5 -90.5t76.5 -251.5v-571q0 -61 22.5 -87
t83.5 -42v-29h-516v29q61 16 84 42t23 87v553zM547 1174l-197 356h29l291 -221l299 221h28l-206 -356h-244z" />
    <glyph glyph-name="napostrophe" unicode="&#x149;" horiz-adv-x="1284" 
d="M840 711q0 79 -40 124.5t-108 45.5q-54 0 -100.5 -22t-97.5 -73v-628q0 -61 22.5 -87t83.5 -42v-29h-516v29q61 16 83.5 42t22.5 87v653q0 98 -114 113l-31 2v28l420 119h29v-223q82 106 164.5 163.5t181.5 57.5q150 0 226.5 -90.5t76.5 -251.5v-571q0 -61 22.5 -87
t83.5 -42v-29h-516v29q61 16 84 42t23 87v553zM143 1159q85 17 147.5 66.5t65.5 130.5q-4 -1 -21.5 -6t-30 -7t-28.5 -2q-63 0 -101 39.5t-38 104.5q0 64 48.5 107.5t117.5 43.5q78 0 124 -48t46 -134q0 -127 -89.5 -217.5t-240.5 -103.5v26z" />
    <glyph glyph-name="Eng" unicode="&#x14a;" horiz-adv-x="1544" 
d="M920 -434q-148 0 -260.5 68.5t-155.5 185.5l270 53q11 -105 73 -169t159 -64q110 0 177.5 66.5t67.5 178.5q0 74 -75 176l-850 1076v-973q0 -53 50 -87t179 -48v-29h-463v29q99 14 137.5 48.5t38.5 86.5v1048q-53 62 -101 91.5t-108 35.5v29h490l700 -895v731
q0 67 -52 98t-175 37v29h463v-29q-96 -6 -137 -37t-41 -98v-1265q0 -175 -105 -274t-282 -99z" />
    <glyph glyph-name="eng" unicode="&#x14b;" horiz-adv-x="1280" 
d="M844 711q0 79 -39.5 124.5t-108.5 45.5q-105 0 -202 -97v-628q0 -60 22.5 -85.5t83.5 -43.5v-27h-516v27q61 18 83.5 43.5t22.5 85.5v655q0 97 -114 113l-31 2v28l420 119h29v-227q55 69 103.5 114.5t113.5 78t133 32.5q150 0 226.5 -90.5t76.5 -251.5v-579
q0 -82 -12 -147.5t-45 -132t-88 -119.5t-144 -101.5t-211 -85.5l-10 26q41 26 66 45.5t55 56.5t46.5 80t28 112.5t11.5 158.5v668z" />
    <glyph glyph-name="Omacron" unicode="&#x14c;" horiz-adv-x="1611" 
d="M805 -31q-171 0 -311.5 55.5t-231.5 150.5t-140.5 218.5t-49.5 261.5q0 216 96.5 386.5t266 264t380.5 93.5q170 0 310.5 -56t231 -150.5t140 -217.5t49.5 -260q0 -215 -96.5 -386t-265.5 -265.5t-379 -94.5zM848 27q111 0 194 76t127 210t45 308q0 190 -53 352.5
t-156 264.5t-235 103q-167 3 -267 -162.5t-100 -433.5q-1 -189 54 -352t158.5 -264t232.5 -102zM492 1550v80h634v-80h-634z" />
    <glyph glyph-name="omacron" unicode="&#x14d;" horiz-adv-x="1218" 
d="M602 -31q-236 0 -384 147.5t-148 381.5q0 255 152 415t394 160q236 0 384.5 -147.5t148.5 -382.5q0 -255 -152 -414.5t-395 -159.5zM643 27q93 0 143 107.5t50 289.5q0 164 -31.5 298.5t-91 214t-135.5 79.5q-93 0 -144 -110t-51 -288q0 -165 32.5 -299.5t92.5 -213
t135 -78.5zM293 1225v80h635v-80h-635z" />
    <glyph glyph-name="Obreve" unicode="&#x14e;" horiz-adv-x="1611" 
d="M805 -31q-171 0 -311.5 55.5t-231.5 150.5t-140.5 218.5t-49.5 261.5q0 216 96.5 386.5t266 264t380.5 93.5q170 0 310.5 -56t231 -150.5t140 -217.5t49.5 -260q0 -215 -96.5 -386t-265.5 -265.5t-379 -94.5zM848 27q111 0 194 76t127 210t45 308q0 190 -53 352.5
t-156 264.5t-235 103q-167 3 -267 -162.5t-100 -433.5q-1 -189 54 -352t158.5 -264t232.5 -102zM809 1491q-137 0 -211.5 90t-71.5 274h27q24 -169 256 -169q234 0 258 169h27q3 -184 -72 -274t-213 -90z" />
    <glyph glyph-name="obreve" unicode="&#x14f;" horiz-adv-x="1218" 
d="M602 -31q-236 0 -384 147.5t-148 381.5q0 255 152 415t394 160q236 0 384.5 -147.5t148.5 -382.5q0 -255 -152 -414.5t-395 -159.5zM643 27q93 0 143 107.5t50 289.5q0 164 -31.5 298.5t-91 214t-135.5 79.5q-93 0 -144 -110t-51 -288q0 -165 32.5 -299.5t92.5 -213
t135 -78.5zM610 1165q-136 0 -210.5 90.5t-71.5 274.5h26q24 -170 256 -170q234 0 258 170h27q3 -184 -72 -274.5t-213 -90.5z" />
    <glyph glyph-name="Ohungarumlaut" unicode="&#x150;" horiz-adv-x="1611" 
d="M805 -31q-171 0 -311.5 55.5t-231.5 150.5t-140.5 218.5t-49.5 261.5q0 216 96.5 386.5t266 264t380.5 93.5q170 0 310.5 -56t231 -150.5t140 -217.5t49.5 -260q0 -215 -96.5 -386t-265.5 -265.5t-379 -94.5zM848 27q111 0 194 76t127 210t45 308q0 190 -53 352.5
t-156 264.5t-235 103q-167 3 -267 -162.5t-100 -433.5q-1 -189 54 -352t158.5 -264t232.5 -102zM618 1499l136 356h307l-414 -356h-29zM963 1499l135 356h307l-414 -356h-28z" />
    <glyph glyph-name="ohungarumlaut" unicode="&#x151;" horiz-adv-x="1218" 
d="M602 -31q-236 0 -384 147.5t-148 381.5q0 255 152 415t394 160q236 0 384.5 -147.5t148.5 -382.5q0 -255 -152 -414.5t-395 -159.5zM643 27q93 0 143 107.5t50 289.5q0 164 -31.5 298.5t-91 214t-135.5 79.5q-93 0 -144 -110t-51 -288q0 -165 32.5 -299.5t92.5 -213
t135 -78.5zM420 1174l135 356h307l-413 -356h-29zM764 1174l135 356h307l-413 -356h-29z" />
    <glyph glyph-name="OE" unicode="&#x152;" horiz-adv-x="2150" 
d="M809 -29q-169 0 -310 55.5t-233 149.5t-143 218t-51 261q0 162 58 301t158 235.5t237.5 151t293.5 54.5q133 0 246 -29h940l47 -385h-29q-39 152 -144 241t-282 89h-196v-582h198q147 0 160 205h29v-469h-29q-12 207 -160 207h-198v-510q0 -51 23.5 -79t66.5 -28h127
q177 0 282 88t144 240h29l-48 -385h-983q-110 -29 -233 -29zM848 31q63 0 113.5 15.5t86 57t35.5 105.5v897q0 57 -18 100t-44.5 67t-63.5 39t-68 19.5t-66 5.5q-132 2 -228 -72.5t-144 -208t-48 -311.5q-1 -193 55.5 -356.5t159.5 -260.5t230 -97z" />
    <glyph glyph-name="oe" unicode="&#x153;" horiz-adv-x="1902" 
d="M602 -31q-236 0 -384 147.5t-148 381.5q0 255 152 415t394 160q243 0 392 -155q144 153 381 153q221 0 330.5 -120t111.5 -333h-678v-6q-7 -202 95.5 -314t275.5 -112q91 0 164.5 44.5t117.5 115.5l25 -8q-14 -76 -49.5 -141t-91 -116t-136.5 -80.5t-178 -29.5
q-236 0 -383 154q-150 -156 -391 -156zM643 27q93 0 143 107.5t50 289.5q0 164 -31.5 298.5t-91 214t-135.5 79.5q-93 0 -144 -110t-51 -288q0 -165 32.5 -299.5t92.5 -213t135 -78.5zM1157 676h373q-2 56 -12.5 112.5t-31 108.5t-54.5 84.5t-76 32.5q-86 0 -136 -95.5
t-63 -242.5z" />
    <glyph glyph-name="Racute" unicode="&#x154;" horiz-adv-x="1540" 
d="M59 29q97 12 138 41.5t41 93.5v1040q0 64 -41 93.5t-138 41.5v29h664q264 0 416.5 -102t152.5 -289q0 -127 -77.5 -215.5t-219.5 -130.5l297 -453q38 -58 104 -99.5t132 -49.5v-29h-520q-7 45 -54 123l-292 473h-107v-432q0 -64 40.5 -93.5t137.5 -41.5v-29h-674v29z
M649 1499l135 356h308l-414 -356h-29zM555 653h113q139 0 217 88.5t78 235.5q0 152 -78 243t-217 91h-113v-658z" />
    <glyph glyph-name="racute" unicode="&#x155;" horiz-adv-x="915" 
d="M494 156q0 -62 34 -87t140 -40v-29h-607v29q74 15 101.5 41t27.5 86v655q0 98 -114 113l-31 2v28l420 119h29v-317q51 148 133 232.5t184 84.5q48 0 88 -18l-18 -275q-51 43 -144 43q-73 0 -139.5 -35.5t-103.5 -99.5v-532zM449 1174l135 356h307l-414 -356h-28z" />
    <glyph glyph-name="uni0156" unicode="&#x156;" horiz-adv-x="1540" 
d="M59 29q97 12 138 41.5t41 93.5v1040q0 64 -41 93.5t-138 41.5v29h664q264 0 416.5 -102t152.5 -289q0 -127 -77.5 -215.5t-219.5 -130.5l297 -453q38 -58 104 -99.5t132 -49.5v-29h-520q-7 45 -54 123l-292 473h-107v-432q0 -64 40.5 -93.5t137.5 -41.5v-29h-674v29z
M629 -463q50 62 53.5 182t-43.5 189l289 18q14 -79 0 -144t-55 -113.5t-96.5 -84t-131.5 -63.5zM555 653h113q139 0 217 88.5t78 235.5q0 152 -78 243t-217 91h-113v-658z" />
    <glyph glyph-name="uni0157" unicode="&#x157;" horiz-adv-x="915" 
d="M494 156q0 -62 34 -87t140 -40v-29h-607v29q74 15 101.5 41t27.5 86v655q0 98 -114 113l-31 2v28l420 119h29v-317q51 148 133 232.5t184 84.5q48 0 88 -18l-18 -275q-51 43 -144 43q-73 0 -139.5 -35.5t-103.5 -99.5v-532zM184 -463q50 62 54 182t-43 189l288 18
q14 -79 0 -144t-54.5 -113.5t-96 -84t-131.5 -63.5z" />
    <glyph glyph-name="Rcaron" unicode="&#x158;" horiz-adv-x="1540" 
d="M59 29q97 12 138 41.5t41 93.5v1040q0 64 -41 93.5t-138 41.5v29h664q264 0 416.5 -102t152.5 -289q0 -127 -77.5 -215.5t-219.5 -130.5l297 -453q38 -58 104 -99.5t132 -49.5v-29h-520q-7 45 -54 123l-292 473h-107v-432q0 -64 40.5 -93.5t137.5 -41.5v-29h-674v29z
M596 1499l-197 356h29l291 -221l299 221h29l-207 -356h-244zM555 653h113q139 0 217 88.5t78 235.5q0 152 -78 243t-217 91h-113v-658z" />
    <glyph glyph-name="rcaron" unicode="&#x159;" horiz-adv-x="915" 
d="M494 156q0 -62 34 -87t140 -40v-29h-607v29q74 15 101.5 41t27.5 86v655q0 98 -114 113l-31 2v28l420 119h29v-317q51 148 133 232.5t184 84.5q48 0 88 -18l-18 -275q-51 43 -144 43q-73 0 -139.5 -35.5t-103.5 -99.5v-532zM397 1174l-196 356h28l291 -221l299 221h29
l-207 -356h-244z" />
    <glyph glyph-name="Sacute" unicode="&#x15a;" horiz-adv-x="1273" 
d="M647 -29q-212 0 -366 85t-207 245l270 72q32 -154 124.5 -249t209.5 -95q101 0 163 61.5t62 161.5q0 62 -27 111.5t-72 83t-104 61t-124 51.5t-130 49.5t-124 59.5t-104 76.5t-72 106t-27 142.5q0 184 140.5 295t381.5 111q131 0 242 -35.5t193.5 -108.5t117.5 -176
l-266 -73q-33 157 -116.5 246t-203.5 89q-94 0 -152.5 -55.5t-58.5 -146.5q0 -58 27.5 -104.5t74 -78.5t106.5 -59t126.5 -51.5t133.5 -51t127 -62.5t106.5 -80t74 -110t27.5 -147q0 -198 -150 -311t-403 -113zM567 1499l135 356h308l-414 -356h-29z" />
    <glyph glyph-name="sacute" unicode="&#x15b;" horiz-adv-x="1026" 
d="M530 -29q-165 0 -293.5 66t-179.5 166l211 112q31 -128 109 -207t176 -79q76 0 126 41t50 108q0 63 -34.5 106.5t-89 67.5t-121 43.5t-132.5 43.5t-121 57.5t-90 94.5t-35 146q0 148 118 241t311 93q144 0 256 -54.5t151 -152.5l-194 -100q-36 112 -104 181t-148 69
q-68 0 -112 -39.5t-44 -102.5q0 -49 27 -85.5t71 -57.5t100.5 -41.5t115.5 -37t115.5 -45t100.5 -63t71.5 -93.5t27.5 -136q1 -152 -124 -247t-315 -95zM463 1174l135 356h307l-413 -356h-29z" />
    <glyph glyph-name="Scircumflex" unicode="&#x15c;" horiz-adv-x="1273" 
d="M647 -29q-212 0 -366 85t-207 245l270 72q32 -154 124.5 -249t209.5 -95q101 0 163 61.5t62 161.5q0 62 -27 111.5t-72 83t-104 61t-124 51.5t-130 49.5t-124 59.5t-104 76.5t-72 106t-27 142.5q0 184 140.5 295t381.5 111q131 0 242 -35.5t193.5 -108.5t117.5 -176
l-266 -73q-33 157 -116.5 246t-203.5 89q-94 0 -152.5 -55.5t-58.5 -146.5q0 -58 27.5 -104.5t74 -78.5t106.5 -59t126.5 -51.5t133.5 -51t127 -62.5t106.5 -80t74 -110t27.5 -147q0 -198 -150 -311t-403 -113zM512 1849h244l207 -356h-29l-299 221l-291 -221h-29z" />
    <glyph glyph-name="scircumflex" unicode="&#x15d;" horiz-adv-x="1026" 
d="M530 -29q-165 0 -293.5 66t-179.5 166l211 112q31 -128 109 -207t176 -79q76 0 126 41t50 108q0 63 -34.5 106.5t-89 67.5t-121 43.5t-132.5 43.5t-121 57.5t-90 94.5t-35 146q0 148 118 241t311 93q144 0 256 -54.5t151 -152.5l-194 -100q-36 112 -104 181t-148 69
q-68 0 -112 -39.5t-44 -102.5q0 -49 27 -85.5t71 -57.5t100.5 -41.5t115.5 -37t115.5 -45t100.5 -63t71.5 -93.5t27.5 -136q1 -152 -124 -247t-315 -95zM408 1524h243l207 -357h-29l-299 222l-290 -222h-29z" />
    <glyph glyph-name="Scedilla" unicode="&#x15e;" horiz-adv-x="1273" 
d="M434 -410q93 -3 142 24t51 79q0 44 -30.5 68.5t-86.5 39.5l94 170q-198 9 -339 94t-191 236l270 72q32 -154 124.5 -249t209.5 -95q101 0 163 61.5t62 161.5q0 62 -27 111.5t-72 83t-104 61t-124 51.5t-130 49.5t-124 59.5t-104 76.5t-72 106t-27 142.5q0 184 140.5 295
t381.5 111q131 0 242 -35.5t193.5 -108.5t117.5 -176l-266 -73q-33 157 -116.5 246t-203.5 89q-94 0 -152.5 -55.5t-58.5 -146.5q0 -58 27.5 -104.5t74 -78.5t106.5 -59t126.5 -51.5t133.5 -51t127 -62.5t106.5 -80t74 -110t27.5 -147q0 -196 -148.5 -309t-398.5 -115
l-26 -77q30 -2 58 -12t55.5 -28.5t44 -51.5t16.5 -76q0 -68 -50 -112t-131.5 -55t-185.5 3v28z" />
    <glyph glyph-name="scedilla" unicode="&#x15f;" horiz-adv-x="1026" 
d="M530 -29h-6l-26 -77q30 -2 58 -12t55.5 -28.5t44 -51.5t16.5 -76q0 -68 -50 -112t-131.5 -55t-185.5 3v28q93 -3 142 24t51 79q0 44 -30.5 68.5t-86.5 39.5l94 172q-147 10 -259.5 74t-158.5 156l211 112q31 -128 109 -207t176 -79q76 0 126 41t50 108q0 63 -34.5 106.5
t-89 67.5t-121 43.5t-132.5 43.5t-121 57.5t-90 94.5t-35 146q0 148 118 241t311 93q144 0 256 -54.5t151 -152.5l-194 -100q-36 112 -104 181t-148 69q-68 0 -112 -39.5t-44 -102.5q0 -49 27 -85.5t71 -57.5t100.5 -41.5t115.5 -37t115.5 -45t100.5 -63t71.5 -93.5
t27.5 -136q1 -152 -124 -247t-315 -95z" />
    <glyph glyph-name="Scaron" unicode="&#x160;" horiz-adv-x="1273" 
d="M647 -29q-212 0 -366 85t-207 245l270 72q32 -154 124.5 -249t209.5 -95q101 0 163 61.5t62 161.5q0 62 -27 111.5t-72 83t-104 61t-124 51.5t-130 49.5t-124 59.5t-104 76.5t-72 106t-27 142.5q0 184 140.5 295t381.5 111q131 0 242 -35.5t193.5 -108.5t117.5 -176
l-266 -73q-33 157 -116.5 246t-203.5 89q-94 0 -152.5 -55.5t-58.5 -146.5q0 -58 27.5 -104.5t74 -78.5t106.5 -59t126.5 -51.5t133.5 -51t127 -62.5t106.5 -80t74 -110t27.5 -147q0 -198 -150 -311t-403 -113zM516 1499l-197 356h29l291 -221l299 221h29l-207 -356h-244z
" />
    <glyph glyph-name="scaron" unicode="&#x161;" horiz-adv-x="1026" 
d="M530 -29q-165 0 -293.5 66t-179.5 166l211 112q31 -128 109 -207t176 -79q76 0 126 41t50 108q0 63 -34.5 106.5t-89 67.5t-121 43.5t-132.5 43.5t-121 57.5t-90 94.5t-35 146q0 148 118 241t311 93q144 0 256 -54.5t151 -152.5l-194 -100q-36 112 -104 181t-148 69
q-68 0 -112 -39.5t-44 -102.5q0 -49 27 -85.5t71 -57.5t100.5 -41.5t115.5 -37t115.5 -45t100.5 -63t71.5 -93.5t27.5 -136q1 -152 -124 -247t-315 -95zM410 1174l-197 356h29l290 -221l299 221h29l-207 -356h-243z" />
    <glyph glyph-name="uni0162" unicode="&#x162;" horiz-adv-x="1345" 
d="M831 164q0 -58 39.5 -90t139.5 -45v-29h-326l-37 -106q30 -2 58 -12t55.5 -28.5t44 -51.5t16.5 -76q0 -68 -50 -112t-131 -55t-185 3v28q92 -3 141 24t51 79q0 44 -30.5 68.5t-86.5 39.5l109 199h-303v29q101 13 139.5 44.5t38.5 90.5v1147h-27q-178 0 -282.5 -88.5
t-143.5 -243.5h-28l49 389h1184l47 -389h-29q-39 155 -143.5 243.5t-282.5 88.5h-27v-1147z" />
    <glyph glyph-name="uni0163" unicode="&#x163;" horiz-adv-x="792" 
d="M465 1321v-279h297v-57h-297v-696q0 -80 44 -134.5t118 -54.5q10 0 19 1t17.5 3t15 3.5t15 5.5t13.5 6.5t13.5 7.5t11.5 7t12.5 8.5t11.5 7.5l16 -17q-113 -164 -311 -164h-8l-27 -75q30 -2 58 -12t55.5 -28.5t44 -51.5t16.5 -76q0 -68 -50 -112t-131.5 -55t-185.5 3v28
q93 -3 142 24t51 79q0 44 -30.5 68.5t-86.5 39.5l94 172q-114 17 -177.5 97t-63.5 209v706h-113v29l387 307h29z" />
    <glyph glyph-name="Tcaron" unicode="&#x164;" horiz-adv-x="1345" 
d="M831 164q0 -58 39.5 -90t139.5 -45v-29h-674v29q101 13 139.5 44.5t38.5 90.5v1147h-27q-178 0 -282.5 -88.5t-143.5 -243.5h-28l49 389h1184l47 -389h-29q-39 155 -143.5 243.5t-282.5 88.5h-27v-1147zM547 1499l-197 356h29l291 -221l299 221h28l-206 -356h-244z" />
    <glyph glyph-name="tcaron" unicode="&#x165;" horiz-adv-x="794" 
d="M465 1321v-279h297v-57h-297v-696q0 -80 44 -134.5t118 -54.5q10 0 19 1t17.5 3t15 3.5t15 5.5t13.5 6.5t13.5 7.5t11.5 7t12.5 8.5t11.5 7.5l16 -17q-113 -164 -311 -164q-138 0 -218.5 82.5t-80.5 227.5v706h-113v29l387 307h29zM543 1155l59 412h250l-281 -412h-28z
" />
    <glyph glyph-name="Tbar" unicode="&#x166;" horiz-adv-x="1345" 
d="M831 164q0 -58 39.5 -90t139.5 -45v-29h-674v29q101 13 139.5 44.5t38.5 90.5v489h-221v58h221v600h-27q-178 0 -282.5 -88.5t-143.5 -243.5h-28l49 389h1184l47 -389h-29q-39 155 -143.5 243.5t-282.5 88.5h-27v-600h220v-58h-220v-489z" />
    <glyph glyph-name="tbar" unicode="&#x167;" horiz-adv-x="792" 
d="M465 1321v-279h297v-57h-297v-344h254v-57h-254v-295q0 -80 44 -134.5t118 -54.5q10 0 19 1t17.5 3t15 3.5t15 5.5t13.5 6.5t13.5 7.5t11.5 7t12.5 8.5t11.5 7.5l16 -17q-113 -164 -311 -164q-138 0 -218.5 82.5t-80.5 227.5v305h-144v57h144v344h-113v29l387 307h29z
" />
    <glyph glyph-name="Utilde" unicode="&#x168;" horiz-adv-x="1525" 
d="M813 -29q-280 0 -440 137.5t-160 380.5v715q0 64 -40.5 93.5t-137.5 41.5v29h674v-29q-97 -12 -138 -41.5t-41 -93.5v-715q0 -183 97 -287t270 -104q164 0 261 106.5t97 284.5v715q0 64 -40.5 93.5t-135.5 41.5v29h412v-29q-97 -12 -137.5 -41.5t-40.5 -93.5v-715
q0 -233 -137 -375.5t-363 -142.5zM985 1516q-60 0 -122 25.5t-120 51t-108 25.5q-99 0 -129 -102l-31 2q12 142 69 215t154 73q60 0 184.5 -52t168.5 -52q97 0 127 102l30 -2q-10 -141 -67 -213.5t-156 -72.5z" />
    <glyph glyph-name="utilde" unicode="&#x169;" horiz-adv-x="1280" 
d="M467 332q0 -80 39 -126t106 -46q56 0 103.5 23t99.5 75v553q0 98 -113 113l-30 4v28l420 117h28v-842q0 -96 113 -112l31 -2v-29l-404 -119h-29l-14 228q-84 -109 -168 -168.5t-184 -59.5q-150 0 -226.5 91t-76.5 251v500q0 98 -113 113l-31 4v28l420 117h29v-741z
M786 1190q-60 0 -122 25.5t-120 51t-108 25.5q-99 0 -129 -102l-31 2q12 142 69.5 215.5t154.5 73.5q60 0 184 -52.5t168 -52.5q97 0 127 103l31 -2q-10 -141 -67.5 -214t-156.5 -73z" />
    <glyph glyph-name="Umacron" unicode="&#x16a;" horiz-adv-x="1525" 
d="M813 -29q-280 0 -440 137.5t-160 380.5v715q0 64 -40.5 93.5t-137.5 41.5v29h674v-29q-97 -12 -138 -41.5t-41 -93.5v-715q0 -183 97 -287t270 -104q164 0 261 106.5t97 284.5v715q0 64 -40.5 93.5t-135.5 41.5v29h412v-29q-97 -12 -137.5 -41.5t-40.5 -93.5v-715
q0 -233 -137 -375.5t-363 -142.5zM524 1550v80h635v-80h-635z" />
    <glyph glyph-name="umacron" unicode="&#x16b;" horiz-adv-x="1280" 
d="M467 332q0 -80 39 -126t106 -46q56 0 103.5 23t99.5 75v553q0 98 -113 113l-30 4v28l420 117h28v-842q0 -96 113 -112l31 -2v-29l-404 -119h-29l-14 228q-84 -109 -168 -168.5t-184 -59.5q-150 0 -226.5 91t-76.5 251v500q0 98 -113 113l-31 4v28l420 117h29v-741z
M328 1225v80h635v-80h-635z" />
    <glyph glyph-name="Ubreve" unicode="&#x16c;" horiz-adv-x="1525" 
d="M813 -29q-280 0 -440 137.5t-160 380.5v715q0 64 -40.5 93.5t-137.5 41.5v29h674v-29q-97 -12 -138 -41.5t-41 -93.5v-715q0 -183 97 -287t270 -104q164 0 261 106.5t97 284.5v715q0 64 -40.5 93.5t-135.5 41.5v29h412v-29q-97 -12 -137.5 -41.5t-40.5 -93.5v-715
q0 -233 -137 -375.5t-363 -142.5zM842 1491q-137 0 -211.5 90t-71.5 274h27q24 -169 256 -169q234 0 258 169h26q3 -184 -71.5 -274t-212.5 -90z" />
    <glyph glyph-name="ubreve" unicode="&#x16d;" horiz-adv-x="1280" 
d="M467 332q0 -80 39 -126t106 -46q56 0 103.5 23t99.5 75v553q0 98 -113 113l-30 4v28l420 117h28v-842q0 -96 113 -112l31 -2v-29l-404 -119h-29l-14 228q-84 -109 -168 -168.5t-184 -59.5q-150 0 -226.5 91t-76.5 251v500q0 98 -113 113l-31 4v28l420 117h29v-741z
M645 1165q-136 0 -211 90.5t-72 274.5h27q24 -170 256 -170q234 0 258 170h27q3 -184 -72 -274.5t-213 -90.5z" />
    <glyph glyph-name="Uring" unicode="&#x16e;" horiz-adv-x="1525" 
d="M813 -29q-280 0 -440 137.5t-160 380.5v715q0 64 -40.5 93.5t-137.5 41.5v29h674v-29q-97 -12 -138 -41.5t-41 -93.5v-715q0 -183 97 -287t270 -104q164 0 261 106.5t97 284.5v715q0 64 -40.5 93.5t-135.5 41.5v29h412v-29q-97 -12 -137.5 -41.5t-40.5 -93.5v-715
q0 -233 -137 -375.5t-363 -142.5zM842 1462q-98 0 -159.5 60t-61.5 151q0 93 61.5 153t159.5 60t159.5 -60t61.5 -153q0 -91 -61.5 -151t-159.5 -60zM842 1530q62 0 100.5 40.5t38.5 104.5q0 62 -39 102t-100 40q-59 0 -99.5 -40.5t-40.5 -101.5q0 -64 40.5 -104.5
t99.5 -40.5z" />
    <glyph glyph-name="uring" unicode="&#x16f;" horiz-adv-x="1280" 
d="M467 332q0 -80 39 -126t106 -46q56 0 103.5 23t99.5 75v553q0 98 -113 113l-30 4v28l420 117h28v-842q0 -96 113 -112l31 -2v-29l-404 -119h-29l-14 228q-84 -109 -168 -168.5t-184 -59.5q-150 0 -226.5 91t-76.5 251v500q0 98 -113 113l-31 4v28l420 117h29v-741z
M645 1137q-98 0 -159.5 60t-61.5 151q0 93 61.5 153t159.5 60t159.5 -60t61.5 -153q0 -91 -61.5 -151t-159.5 -60zM645 1204q61 0 100 40.5t39 105.5q0 62 -39 101.5t-100 39.5q-59 0 -99 -40t-40 -101q0 -64 40 -105t99 -41z" />
    <glyph glyph-name="Uhungarumlaut" unicode="&#x170;" horiz-adv-x="1525" 
d="M813 -29q-280 0 -440 137.5t-160 380.5v715q0 64 -40.5 93.5t-137.5 41.5v29h674v-29q-97 -12 -138 -41.5t-41 -93.5v-715q0 -183 97 -287t270 -104q164 0 261 106.5t97 284.5v715q0 64 -40.5 93.5t-135.5 41.5v29h412v-29q-97 -12 -137.5 -41.5t-40.5 -93.5v-715
q0 -233 -137 -375.5t-363 -142.5zM651 1499l135 356h308l-414 -356h-29zM995 1499l135 356h308l-414 -356h-29z" />
    <glyph glyph-name="uhungarumlaut" unicode="&#x171;" horiz-adv-x="1284" 
d="M467 332q0 -80 39 -126t106 -46q56 0 103.5 23t99.5 75v553q0 98 -113 113l-30 4v28l420 117h28v-842q0 -96 113 -112l31 -2v-29l-404 -119h-29l-14 228q-84 -109 -168 -168.5t-184 -59.5q-150 0 -226.5 91t-76.5 251v500q0 98 -113 113l-31 4v28l420 117h29v-741z
M451 1174l135 356h307l-414 -356h-28zM795 1174l135 356h307l-414 -356h-28z" />
    <glyph glyph-name="Uogonek" unicode="&#x172;" horiz-adv-x="1525" 
d="M813 -29q-280 0 -440 137.5t-160 380.5v715q0 64 -40.5 93.5t-137.5 41.5v29h674v-29q-97 -12 -138 -41.5t-41 -93.5v-715q0 -183 97 -287t270 -104q164 0 261 106.5t97 284.5v715q0 64 -40.5 93.5t-135.5 41.5v29h412v-29q-97 -12 -137.5 -41.5t-40.5 -93.5v-715
q0 -189 -91.5 -320.5t-250.5 -176.5q-60 -53 -83.5 -93.5t-23.5 -103.5q0 -83 53 -120t148 -3l12 -20q-87 -84 -243 -84q-82 0 -139.5 42.5t-57.5 121.5q0 71 57.5 128t177.5 113q-18 -2 -59 -2z" />
    <glyph glyph-name="uogonek" unicode="&#x173;" horiz-adv-x="1280" 
d="M467 332q0 -80 39 -126t106 -46q56 0 103.5 23t99.5 75v553q0 98 -113 113l-30 4v28l420 117h28v-842q0 -96 113 -112l31 -2v-29h-2l2 -2q-90 -75 -131 -141.5t-41 -151.5q0 -82 52.5 -119t147.5 -2l13 -20q-86 -86 -244 -86q-82 0 -139.5 43t-57.5 121q0 176 322 336
l-326 -97h-29l-14 228q-84 -109 -168 -168.5t-184 -59.5q-150 0 -226.5 91t-76.5 251v500q0 98 -113 113l-31 4v28l420 117h29v-741z" />
    <glyph glyph-name="Wcircumflex" unicode="&#x174;" horiz-adv-x="2148" 
d="M987 1159q-32 82 -78.5 125.5t-134.5 54.5v29h588v-29q-33 -6 -53 -17t-29.5 -25.5t-9.5 -37t6 -45t18 -55.5l291 -772l293 772q12 31 17.5 51.5t3.5 44t-16 39t-46 28t-82 17.5v29h383v-29q-79 -18 -122 -55.5t-77 -124.5l-454 -1190h-29l-375 949l-360 -949h-29
l-467 1190q-16 40 -30 64.5t-38.5 51.5t-60.5 42.5t-86 21.5v29h588v-29q-77 -14 -88.5 -59t22.5 -121l287 -774l232 612zM924 1849h243l207 -356h-28l-299 221l-291 -221h-29z" />
    <glyph glyph-name="wcircumflex" unicode="&#x175;" horiz-adv-x="1746" 
d="M795 891q-28 62 -55.5 89.5t-82.5 33.5v28h574v-28q-72 -5 -99.5 -36t-3.5 -87l218 -518l217 518q24 52 2.5 85.5t-84.5 37.5v28h274v-28q-46 -6 -73 -31t-56 -92l-397 -922h-29l-319 729l-320 -729h-26l-408 922q-28 61 -55.5 89t-79.5 34v28h569v-28q-69 -5 -96.5 -36
t-3.5 -87l219 -518l168 397zM776 1524h244l207 -357h-29l-299 222l-291 -222h-28z" />
    <glyph glyph-name="Ycircumflex" unicode="&#x176;" horiz-adv-x="1402" 
d="M369 29q90 14 128 43.5t38 91.5v463l-324 532q-51 86 -96.5 126.5t-108.5 53.5v29h633v-29q-88 -12 -101.5 -51.5t40.5 -128.5l262 -440l258 440q52 89 25.5 128.5t-144.5 51.5v29h418v-29q-79 -14 -130 -53.5t-102 -126.5l-317 -532v-463q0 -62 38 -91.5t128 -43.5v-29
h-645v29zM606 1849h244l207 -356h-29l-299 221l-291 -221h-28z" />
    <glyph glyph-name="ycircumflex" unicode="&#x177;" horiz-adv-x="1148" 
d="M143 891q-32 67 -62 93.5t-77 29.5v28h590v-28q-77 -3 -107 -35.5t-4 -87.5l244 -535l246 535q52 117 -90 123v28h295v-28q-49 -3 -79.5 -29t-62.5 -94l-434 -940q-45 -95 -84.5 -159t-91 -118.5t-114 -81t-138.5 -26.5q-68 0 -111 18l82 275q94 -62 179 -62
q146 0 219 158l22 49zM514 1524h244l207 -357h-29l-299 222l-291 -222h-29z" />
    <glyph glyph-name="Ydieresis" unicode="&#x178;" horiz-adv-x="1402" 
d="M369 29q90 14 128 43.5t38 91.5v463l-324 532q-51 86 -96.5 126.5t-108.5 53.5v29h633v-29q-88 -12 -101.5 -51.5t40.5 -128.5l262 -440l258 440q52 89 25.5 128.5t-144.5 51.5v29h418v-29q-79 -14 -130 -53.5t-102 -126.5l-317 -532v-463q0 -62 38 -91.5t128 -43.5v-29
h-645v29zM522 1511q-76 0 -126 49t-50 121q0 70 50 117t126 47q75 0 125.5 -47.5t50.5 -116.5q0 -72 -50.5 -121t-125.5 -49zM967 1511q-75 0 -125.5 49t-50.5 121q0 69 50.5 116.5t125.5 47.5t125.5 -47.5t50.5 -116.5q0 -72 -50.5 -121t-125.5 -49z" />
    <glyph glyph-name="Zacute" unicode="&#x179;" horiz-adv-x="1298" 
d="M53 0v29l799 1282h-277q-178 0 -282.5 -88.5t-145.5 -243.5h-28l49 389h1073v-29l-797 -1282h340q178 0 282.5 88.5t143.5 243.5h29l-49 -389h-1137zM641 1499l135 356h307l-413 -356h-29z" />
    <glyph glyph-name="zacute" unicode="&#x17a;" horiz-adv-x="1038" 
d="M997 1042v-28l-606 -957h291q84 0 159.5 80t114.5 234h29l-33 -371h-913v29l604 956h-252q-87 0 -164 -68.5t-121 -211.5h-28l28 337h891zM473 1174l135 356h307l-413 -356h-29z" />
    <glyph glyph-name="Zdotaccent" unicode="&#x17b;" horiz-adv-x="1298" 
d="M53 0v29l799 1282h-277q-178 0 -282.5 -88.5t-145.5 -243.5h-28l49 389h1073v-29l-797 -1282h340q178 0 282.5 88.5t143.5 243.5h29l-49 -389h-1137zM717 1509q-83 0 -138 53.5t-55 131.5q0 77 55 128.5t138 51.5t137.5 -51.5t54.5 -128.5q0 -79 -54.5 -132t-137.5 -53z
" />
    <glyph glyph-name="zdotaccent" unicode="&#x17c;" horiz-adv-x="1038" 
d="M997 1042v-28l-606 -957h291q84 0 159.5 80t114.5 234h29l-33 -371h-913v29l604 956h-252q-87 0 -164 -68.5t-121 -211.5h-28l28 337h891zM547 1184q-83 0 -138 53t-55 131q0 77 55 128.5t138 51.5t137.5 -51.5t54.5 -128.5q0 -78 -54.5 -131t-137.5 -53z" />
    <glyph glyph-name="Zcaron" unicode="&#x17d;" horiz-adv-x="1298" 
d="M53 0v29l799 1282h-277q-178 0 -282.5 -88.5t-145.5 -243.5h-28l49 389h1073v-29l-797 -1282h340q178 0 282.5 88.5t143.5 243.5h29l-49 -389h-1137zM590 1499l-197 356h29l291 -221l299 221h28l-206 -356h-244z" />
    <glyph glyph-name="zcaron" unicode="&#x17e;" horiz-adv-x="1038" 
d="M997 1042v-28l-606 -957h291q84 0 159.5 80t114.5 234h29l-33 -371h-913v29l604 956h-252q-87 0 -164 -68.5t-121 -211.5h-28l28 337h891zM420 1174l-197 356h29l291 -221l299 221h28l-206 -356h-244z" />
    <glyph glyph-name="longs" unicode="&#x17f;" horiz-adv-x="821" 
d="M197 1055q0 109 40.5 195t109 137.5t153.5 78.5t180 27q284 0 340 -164l-227 -127q-9 99 -48.5 166.5t-93.5 67.5q-40 0 -70.5 -27.5t-47 -74.5t-24 -99.5t-7.5 -110.5v-968q0 -62 34 -87t140 -40v-29h-608v29q75 15 102 41t27 86v821h-170v57h170v21z" />
    <glyph glyph-name="florin" unicode="&#x192;" horiz-adv-x="1173" 
d="M483 1079q0 94 27 172t72.5 131t107 90t129.5 53.5t142 16.5q292 0 346 -190l-230 -117q-10 107 -47.5 178.5t-97.5 71.5q-52 0 -86 -50t-47 -122.5t-13 -163.5v-320h301v-75h-301v-322q0 -95 -26.5 -173t-72 -131t-107 -89.5t-129.5 -53t-142 -16.5q-293 0 -344 189
l228 118q10 -107 47.5 -178t97.5 -71q39 0 68 28t45.5 76.5t24 106t7.5 124.5v392h-299v75h299v250z" />
    <glyph glyph-name="Aringacute" unicode="&#x1fa;" horiz-adv-x="1626" 
d="M1401 209q41 -88 92.5 -128t138.5 -52v-29h-690v29q98 12 119.5 52t-21.5 128l-104 223h-530l-103 -223q-41 -88 -15 -128t132 -52v-29h-393v29q77 14 124.5 53.5t88.5 126.5l551 1190h28zM807 1462q-98 0 -159.5 60t-61.5 151q0 76 44 132t118 75l118 313h308l-357 -307
q93 -3 152 -63t59 -150q0 -91 -61.5 -151t-159.5 -60zM807 1530q62 0 100.5 40.5t38.5 104.5q0 62 -39 102t-100 40q-59 0 -99 -40.5t-40 -101.5q0 -64 40 -104.5t99 -40.5zM430 489h477l-241 515z" />
    <glyph glyph-name="aringacute" unicode="&#x1fb;" horiz-adv-x="1128" 
d="M350 -31q-127 0 -207 73t-80 189q0 158 120 241t409 142l102 21v78q0 142 -48 222.5t-134 80.5q-55 0 -96 -30t-58.5 -75.5t-15.5 -99.5t25 -100l-254 -78q-32 73 -29 138.5t42 121t101 95.5t147.5 62.5t180.5 22.5q209 0 325.5 -101t116.5 -274v-467q0 -96 115 -112
l31 -2v-29l-406 -119h-28l-15 254q-24 -119 -122 -186.5t-222 -67.5zM518 135q62 0 119 63.5t57 161.5v213l-94 -18q-112 -25 -171.5 -89t-59.5 -161q0 -75 41.5 -122.5t107.5 -47.5zM557 1137q-98 0 -159.5 60t-61.5 151q0 76 44 131.5t118 74.5l118 314h308l-357 -307
q93 -3 152 -63t59 -150q0 -91 -61.5 -151t-159.5 -60zM557 1204q61 0 100 40.5t39 105.5q0 62 -39 101.5t-100 39.5q-59 0 -99 -40t-40 -101q0 -64 40 -105t99 -41z" />
    <glyph glyph-name="AEacute" unicode="&#x1fc;" horiz-adv-x="2060" 
d="M815 0v29q97 12 137.5 41.5t40.5 93.5v352h-467l-196 -301q-56 -85 -36 -128t124 -58v-29h-408v29q77 17 137 61t113 125l629 965q46 72 14 108.5t-149 50.5v29h1161l49 -389h-29q-41 155 -145.5 243.5t-282.5 88.5h-196v-580h198q147 0 160 205h29v-469h-29
q-12 207 -160 207h-198v-510q0 -51 23.5 -79t66.5 -28h127q178 0 282.5 88.5t145.5 243.5h29l-50 -389h-1120zM1276 1499l135 356h307l-413 -356h-29zM563 573h430v662z" />
    <glyph glyph-name="aeacute" unicode="&#x1fd;" horiz-adv-x="1738" 
d="M362 -31q-135 0 -217 72.5t-82 191.5q0 153 119.5 232.5t409.5 136.5l102 21v90q0 142 -48 222.5t-134 80.5q-55 0 -95 -30t-57.5 -76.5t-15 -103.5t26.5 -108l-256 -80q-45 96 -26 179t81.5 144.5t163.5 96.5t221 35q224 0 326 -121q138 119 344 119q221 0 330.5 -120
t111.5 -333h-678v-6q-7 -202 95.5 -314t275.5 -112q91 0 164.5 44.5t117.5 115.5l25 -8q-14 -76 -49.5 -141t-91 -116t-136.5 -80.5t-178 -29.5q-164 0 -280.5 72t-177.5 195q-50 -134 -152 -201.5t-240 -67.5zM793 1174l135 356h307l-414 -356h-28zM369 317
q0 -77 42.5 -126.5t110.5 -49.5q70 0 127 44.5t82 105.5q-37 98 -37 207v12v53l-94 -18q-109 -24 -170 -81t-61 -147zM993 676h373q-2 56 -12.5 112.5t-31 108.5t-54.5 84.5t-76 32.5q-86 0 -136 -95.5t-63 -242.5z" />
    <glyph glyph-name="Oslashacute" unicode="&#x1fe;" horiz-adv-x="1611" 
d="M805 -31q-140 0 -262 39l-88 -201l-58 25l86 197q-195 80 -303 249.5t-108 376.5q0 216 96.5 386.5t266 264t380.5 93.5q146 0 258 -37l90 201l58 -25l-88 -199q197 -80 305 -248.5t108 -375.5q0 -215 -96.5 -386t-265.5 -265.5t-379 -94.5zM848 27q111 0 194 76t127 210
t45 308q0 162 -40 307.5t-115 247.5l-457 -1035q111 -114 246 -114zM733 1499l135 356h308l-414 -356h-29zM403 745q-1 -159 39.5 -303.5t114.5 -246.5l459 1034q-109 112 -246 112q-167 3 -267 -162.5t-100 -433.5z" />
    <glyph glyph-name="oslashacute" unicode="&#x1ff;" horiz-adv-x="1218" 
d="M602 -31q-89 0 -172 25l-63 -160l-54 23l64 155q-142 59 -224.5 187.5t-82.5 298.5q0 255 152 415t394 160q96 0 179 -24l63 157l51 -22l-61 -156q140 -59 220.5 -187t80.5 -298q0 -255 -152 -414.5t-395 -159.5zM643 27q93 0 143 107.5t50 289.5q0 242 -68 410
l-281 -699q68 -108 156 -108zM535 1174l135 356h307l-414 -356h-28zM383 618q0 -242 70 -415l282 700q-66 113 -157 113q-93 0 -144 -110t-51 -288z" />
    <glyph glyph-name="uni0218" unicode="&#x218;" horiz-adv-x="1273" 
d="M647 -29q-212 0 -366 85t-207 245l270 72q32 -154 124.5 -249t209.5 -95q101 0 163 61.5t62 161.5q0 62 -27 111.5t-72 83t-104 61t-124 51.5t-130 49.5t-124 59.5t-104 76.5t-72 106t-27 142.5q0 184 140.5 295t381.5 111q131 0 242 -35.5t193.5 -108.5t117.5 -176
l-266 -73q-33 157 -116.5 246t-203.5 89q-94 0 -152.5 -55.5t-58.5 -146.5q0 -58 27.5 -104.5t74 -78.5t106.5 -59t126.5 -51.5t133.5 -51t127 -62.5t106.5 -80t74 -110t27.5 -147q0 -198 -150 -311t-403 -113zM487 -463q50 62 54 182t-43 189l288 18q14 -79 0 -144
t-54.5 -113.5t-96 -84t-131.5 -63.5z" />
    <glyph glyph-name="uni0219" unicode="&#x219;" horiz-adv-x="1026" 
d="M530 -29q-165 0 -293.5 66t-179.5 166l211 112q31 -128 109 -207t176 -79q76 0 126 41t50 108q0 63 -34.5 106.5t-89 67.5t-121 43.5t-132.5 43.5t-121 57.5t-90 94.5t-35 146q0 148 118 241t311 93q144 0 256 -54.5t151 -152.5l-194 -100q-36 112 -104 181t-148 69
q-68 0 -112 -39.5t-44 -102.5q0 -49 27 -85.5t71 -57.5t100.5 -41.5t115.5 -37t115.5 -45t100.5 -63t71.5 -93.5t27.5 -136q1 -152 -124 -247t-315 -95zM358 -463q50 62 54 182t-43 189l288 18q14 -79 0 -144t-54.5 -113.5t-96 -84t-131.5 -63.5z" />
    <glyph glyph-name="uni021A" unicode="&#x21a;" horiz-adv-x="1345" 
d="M831 164q0 -58 39.5 -90t139.5 -45v-29h-674v29q101 13 139.5 44.5t38.5 90.5v1147h-27q-178 0 -282.5 -88.5t-143.5 -243.5h-28l49 389h1184l47 -389h-29q-39 155 -143.5 243.5t-282.5 88.5h-27v-1147zM508 -463q50 62 53.5 182t-43.5 189l289 18q14 -79 0 -144
t-55 -113.5t-96.5 -84t-131.5 -63.5z" />
    <glyph glyph-name="uni021B" unicode="&#x21b;" horiz-adv-x="792" 
d="M465 1321v-279h297v-57h-297v-696q0 -80 44 -134.5t118 -54.5q10 0 19 1t17.5 3t15 3.5t15 5.5t13.5 6.5t13.5 7.5t11.5 7t12.5 8.5t11.5 7.5l16 -17q-113 -164 -311 -164q-138 0 -218.5 82.5t-80.5 227.5v706h-113v29l387 307h29zM287 -463q50 62 53.5 182t-43.5 189
l289 18q14 -79 0 -144t-55 -113.5t-96.5 -84t-131.5 -63.5z" />
    <glyph glyph-name="uni0237" unicode="&#x237;" horiz-adv-x="622" 
d="M489 150q0 -82 -12 -147.5t-45 -132t-88 -119.5t-144 -101.5t-210 -85.5l-13 26q41 26 66 45.5t55 56.5t46.5 80t28 112.5t11.5 158.5v768q0 98 -112 113l-31 4v28l420 117h28v-923z" />
    <glyph glyph-name="circumflex" unicode="&#x2c6;" horiz-adv-x="851" 
d="M299 1528h244l207 -357h-29l-299 222l-291 -222h-29z" />
    <glyph glyph-name="caron" unicode="&#x2c7;" horiz-adv-x="851" 
d="M299 1174l-197 356h29l291 -221l299 221h29l-207 -356h-244z" />
    <glyph glyph-name="breve" unicode="&#x2d8;" horiz-adv-x="772" 
d="M385 1165q-136 0 -211 90.5t-72 274.5h27q24 -170 256 -170q234 0 258 170h27q3 -184 -72 -274.5t-213 -90.5z" />
    <glyph glyph-name="dotaccent" unicode="&#x2d9;" horiz-adv-x="589" 
d="M295 1184q-83 0 -138 53t-55 131q0 77 55 128.5t138 51.5t137.5 -51.5t54.5 -128.5q0 -78 -54.5 -131t-137.5 -53z" />
    <glyph glyph-name="ring" unicode="&#x2da;" horiz-adv-x="647" 
d="M324 1137q-98 0 -160 60t-62 151q0 93 62 153t160 60t159.5 -60t61.5 -153q0 -91 -61.5 -151t-159.5 -60zM324 1204q61 0 100 40.5t39 105.5q0 62 -39 101.5t-100 39.5q-59 0 -99.5 -40t-40.5 -101q0 -64 40.5 -105t99.5 -41z" />
    <glyph glyph-name="ogonek" unicode="&#x2db;" horiz-adv-x="645" 
d="M299 -434q-82 0 -139.5 43t-57.5 121q0 99 98.5 189.5t293.5 178.5l8 -12q-90 -75 -131 -141.5t-41 -151.5q0 -82 52.5 -119t147.5 -2l13 -20q-86 -86 -244 -86z" />
    <glyph glyph-name="tilde" unicode="&#x2dc;" horiz-adv-x="937" 
d="M612 1190q-60 0 -122 25.5t-120 51t-108 25.5q-99 0 -129 -102l-31 2q12 142 69.5 215.5t154.5 73.5q60 0 184 -52.5t168 -52.5q97 0 127 103l31 -2q-10 -141 -67.5 -214t-156.5 -73z" />
    <glyph glyph-name="hungarumlaut" unicode="&#x2dd;" horiz-adv-x="993" 
d="M102 1174l136 356h307l-414 -356h-29zM446 1174l136 356h307l-414 -356h-29z" />
    <glyph glyph-name="gravecomb" unicode="&#x300;" 
d="M530 1174h-28l-414 356h307z" />
    <glyph glyph-name="acutecomb" unicode="&#x301;" 
d="M106 1174l136 356h307l-414 -356h-29z" />
    <glyph glyph-name="uni0302" unicode="&#x302;" 
d="M299 1524h244l207 -357h-29l-299 222l-291 -222h-29z" />
    <glyph glyph-name="tildecomb" unicode="&#x303;" 
d="M612 1190q-60 0 -122 25.5t-120 51t-108 25.5q-99 0 -129 -102l-31 2q12 142 69.5 215.5t154.5 73.5q60 0 184 -52.5t168 -52.5q97 0 127 103l31 -2q-10 -141 -67.5 -214t-156.5 -73z" />
    <glyph glyph-name="uni0304" unicode="&#x304;" 
d="M102 1225v80h635v-80h-635z" />
    <glyph glyph-name="uni0306" unicode="&#x306;" 
d="M385 1165q-136 0 -211 90.5t-72 274.5h27q24 -170 256 -170q234 0 258 170h27q3 -184 -72 -274.5t-213 -90.5z" />
    <glyph glyph-name="uni0307" unicode="&#x307;" 
d="M295 1184q-83 0 -138 53t-55 131q0 77 55 128.5t138 51.5t137.5 -51.5t54.5 -128.5q0 -78 -54.5 -131t-137.5 -53z" />
    <glyph glyph-name="uni0308" unicode="&#x308;" 
d="M279 1186q-76 0 -126.5 49t-50.5 121q0 69 50.5 116.5t126.5 47.5q75 0 125.5 -47.5t50.5 -116.5q0 -72 -50.5 -121t-125.5 -49zM723 1186q-75 0 -125.5 49t-50.5 121q0 69 50.5 116.5t125.5 47.5t125.5 -47.5t50.5 -116.5q0 -72 -50.5 -121t-125.5 -49z" />
    <glyph glyph-name="uni030A" unicode="&#x30a;" 
d="M324 1137q-98 0 -160 60t-62 151q0 93 62 153t160 60t159.5 -60t61.5 -153q0 -91 -61.5 -151t-159.5 -60zM324 1204q61 0 100 40.5t39 105.5q0 62 -39 101.5t-100 39.5q-59 0 -99.5 -40t-40.5 -101q0 -64 40.5 -105t99.5 -41z" />
    <glyph glyph-name="uni030B" unicode="&#x30b;" 
d="M102 1174l136 356h307l-414 -356h-29zM446 1174l136 356h307l-414 -356h-29z" />
    <glyph glyph-name="uni030C" unicode="&#x30c;" 
d="M299 1174l-197 356h29l291 -221l299 221h29l-207 -356h-244z" />
    <glyph glyph-name="uni0312" unicode="&#x312;" 
d="M410 1534q-50 -62 -54 -182t43 -189l-288 -18q-14 79 0 144t54.5 113.5t96 84t131.5 63.5z" />
    <glyph glyph-name="uni0326" unicode="&#x326;" 
d="M102 -463q50 62 54 182t-43 189l288 18q14 -79 0 -144t-54.5 -113.5t-96 -84t-131.5 -63.5z" />
    <glyph glyph-name="uni0327" unicode="&#x327;" 
d="M102 -410q93 -3 142 24t51 79q0 44 -30.5 68.5t-86.5 39.5l109 199h45l-37 -106q30 -2 58 -12t55.5 -28.5t44 -51.5t16.5 -76q0 -68 -50 -112t-131.5 -55t-185.5 3v28z" />
    <glyph glyph-name="uni0328" unicode="&#x328;" 
d="M299 -434q-82 0 -139.5 43t-57.5 121q0 99 98.5 189.5t293.5 178.5l8 -12q-90 -75 -131 -141.5t-41 -151.5q0 -82 52.5 -119t147.5 -2l13 -20q-86 -86 -244 -86z" />
    <glyph glyph-name="uni0335" unicode="&#x335;" 
d="M102 537v57h562v-57h-562z" />
    <glyph glyph-name="uni0336" unicode="&#x336;" 
d="M102 598v55h1682v-55h-1682z" />
    <glyph glyph-name="uni0337" unicode="&#x337;" 
d="M102 -141l545 1349l51 -22l-542 -1350z" />
    <glyph glyph-name="uni0338" unicode="&#x338;" 
d="M160 -193l-58 25l766 1731l58 -25z" />
    <glyph glyph-name="pi" unicode="&#x3c0;" horiz-adv-x="1101" 
d="M999 -18q-117 0 -175 63t-58 195v727h-444v-967h-84v967h-191v75h991v-75h-190v-729q0 -96 40.5 -140.5t121.5 -46.5z" />
    <glyph glyph-name="Wgrave" unicode="&#x1e80;" horiz-adv-x="2148" 
d="M987 1159q-32 82 -78.5 125.5t-134.5 54.5v29h588v-29q-33 -6 -53 -17t-29.5 -25.5t-9.5 -37t6 -45t18 -55.5l291 -772l293 772q12 31 17.5 51.5t3.5 44t-16 39t-46 28t-82 17.5v29h383v-29q-79 -18 -122 -55.5t-77 -124.5l-454 -1190h-29l-375 949l-360 -949h-29
l-467 1190q-16 40 -30 64.5t-38.5 51.5t-60.5 42.5t-86 21.5v29h588v-29q-77 -14 -88.5 -59t22.5 -121l287 -774l232 612zM1096 1499h-29l-414 356h308z" />
    <glyph glyph-name="wgrave" unicode="&#x1e81;" horiz-adv-x="1746" 
d="M795 891q-28 62 -55.5 89.5t-82.5 33.5v28h574v-28q-72 -5 -99.5 -36t-3.5 -87l218 -518l217 518q24 52 2.5 85.5t-84.5 37.5v28h274v-28q-46 -6 -73 -31t-56 -92l-397 -922h-29l-319 729l-320 -729h-26l-408 922q-28 61 -55.5 89t-79.5 34v28h569v-28q-69 -5 -96.5 -36
t-3.5 -87l219 -518l168 397zM948 1174h-28l-414 356h307z" />
    <glyph glyph-name="Wacute" unicode="&#x1e82;" horiz-adv-x="2148" 
d="M987 1159q-32 82 -78.5 125.5t-134.5 54.5v29h588v-29q-33 -6 -53 -17t-29.5 -25.5t-9.5 -37t6 -45t18 -55.5l291 -772l293 772q12 31 17.5 51.5t3.5 44t-16 39t-46 28t-82 17.5v29h383v-29q-79 -18 -122 -55.5t-77 -124.5l-454 -1190h-29l-375 949l-360 -949h-29
l-467 1190q-16 40 -30 64.5t-38.5 51.5t-60.5 42.5t-86 21.5v29h588v-29q-77 -14 -88.5 -59t22.5 -121l287 -774l232 612zM979 1499l135 356h307l-413 -356h-29z" />
    <glyph glyph-name="wacute" unicode="&#x1e83;" horiz-adv-x="1746" 
d="M795 891q-28 62 -55.5 89.5t-82.5 33.5v28h574v-28q-72 -5 -99.5 -36t-3.5 -87l218 -518l217 518q24 52 2.5 85.5t-84.5 37.5v28h274v-28q-46 -6 -73 -31t-56 -92l-397 -922h-29l-319 729l-320 -729h-26l-408 922q-28 61 -55.5 89t-79.5 34v28h569v-28q-69 -5 -96.5 -36
t-3.5 -87l219 -518l168 397zM831 1174l136 356h307l-414 -356h-29z" />
    <glyph glyph-name="Wdieresis" unicode="&#x1e84;" horiz-adv-x="2148" 
d="M987 1159q-32 82 -78.5 125.5t-134.5 54.5v29h588v-29q-33 -6 -53 -17t-29.5 -25.5t-9.5 -37t6 -45t18 -55.5l291 -772l293 772q12 31 17.5 51.5t3.5 44t-16 39t-46 28t-82 17.5v29h383v-29q-79 -18 -122 -55.5t-77 -124.5l-454 -1190h-29l-375 949l-360 -949h-29
l-467 1190q-16 40 -30 64.5t-38.5 51.5t-60.5 42.5t-86 21.5v29h588v-29q-77 -14 -88.5 -59t22.5 -121l287 -774l232 612zM840 1511q-76 0 -126 49t-50 121q0 70 50 117t126 47q75 0 125.5 -47.5t50.5 -116.5q0 -72 -50.5 -121t-125.5 -49zM1284 1511q-75 0 -125.5 49
t-50.5 121q0 69 50.5 116.5t125.5 47.5t125.5 -47.5t50.5 -116.5q0 -72 -50.5 -121t-125.5 -49z" />
    <glyph glyph-name="wdieresis" unicode="&#x1e85;" horiz-adv-x="1746" 
d="M795 891q-28 62 -55.5 89.5t-82.5 33.5v28h574v-28q-72 -5 -99.5 -36t-3.5 -87l218 -518l217 518q24 52 2.5 85.5t-84.5 37.5v28h274v-28q-46 -6 -73 -31t-56 -92l-397 -922h-29l-319 729l-320 -729h-26l-408 922q-28 61 -55.5 89t-79.5 34v28h569v-28q-69 -5 -96.5 -36
t-3.5 -87l219 -518l168 397zM692 1186q-76 0 -126 49t-50 121q0 70 50 117t126 47q75 0 125.5 -47.5t50.5 -116.5q0 -72 -50.5 -121t-125.5 -49zM1137 1186q-75 0 -125.5 49t-50.5 121q0 69 50.5 116.5t125.5 47.5t125.5 -47.5t50.5 -116.5q0 -72 -50.5 -121t-125.5 -49z
" />
    <glyph glyph-name="uni1E9E" unicode="&#x1e9e;" horiz-adv-x="1529" 
d="M983 -29q-203 0 -317 111l20 33q86 -58 199 -58q127 0 205.5 88.5t78.5 231.5q0 168 -127.5 247.5t-328.5 43.5l-15 32l371 578q-113 63 -250 63q-124 0 -193 -91.5t-69 -254.5l-2 -995h-496v29q97 12 138 41.5t41 93.5v770q0 97 34 179t102.5 147t183.5 102t265 37
q189 0 574 -68l16 -37l-338 -469q171 -3 278 -117.5t107 -295.5q0 -200 -131 -320.5t-346 -120.5z" />
    <glyph glyph-name="Ygrave" unicode="&#x1ef2;" horiz-adv-x="1402" 
d="M369 29q90 14 128 43.5t38 91.5v463l-324 532q-51 86 -96.5 126.5t-108.5 53.5v29h633v-29q-88 -12 -101.5 -51.5t40.5 -128.5l262 -440l258 440q52 89 25.5 128.5t-144.5 51.5v29h418v-29q-79 -14 -130 -53.5t-102 -126.5l-317 -532v-463q0 -62 38 -91.5t128 -43.5v-29
h-645v29zM780 1499h-28l-414 356h307z" />
    <glyph glyph-name="ygrave" unicode="&#x1ef3;" horiz-adv-x="1148" 
d="M143 891q-32 67 -62 93.5t-77 29.5v28h590v-28q-77 -3 -107 -35.5t-4 -87.5l244 -535l246 535q52 117 -90 123v28h295v-28q-49 -3 -79.5 -29t-62.5 -94l-434 -940q-45 -95 -84.5 -159t-91 -118.5t-114 -81t-138.5 -26.5q-68 0 -111 18l82 275q94 -62 179 -62
q146 0 219 158l22 49zM686 1174h-29l-413 356h307z" />
    <glyph glyph-name="endash" unicode="&#x2013;" horiz-adv-x="819" 
d="M53 553v76h713v-76h-713z" />
    <glyph glyph-name="emdash" unicode="&#x2014;" horiz-adv-x="1593" 
d="M80 553v76h1433v-76h-1433z" />
    <glyph glyph-name="quoteleft" unicode="&#x2018;" horiz-adv-x="512" 
d="M422 1513q-88 -20 -152 -75t-67 -144q57 17 82 17q64 0 103.5 -44t39.5 -116q0 -71 -49.5 -119.5t-120.5 -48.5q-79 0 -126.5 54t-47.5 149q0 141 91.5 241t246.5 115v-29z" />
    <glyph glyph-name="quoteright" unicode="&#x2019;" horiz-adv-x="512" 
d="M90 1014q88 20 152 75t67 144q-54 -16 -82 -16q-65 0 -104 43.5t-39 115.5q0 71 49.5 119.5t120.5 48.5q79 0 126.5 -54t47.5 -149q0 -141 -91.5 -241t-246.5 -115v29z" />
    <glyph glyph-name="quotesinglbase" unicode="&#x201a;" horiz-adv-x="512" 
d="M90 -225q88 20 152 75t67 144q-57 -17 -82 -17q-64 0 -103.5 44t-39.5 116q0 71 49.5 119.5t120.5 48.5q79 0 126.5 -54t47.5 -149q0 -141 -91.5 -241t-246.5 -115v29z" />
    <glyph glyph-name="quotedblleft" unicode="&#x201c;" horiz-adv-x="950" 
d="M422 1513q-88 -20 -152 -75t-67 -144q57 17 82 17q64 0 103.5 -44t39.5 -116q0 -71 -49.5 -119.5t-120.5 -48.5q-79 0 -126.5 54t-47.5 149q0 141 91.5 241t246.5 115v-29zM860 1513q-88 -20 -152 -75t-67 -144q57 17 82 17q64 0 103.5 -44t39.5 -116q0 -71 -49.5 -119.5
t-120.5 -48.5q-79 0 -126.5 54t-47.5 149q0 141 91.5 241t246.5 115v-29z" />
    <glyph glyph-name="quotedblright" unicode="&#x201d;" horiz-adv-x="905" 
d="M502 1014q88 20 152 75t67 144q-54 -16 -82 -16q-65 0 -104 43.5t-39 115.5q0 71 49.5 119.5t120.5 48.5q79 0 126.5 -54t47.5 -149q0 -141 -91.5 -241t-246.5 -115v29zM63 1014q40 9 76.5 26t69 43t53 65t21.5 85q-54 -16 -82 -16q-65 0 -104.5 43.5t-39.5 115.5
q0 71 49.5 119.5t120.5 48.5q79 0 126.5 -54t47.5 -149q0 -141 -91.5 -241t-246.5 -115v29z" />
    <glyph glyph-name="quotedblbase" unicode="&#x201e;" horiz-adv-x="950" 
d="M528 -225q40 9 76.5 26t69 43t53 65t21.5 85q-57 -17 -82 -17q-65 0 -104.5 44t-39.5 116q0 71 49.5 119.5t120.5 48.5q79 0 126.5 -54t47.5 -149q0 -141 -91.5 -241t-246.5 -115v29zM90 -225q88 20 152 75t67 144q-57 -17 -82 -17q-64 0 -103.5 44t-39.5 116
q0 71 49.5 119.5t120.5 48.5q79 0 126.5 -54t47.5 -149q0 -141 -91.5 -241t-246.5 -115v29z" />
    <glyph glyph-name="dagger" unicode="&#x2020;" horiz-adv-x="702" 
d="M311 451v608h-254v76h254v309h80v-309h254v-76h-254v-608h-80z" />
    <glyph glyph-name="daggerdbl" unicode="&#x2021;" horiz-adv-x="702" 
d="M311 1059h-254v76h254v309h80v-309h254v-76h-254v-684h254v-76h-254v-309h-80v309h-254v76h254v684z" />
    <glyph glyph-name="bullet" unicode="&#x2022;" horiz-adv-x="958" 
d="M485 147q-173 0 -293 119.5t-120 290.5q0 169 120 289.5t293 120.5q167 0 286.5 -120.5t119.5 -289.5q0 -170 -119 -290t-287 -120z" />
    <glyph glyph-name="ellipsis" unicode="&#x2026;" horiz-adv-x="1323" 
d="M1071 -29q-69 0 -118.5 49t-49.5 119q0 69 49.5 117.5t118.5 48.5q74 0 121 -48t47 -118q0 -71 -48.5 -119.5t-119.5 -48.5zM662 -29q-69 0 -118.5 49t-49.5 119q0 69 49.5 117.5t118.5 48.5q74 0 120.5 -48t46.5 -118q0 -71 -48.5 -119.5t-118.5 -48.5zM252 -29
q-69 0 -118.5 49t-49.5 119q0 69 49.5 117.5t118.5 48.5q74 0 121 -48t47 -118q0 -71 -49 -119.5t-119 -48.5z" />
    <glyph glyph-name="perthousand" unicode="&#x2030;" horiz-adv-x="2160" 
d="M311 0l754 1368h72l-754 -1368h-72zM354 737q-137 0 -218 90.5t-81 239.5t81.5 240.5t217.5 91.5q133 0 214 -92.5t81 -239.5t-81 -238.5t-214 -91.5zM365 788q37 0 60.5 61.5t23.5 178.5q0 145 -33 232.5t-78 87.5q-36 0 -59 -62t-23 -180q0 -142 31 -230t78 -88z
M1096 -29q-137 0 -218 90.5t-81 239.5t81.5 240.5t217.5 91.5q133 0 214 -92.5t81 -239.5t-81 -238.5t-214 -91.5zM1106 23q37 0 60.5 61t23.5 178q0 145 -33 232.5t-78 87.5q-36 0 -59 -62t-23 -180q0 -142 31 -229.5t78 -87.5zM1810 -29q-137 0 -218 90.5t-81 239.5
t81.5 240.5t217.5 91.5q133 0 214 -92.5t81 -239.5t-81 -238.5t-214 -91.5zM1821 23q37 0 60.5 61t23.5 178q0 145 -33 232.5t-78 87.5q-36 0 -59 -62t-23 -180q0 -142 31 -229.5t78 -87.5z" />
    <glyph glyph-name="guilsinglleft" unicode="&#x2039;" horiz-adv-x="442" 
d="M33 614v29l364 256l19 -22l-148 -248l148 -250l-19 -21z" />
    <glyph glyph-name="guilsinglright" unicode="&#x203a;" horiz-adv-x="442" 
d="M418 614l-365 -256l-18 21l147 250l-147 248l18 22l365 -256v-29z" />
    <glyph glyph-name="fraction" unicode="&#x2044;" horiz-adv-x="264" 
d="M-281 0l754 1368h72l-754 -1368h-72z" />
    <glyph glyph-name="uni2070" unicode="&#x2070;" horiz-adv-x="847" 
d="M428 735q-96 0 -172 35t-122 95t-69.5 135t-23.5 161t23.5 161.5t69 136.5t121.5 96.5t173 35.5q94 0 168 -35t119.5 -96t68.5 -137t23 -162t-23 -161t-68.5 -135t-119.5 -95t-168 -35zM442 768q49 0 80 100t31 232q0 205 -43.5 330.5t-103.5 125.5q-48 0 -78.5 -98.5
t-30.5 -230.5q0 -205 44 -332t101 -127z" />
    <glyph glyph-name="uni2074" unicode="&#x2074;" horiz-adv-x="755" 
d="M268 768q103 19 103 74v139h-355v31l390 561h210v-555h119v-37h-119v-139q0 -28 24.5 -46t80.5 -28v-16h-453v16zM68 1018h303v438z" />
    <glyph glyph-name="uni2075" unicode="&#x2075;" horiz-adv-x="708" 
d="M330 735q-133 0 -221 56.5t-97 138.5l232 63q8 -103 37.5 -164t74.5 -61q39 0 60.5 44.5t21.5 119.5q0 104 -47 163.5t-143 59.5q-79 0 -160 -51l-12 6l80 463h469v-205h-469l-37 -215q107 113 250 113q138 0 225.5 -71t87.5 -198q0 -133 -94 -197.5t-258 -64.5z" />
    <glyph glyph-name="uni2076" unicode="&#x2076;" horiz-adv-x="794" 
d="M410 735q-176 0 -272.5 101t-96.5 305q0 206 104 329t279 123q134 0 228 -57t102 -141l-244 -64q3 99 -29.5 163.5t-77.5 64.5q-57 0 -84.5 -84t-27.5 -263q81 70 203 70q116 0 191 -74t75 -192q0 -121 -91.5 -201t-258.5 -80zM426 770q44 0 67 56t23 143
q0 107 -42.5 168t-111.5 61q-40 0 -71 -24q2 -63 10 -129t23.5 -130t42 -104.5t59.5 -40.5z" />
    <glyph glyph-name="uni2077" unicode="&#x2077;" horiz-adv-x="706" 
d="M170 752q0 78 18 146.5t37 113t75 108.5t85.5 93t114.5 106q35 32 53 49h-324q-76 0 -112.5 -30.5t-57.5 -106.5h-16l37 342h647v-19q-63 -81 -111 -154.5t-79.5 -130.5t-53 -118.5t-32.5 -101.5t-16.5 -98t-6 -89.5t-0.5 -92.5v-17h-258z" />
    <glyph glyph-name="uni2078" unicode="&#x2078;" horiz-adv-x="776" 
d="M393 733q-172 0 -262 52.5t-90 152.5q0 164 242 170q-114 57 -161.5 111t-47.5 135q0 100 81 168.5t230 68.5q144 0 230.5 -57t86.5 -133q0 -72 -58.5 -113t-158.5 -35q35 -16 52 -24t49 -26t48.5 -31.5t39 -35.5t33.5 -44.5t19.5 -53t8.5 -65.5q0 -103 -86 -171.5
t-256 -68.5zM391 768q50 0 82.5 37.5t32.5 97.5q0 28 -11 53t-26.5 42.5t-44 36.5t-50.5 30.5t-59 28.5q-59 -55 -59 -156q0 -75 38 -122.5t97 -47.5zM449 1270q49 49 49 127q0 71 -31.5 115t-79.5 44q-41 0 -67.5 -31.5t-26.5 -82.5q0 -58 37.5 -95t118.5 -77z" />
    <glyph glyph-name="uni2079" unicode="&#x2079;" horiz-adv-x="794" 
d="M371 735q-135 0 -229 57.5t-103 141.5l244 63q-1 -100 32 -163.5t78 -63.5q34 0 57 28t34 80t15 109.5t3 132.5q-47 -42 -94 -57.5t-107 -15.5q-116 0 -191 74t-75 192q0 120 91.5 200t258.5 80q175 0 272 -100.5t97 -304.5q0 -206 -104 -329.5t-279 -123.5zM432 1130
q41 0 70 23q-1 62 -9 128.5t-23 130.5t-41.5 105.5t-59.5 41.5q-44 0 -67 -57t-23 -142q0 -106 42.5 -168t110.5 -62z" />
    <glyph glyph-name="Euro" unicode="&#x20ac;" horiz-adv-x="1566" 
d="M18 809v76h236q57 234 232 374t438 140q209 0 359.5 -85.5t201.5 -236.5l-283 -84q-25 159 -104 253.5t-193 94.5q-141 0 -235.5 -123.5t-114.5 -332.5h432v-76h-436v-35q0 -64 14 -143h422v-76h-401q54 -166 179.5 -261t289.5 -95q153 0 265.5 77.5t158.5 210.5l28 -6
q-40 -234 -200 -373t-392 -139q-181 0 -329.5 77t-238.5 209.5t-114 299.5h-215v76h209v22q0 66 11 156h-220z" />
    <glyph glyph-name="uni2116" unicode="&#x2116;" horiz-adv-x="2285" 
d="M1540 565v72h670v-72h-670zM330 1133l-4 4v-928q0 -94 49.5 -131t179.5 -49v-29h-463v29q99 12 137.5 49.5t38.5 130.5v995q-61 68 -106.5 98.5t-102.5 36.5v29h490l700 -909v700q0 94 -48.5 131t-178.5 49v29h463v-29q-101 -12 -139.5 -49t-38.5 -131v-1190h-74z
M1872 731q-153 0 -249.5 89.5t-96.5 230.5q0 154 98 251t254 97q153 0 249.5 -89.5t96.5 -230.5q0 -154 -98 -251t-254 -97zM1898 766q82 0 82 223q0 167 -39.5 271t-87.5 104q-84 0 -84 -223q0 -170 40 -272.5t89 -102.5z" />
    <glyph glyph-name="uni2117" unicode="&#x2117;" horiz-adv-x="1630" 
d="M870 649h-221v-395h-63v858h284q113 0 183.5 -63.5t70.5 -167.5t-70.5 -168t-183.5 -64zM649 1055v-348h221q89 0 141 47.5t52 126.5t-52 126.5t-141 47.5h-221zM815 -29q-144 0 -275.5 57t-227 152.5t-152 227.5t-56.5 276t56.5 276t152 227.5t227 152.5t275.5 57
q145 0 277 -57t228 -152.5t153 -227.5t57 -276t-57 -276t-153 -227.5t-228 -152.5t-277 -57zM815 27q178 0 330 88.5t241 240t89 328.5t-89 328.5t-241 240t-330 88.5q-133 0 -254 -52.5t-209 -140.5t-140 -209.5t-52 -254.5t52 -254.5t140 -209.5t209 -140.5t254 -52.5z
" />
    <glyph glyph-name="trademark" unicode="&#x2122;" horiz-adv-x="1009" 
d="M473 893v475h90l154 -412l155 412h86v-475h-49v426l-166 -426h-55l-162 426v-426h-53zM203 893v424h-152v51h359v-51h-152v-424h-55z" />
    <glyph glyph-name="uni2126" unicode="&#x2126;" horiz-adv-x="1417" 
d="M88 0v76h332q-363 243 -363 651q0 188 83.5 342t233 242t333.5 88q185 0 334.5 -87.5t234 -241.5t84.5 -343q0 -119 -29 -221t-82.5 -180.5t-115.5 -137.5t-142 -112h336v-76h-483v70q96 50 172.5 112.5t137 143.5t93.5 184.5t33 222.5q0 167 -78 303t-209 211.5
t-286 75.5q-115 0 -219.5 -44.5t-181.5 -121.5t-123 -187t-46 -235q0 -232 118 -398t318 -267v-70h-485z" />
    <glyph glyph-name="estimated" unicode="&#x212e;" horiz-adv-x="1525" 
d="M782 -29q-153 0 -288.5 55.5t-232.5 150.5t-153.5 227t-56.5 280q0 149 55.5 281t150.5 227t227 150t280 55q149 0 281.5 -56t227 -151t149 -228t53.5 -282h-1166v-432q80 -88 202 -147.5t271 -59.5q320 0 510 270l58 -41q-96 -141 -245 -220t-323 -79zM1219 1124
q-72 82 -193 143.5t-262 61.5q-144 0 -265.5 -61.5t-189.5 -145.5v-362h910v364z" />
    <glyph glyph-name="oneeighth" unicode="&#x215b;" horiz-adv-x="1708" 
d="M45 563q73 10 102 27.5t29 46.5v569h-127v17q127 37 207.5 70.5t146.5 82.5h17v-739q0 -28 25 -46t81 -28v-16h-481v16zM403 0l754 1368h72l-754 -1368h-72zM1325 -18q-172 0 -262 52t-90 152q0 165 241 170q-114 57 -161 111t-47 135q0 100 81 169t230 69
q144 0 230.5 -57t86.5 -134q0 -71 -58.5 -112t-158.5 -35q40 -19 60.5 -29t56 -30.5t54.5 -40t40 -46.5t30 -61t9 -74q0 -103 -86 -171t-256 -68zM1323 16q50 0 82.5 38t32.5 98q0 28 -11 53t-26.5 42.5t-44 36t-50 29.5t-59.5 29q-59 -55 -59 -156q0 -75 38 -122.5
t97 -47.5zM1380 518q50 50 50 127q0 71 -31.5 115.5t-79.5 44.5q-41 0 -67.5 -32t-26.5 -83q0 -58 37.5 -95t117.5 -77z" />
    <glyph glyph-name="threeeighths" unicode="&#x215c;" horiz-adv-x="1761" 
d="M330 530q-131 0 -219 56t-97 139l232 63q11 -105 39.5 -165t70.5 -60q38 0 61 51.5t23 135.5q0 87 -57.5 143.5t-163.5 56.5v17q93 23 135.5 61.5t42.5 95.5q0 62 -39 101t-102 39q-54 0 -100.5 -34t-65.5 -97l-14 2q1 29 10.5 60.5t31.5 66t54.5 61t84 44t114.5 17.5
q131 0 200.5 -59t69.5 -147q0 -169 -223 -205q122 -8 194 -60.5t72 -156.5q0 -106 -96 -166t-258 -60zM457 0l753 1368h72l-754 -1368h-71zM1378 -18q-172 0 -262 52t-90 152q0 164 242 170q-114 57 -161.5 111t-47.5 135q0 100 81 169t230 69q144 0 231 -57t87 -134
q0 -71 -59 -112t-159 -35q40 -19 60.5 -29t56 -30.5t54.5 -40t40 -46.5t30 -61t9 -74q0 -103 -86 -171t-256 -68zM1376 16q50 0 82.5 38t32.5 98q0 28 -11 53t-26.5 42.5t-44 36t-50 29.5t-59.5 29q-59 -55 -59 -156q0 -75 38 -122.5t97 -47.5zM1434 518q49 49 49 127
q0 71 -31.5 115.5t-79.5 44.5q-41 0 -67.5 -32t-26.5 -83q0 -58 37.5 -95t118.5 -77z" />
    <glyph glyph-name="fiveeighths" unicode="&#x215d;" horiz-adv-x="1732" 
d="M330 530q-133 0 -221 56.5t-97 138.5l232 63q8 -103 37.5 -164t74.5 -61q39 0 60.5 44.5t21.5 119.5q0 104 -47 163.5t-143 59.5q-79 0 -160 -51l-12 6l80 463h469v-205h-469l-37 -215q107 113 250 113q138 0 225.5 -70.5t87.5 -197.5q0 -133 -94 -198t-258 -65zM428 0
l754 1368h71l-753 -1368h-72zM1350 -18q-172 0 -262.5 52t-90.5 152q0 164 242 170q-114 57 -161.5 111t-47.5 135q0 100 81 169t230 69q144 0 231 -57t87 -134q0 -71 -58.5 -112t-158.5 -35q40 -19 60.5 -29t56 -30.5t54.5 -40t40 -46.5t30 -61t9 -74q0 -103 -86 -171
t-256 -68zM1348 16q50 0 82 38t32 98q0 28 -11 53t-26 42.5t-43.5 36t-50 29.5t-59.5 29q-60 -55 -60 -156q0 -75 38.5 -122.5t97.5 -47.5zM1405 518q49 49 49 127q0 71 -31.5 115.5t-79.5 44.5q-41 0 -67.5 -32t-26.5 -83q0 -58 37.5 -95t118.5 -77z" />
    <glyph glyph-name="seveneighths" unicode="&#x215e;" horiz-adv-x="1673" 
d="M170 547q0 78 18 146.5t37 113t75 108.5t85.5 93t114.5 106q35 32 53 49h-324q-76 0 -112.5 -30.5t-57.5 -106.5h-16l37 342h647v-18q-63 -81 -111 -154.5t-79.5 -130.5t-53 -119t-32.5 -101.5t-16.5 -98t-6 -89.5t-0.5 -93v-17h-258zM369 0l753 1368h72l-754 -1368h-71z
M1290 -18q-172 0 -262 52t-90 152q0 164 242 170q-114 57 -161.5 111t-47.5 135q0 100 81 169t230 69q144 0 230.5 -57t86.5 -134q0 -71 -58.5 -112t-158.5 -35q40 -19 60.5 -29t56 -30.5t54.5 -40t40 -46.5t30 -61t9 -74q0 -103 -86 -171t-256 -68zM1288 16q50 0 82.5 38
t32.5 98q0 28 -11 53t-26.5 42.5t-44 36t-50 29.5t-59.5 29q-59 -55 -59 -156q0 -75 38 -122.5t97 -47.5zM1346 518q49 49 49 127q0 71 -31.5 115.5t-79.5 44.5q-41 0 -67.5 -32t-26.5 -83q0 -58 37.5 -95t118.5 -77z" />
    <glyph glyph-name="arrowleft" unicode="&#x2190;" horiz-adv-x="1335" 
d="M561 6l-512 512l512 512l60 -55l-428 -418h1089v-76h-1094l433 -420z" />
    <glyph glyph-name="arrowup" unicode="&#x2191;" horiz-adv-x="1177" 
d="M1102 676l-55 -60l-420 433v-1094h-76v1089l-418 -428l-55 60l512 512z" />
    <glyph glyph-name="arrowright" unicode="&#x2192;" horiz-adv-x="1335" 
d="M774 6l-59 55l432 420h-1094v76h1090l-428 418l59 55l512 -512z" />
    <glyph glyph-name="arrowdown" unicode="&#x2193;" horiz-adv-x="1177" 
d="M78 621l55 59l420 -432v1093h76v-1089l418 428l55 -59l-512 -512z" />
    <glyph glyph-name="arrowboth" unicode="&#x2194;" horiz-adv-x="2033" 
d="M1475 6l-62 55l432 420h-1657l433 -420l-60 -55l-512 512l512 512l60 -55l-428 -418h1648l-428 418l60 55l514 -512z" />
    <glyph glyph-name="arrowupdn" unicode="&#x2195;" horiz-adv-x="1177" 
d="M78 266l55 62l420 -432v1656l-420 -432l-55 60l512 512l512 -512l-55 -60l-418 428v-1648l418 428l55 -60l-512 -514z" />
    <glyph glyph-name="uni2196" unicode="&#x2196;" horiz-adv-x="995" 
d="M86 170v725h725l2 -82l-598 8l770 -772l-53 -53l-772 772l8 -600z" />
    <glyph glyph-name="uni2197" unicode="&#x2197;" horiz-adv-x="995" 
d="M909 164l-82 -2l11 604l-775 -774l-53 53l772 772l-600 -10l2 82h725v-725z" />
    <glyph glyph-name="uni2198" unicode="&#x2198;" horiz-adv-x="997" 
d="M186 63l-4 82l604 -10l-774 774l54 54l772 -773l-9 601l80 -3v-725h-723z" />
    <glyph glyph-name="uni2199" unicode="&#x2199;" horiz-adv-x="997" 
d="M811 63h-723v723l80 5l-8 -601l772 773l53 -54l-772 -774l602 8z" />
    <glyph glyph-name="partialdiff" unicode="&#x2202;" horiz-adv-x="1073" 
d="M524 -29q-204 0 -329 127t-125 334q0 208 129 338.5t325 130.5q67 0 130.5 -17.5t119 -52t96.5 -91t58 -128.5q-2 152 -32 273.5t-89.5 216t-157 152t-229.5 71.5v74q274 -23 429 -226t155 -550q0 -320 -129 -486t-351 -166zM522 47q167 0 268 110.5t101 278.5
q0 171 -102 280t-267 109q-164 0 -266 -108t-102 -281t102 -281t266 -108z" />
    <glyph glyph-name="uni2206" unicode="&#x2206;" horiz-adv-x="1245" 
d="M-6 0l588 1368h82l587 -1368h-1257zM106 76h1033l-514 1200z" />
    <glyph glyph-name="product" unicode="&#x220f;" horiz-adv-x="1124" 
d="M119 0v1368h889v-1368h-82v1292h-727v-1292h-80z" />
    <glyph glyph-name="summation" unicode="&#x2211;" horiz-adv-x="876" 
d="M-2 0v74l514 610l-514 610v74h903v-76h-799l484 -569v-74l-482 -573h797v-76h-903z" />
    <glyph glyph-name="minus" unicode="&#x2212;" horiz-adv-x="972" 
d="M61 616v76h852v-76h-852z" />
    <glyph glyph-name="radical" unicode="&#x221a;" horiz-adv-x="1052" 
d="M477 0l-223 670h-193v75h246l225 -675l433 1298h77l-454 -1368h-111z" />
    <glyph glyph-name="infinity" unicode="&#x221e;" horiz-adv-x="1757" 
d="M1313 1042q167 0 272 -103t105 -277t-105 -277.5t-272 -103.5q-130 0 -234.5 69.5t-199.5 220.5q-173 -290 -435 -290q-165 0 -269.5 104t-104.5 277t104.5 276.5t269.5 103.5q130 0 235.5 -70.5t199.5 -215.5q90 147 196.5 216.5t237.5 69.5zM444 356q240 0 394 306
q-84 157 -179 231t-215 74q-131 0 -210.5 -82t-79.5 -223q0 -143 79.5 -224.5t210.5 -81.5zM1313 356q131 0 212 82t81 224q0 141 -81 223t-212 82q-236 0 -389 -305q83 -157 177.5 -231.5t211.5 -74.5z" />
    <glyph glyph-name="integral" unicode="&#x222b;" horiz-adv-x="493" 
d="M10 -406v76h51q70 0 108 49.5t38 143.5v1372q0 130 60.5 199t164.5 69h51v-76h-51q-143 0 -143 -192v-1374q0 -129 -61.5 -198t-166.5 -69h-51z" />
    <glyph glyph-name="approxequal" unicode="&#x2248;" horiz-adv-x="1046" 
d="M735 805q-54 0 -115 20.5t-107.5 45t-103.5 45t-102 20.5q-116 0 -246 -121v80q124 119 250 119q51 0 110.5 -20.5t105 -45t104 -45t108.5 -20.5q124 0 248 121v-80q-114 -119 -252 -119zM735 440q-54 0 -115 20.5t-107.5 45t-103.5 45t-102 20.5q-117 0 -246 -120v77
q124 119 250 119q51 0 110.5 -20.5t105 -45t104 -45t108.5 -20.5q124 0 248 121v-78q-114 -119 -252 -119z" />
    <glyph glyph-name="notequal" unicode="&#x2260;" horiz-adv-x="972" 
d="M264 182l113 297h-316v76h345l98 258h-443v76h471l95 248h84l-95 -248h297v-76h-325l-99 -258h424v-76h-452l-113 -297h-84z" />
    <glyph glyph-name="lessequal" unicode="&#x2264;" horiz-adv-x="894" 
d="M827 219l-772 383v107l772 383l31 -70l-745 -367l745 -366zM846 2h-793v76h793v-76z" />
    <glyph glyph-name="greaterequal" unicode="&#x2265;" horiz-adv-x="894" 
d="M66 219l-31 70l745 366l-745 367l31 70l772 -383v-107zM37 2v76h792v-76h-792z" />
    <glyph glyph-name="uni2460" unicode="&#x2460;" horiz-adv-x="1521" 
d="M512 295q73 10 102 27.5t29 46.5v569h-127v16q126 36 206.5 70t147.5 84h17v-739q0 -28 25 -46t81 -28v-16h-481v16zM760 -29q-144 0 -275.5 57t-227 152.5t-152 227.5t-56.5 276t56.5 276t152 227.5t227 152.5t275.5 57q145 0 277 -57t228 -152.5t153 -227.5t57 -276
t-57 -276t-153 -227.5t-228 -152.5t-277 -57zM760 27q133 0 255 52.5t210.5 140.5t141 209.5t52.5 254.5t-52.5 254.5t-141 209.5t-210.5 140.5t-255 52.5t-254 -52.5t-209 -140.5t-140.5 -209.5t-52.5 -254.5t52.5 -254.5t140.5 -209.5t209 -140.5t254 -52.5z" />
    <glyph glyph-name="uni2461" unicode="&#x2461;" horiz-adv-x="1521" 
d="M428 279v16l264 313q53 62 77 117t24 127q0 64 -39.5 103.5t-102.5 39.5q-53 0 -99 -33.5t-67 -97.5l-16 2q2 38 18 78t48.5 80t92.5 66t138 26q122 0 197 -68t75 -178q0 -48 -13.5 -90t-43 -78t-61.5 -65t-83.5 -60.5t-95 -55t-109.5 -57.5q-9 -5 -14 -7h269
q73 0 109.5 30t56.5 107h18l-39 -315h-604zM760 -27q-144 0 -275.5 57t-227 152.5t-152 227.5t-56.5 276t56.5 276t152 227.5t227 152.5t275.5 57q145 0 277 -57t228 -152.5t153 -227.5t57 -276t-57 -276t-153 -227.5t-228 -152.5t-277 -57zM760 29q133 0 255 52.5
t210.5 140.5t141 209.5t52.5 254.5t-52.5 254.5t-141 209.5t-210.5 140.5t-255 52.5t-254 -52.5t-209 -140.5t-140.5 -209.5t-52.5 -254.5t52.5 -254.5t140.5 -209.5t209 -140.5t254 -52.5z" />
    <glyph glyph-name="uni2462" unicode="&#x2462;" horiz-adv-x="1521" 
d="M750 276q-131 0 -219 56t-97 139l232 64q11 -105 39.5 -165.5t70.5 -60.5q38 0 61 51.5t23 135.5q0 87 -57.5 143.5t-163.5 56.5v17q93 23 135.5 61.5t42.5 95.5q0 62 -39 101t-102 39q-54 0 -100.5 -34t-65.5 -97l-14 2q1 29 10.5 60.5t31.5 66t54.5 61t84 44
t114.5 17.5q131 0 200.5 -59t69.5 -147q0 -169 -223 -205q122 -8 194 -60.5t72 -156.5q0 -106 -96 -166t-258 -60zM760 -29q-144 0 -275.5 57t-227 152.5t-152 227.5t-56.5 276t56.5 276t152 227.5t227 152.5t275.5 57q145 0 277 -57t228 -152.5t153 -227.5t57 -276
t-57 -276t-153 -227.5t-228 -152.5t-277 -57zM760 27q133 0 255 52.5t210.5 140.5t141 209.5t52.5 254.5t-52.5 254.5t-141 209.5t-210.5 140.5t-255 52.5t-254 -52.5t-209 -140.5t-140.5 -209.5t-52.5 -254.5t52.5 -254.5t140.5 -209.5t209 -140.5t254 -52.5z" />
    <glyph glyph-name="uni2463" unicode="&#x2463;" horiz-adv-x="1521" 
d="M616 295q103 19 103 74v139h-354v31l389 561h211v-555h118v-37h-118v-139q0 -28 24 -46t80 -28v-16h-453v16zM416 545h303v438zM760 -29q-144 0 -275.5 57t-227 152.5t-152 227.5t-56.5 276t56.5 276t152 227.5t227 152.5t275.5 57q145 0 277 -57t228 -152.5t153 -227.5
t57 -276t-57 -276t-153 -227.5t-228 -152.5t-277 -57zM760 27q133 0 255 52.5t210.5 140.5t141 209.5t52.5 254.5t-52.5 254.5t-141 209.5t-210.5 140.5t-255 52.5t-254 -52.5t-209 -140.5t-140.5 -209.5t-52.5 -254.5t52.5 -254.5t140.5 -209.5t209 -140.5t254 -52.5z" />
    <glyph glyph-name="uni2464" unicode="&#x2464;" horiz-adv-x="1521" 
d="M709 276q-133 0 -221 56.5t-97 138.5l232 64q8 -103 37.5 -164.5t74.5 -61.5q39 0 60.5 44.5t21.5 119.5q0 104 -47 163.5t-143 59.5q-79 0 -160 -51l-12 6l80 463h469v-205h-469l-37 -215q107 113 250 113q138 0 225.5 -70.5t87.5 -197.5q0 -133 -94 -198t-258 -65z
M760 -29q-144 0 -275.5 57t-227 152.5t-152 227.5t-56.5 276t56.5 276t152 227.5t227 152.5t275.5 57q145 0 277 -57t228 -152.5t153 -227.5t57 -276t-57 -276t-153 -227.5t-228 -152.5t-277 -57zM760 27q133 0 255 52.5t210.5 140.5t141 209.5t52.5 254.5t-52.5 254.5
t-141 209.5t-210.5 140.5t-255 52.5t-254 -52.5t-209 -140.5t-140.5 -209.5t-52.5 -254.5t52.5 -254.5t140.5 -209.5t209 -140.5t254 -52.5z" />
    <glyph glyph-name="uni2465" unicode="&#x2465;" horiz-adv-x="1521" 
d="M772 276q-176 0 -272.5 101t-96.5 305q0 206 104 329.5t279 123.5q134 0 228 -57.5t102 -141.5l-244 -64q3 99 -29 163.5t-77 64.5q-57 0 -85 -83.5t-28 -262.5q80 69 203 69q116 0 191 -74t75 -192q0 -121 -91.5 -201t-258.5 -80zM788 311q44 0 67.5 56.5t23.5 142.5
q0 107 -42.5 168t-111.5 61q-41 0 -72 -24q2 -63 10 -129t23.5 -130t42 -104.5t59.5 -40.5zM760 -27q-144 0 -275.5 57t-227 152.5t-152 227.5t-56.5 276t56.5 276t152 227.5t227 152.5t275.5 57q145 0 277 -57t228 -152.5t153 -227.5t57 -276t-57 -276t-153 -227.5
t-228 -152.5t-277 -57zM760 29q133 0 255 52.5t210.5 140.5t141 209.5t52.5 254.5t-52.5 254.5t-141 209.5t-210.5 140.5t-255 52.5t-254 -52.5t-209 -140.5t-140.5 -209.5t-52.5 -254.5t52.5 -254.5t140.5 -209.5t209 -140.5t254 -52.5z" />
    <glyph glyph-name="uni2466" unicode="&#x2466;" horiz-adv-x="1521" 
d="M580 279q0 78 18 146.5t37 113t75 108.5t85.5 93t114.5 106q35 32 53 49h-324q-76 0 -112.5 -30.5t-57.5 -106.5h-16l36 342h648v-19q-63 -81 -111 -154.5t-79.5 -130.5t-53 -118.5t-32.5 -101.5t-16.5 -98t-6 -89.5t-0.5 -92.5v-17h-258zM760 -29q-144 0 -275.5 57
t-227 152.5t-152 227.5t-56.5 276t56.5 276t152 227.5t227 152.5t275.5 57q145 0 277 -57t228 -152.5t153 -227.5t57 -276t-57 -276t-153 -227.5t-228 -152.5t-277 -57zM760 27q133 0 255 52.5t210.5 140.5t141 209.5t52.5 254.5t-52.5 254.5t-141 209.5t-210.5 140.5
t-255 52.5t-254 -52.5t-209 -140.5t-140.5 -209.5t-52.5 -254.5t52.5 -254.5t140.5 -209.5t209 -140.5t254 -52.5z" />
    <glyph glyph-name="uni2467" unicode="&#x2467;" horiz-adv-x="1521" 
d="M770 276q-172 0 -262 52.5t-90 152.5q0 165 241 170q-114 57 -161 111t-47 135q0 100 81 169t230 69q144 0 230.5 -57t86.5 -134q0 -71 -58.5 -112t-158.5 -35q40 -19 60.5 -29t56 -30.5t54.5 -40t40 -46.5t30 -61t9 -74q0 -103 -86 -171.5t-256 -68.5zM768 311
q50 0 82.5 37.5t32.5 97.5q0 28 -11 53t-26.5 42.5t-44 36.5t-50.5 30.5t-59 28.5q-59 -55 -59 -156q0 -75 38 -122.5t97 -47.5zM825 813q49 49 49 127q0 71 -31 115.5t-79 44.5q-41 0 -67.5 -32t-26.5 -83q0 -58 37.5 -95t117.5 -77zM760 -27q-144 0 -275.5 57t-227 152.5
t-152 227.5t-56.5 276t56.5 276t152 227.5t227 152.5t275.5 57q145 0 277 -57t228 -152.5t153 -227.5t57 -276t-57 -276t-153 -227.5t-228 -152.5t-277 -57zM760 29q133 0 255 52.5t210.5 140.5t141 209.5t52.5 254.5t-52.5 254.5t-141 209.5t-210.5 140.5t-255 52.5
t-254 -52.5t-209 -140.5t-140.5 -209.5t-52.5 -254.5t52.5 -254.5t140.5 -209.5t209 -140.5t254 -52.5z" />
    <glyph glyph-name="uni2468" unicode="&#x2468;" horiz-adv-x="1521" 
d="M739 276q-135 0 -228.5 57.5t-102.5 141.5l243 64q-1 -100 32.5 -164t78.5 -64q34 0 56.5 28t33.5 80.5t15 110t3 132.5q-47 -42 -93.5 -58t-106.5 -16q-116 0 -191.5 74t-75.5 192q0 120 92 200.5t259 80.5q175 0 271.5 -101t96.5 -305q0 -206 -104 -329.5t-279 -123.5z
M801 672q41 0 69 22q-1 62 -9 128.5t-23 130.5t-41.5 105.5t-59.5 41.5q-44 0 -67 -57t-23 -142q0 -106 42.5 -167.5t111.5 -61.5zM760 -27q-144 0 -275.5 57t-227 152.5t-152 227.5t-56.5 276t56.5 276t152 227.5t227 152.5t275.5 57q145 0 277 -57t228 -152.5t153 -227.5
t57 -276t-57 -276t-153 -227.5t-228 -152.5t-277 -57zM760 29q133 0 255 52.5t210.5 140.5t141 209.5t52.5 254.5t-52.5 254.5t-141 209.5t-210.5 140.5t-255 52.5t-254 -52.5t-209 -140.5t-140.5 -209.5t-52.5 -254.5t52.5 -254.5t140.5 -209.5t209 -140.5t254 -52.5z" />
    <glyph glyph-name="lozenge" unicode="&#x25ca;" horiz-adv-x="923" 
d="M418 0l-367 684l367 684h88l366 -684l-366 -684h-88zM461 78l323 606l-323 606l-320 -606z" />
    <glyph glyph-name="uni25CF" unicode="&#x25cf;" horiz-adv-x="1529" 
d="M764 -29q145 0 277 57t228 152.5t153 227.5t57 276t-57 276t-153 227.5t-228 152.5t-277 57q-144 0 -275.5 -57t-227 -152.5t-152 -227.5t-56.5 -276t56.5 -276t152 -227.5t227 -152.5t275.5 -57z" />
    <glyph glyph-name="uni2776" unicode="&#x2776;" horiz-adv-x="1521" 
d="M512 295q73 10 102 27.5t29 46.5v569h-127v16q126 36 206.5 70t147.5 84h17v-739q0 -28 25 -46t81 -28v-16h-481v16zM760 -29q145 0 277 57t228 152.5t153 227.5t57 276t-57 276t-153 227.5t-228 152.5t-277 57q-144 0 -275.5 -57t-227 -152.5t-152 -227.5t-56.5 -276
t56.5 -276t152 -227.5t227 -152.5t275.5 -57z" />
    <glyph glyph-name="uni2777" unicode="&#x2777;" horiz-adv-x="1521" 
d="M428 279v16l264 313q53 62 77 117t24 127q0 64 -39.5 103.5t-102.5 39.5q-53 0 -99 -33.5t-67 -97.5l-16 2q2 38 18 78t48.5 80t92.5 66t138 26q122 0 197 -68t75 -178q0 -48 -13.5 -90t-43 -78t-61.5 -65t-83.5 -60.5t-95 -55t-109.5 -57.5q-9 -5 -14 -7h269
q73 0 109.5 30t56.5 107h18l-39 -315h-604zM760 -27q145 0 277 57t228 152.5t153 227.5t57 276t-57 276t-153 227.5t-228 152.5t-277 57q-144 0 -275.5 -57t-227 -152.5t-152 -227.5t-56.5 -276t56.5 -276t152 -227.5t227 -152.5t275.5 -57z" />
    <glyph glyph-name="uni2778" unicode="&#x2778;" horiz-adv-x="1521" 
d="M750 276q-131 0 -219 56t-97 139l232 64q11 -105 39.5 -165.5t70.5 -60.5q38 0 61 51.5t23 135.5q0 87 -57.5 143.5t-163.5 56.5v17q93 23 135.5 61.5t42.5 95.5q0 62 -39 101t-102 39q-54 0 -100.5 -34t-65.5 -97l-14 2q1 29 10.5 60.5t31.5 66t54.5 61t84 44
t114.5 17.5q131 0 200.5 -59t69.5 -147q0 -169 -223 -205q122 -8 194 -60.5t72 -156.5q0 -106 -96 -166t-258 -60zM760 -29q145 0 277 57t228 152.5t153 227.5t57 276t-57 276t-153 227.5t-228 152.5t-277 57q-144 0 -275.5 -57t-227 -152.5t-152 -227.5t-56.5 -276
t56.5 -276t152 -227.5t227 -152.5t275.5 -57z" />
    <glyph glyph-name="uni2779" unicode="&#x2779;" horiz-adv-x="1521" 
d="M616 295q103 19 103 74v139h-354v31l389 561h211v-555h118v-37h-118v-139q0 -28 24 -46t80 -28v-16h-453v16zM416 545h303v438zM760 -29q145 0 277 57t228 152.5t153 227.5t57 276t-57 276t-153 227.5t-228 152.5t-277 57q-144 0 -275.5 -57t-227 -152.5t-152 -227.5
t-56.5 -276t56.5 -276t152 -227.5t227 -152.5t275.5 -57z" />
    <glyph glyph-name="uni277A" unicode="&#x277a;" horiz-adv-x="1521" 
d="M709 276q-133 0 -221 56.5t-97 138.5l232 64q8 -103 37.5 -164.5t74.5 -61.5q39 0 60.5 44.5t21.5 119.5q0 104 -47 163.5t-143 59.5q-79 0 -160 -51l-12 6l80 463h469v-205h-469l-37 -215q107 113 250 113q138 0 225.5 -70.5t87.5 -197.5q0 -133 -94 -198t-258 -65z
M760 -29q145 0 277 57t228 152.5t153 227.5t57 276t-57 276t-153 227.5t-228 152.5t-277 57q-144 0 -275.5 -57t-227 -152.5t-152 -227.5t-56.5 -276t56.5 -276t152 -227.5t227 -152.5t275.5 -57z" />
    <glyph glyph-name="uni277B" unicode="&#x277b;" horiz-adv-x="1521" 
d="M772 276q-176 0 -272.5 101t-96.5 305q0 206 104 329.5t279 123.5q134 0 228 -57.5t102 -141.5l-244 -64q3 99 -29 163.5t-77 64.5q-57 0 -85 -83.5t-28 -262.5q80 69 203 69q116 0 191 -74t75 -192q0 -121 -91.5 -201t-258.5 -80zM788 311q44 0 67.5 56.5t23.5 142.5
q0 107 -42.5 168t-111.5 61q-41 0 -72 -24q2 -63 10 -129t23.5 -130t42 -104.5t59.5 -40.5zM760 -27q145 0 277 57t228 152.5t153 227.5t57 276t-57 276t-153 227.5t-228 152.5t-277 57q-144 0 -275.5 -57t-227 -152.5t-152 -227.5t-56.5 -276t56.5 -276t152 -227.5
t227 -152.5t275.5 -57z" />
    <glyph glyph-name="uni277C" unicode="&#x277c;" horiz-adv-x="1521" 
d="M580 279q0 78 18 146.5t37 113t75 108.5t85.5 93t114.5 106q35 32 53 49h-324q-76 0 -112.5 -30.5t-57.5 -106.5h-16l36 342h648v-19q-63 -81 -111 -154.5t-79.5 -130.5t-53 -118.5t-32.5 -101.5t-16.5 -98t-6 -89.5t-0.5 -92.5v-17h-258zM760 -29q145 0 277 57
t228 152.5t153 227.5t57 276t-57 276t-153 227.5t-228 152.5t-277 57q-144 0 -275.5 -57t-227 -152.5t-152 -227.5t-56.5 -276t56.5 -276t152 -227.5t227 -152.5t275.5 -57z" />
    <glyph glyph-name="uni277D" unicode="&#x277d;" horiz-adv-x="1521" 
d="M770 276q-172 0 -262 52.5t-90 152.5q0 165 241 170q-114 57 -161 111t-47 135q0 100 81 169t230 69q144 0 230.5 -57t86.5 -134q0 -71 -58.5 -112t-158.5 -35q40 -19 60.5 -29t56 -30.5t54.5 -40t40 -46.5t30 -61t9 -74q0 -103 -86 -171.5t-256 -68.5zM768 311
q50 0 82.5 37.5t32.5 97.5q0 28 -11 53t-26.5 42.5t-44 36.5t-50.5 30.5t-59 28.5q-59 -55 -59 -156q0 -75 38 -122.5t97 -47.5zM825 813q49 49 49 127q0 71 -31 115.5t-79 44.5q-41 0 -67.5 -32t-26.5 -83q0 -58 37.5 -95t117.5 -77zM760 -27q145 0 277 57t228 152.5
t153 227.5t57 276t-57 276t-153 227.5t-228 152.5t-277 57q-144 0 -275.5 -57t-227 -152.5t-152 -227.5t-56.5 -276t56.5 -276t152 -227.5t227 -152.5t275.5 -57z" />
    <glyph glyph-name="uni277E" unicode="&#x277e;" horiz-adv-x="1521" 
d="M739 276q-135 0 -228.5 57.5t-102.5 141.5l243 64q-1 -100 32.5 -164t78.5 -64q34 0 56.5 28t33.5 80.5t15 110t3 132.5q-47 -42 -93.5 -58t-106.5 -16q-116 0 -191.5 74t-75.5 192q0 120 92 200.5t259 80.5q175 0 271.5 -101t96.5 -305q0 -206 -104 -329.5t-279 -123.5z
M801 672q41 0 69 22q-1 62 -9 128.5t-23 130.5t-41.5 105.5t-59.5 41.5q-44 0 -67 -57t-23 -142q0 -106 42.5 -167.5t111.5 -61.5zM760 -27q145 0 277 57t228 152.5t153 227.5t57 276t-57 276t-153 227.5t-228 152.5t-277 57q-144 0 -275.5 -57t-227 -152.5t-152 -227.5
t-56.5 -276t56.5 -276t152 -227.5t227 -152.5t275.5 -57z" />
    <glyph glyph-name="uniF8FF" unicode="&#xf8ff;" horiz-adv-x="1531" 
d="M322 -8q-106 0 -181 75.5t-75 182.5q0 117 70.5 188.5t185.5 71.5h186v369h-186q-115 0 -185.5 71.5t-70.5 188.5q0 106 76 183t180 77q116 0 189 -72.5t73 -187.5v-185h364v185q0 114 73 187t187 73q107 0 183.5 -76.5t76.5 -183.5q0 -117 -71.5 -188.5t-188.5 -71.5
h-184v-369h184q117 0 188.5 -71.5t71.5 -188.5q0 -106 -77 -182t-183 -76q-114 0 -187 72t-73 186v184h-364v-184q0 -114 -73 -186t-189 -72zM322 70q82 0 134 50.5t52 129.5v184h-186q-80 0 -129.5 -50.5t-49.5 -133.5q0 -75 52.5 -127.5t126.5 -52.5zM322 954h186v185
q0 81 -52 131.5t-134 50.5q-75 0 -127 -53t-52 -129q0 -82 50 -133.5t129 -51.5zM1208 70q75 0 129 52.5t54 127.5q0 83 -50 133.5t-133 50.5h-184v-184q0 -80 51 -130t133 -50zM584 510h364v369h-364v-369zM1208 954q83 0 133 51.5t50 133.5q0 76 -54 129t-129 53
q-82 0 -133 -50t-51 -132v-185h184z" />
    <glyph glyph-name="K.ss05" horiz-adv-x="1613" 
d="M1077 0q-13 53 -84 147l-438 541v-524q0 -64 40.5 -93.5t137.5 -41.5v-29h-674v29q97 12 138 41.5t41 93.5v1040q0 64 -41 93.5t-138 41.5v29h674v-29q-97 -12 -137.5 -41.5t-40.5 -93.5v-481l580 491q40 34 45.5 62.5t-28.5 45.5t-105 17v29h434v-29q-129 -9 -287 -147
l-381 -324l533 -657q131 -170 251 -182v-29h-520z" />
    <glyph glyph-name="M.ss11" horiz-adv-x="1998" 
d="M1788 160q6 -57 44.5 -87t139.5 -44v-29h-682v29q104 13 146 45t37 86l-99 897l-495 -1055h-93l-419 1045l-101 -887q-5 -52 38.5 -84t148.5 -47v-29h-426v29q100 13 138.5 43.5t43.5 87.5l119 1046q6 64 -31.5 92t-132.5 41l4 29h438l383 -1006l469 1006h377l4 -29
q-92 -11 -130.5 -40t-31.5 -93z" />
    <glyph glyph-name="R.ss12" horiz-adv-x="1540" 
d="M59 29q97 12 138 41.5t41 93.5v1040q0 64 -41 93.5t-138 41.5v29h664q272 0 420.5 -100.5t148.5 -290.5q0 -150 -94.5 -242t-273.5 -123l368 -434q45 -58 109 -100t127 -49v-29h-533q-5 55 -57 123l-381 473l-2 -432q0 -64 40.5 -93.5t137.5 -41.5v-29h-674v29zM557 653
h125q132 0 206.5 87.5t74.5 236.5q0 155 -74 244.5t-207 89.5h-123z" />
    <glyph glyph-name="Racute.ss12" horiz-adv-x="1540" 
d="M59 29q97 12 138 41.5t41 93.5v1040q0 64 -41 93.5t-138 41.5v29h664q272 0 420.5 -100.5t148.5 -290.5q0 -150 -94.5 -242t-273.5 -123l368 -434q45 -58 109 -100t127 -49v-29h-533q-5 55 -57 123l-381 473l-2 -432q0 -64 40.5 -93.5t137.5 -41.5v-29h-674v29zM649 1499
l135 356h308l-414 -356h-29zM557 653h125q132 0 206.5 87.5t74.5 236.5q0 155 -74 244.5t-207 89.5h-123z" />
    <glyph glyph-name="Rcaron.ss12" horiz-adv-x="1540" 
d="M59 29q97 12 138 41.5t41 93.5v1040q0 64 -41 93.5t-138 41.5v29h664q272 0 420.5 -100.5t148.5 -290.5q0 -150 -94.5 -242t-273.5 -123l368 -434q45 -58 109 -100t127 -49v-29h-533q-5 55 -57 123l-381 473l-2 -432q0 -64 40.5 -93.5t137.5 -41.5v-29h-674v29zM596 1499
l-197 356h29l291 -221l299 221h29l-207 -356h-244zM557 653h125q132 0 206.5 87.5t74.5 236.5q0 155 -74 244.5t-207 89.5h-123z" />
    <glyph glyph-name="uni0156.ss12" horiz-adv-x="1540" 
d="M59 29q97 12 138 41.5t41 93.5v1040q0 64 -41 93.5t-138 41.5v29h664q272 0 420.5 -100.5t148.5 -290.5q0 -150 -94.5 -242t-273.5 -123l368 -434q45 -58 109 -100t127 -49v-29h-533q-5 55 -57 123l-381 473l-2 -432q0 -64 40.5 -93.5t137.5 -41.5v-29h-674v29zM629 -463
q50 62 53.5 182t-43.5 189l289 18q14 -79 0 -144t-55 -113.5t-96.5 -84t-131.5 -63.5zM557 653h125q132 0 206.5 87.5t74.5 236.5q0 155 -74 244.5t-207 89.5h-123z" />
    <glyph glyph-name="F_T" horiz-adv-x="2361" 
d="M59 29q97 12 138 41.5t41 93.5v1040q0 64 -41 93.5t-138 41.5v29h2222l48 -389h-29q-39 155 -143.5 243.5t-282.5 88.5h-27v-1147q0 -58 39 -90t139 -45v-29h-673v29q101 13 139.5 44.5t38.5 90.5v1147h-27q-178 0 -282.5 -88.5t-143.5 -243.5h-28l43 334h-537v-582h199
q150 0 159 205h29v-469h-29q-9 207 -159 207h-199v-494q0 -77 49.5 -108t190.5 -43v-29h-736v29z" />
    <glyph glyph-name="T_T" horiz-adv-x="2217" 
d="M1208 29q100 13 139 45t39 90v1147h-555v-1147q0 -58 39.5 -90t139.5 -45v-29h-674v29q101 13 139.5 44.5t38.5 90.5v1147h-25q-178 0 -282.5 -88.5t-145.5 -243.5h-28l49 389h2054l49 -389h-28q-41 155 -145.5 243.5t-282.5 88.5h-25v-1147q0 -59 38 -90.5t138 -44.5
v-29h-672v29z" />
    <glyph glyph-name="T_h" horiz-adv-x="2330" 
d="M336 29q101 13 139.5 44.5t38.5 90.5v1147h-27q-177 0 -282 -88t-144 -240h-28l47 385h1102l336 96h28v-612q82 104 164.5 161.5t181.5 57.5q149 0 226 -90.5t77 -251.5v-573q0 -60 22 -85.5t83 -43.5v-27h-514v27q60 18 82 43.5t22 85.5v555q0 79 -38.5 124.5
t-106.5 45.5q-105 0 -199 -90v-635q0 -60 22 -85.5t83 -43.5v-27h-514v27q60 18 82 43.5t22 85.5v1155h-410v-1147q0 -58 39.5 -90t139.5 -45v-29h-674v29z" />
    <glyph glyph-name="T_i" horiz-adv-x="1775" 
d="M336 29q101 13 139.5 44.5t38.5 90.5v1147h-25q-178 0 -282.5 -88.5t-145.5 -243.5h-28l49 389h655q151 0 264 17t174 41.5t106.5 49t89.5 41.5t93 17q79 0 133 -51.5t54 -128.5q0 -79 -54 -132t-137 -53q-61 0 -108 30.5t-68 80.5q-8 19 -10 31h-443v-1147
q0 -58 39.5 -90t139.5 -45v-29h-674v29zM1208 29q61 16 84 42t23 87v653q0 98 -115 113l-31 4v28l420 117h29v-915q0 -61 22.5 -87t83.5 -42v-29h-516v29z" />
    <glyph glyph-name="i.loclTRK" horiz-adv-x="688" 
d="M84 29q61 16 83.5 42t22.5 87v653q0 98 -114 113l-31 4v28l420 117h29v-915q0 -61 22.5 -87t83.5 -42v-29h-516v29zM334 1184q-83 0 -138 53t-55 131q0 77 55 128.5t138 51.5t137.5 -51.5t54.5 -128.5q0 -78 -54.5 -131t-137.5 -53z" />
    <glyph glyph-name="germandbls.calt" horiz-adv-x="1529" 
d="M983 -29q-203 0 -317 111l20 33q86 -58 199 -58q127 0 205.5 88.5t78.5 231.5q0 168 -127.5 247.5t-328.5 43.5l-15 32l371 578q-113 63 -250 63q-124 0 -193 -91.5t-69 -254.5l-2 -995h-496v29q97 12 138 41.5t41 93.5v770q0 97 34 179t102.5 147t183.5 102t265 37
q189 0 574 -68l16 -37l-338 -469q171 -3 278 -117.5t107 -295.5q0 -200 -131 -320.5t-346 -120.5z" />
    <glyph glyph-name="a.ss01" horiz-adv-x="1259" 
d="M506 -31q-137 0 -238 72.5t-149.5 188t-48.5 255.5q0 135 38.5 247t105.5 186t158.5 114.5t196.5 40.5q178 0 283 -121l217 121h29v-842q0 -96 114 -112l31 -4v-29l-405 -117h-29l-12 217q-37 -98 -117 -157.5t-174 -59.5zM387 561q0 -84 13.5 -158.5t41 -136t74 -97.5
t107.5 -36q57 0 106 35t66 86v465q0 268 -195 268q-91 0 -152 -122.5t-61 -303.5z" />
    <glyph glyph-name="aacute.ss01" horiz-adv-x="1259" 
d="M506 -31q-137 0 -238 72.5t-149.5 188t-48.5 255.5q0 135 38.5 247t105.5 186t158.5 114.5t196.5 40.5q178 0 283 -121l217 121h29v-842q0 -96 114 -112l31 -4v-29l-405 -117h-29l-12 217q-37 -98 -117 -157.5t-174 -59.5zM387 561q0 -84 13.5 -158.5t41 -136t74 -97.5
t107.5 -36q57 0 106 35t66 86v465q0 268 -195 268q-91 0 -152 -122.5t-61 -303.5zM549 1174l135 356h307l-413 -356h-29z" />
    <glyph glyph-name="abreve.ss01" horiz-adv-x="1259" 
d="M506 -31q-137 0 -238 72.5t-149.5 188t-48.5 255.5q0 135 38.5 247t105.5 186t158.5 114.5t196.5 40.5q178 0 283 -121l217 121h29v-842q0 -96 114 -112l31 -4v-29l-405 -117h-29l-12 217q-37 -98 -117 -157.5t-174 -59.5zM387 561q0 -84 13.5 -158.5t41 -136t74 -97.5
t107.5 -36q57 0 106 35t66 86v465q0 268 -195 268q-91 0 -152 -122.5t-61 -303.5zM623 1165q-136 0 -211 90.5t-72 274.5h27q24 -170 256 -170q234 0 258 170h26q3 -184 -71.5 -274.5t-212.5 -90.5z" />
    <glyph glyph-name="acircumflex.ss01" horiz-adv-x="1259" 
d="M506 -31q-137 0 -238 72.5t-149.5 188t-48.5 255.5q0 135 38.5 247t105.5 186t158.5 114.5t196.5 40.5q178 0 283 -121l217 121h29v-842q0 -96 114 -112l31 -4v-29l-405 -117h-29l-12 217q-37 -98 -117 -157.5t-174 -59.5zM387 561q0 -84 13.5 -158.5t41 -136t74 -97.5
t107.5 -36q57 0 106 35t66 86v465q0 268 -195 268q-91 0 -152 -122.5t-61 -303.5zM494 1524h243l207 -357h-29l-299 222l-290 -222h-29z" />
    <glyph glyph-name="adieresis.ss01" horiz-adv-x="1259" 
d="M506 -31q-137 0 -238 72.5t-149.5 188t-48.5 255.5q0 135 38.5 247t105.5 186t158.5 114.5t196.5 40.5q178 0 283 -121l217 121h29v-842q0 -96 114 -112l31 -4v-29l-405 -117h-29l-12 217q-37 -98 -117 -157.5t-174 -59.5zM387 561q0 -84 13.5 -158.5t41 -136t74 -97.5
t107.5 -36q57 0 106 35t66 86v465q0 268 -195 268q-91 0 -152 -122.5t-61 -303.5zM410 1186q-76 0 -126.5 49t-50.5 121q0 69 50.5 116.5t126.5 47.5q75 0 125.5 -47.5t50.5 -116.5q0 -72 -50.5 -121t-125.5 -49zM854 1186q-75 0 -125.5 49t-50.5 121q0 69 50.5 116.5
t125.5 47.5t125.5 -47.5t50.5 -116.5q0 -72 -50.5 -121t-125.5 -49z" />
    <glyph glyph-name="agrave.ss01" horiz-adv-x="1259" 
d="M506 -31q-137 0 -238 72.5t-149.5 188t-48.5 255.5q0 135 38.5 247t105.5 186t158.5 114.5t196.5 40.5q178 0 283 -121l217 121h29v-842q0 -96 114 -112l31 -4v-29l-405 -117h-29l-12 217q-37 -98 -117 -157.5t-174 -59.5zM387 561q0 -84 13.5 -158.5t41 -136t74 -97.5
t107.5 -36q57 0 106 35t66 86v465q0 268 -195 268q-91 0 -152 -122.5t-61 -303.5zM666 1174h-29l-414 356h307z" />
    <glyph glyph-name="amacron.ss01" horiz-adv-x="1259" 
d="M506 -31q-137 0 -238 72.5t-149.5 188t-48.5 255.5q0 135 38.5 247t105.5 186t158.5 114.5t196.5 40.5q178 0 283 -121l217 121h29v-842q0 -96 114 -112l31 -4v-29l-405 -117h-29l-12 217q-37 -98 -117 -157.5t-174 -59.5zM387 561q0 -84 13.5 -158.5t41 -136t74 -97.5
t107.5 -36q57 0 106 35t66 86v465q0 268 -195 268q-91 0 -152 -122.5t-61 -303.5zM307 1225v80h635v-80h-635z" />
    <glyph glyph-name="aogonek.ss01" horiz-adv-x="1259" 
d="M506 -31q-137 0 -238 72.5t-149.5 188t-48.5 255.5q0 135 38.5 247t105.5 186t158.5 114.5t196.5 40.5q178 0 283 -121l217 121h29v-842q0 -96 114 -112l31 -4v-29q-90 -75 -131 -141.5t-41 -151.5q0 -82 53 -119t148 -2l12 -20q-86 -86 -244 -86q-82 0 -139 43t-57 121
q0 175 313 331l-319 -92h-29l-12 217q-37 -98 -117 -157.5t-174 -59.5zM387 561q0 -84 13.5 -158.5t41 -136t74 -97.5t107.5 -36q57 0 106 35t66 86v465q0 268 -195 268q-91 0 -152 -122.5t-61 -303.5z" />
    <glyph glyph-name="aring.ss01" horiz-adv-x="1259" 
d="M506 -31q-137 0 -238 72.5t-149.5 188t-48.5 255.5q0 135 38.5 247t105.5 186t158.5 114.5t196.5 40.5q178 0 283 -121l217 121h29v-842q0 -96 114 -112l31 -4v-29l-405 -117h-29l-12 217q-37 -98 -117 -157.5t-174 -59.5zM387 561q0 -84 13.5 -158.5t41 -136t74 -97.5
t107.5 -36q57 0 106 35t66 86v465q0 268 -195 268q-91 0 -152 -122.5t-61 -303.5zM625 1137q-98 0 -160 60t-62 151q0 93 62 153t160 60t159.5 -60t61.5 -153q0 -91 -61.5 -151t-159.5 -60zM625 1204q61 0 100 40.5t39 105.5q0 62 -39 101.5t-100 39.5q-59 0 -99.5 -40
t-40.5 -101q0 -64 40.5 -105t99.5 -41z" />
    <glyph glyph-name="aringacute.ss01" horiz-adv-x="1259" 
d="M506 -31q-137 0 -238 72.5t-149.5 188t-48.5 255.5q0 135 38.5 247t105.5 186t158.5 114.5t196.5 40.5q178 0 283 -121l217 121h29v-842q0 -96 114 -112l31 -4v-29l-405 -117h-29l-12 217q-37 -98 -117 -157.5t-174 -59.5zM387 561q0 -84 13.5 -158.5t41 -136t74 -97.5
t107.5 -36q57 0 106 35t66 86v465q0 268 -195 268q-91 0 -152 -122.5t-61 -303.5zM625 1137q-98 0 -160 60t-62 151q0 76 44 131.5t118 74.5l119 314h307l-356 -307q93 -3 152 -63t59 -150q0 -91 -61.5 -151t-159.5 -60zM625 1204q61 0 100 40.5t39 105.5q0 62 -39 101.5
t-100 39.5q-59 0 -99.5 -40t-40.5 -101q0 -64 40.5 -105t99.5 -41z" />
    <glyph glyph-name="atilde.ss01" horiz-adv-x="1259" 
d="M506 -31q-137 0 -238 72.5t-149.5 188t-48.5 255.5q0 135 38.5 247t105.5 186t158.5 114.5t196.5 40.5q178 0 283 -121l217 121h29v-842q0 -96 114 -112l31 -4v-29l-405 -117h-29l-12 217q-37 -98 -117 -157.5t-174 -59.5zM387 561q0 -84 13.5 -158.5t41 -136t74 -97.5
t107.5 -36q57 0 106 35t66 86v465q0 268 -195 268q-91 0 -152 -122.5t-61 -303.5zM766 1190q-60 0 -122 25.5t-120 51t-108 25.5q-99 0 -129 -102l-31 2q12 142 69 215.5t154 73.5q60 0 184 -52.5t168 -52.5q97 0 127 103l31 -2q-10 -141 -67.5 -214t-155.5 -73z" />
    <glyph glyph-name="ae.ss01" horiz-adv-x="1839" 
d="M506 -31q-137 0 -238 72.5t-149.5 188t-48.5 255.5q0 135 38.5 247t105.5 186t158.5 114.5t196.5 40.5q242 0 379 -149q144 147 377 147q221 0 330.5 -120t111.5 -333h-677v-6q-7 -202 95 -314t275 -112q91 0 165 44.5t118 115.5l24 -8q-14 -76 -49.5 -141t-90.5 -116
t-136 -80.5t-178 -29.5q-194 0 -330 107l-145 -109h-29l-12 176q-50 -87 -128.5 -131.5t-162.5 -44.5zM387 561q0 -84 13.5 -158.5t41 -136t74 -97.5t107.5 -36q113 0 172 117v248v37q-1 178 -23 277.5t-62 137t-110 37.5q-91 0 -152 -122.5t-61 -303.5zM1094 676h372
q-2 56 -12.5 112.5t-31 108.5t-54.5 84.5t-76 32.5q-86 0 -135.5 -95.5t-62.5 -242.5z" />
    <glyph glyph-name="aeacute.ss01" horiz-adv-x="1839" 
d="M506 -31q-137 0 -238 72.5t-149.5 188t-48.5 255.5q0 135 38.5 247t105.5 186t158.5 114.5t196.5 40.5q242 0 379 -149q144 147 377 147q221 0 330.5 -120t111.5 -333h-677v-6q-7 -202 95 -314t275 -112q91 0 165 44.5t118 115.5l24 -8q-14 -76 -49.5 -141t-90.5 -116
t-136 -80.5t-178 -29.5q-194 0 -330 107l-145 -109h-29l-12 176q-50 -87 -128.5 -131.5t-162.5 -44.5zM850 1174l135 356h307l-413 -356h-29zM387 561q0 -84 13.5 -158.5t41 -136t74 -97.5t107.5 -36q113 0 172 117v248v37q-1 178 -23 277.5t-62 137t-110 37.5
q-91 0 -152 -122.5t-61 -303.5zM1094 676h372q-2 56 -12.5 112.5t-31 108.5t-54.5 84.5t-76 32.5q-86 0 -135.5 -95.5t-62.5 -242.5z" />
    <glyph glyph-name="g.ss02" horiz-adv-x="1216" 
d="M563 -434q-185 0 -303.5 60t-165.5 143l260 127q29 -122 95.5 -199.5t150.5 -77.5q90 0 142.5 75t52.5 220v303q-38 -93 -117 -147t-172 -54q-137 0 -238 69.5t-149.5 180t-48.5 244.5q0 128 38 235.5t102.5 178.5t149.5 110t179 39q205 0 319 -117l211 117h29v-1053
q0 -208 -136 -331t-399 -123zM623 172q59 0 106 31.5t66 85.5v387q0 317 -195 317q-90 0 -151.5 -118.5t-61.5 -290.5q0 -81 13.5 -152.5t41 -130.5t74 -94t107.5 -35z" />
    <glyph glyph-name="gbreve.ss02" horiz-adv-x="1216" 
d="M563 -434q-185 0 -303.5 60t-165.5 143l260 127q29 -122 95.5 -199.5t150.5 -77.5q90 0 142.5 75t52.5 220v303q-38 -93 -117 -147t-172 -54q-137 0 -238 69.5t-149.5 180t-48.5 244.5q0 128 38 235.5t102.5 178.5t149.5 110t179 39q205 0 319 -117l211 117h29v-1053
q0 -208 -136 -331t-399 -123zM623 172q59 0 106 31.5t66 85.5v387q0 317 -195 317q-90 0 -151.5 -118.5t-61.5 -290.5q0 -81 13.5 -152.5t41 -130.5t74 -94t107.5 -35zM629 1165q-136 0 -211 90.5t-72 274.5h27q24 -170 256 -170q234 0 258 170h26q3 -184 -71.5 -274.5
t-212.5 -90.5z" />
    <glyph glyph-name="gcircumflex.ss02" horiz-adv-x="1216" 
d="M563 -434q-185 0 -303.5 60t-165.5 143l260 127q29 -122 95.5 -199.5t150.5 -77.5q90 0 142.5 75t52.5 220v303q-38 -93 -117 -147t-172 -54q-137 0 -238 69.5t-149.5 180t-48.5 244.5q0 128 38 235.5t102.5 178.5t149.5 110t179 39q205 0 319 -117l211 117h29v-1053
q0 -208 -136 -331t-399 -123zM623 172q59 0 106 31.5t66 85.5v387q0 317 -195 317q-90 0 -151.5 -118.5t-61.5 -290.5q0 -81 13.5 -152.5t41 -130.5t74 -94t107.5 -35zM500 1524h243l207 -357h-28l-299 222l-291 -222h-29z" />
    <glyph glyph-name="uni0123.ss02" horiz-adv-x="1216" 
d="M563 -434q-185 0 -303.5 60t-165.5 143l260 127q29 -122 95.5 -199.5t150.5 -77.5q90 0 142.5 75t52.5 220v303q-38 -93 -117 -147t-172 -54q-137 0 -238 69.5t-149.5 180t-48.5 244.5q0 128 38 235.5t102.5 178.5t149.5 110t179 39q205 0 319 -117l211 117h29v-1053
q0 -208 -136 -331t-399 -123zM623 172q59 0 106 31.5t66 85.5v387q0 317 -195 317q-90 0 -151.5 -118.5t-61.5 -290.5q0 -81 13.5 -152.5t41 -130.5t74 -94t107.5 -35zM840 1534q-50 -62 -54 -182t43 -189l-288 -18q-14 79 0 144t54.5 113.5t96 84t131.5 63.5z" />
    <glyph glyph-name="gdotaccent.ss02" horiz-adv-x="1216" 
d="M563 -434q-185 0 -303.5 60t-165.5 143l260 127q29 -122 95.5 -199.5t150.5 -77.5q90 0 142.5 75t52.5 220v303q-38 -93 -117 -147t-172 -54q-137 0 -238 69.5t-149.5 180t-48.5 244.5q0 128 38 235.5t102.5 178.5t149.5 110t179 39q205 0 319 -117l211 117h29v-1053
q0 -208 -136 -331t-399 -123zM623 172q59 0 106 31.5t66 85.5v387q0 317 -195 317q-90 0 -151.5 -118.5t-61.5 -290.5q0 -81 13.5 -152.5t41 -130.5t74 -94t107.5 -35zM629 1184q-83 0 -138 53t-55 131q0 77 55 128.5t138 51.5t137.5 -51.5t54.5 -128.5q0 -78 -54.5 -131
t-137.5 -53z" />
    <glyph glyph-name="g.ss03" horiz-adv-x="1136" 
d="M508 -434q-225 0 -358.5 65t-133.5 170q0 86 59 145t152 74v451q-106 96 -106 240q0 153 126 256.5t331 103.5q97 0 186 -29h344v-57h-225q151 -106 151 -274q0 -154 -125.5 -257.5t-330.5 -103.5q-166 0 -293 78v-229l446 2q165 0 269 -76t104 -203q0 -156 -170.5 -256
t-425.5 -100zM596 403q56 0 91.5 76.5t35.5 196.5q0 145 -45 241.5t-119 96.5q-57 0 -93 -75t-36 -194q0 -148 46 -245t120 -97zM248 -111q0 -127 103.5 -197.5t254.5 -70.5q136 0 222.5 56.5t86.5 150.5q0 153 -223 156h-413q-31 -52 -31 -95z" />
    <glyph glyph-name="gbreve.ss03" horiz-adv-x="1136" 
d="M508 -434q-225 0 -358.5 65t-133.5 170q0 86 59 145t152 74v451q-106 96 -106 240q0 153 126 256.5t331 103.5q97 0 186 -29h344v-57h-225q151 -106 151 -274q0 -154 -125.5 -257.5t-330.5 -103.5q-166 0 -293 78v-229l446 2q165 0 269 -76t104 -203q0 -156 -170.5 -256
t-425.5 -100zM596 403q56 0 91.5 76.5t35.5 196.5q0 145 -45 241.5t-119 96.5q-57 0 -93 -75t-36 -194q0 -148 46 -245t120 -97zM584 1165q-136 0 -211 90.5t-72 274.5h27q24 -170 256 -170q234 0 258 170h26q3 -184 -71.5 -274.5t-212.5 -90.5zM248 -111
q0 -127 103.5 -197.5t254.5 -70.5q136 0 222.5 56.5t86.5 150.5q0 153 -223 156h-413q-31 -52 -31 -95z" />
    <glyph glyph-name="gcircumflex.ss03" horiz-adv-x="1136" 
d="M508 -434q-225 0 -358.5 65t-133.5 170q0 86 59 145t152 74v451q-106 96 -106 240q0 153 126 256.5t331 103.5q97 0 186 -29h344v-57h-225q151 -106 151 -274q0 -154 -125.5 -257.5t-330.5 -103.5q-166 0 -293 78v-229l446 2q165 0 269 -76t104 -203q0 -156 -170.5 -256
t-425.5 -100zM596 403q56 0 91.5 76.5t35.5 196.5q0 145 -45 241.5t-119 96.5q-57 0 -93 -75t-36 -194q0 -148 46 -245t120 -97zM455 1524h243l207 -357h-28l-299 222l-291 -222h-29zM248 -111q0 -127 103.5 -197.5t254.5 -70.5q136 0 222.5 56.5t86.5 150.5q0 153 -223 156
h-413q-31 -52 -31 -95z" />
    <glyph glyph-name="uni0123.ss03" horiz-adv-x="1136" 
d="M508 -434q-225 0 -358.5 65t-133.5 170q0 86 59 145t152 74v451q-106 96 -106 240q0 153 126 256.5t331 103.5q97 0 186 -29h344v-57h-225q151 -106 151 -274q0 -154 -125.5 -257.5t-330.5 -103.5q-166 0 -293 78v-229l446 2q165 0 269 -76t104 -203q0 -156 -170.5 -256
t-425.5 -100zM596 403q56 0 91.5 76.5t35.5 196.5q0 145 -45 241.5t-119 96.5q-57 0 -93 -75t-36 -194q0 -148 46 -245t120 -97zM795 1534q-50 -62 -54 -182t43 -189l-288 -18q-14 79 0 144t54.5 113.5t96 84t131.5 63.5zM248 -111q0 -127 103.5 -197.5t254.5 -70.5
q136 0 222.5 56.5t86.5 150.5q0 153 -223 156h-413q-31 -52 -31 -95z" />
    <glyph glyph-name="gdotaccent.ss03" horiz-adv-x="1136" 
d="M508 -434q-225 0 -358.5 65t-133.5 170q0 86 59 145t152 74v451q-106 96 -106 240q0 153 126 256.5t331 103.5q97 0 186 -29h344v-57h-225q151 -106 151 -274q0 -154 -125.5 -257.5t-330.5 -103.5q-166 0 -293 78v-229l446 2q165 0 269 -76t104 -203q0 -156 -170.5 -256
t-425.5 -100zM596 403q56 0 91.5 76.5t35.5 196.5q0 145 -45 241.5t-119 96.5q-57 0 -93 -75t-36 -194q0 -148 46 -245t120 -97zM584 1184q-83 0 -138 53t-55 131q0 77 55 128.5t138 51.5t137.5 -51.5t54.5 -128.5q0 -78 -54.5 -131t-137.5 -53zM248 -111
q0 -127 103.5 -197.5t254.5 -70.5q136 0 222.5 56.5t86.5 150.5q0 153 -223 156h-413q-31 -52 -31 -95z" />
    <glyph glyph-name="g.ss04" horiz-adv-x="1216" 
d="M1098 -260q0 -63 -40 -103t-104 -40h-774v57h615v528q-35 -93 -113.5 -153t-175.5 -60q-137 0 -238 72.5t-149.5 188t-48.5 255.5q0 135 38.5 247t105.5 186t158.5 114.5t196.5 40.5q173 0 281 -117l219 117h29v-1333zM387 561q0 -84 13.5 -158.5t41 -136t74 -97.5
t107.5 -36q57 0 106 35t66 86v465q0 268 -195 268q-91 0 -152 -122.5t-61 -303.5z" />
    <glyph glyph-name="gbreve.ss04" horiz-adv-x="1216" 
d="M1098 -260q0 -63 -40 -103t-104 -40h-774v57h615v528q-35 -93 -113.5 -153t-175.5 -60q-137 0 -238 72.5t-149.5 188t-48.5 255.5q0 135 38.5 247t105.5 186t158.5 114.5t196.5 40.5q173 0 281 -117l219 117h29v-1333zM604 1165q-136 0 -210.5 90.5t-71.5 274.5h26
q24 -170 256 -170q234 0 258 170h27q3 -184 -72 -274.5t-213 -90.5zM387 561q0 -84 13.5 -158.5t41 -136t74 -97.5t107.5 -36q57 0 106 35t66 86v465q0 268 -195 268q-91 0 -152 -122.5t-61 -303.5z" />
    <glyph glyph-name="gcircumflex.ss04" horiz-adv-x="1216" 
d="M1098 -260q0 -63 -40 -103t-104 -40h-774v57h615v528q-35 -93 -113.5 -153t-175.5 -60q-137 0 -238 72.5t-149.5 188t-48.5 255.5q0 135 38.5 247t105.5 186t158.5 114.5t196.5 40.5q173 0 281 -117l219 117h29v-1333zM475 1524h244l207 -357h-29l-299 222l-291 -222h-28
zM387 561q0 -84 13.5 -158.5t41 -136t74 -97.5t107.5 -36q57 0 106 35t66 86v465q0 268 -195 268q-91 0 -152 -122.5t-61 -303.5z" />
    <glyph glyph-name="uni0123.ss04" horiz-adv-x="1216" 
d="M1098 -260q0 -63 -40 -103t-104 -40h-774v57h615v528q-35 -93 -113.5 -153t-175.5 -60q-137 0 -238 72.5t-149.5 188t-48.5 255.5q0 135 38.5 247t105.5 186t158.5 114.5t196.5 40.5q173 0 281 -117l219 117h29v-1333zM815 1534q-50 -62 -53.5 -182t43.5 -189l-289 -18
q-14 79 0 144t55 113.5t96.5 84t131.5 63.5zM387 561q0 -84 13.5 -158.5t41 -136t74 -97.5t107.5 -36q57 0 106 35t66 86v465q0 268 -195 268q-91 0 -152 -122.5t-61 -303.5z" />
    <glyph glyph-name="gdotaccent.ss04" horiz-adv-x="1216" 
d="M1098 -260q0 -63 -40 -103t-104 -40h-774v57h615v528q-35 -93 -113.5 -153t-175.5 -60q-137 0 -238 72.5t-149.5 188t-48.5 255.5q0 135 38.5 247t105.5 186t158.5 114.5t196.5 40.5q173 0 281 -117l219 117h29v-1333zM604 1184q-83 0 -137.5 53t-54.5 131
q0 77 54.5 128.5t137.5 51.5t138 -51.5t55 -128.5q0 -78 -55 -131t-138 -53zM387 561q0 -84 13.5 -158.5t41 -136t74 -97.5t107.5 -36q57 0 106 35t66 86v465q0 268 -195 268q-91 0 -152 -122.5t-61 -303.5z" />
    <glyph glyph-name="k.ss05" horiz-adv-x="1327" 
d="M834 0q-3 60 -46 125l-299 444v-411q0 -61 22.5 -87.5t82.5 -41.5v-29h-514v29q60 15 82 41t22 88v1044q0 98 -112 113l-31 2v29l420 118h28v-872l402 307q68 53 52.5 84t-109.5 31v28h401v-28q-73 0 -129 -31t-178 -129l-183 -141l381 -572q37 -51 55 -66
q45 -38 128 -46v-29h-475z" />
    <glyph glyph-name="kgreenlandic.ss05" horiz-adv-x="1363" 
d="M874 0q-3 61 -45 125l-297 440v-73h-2v-336q0 -59 23 -85t84 -44v-27h-516v27q61 18 83.5 43.5t22.5 85.5v655q0 98 -112 113l-31 2v28l420 119h28v-479l400 305q67 53 51.5 84t-109.5 31v28h402v-28q-73 0 -129 -31t-178 -129l-183 -141l381 -572q37 -51 55 -66
q45 -38 128 -46v-29h-476z" />
    <glyph glyph-name="r.ss06" horiz-adv-x="864" 
d="M485 158q0 -63 31.5 -88.5t130.5 -40.5v-29h-571v29q61 16 83.5 42t22.5 87v741q0 63 40.5 103t103.5 40h524v-57h-365v-827z" />
    <glyph glyph-name="racute.ss06" horiz-adv-x="864" 
d="M485 158q0 -63 31.5 -88.5t130.5 -40.5v-29h-571v29q61 16 83.5 42t22.5 87v741q0 63 40.5 103t103.5 40h524v-57h-365v-827zM451 1174l135 356h307l-414 -356h-28z" />
    <glyph glyph-name="rcaron.ss06" horiz-adv-x="864" 
d="M485 158q0 -63 31.5 -88.5t130.5 -40.5v-29h-571v29q61 16 83.5 42t22.5 87v741q0 63 40.5 103t103.5 40h524v-57h-365v-827zM397 1174l-196 356h28l291 -221l299 221h29l-207 -356h-244z" />
    <glyph glyph-name="uni0157.ss06" horiz-adv-x="864" 
d="M485 158q0 -63 31.5 -88.5t130.5 -40.5v-29h-571v29q61 16 83.5 42t22.5 87v741q0 63 40.5 103t103.5 40h524v-57h-365v-827zM184 -463q50 62 54 182t-43 189l288 18q14 -79 0 -144t-54.5 -113.5t-96 -84t-131.5 -63.5z" />
    <glyph glyph-name="t.ss07" horiz-adv-x="712" 
d="M305 0q-64 0 -103.5 40t-39.5 103v842h-113v29l387 313h29v-285h227v-57h-227v-928h227v-57h-387z" />
    <glyph glyph-name="tbar.ss07" horiz-adv-x="712" 
d="M315 0q-64 0 -103.5 40t-39.5 103v441h-137v57h137v344h-113v29l387 313h29v-285h227v-57h-227v-344h238v-57h-238v-527h227v-57h-387z" />
    <glyph glyph-name="tcaron.ss07" horiz-adv-x="712" 
d="M305 0q-64 0 -103.5 40t-39.5 103v842h-113v29l387 313h29v-285h227v-57h-227v-928h227v-57h-387zM627 1155l59 412h250l-281 -412h-28z" />
    <glyph glyph-name="uni0163.ss07" horiz-adv-x="712" 
d="M305 0q-64 0 -103.5 40t-39.5 103v842h-113v29l387 313h29v-285h227v-57h-227v-928h227v-57h-237l-37 -106q30 -2 58 -12t55.5 -28.5t44 -51.5t16.5 -76q0 -68 -50 -112t-131.5 -55t-185.5 3v28q93 -3 142 24t51 79q0 44 -30.5 68.5t-86.5 39.5l109 199h-105z" />
    <glyph glyph-name="uni021B.ss07" horiz-adv-x="712" 
d="M305 0q-64 0 -103.5 40t-39.5 103v842h-113v29l387 313h29v-285h227v-57h-227v-928h227v-57h-387zM279 -463q50 62 53.5 182t-43.5 189l289 18q14 -79 0 -144t-55 -113.5t-96.5 -84t-131.5 -63.5z" />
    <glyph glyph-name="y.ss08" horiz-adv-x="1138" 
d="M49 -330q173 103 305.5 201t175.5 164l29 45l-428 821q-31 61 -61 85.5t-78 27.5v28h592v-28q-77 -3 -107 -33.5t-4 -79.5l248 -489l235 489q28 53 5.5 81.5t-93.5 31.5v28h299v-28q-54 -6 -83.5 -30t-59.5 -83l-653 -1333l-322 74v28z" />
    <glyph glyph-name="yacute.ss08" horiz-adv-x="1138" 
d="M49 -330q173 103 305.5 201t175.5 164l29 45l-428 821q-31 61 -61 85.5t-78 27.5v28h592v-28q-77 -3 -107 -33.5t-4 -79.5l248 -489l235 489q28 53 5.5 81.5t-93.5 31.5v28h299v-28q-54 -6 -83.5 -30t-59.5 -83l-653 -1333l-322 74v28zM633 1174l135 356h307l-413 -356
h-29z" />
    <glyph glyph-name="ycircumflex.ss08" horiz-adv-x="1138" 
d="M49 -330q173 103 305.5 201t175.5 164l29 45l-428 821q-31 61 -61 85.5t-78 27.5v28h592v-28q-77 -3 -107 -33.5t-4 -79.5l248 -489l235 489q28 53 5.5 81.5t-93.5 31.5v28h299v-28q-54 -6 -83.5 -30t-59.5 -83l-653 -1333l-322 74v28zM578 1524h243l207 -357h-29
l-299 222l-290 -222h-29z" />
    <glyph glyph-name="ydieresis.ss08" horiz-adv-x="1138" 
d="M49 -330q173 103 305.5 201t175.5 164l29 45l-428 821q-31 61 -61 85.5t-78 27.5v28h592v-28q-77 -3 -107 -33.5t-4 -79.5l248 -489l235 489q28 53 5.5 81.5t-93.5 31.5v28h299v-28q-54 -6 -83.5 -30t-59.5 -83l-653 -1333l-322 74v28zM494 1186q-76 0 -126.5 49
t-50.5 121q0 69 50.5 116.5t126.5 47.5q75 0 125.5 -47.5t50.5 -116.5q0 -72 -50.5 -121t-125.5 -49zM938 1186q-75 0 -125.5 49t-50.5 121q0 69 50.5 116.5t125.5 47.5t125.5 -47.5t50.5 -116.5q0 -72 -50.5 -121t-125.5 -49z" />
    <glyph glyph-name="ygrave.ss08" horiz-adv-x="1138" 
d="M49 -330q173 103 305.5 201t175.5 164l29 45l-428 821q-31 61 -61 85.5t-78 27.5v28h592v-28q-77 -3 -107 -33.5t-4 -79.5l248 -489l235 489q28 53 5.5 81.5t-93.5 31.5v28h299v-28q-54 -6 -83.5 -30t-59.5 -83l-653 -1333l-322 74v28zM750 1174h-29l-414 356h307z" />
    <glyph glyph-name="y.ss09" horiz-adv-x="1236" 
d="M584 -434q-185 0 -303.5 60t-165.5 143l260 127q29 -122 95.5 -199.5t150.5 -77.5q90 0 142 75t52 220v281q-86 -106 -168 -165t-182 -59q-150 0 -226.5 90.5t-76.5 251.5v498q0 98 -113 113l-31 2v28l420 119h29v-741q0 -79 38.5 -124.5t106.5 -45.5q58 0 105 21.5
t98 72.5v555q0 98 -113 113l-30 2v28l420 119h28v-1050q0 -209 -136.5 -333t-399.5 -124z" />
    <glyph glyph-name="yacute.ss09" horiz-adv-x="1236" 
d="M584 -434q-185 0 -303.5 60t-165.5 143l260 127q29 -122 95.5 -199.5t150.5 -77.5q90 0 142 75t52 220v281q-86 -106 -168 -165t-182 -59q-150 0 -226.5 90.5t-76.5 251.5v498q0 98 -113 113l-31 2v28l420 119h29v-741q0 -79 38.5 -124.5t106.5 -45.5q58 0 105 21.5
t98 72.5v555q0 98 -113 113l-30 2v28l420 119h28v-1050q0 -209 -136.5 -333t-399.5 -124zM578 1174l135 356h307l-414 -356h-28z" />
    <glyph glyph-name="ycircumflex.ss09" horiz-adv-x="1236" 
d="M584 -434q-185 0 -303.5 60t-165.5 143l260 127q29 -122 95.5 -199.5t150.5 -77.5q90 0 142 75t52 220v281q-86 -106 -168 -165t-182 -59q-150 0 -226.5 90.5t-76.5 251.5v498q0 98 -113 113l-31 2v28l420 119h29v-741q0 -79 38.5 -124.5t106.5 -45.5q58 0 105 21.5
t98 72.5v555q0 98 -113 113l-30 2v28l420 119h28v-1050q0 -209 -136.5 -333t-399.5 -124zM520 1524h244l207 -357h-29l-299 222l-291 -222h-28z" />
    <glyph glyph-name="ydieresis.ss09" horiz-adv-x="1236" 
d="M584 -434q-185 0 -303.5 60t-165.5 143l260 127q29 -122 95.5 -199.5t150.5 -77.5q90 0 142 75t52 220v281q-86 -106 -168 -165t-182 -59q-150 0 -226.5 90.5t-76.5 251.5v498q0 98 -113 113l-31 2v28l420 119h29v-741q0 -79 38.5 -124.5t106.5 -45.5q58 0 105 21.5
t98 72.5v555q0 98 -113 113l-30 2v28l420 119h28v-1050q0 -209 -136.5 -333t-399.5 -124zM436 1186q-76 0 -126 49t-50 121q0 70 50 117t126 47q75 0 125.5 -47.5t50.5 -116.5q0 -72 -50.5 -121t-125.5 -49zM881 1186q-75 0 -125.5 49t-50.5 121q0 69 50.5 116.5t125.5 47.5
t125.5 -47.5t50.5 -116.5q0 -72 -50.5 -121t-125.5 -49z" />
    <glyph glyph-name="ygrave.ss09" horiz-adv-x="1236" 
d="M584 -434q-185 0 -303.5 60t-165.5 143l260 127q29 -122 95.5 -199.5t150.5 -77.5q90 0 142 75t52 220v281q-86 -106 -168 -165t-182 -59q-150 0 -226.5 90.5t-76.5 251.5v498q0 98 -113 113l-31 2v28l420 119h29v-741q0 -79 38.5 -124.5t106.5 -45.5q58 0 105 21.5
t98 72.5v555q0 98 -113 113l-30 2v28l420 119h28v-1050q0 -209 -136.5 -333t-399.5 -124zM694 1174h-28l-414 356h307z" />
    <glyph glyph-name="y.ss10" horiz-adv-x="1236" 
d="M201 -406v58h614v545q-84 -109 -167 -167.5t-183 -58.5q-150 0 -226.5 90.5t-76.5 251.5v498q0 98 -113 113l-31 2v28l420 119h29v-741q0 -79 38.5 -124.5t106.5 -45.5q57 0 104 22.5t99 75.5v551q0 98 -113 113l-30 2v28l420 119h28v-1335q0 -63 -40 -103.5t-103 -40.5
h-776z" />
    <glyph glyph-name="yacute.ss10" horiz-adv-x="1236" 
d="M201 -406v58h614v545q-84 -109 -167 -167.5t-183 -58.5q-150 0 -226.5 90.5t-76.5 251.5v498q0 98 -113 113l-31 2v28l420 119h29v-741q0 -79 38.5 -124.5t106.5 -45.5q57 0 104 22.5t99 75.5v551q0 98 -113 113l-30 2v28l420 119h28v-1335q0 -63 -40 -103.5t-103 -40.5
h-776zM590 1174l135 356h307l-414 -356h-28z" />
    <glyph glyph-name="ycircumflex.ss10" horiz-adv-x="1236" 
d="M201 -406v58h614v545q-84 -109 -167 -167.5t-183 -58.5q-150 0 -226.5 90.5t-76.5 251.5v498q0 98 -113 113l-31 2v28l420 119h29v-741q0 -79 38.5 -124.5t106.5 -45.5q57 0 104 22.5t99 75.5v551q0 98 -113 113l-30 2v28l420 119h28v-1335q0 -63 -40 -103.5t-103 -40.5
h-776zM532 1524h244l207 -357h-29l-299 222l-290 -222h-29z" />
    </font>
</defs>
</svg>
