<?xml version="1.0" standalone="no"?>
<!DOCTYPE svg PUBLIC "-//W3C//DTD SVG 1.1//EN" "http://www.w3.org/Graphics/SVG/1.1/DTD/svg11.dtd" >
<svg xmlns="http://www.w3.org/2000/svg" xmlns:xlink="http://www.w3.org/1999/xlink" version="1.1">
<metadata>
Created by FontForge 20201107 at Sat Jul 17 11:40:16 2021
 By 
Copyright 2017-2021 Indian Type Foundry. All rights reserved.
</metadata>
<defs>
<font id="GeneralSans-MediumItalic" horiz-adv-x="660" >
  <font-face 
    font-family="General Sans Medium Italic"
    font-weight="500"
    font-style="italic"
    font-stretch="normal"
    units-per-em="1000"
    panose-1="0 0 0 0 0 0 0 0 0 0"
    ascent="800"
    descent="-200"
    x-height="530"
    cap-height="718"
    bbox="-183 -226.96 1681 993"
    underline-thickness="50"
    underline-position="-105"
    slope="-10"
    unicode-range="U+000D-FB02"
  />
<missing-glyph horiz-adv-x="740" 
 />
    <glyph glyph-name="fi" unicode="fi" horiz-adv-x="594" 
d="M161 0h-97l78 446h-111l15 84h111l7 40q15 78 56 117.5t117 39.5q41 0 72 -13l-14 -80q-19 9 -52 9q-70 0 -82 -75l-6 -38h142l-15 -84h-143zM615 665q0 -32 -24.5 -55t-58.5 -23q-27 0 -43.5 15.5t-16.5 38.5q0 31 24.5 54.5t57.5 23.5q27 0 44 -15t17 -39zM477 0h-97
l94 530h97z" />
    <glyph glyph-name="fl" unicode="fl" horiz-adv-x="594" 
d="M161 0h-97l78 446h-111l15 84h111l7 40q15 78 56 117.5t117 39.5q41 0 72 -13l-14 -80q-19 9 -52 9q-70 0 -82 -75l-6 -38h142l-15 -84h-143zM477 0h-97l127 718h97z" />
    <glyph glyph-name=".notdef" horiz-adv-x="740" 
 />
    <glyph glyph-name=".null" horiz-adv-x="0" 
 />
    <glyph glyph-name=".null" horiz-adv-x="0" 
 />
    <glyph glyph-name="nonmarkingreturn" horiz-adv-x="333" 
 />
    <glyph glyph-name="CR" unicode="&#xd;" horiz-adv-x="280" 
 />
    <glyph glyph-name="space" unicode=" " horiz-adv-x="199" 
 />
    <glyph glyph-name="exclam" unicode="!" horiz-adv-x="262" 
d="M155 195h-74l70 523h120zM174 84q0 -36 -27 -62.5t-63 -26.5q-28 0 -46 17t-18 44q0 36 27 62.5t63 26.5q29 0 46.5 -17t17.5 -44z" />
    <glyph glyph-name="quotedbl" unicode="&#x22;" horiz-adv-x="409" 
d="M205 498h-76l32 220h90zM361 498h-76l33 220h89z" />
    <glyph glyph-name="numbersign" unicode="#" horiz-adv-x="638" 
d="M143 0h-82l84 198h-91l12 73h105l56 129h-99l12 75h114l85 201h81l-84 -201h101l85 201h82l-85 -201h92l-13 -75h-107l-55 -129h100l-12 -73h-115l-83 -198h-82l83 198h-100zM309 400l-56 -129h102l55 129h-101z" />
    <glyph glyph-name="dollar" unicode="$" horiz-adv-x="596" 
d="M297 -89h-66l15 85q-103 11 -158.5 66t-55.5 147h100q1 -63 42 -97.5t117 -34.5q62 0 100 30t38 79q0 40 -21.5 62t-75.5 37l-85 23q-75 21 -114 67t-39 111q0 86 58.5 139t159.5 59l14 83h67l-14 -86q86 -12 136 -68t50 -142h-100q0 60 -36.5 95.5t-97.5 35.5
q-65 0 -100 -28t-35 -80q0 -75 95 -101l90 -24q151 -42 151 -170q0 -87 -59.5 -142t-160.5 -62z" />
    <glyph glyph-name="percent" unicode="%" horiz-adv-x="1031" 
d="M237 262q-77 0 -125.5 48.5t-48.5 124.5q0 102 69.5 174.5t167.5 72.5q77 0 125.5 -48t48.5 -125q0 -102 -69.5 -174.5t-167.5 -72.5zM332 0h-86l480 676h85zM244 333q61 0 104.5 50.5t43.5 120.5q0 49 -27 78t-72 29q-61 0 -104.5 -50.5t-43.5 -120.5q0 -49 27 -78
t72 -29zM756 -8q-77 0 -125.5 48t-48.5 124q0 102 70 175t167 73q77 0 125.5 -48.5t48.5 -125.5q0 -102 -69.5 -174t-167.5 -72zM763 63q61 0 104.5 50t43.5 120q0 49 -27 78t-72 29q-61 0 -104.5 -50t-43.5 -120q0 -49 27 -78t72 -29z" />
    <glyph glyph-name="ampersand" unicode="&#x26;" horiz-adv-x="622" 
d="M299 382l128 -183q28 55 42 132h96q-26 -117 -88 -204l88 -127h-113l-40 57q-83 -67 -187 -67q-92 0 -147.5 48.5t-55.5 129.5q0 70 42 129t120 96q-25 55 -25 103q0 86 55 138t145 52q78 0 127 -48.5t50 -125.5h-94q0 43 -23 68.5t-62 25.5q-45 0 -71 -29t-26 -80
q0 -56 39 -115zM119 184q0 -53 32.5 -83t89.5 -30q73 0 127 49l-144 208q-50 -22 -77.5 -60t-27.5 -84z" />
    <glyph glyph-name="quotesingle" unicode="'" horiz-adv-x="253" 
d="M205 498h-76l32 220h90z" />
    <glyph glyph-name="parenleft" unicode="(" horiz-adv-x="301" 
d="M206 -193h-95q-57 124 -57 289q0 163 56 331.5t154 290.5h102q-97 -120 -155.5 -293.5t-58.5 -338.5q0 -162 54 -279z" />
    <glyph glyph-name="parenright" unicode=")" horiz-adv-x="301" 
d="M38 -193h-104q96 119 155 292.5t59 339.5q0 161 -53 279h96q56 -126 56 -289t-56 -332t-153 -290z" />
    <glyph glyph-name="asterisk" unicode="*" horiz-adv-x="481" 
d="M275 456l-115 -129l-58 45l126 130l-142 44l31 63l139 -47l25 156h77l-32 -156l157 49l10 -70l-160 -45l81 -125l-59 -44z" />
    <glyph glyph-name="plus" unicode="+" horiz-adv-x="659" 
d="M343 91h-89l36 204h-194l15 85h194l36 204h89l-35 -204h194l-15 -85h-194z" />
    <glyph glyph-name="comma" unicode="," horiz-adv-x="254" 
d="M164 69q0 -87 -59 -140.5t-142 -55.5l11 57q46 2 78.5 25t38.5 60q-9 -4 -22 -4q-24 0 -39.5 15.5t-15.5 38.5q0 34 24.5 58.5t58.5 24.5q67 0 67 -79z" />
    <glyph glyph-name="hyphen" unicode="-" horiz-adv-x="348" 
d="M318 231h-299l15 89h299z" />
    <glyph glyph-name="period" unicode="." horiz-adv-x="254" 
d="M168 88q0 -38 -26 -65.5t-62 -27.5q-28 0 -45.5 17t-17.5 44q0 38 26.5 65.5t63.5 27.5q27 0 44 -17t17 -44z" />
    <glyph glyph-name="slash" unicode="/" horiz-adv-x="470" 
d="M0 -193h-105l574 911h105z" />
    <glyph glyph-name="zero" unicode="0" horiz-adv-x="584" 
d="M54 228q0 200 85 329t218 129q91 0 144.5 -65.5t53.5 -175.5q0 -200 -85 -327.5t-219 -127.5q-91 0 -144 64t-53 174zM155 233q0 -73 28 -114t78 -41q82 0 137.5 105.5t55.5 258.5q0 74 -28 115t-78 41q-81 0 -137 -106.5t-56 -258.5z" />
    <glyph glyph-name="one" unicode="1" horiz-adv-x="321" 
d="M195 0h-98l104 591h-125l15 85h223z" />
    <glyph glyph-name="two" unicode="2" horiz-adv-x="515" 
d="M440 88l-16 -88h-420l10 57l242 226q75 70 110 120.5t35 99.5q0 42 -27 68.5t-72 26.5q-53 0 -89 -33t-46 -94h-96q18 101 81 158t160 57q86 0 139.5 -47.5t53.5 -119.5q0 -74 -43.5 -136t-141.5 -151l-148 -144h268z" />
    <glyph glyph-name="three" unicode="3" horiz-adv-x="561" 
d="M258 -9q-101 0 -163 55t-62 146h94q0 -55 37.5 -88.5t97.5 -33.5t97 35t37 94q0 49 -34.5 79t-91.5 30h-69l14 79h62q62 0 103 35.5t41 90.5q0 40 -28.5 67t-72.5 27q-53 0 -87.5 -30.5t-42.5 -85.5h-95q16 93 77 144t157 51q85 0 139.5 -45t54.5 -115q0 -61 -36 -106.5
t-100 -67.5q53 -17 82 -56.5t29 -92.5q0 -94 -67.5 -153t-172.5 -59z" />
    <glyph glyph-name="four" unicode="4" horiz-adv-x="556" 
d="M501 149h-89l-26 -149h-93l26 149h-317l13 71l415 456h75l-78 -442h88zM129 234h206l52 290z" />
    <glyph glyph-name="five" unicode="5" horiz-adv-x="538" 
d="M246 -9q-98 0 -158 56.5t-60 148.5h97q1 -52 35.5 -84.5t90.5 -32.5q62 0 102.5 42.5t40.5 107.5q0 54 -32 87t-84 33q-80 0 -137 -75l-75 25l123 377h347l-15 -88h-275l-64 -197q58 43 126 43q83 0 135.5 -53.5t52.5 -138.5q0 -110 -70 -180.5t-180 -70.5z" />
    <glyph glyph-name="six" unicode="6" horiz-adv-x="539" 
d="M226 -9q-89 0 -146.5 54t-57.5 137q0 64 28.5 121.5t92.5 124.5l236 248h117l-244 -252q24 14 56 14q85 0 139.5 -51.5t54.5 -131.5q0 -110 -80.5 -187t-195.5 -77zM238 74q68 0 115.5 50.5t47.5 123.5q0 51 -31 82t-83 31q-69 0 -117 -50.5t-48 -123.5q0 -52 31.5 -82.5
t84.5 -30.5z" />
    <glyph glyph-name="seven" unicode="7" horiz-adv-x="481" 
d="M520 618l-355 -618h-110l345 587h-324l15 89h438z" />
    <glyph glyph-name="eight" unicode="8" horiz-adv-x="575" 
d="M514 215q0 -98 -72 -161t-185 -63q-98 0 -161 47.5t-63 122.5q0 67 42 118.5t113 73.5q-33 15 -54 49t-21 73q0 89 68.5 150t168.5 61q85 0 139.5 -44.5t54.5 -115.5q0 -58 -34 -104.5t-93 -71.5q45 -17 71 -53t26 -82zM214 480q0 -41 26.5 -66t69.5 -25q58 0 96 36
t38 91q0 41 -28 66t-73 25q-56 0 -92.5 -36t-36.5 -91zM135 172q0 -46 34.5 -74t90.5 -28q67 0 110 39.5t43 99.5q0 45 -32.5 73t-84.5 28q-70 0 -115.5 -39t-45.5 -99z" />
    <glyph glyph-name="nine" unicode="9" horiz-adv-x="540" 
d="M339 685q89 0 147 -54t58 -137q0 -64 -28.5 -121.5t-92.5 -124.5l-237 -248h-116l244 252q-25 -14 -57 -14q-85 0 -139 51.5t-54 131.5q0 110 80 187t195 77zM327 602q-68 0 -115 -50.5t-47 -123.5q0 -51 31 -82t82 -31q69 0 117 50.5t48 123.5q0 52 -31.5 82.5
t-84.5 30.5z" />
    <glyph glyph-name="colon" unicode=":" horiz-adv-x="254" 
d="M236 471q0 -38 -25.5 -65t-61.5 -27q-29 0 -46 17t-17 44q0 38 26.5 65t63.5 27q28 0 44 -16.5t16 -44.5zM168 88q0 -38 -26 -65.5t-62 -27.5q-28 0 -45.5 17t-17.5 44q0 38 26.5 65.5t63.5 27.5q27 0 44 -17t17 -44z" />
    <glyph glyph-name="semicolon" unicode=";" horiz-adv-x="254" 
d="M231 471q0 -38 -25.5 -65t-61.5 -27q-29 0 -46 17t-17 44q0 37 26.5 64.5t62.5 27.5q28 0 44.5 -16.5t16.5 -44.5zM164 69q0 -87 -59 -140.5t-142 -55.5l11 57q46 2 78.5 25t38.5 60q-9 -4 -21 -4q-25 0 -40.5 15.5t-15.5 38.5q0 34 24.5 58.5t58.5 24.5q67 0 67 -79z
" />
    <glyph glyph-name="less" unicode="&#x3c;" 
d="M110 374l516 214l-15 -91l-409 -167l350 -166l-15 -82l-440 214z" />
    <glyph glyph-name="equal" unicode="=" 
d="M593 402h-478l15 85h478zM556 189h-479l15 85h479z" />
    <glyph glyph-name="greater" unicode="&#x3e;" 
d="M575 296l-516 -214l16 91l409 168l-350 166l15 81l440 -214z" />
    <glyph glyph-name="question" unicode="?" horiz-adv-x="455" 
d="M161 532h-96q21 91 82.5 143.5t154.5 52.5q84 0 135 -46t51 -117q0 -98 -114 -182l-64 -45q-40 -31 -55.5 -57.5t-22.5 -85.5h-65q-7 76 8 116.5t62 75.5l66 47q42 33 61.5 60t19.5 61q0 37 -25 60.5t-67 23.5q-49 0 -83.5 -28t-47.5 -79zM253 84q0 -36 -26.5 -62.5
t-63.5 -26.5q-29 0 -47 17t-18 44q0 36 27 62.5t64 26.5q29 0 46.5 -17t17.5 -44z" />
    <glyph glyph-name="at" unicode="@" horiz-adv-x="928" 
d="M655 -54l-14 -90q-105 -59 -243 -59q-164 0 -267 104.5t-103 271.5q0 214 146.5 363.5t358.5 149.5q159 0 262.5 -97t103.5 -248q0 -133 -70 -220t-176 -87q-107 0 -119 85q-58 -85 -157 -85q-62 0 -100 42t-38 111q0 107 69.5 188t162.5 81q90 0 112 -83l25 69h88
l-67 -191q-20 -58 -20 -89q0 -52 54 -52q65 0 108 64.5t43 162.5q0 121 -81 196.5t-208 75.5q-172 0 -292 -128t-120 -309q0 -132 81.5 -215t209.5 -83q145 0 251 72zM334 196q0 -40 18.5 -63t51.5 -23q55 0 98.5 57.5t43.5 128.5q0 40 -19 61.5t-54 21.5q-53 0 -96 -56.5
t-43 -126.5z" />
    <glyph glyph-name="A" unicode="A" horiz-adv-x="684" 
d="M510 0l-31 180h-296l-96 -180h-113l391 718h117l135 -718h-107zM406 601l-178 -335h236z" />
    <glyph glyph-name="B" unicode="B" horiz-adv-x="622" 
d="M563 224q0 -103 -75.5 -163.5t-204.5 -60.5h-252l127 718h239q88 0 140.5 -45.5t52.5 -120.5q0 -66 -37.5 -114.5t-102.5 -67.5q52 -14 82.5 -53t30.5 -93zM375 630h-130l-38 -216h131q71 0 109.5 33t38.5 93q0 43 -28.5 66.5t-82.5 23.5zM334 327h-142l-43 -239h142
q76 0 121 37t45 100q0 47 -32.5 74.5t-90.5 27.5z" />
    <glyph glyph-name="C" unicode="C" horiz-adv-x="745" 
d="M351 -15q-132 0 -216.5 88t-84.5 225q0 184 116.5 309.5t287.5 125.5q127 0 205.5 -82t78.5 -215h-105q-2 93 -53 147.5t-137 54.5q-122 0 -203 -96.5t-81 -241.5q0 -98 56 -159t147 -61q87 0 149.5 51.5t94.5 150.5h106q-42 -143 -135.5 -220t-225.5 -77z" />
    <glyph glyph-name="D" unicode="D" horiz-adv-x="685" 
d="M264 0h-233l127 718h218q130 0 211 -84t81 -218q0 -181 -114 -298.5t-290 -117.5zM248 624l-95 -530h123q124 0 203 89t79 229q0 98 -53.5 155t-145.5 57h-111z" />
    <glyph glyph-name="E" unicode="E" horiz-adv-x="566" 
d="M484 93l-16 -93h-437l127 718h430l-16 -93h-324l-37 -209h295l-16 -92h-295l-42 -231h331z" />
    <glyph glyph-name="F" unicode="F" horiz-adv-x="527" 
d="M138 0h-107l127 718h419l-17 -93h-312l-42 -239h266l-17 -92h-266z" />
    <glyph glyph-name="G" unicode="G" horiz-adv-x="769" 
d="M362 -15q-138 0 -225 87t-87 226q0 184 120 309.5t295 125.5q126 0 206.5 -72t86.5 -190h-109q-4 77 -55.5 122t-136.5 45q-127 0 -212.5 -97t-85.5 -242q0 -100 59 -162t154 -62q93 0 161 56.5t91 153.5h-238l15 86h351q-27 -180 -130.5 -283t-259.5 -103z" />
    <glyph glyph-name="H" unicode="H" horiz-adv-x="717" 
d="M138 0h-107l127 718h107l-54 -301h348l53 301h107l-127 -718h-107l58 323h-348z" />
    <glyph glyph-name="I" unicode="I" horiz-adv-x="263" 
d="M138 0h-107l127 718h107z" />
    <glyph glyph-name="J" unicode="J" horiz-adv-x="577" 
d="M583 718l-83 -471q-24 -133 -87.5 -197.5t-171.5 -64.5q-107 0 -169 65.5t-63 179.5h105q1 -70 36 -109.5t95 -39.5q120 0 148 160l83 477h107z" />
    <glyph glyph-name="K" unicode="K" horiz-adv-x="619" 
d="M137 0h-106l127 718h106l-59 -333l344 333h128l-373 -364l244 -354h-122l-230 334z" />
    <glyph glyph-name="L" unicode="L" horiz-adv-x="526" 
d="M449 0h-418l127 718h107l-111 -621h312z" />
    <glyph glyph-name="M" unicode="M" horiz-adv-x="877" 
d="M346 0l-119 553l-98 -553h-98l127 718h128l126 -587l334 587h133l-127 -718h-98l99 554l-317 -554h-90z" />
    <glyph glyph-name="N" unicode="N" horiz-adv-x="724" 
d="M491 0l-260 566l-100 -566h-100l127 718h116l254 -552l98 552h100l-127 -718h-108z" />
    <glyph glyph-name="O" unicode="O" horiz-adv-x="778" 
d="M351 -15q-132 0 -216.5 88t-84.5 225q0 184 118.5 309.5t292.5 125.5q131 0 216 -87.5t85 -223.5q0 -184 -119 -310.5t-292 -126.5zM362 80q123 0 206.5 98t83.5 242q0 98 -55.5 158t-146.5 60q-124 0 -207.5 -97t-83.5 -242q0 -98 56 -158.5t147 -60.5z" />
    <glyph glyph-name="P" unicode="P" horiz-adv-x="607" 
d="M315 251h-134l-43 -251h-107l127 718h237q99 0 159.5 -55t60.5 -144q0 -120 -82.5 -194t-217.5 -74zM377 625h-129l-50 -281h132q81 0 129 45t48 119q0 54 -35 85.5t-95 31.5z" />
    <glyph glyph-name="Q" unicode="Q" horiz-adv-x="778" 
d="M351 -15q-131 0 -216 88t-85 225q0 184 118.5 309.5t292.5 125.5q131 0 216 -87.5t85 -223.5q0 -130 -62 -235t-166 -158l99 -211h-108l-83 177q-48 -10 -91 -10zM362 80q123 0 206.5 98t83.5 242q0 98 -55.5 158t-146.5 60q-124 0 -207.5 -97.5t-83.5 -241.5
q0 -98 56 -158.5t147 -60.5z" />
    <glyph glyph-name="R" unicode="R" horiz-adv-x="640" 
d="M138 0h-107l127 718h254q99 0 160.5 -53.5t61.5 -139.5q0 -93 -56 -156.5t-156 -84.5l143 -284h-118l-134 271h-128zM248 628l-47 -267h144q85 0 133 41t48 112q0 53 -36 83.5t-100 30.5h-142z" />
    <glyph glyph-name="S" unicode="S" horiz-adv-x="629" 
d="M567 209q0 -100 -72 -159.5t-191 -59.5q-125 0 -196.5 63.5t-72.5 174.5h105q1 -70 47 -110.5t122 -40.5q68 0 109 32t41 85q0 43 -23.5 67t-81.5 40l-91 26q-164 46 -164 187q0 97 70.5 155.5t188.5 58.5q109 0 176 -64.5t68 -169.5h-105q0 65 -40 106.5t-104 41.5
q-69 0 -108 -31.5t-39 -87.5q0 -80 105 -109l94 -27q162 -45 162 -178z" />
    <glyph glyph-name="T" unicode="T" horiz-adv-x="583" 
d="M298 0h-106l109 621h-224l16 97h555l-16 -97h-225z" />
    <glyph glyph-name="U" unicode="U" horiz-adv-x="685" 
d="M689 718l-81 -461q-23 -134 -99 -203t-200 -69q-122 0 -189 75.5t-45 196.5l81 461h107l-83 -464q-15 -81 23.5 -127t110.5 -46q157 0 187 173l82 464h106z" />
    <glyph glyph-name="V" unicode="V" horiz-adv-x="654" 
d="M718 718l-381 -718h-117l-125 718h106l97 -593l305 593h115z" />
    <glyph glyph-name="W" unicode="W" horiz-adv-x="910" 
d="M554 0l-45 566l-246 -566h-111l-52 718h105l34 -556l242 556h104l42 -557l232 557h110l-306 -718h-109z" />
    <glyph glyph-name="X" unicode="X" horiz-adv-x="633" 
d="M106 0h-124l279 372l-144 346h112l117 -284l208 284h126l-274 -357l153 -361h-112l-126 299z" />
    <glyph glyph-name="Y" unicode="Y" horiz-adv-x="634" 
d="M370 269l-48 -269h-107l48 269l-168 449h107l126 -349l251 349h119z" />
    <glyph glyph-name="Z" unicode="Z" horiz-adv-x="599" 
d="M515 0h-523l15 82l465 543h-362l17 93h502l-15 -83l-464 -542h381z" />
    <glyph glyph-name="bracketleft" unicode="[" horiz-adv-x="307" 
d="M198 -193h-195l161 911h195l-15 -85h-96l-131 -741h97z" />
    <glyph glyph-name="backslash" unicode="\" horiz-adv-x="470" 
d="M414 -193h-93l-266 911h93z" />
    <glyph glyph-name="bracketright" unicode="]" horiz-adv-x="307" 
d="M143 -193h-196l15 85h96l131 741h-96l15 85h196z" />
    <glyph glyph-name="asciicircum" unicode="^" horiz-adv-x="642" 
d="M479 274l-98 306l-204 -306h-103l272 402h94l132 -402h-93z" />
    <glyph glyph-name="underscore" unicode="_" horiz-adv-x="480" 
d="M399 -193h-479l15 85h479z" />
    <glyph glyph-name="grave" unicode="`" horiz-adv-x="500" 
d="M407 583h-92l-81 142h101z" />
    <glyph glyph-name="a" unicode="a" horiz-adv-x="524" 
d="M331 0l15 83q-63 -93 -173 -93q-71 0 -113.5 37.5t-42.5 101.5q0 83 69 131.5t188 48.5q46 0 99 -6l7 38q10 55 -15.5 88t-77.5 33q-107 0 -131 -120h-89q12 93 72.5 145.5t156.5 52.5q94 0 143 -55.5t33 -144.5l-60 -340h-81zM112 139q0 -37 24 -57.5t67 -20.5
q55 0 98 37.5t54 98.5l7 43q-44 6 -93 6q-74 0 -115.5 -28.5t-41.5 -78.5z" />
    <glyph glyph-name="b" unicode="b" horiz-adv-x="588" 
d="M560 329q0 -143 -78 -241t-192 -98q-57 0 -100.5 30t-57.5 81l-19 -101h-90l127 718h97l-51 -287q31 51 78.5 80t99.5 29q83 0 134.5 -58t51.5 -153zM459 319q0 62 -31.5 98t-85.5 36q-78 0 -129.5 -72.5t-51.5 -169.5q0 -61 32.5 -97.5t86.5 -36.5q76 0 127.5 69.5
t51.5 172.5z" />
    <glyph glyph-name="c" unicode="c" horiz-adv-x="539" 
d="M243 -10q-92 0 -152.5 63.5t-60.5 161.5q0 139 80 232t200 93q92 0 147.5 -60.5t56.5 -162.5h-99q-1 64 -31 100t-82 36q-74 0 -122.5 -66.5t-48.5 -165.5q0 -65 33 -104.5t88 -39.5q107 0 149 138h98q-25 -106 -92.5 -165.5t-163.5 -59.5z" />
    <glyph glyph-name="d" unicode="d" horiz-adv-x="588" 
d="M28 202q0 143 78 240.5t192 97.5q57 0 97 -29.5t55 -81.5l51 289h97l-127 -718h-90l18 101q-32 -52 -80.5 -81.5t-104.5 -29.5q-83 0 -134.5 58.5t-51.5 153.5zM129 212q0 -62 31.5 -98t85.5 -36q78 0 129.5 72.5t51.5 169.5q0 61 -32 97.5t-87 36.5q-77 0 -128 -69.5
t-51 -172.5z" />
    <glyph glyph-name="e" unicode="e" horiz-adv-x="543" 
d="M253 -10q-97 0 -160 62t-63 164q0 139 80.5 231.5t199.5 92.5q113 0 166.5 -84.5t29.5 -214.5h-374q-1 -6 -1 -20q0 -69 34.5 -108.5t95.5 -39.5q95 0 134 107h99q-63 -190 -241 -190zM308 462q-62 0 -105.5 -43t-61.5 -113h277q8 70 -21.5 113t-88.5 43z" />
    <glyph glyph-name="f" unicode="f" horiz-adv-x="357" 
d="M161 0h-97l78 446h-111l15 84h111l7 40q15 78 56 117.5t117 39.5q41 0 72 -13l-14 -80q-19 9 -52 9q-70 0 -82 -75l-6 -38h142l-15 -84h-143z" />
    <glyph glyph-name="g" unicode="g" horiz-adv-x="581" 
d="M215 -203q-95 0 -151 51t-58 142h94q2 -55 33.5 -85t87.5 -30q124 0 149 141l17 98q-29 -48 -76 -75t-100 -27q-82 0 -131.5 56t-49.5 150q0 133 79 227.5t190 94.5q54 0 93.5 -27t58.5 -77l15 94h91l-90 -513q-39 -220 -252 -220zM129 227q0 -61 29.5 -96t82.5 -35
q76 0 127.5 70t51.5 160q0 59 -31 94t-85 35q-73 0 -124 -66.5t-51 -161.5z" />
    <glyph glyph-name="h" unicode="h" horiz-adv-x="560" 
d="M174 300l-54 -300h-97l126 718h90l-48 -277q65 99 170 99q80 0 121.5 -58t25.5 -149l-59 -333h-97l54 309q12 68 -11 106t-75 38q-55 0 -94.5 -42.5t-51.5 -110.5z" />
    <glyph glyph-name="i" unicode="i" horiz-adv-x="237" 
d="M258 665q0 -32 -24.5 -55t-58.5 -23q-27 0 -43.5 15.5t-16.5 38.5q0 32 24.5 55t58.5 23q27 0 43.5 -15.5t16.5 -38.5zM120 0h-97l94 530h97z" />
    <glyph glyph-name="j" unicode="j" horiz-adv-x="233" 
d="M254 665q0 -32 -24.5 -55t-58.5 -23q-27 0 -43.5 15.5t-16.5 38.5q0 32 24.5 55t58.5 23q27 0 43.5 -15t16.5 -39zM210 530l-99 -558q-32 -175 -182 -175q-41 0 -70 10l16 92q21 -10 51 -10q73 0 88 85l98 556h98z" />
    <glyph glyph-name="k" unicode="k" horiz-adv-x="513" 
d="M120 0h-97l127 718h97l-75 -425l257 237h117l-283 -263l202 -267h-114l-187 251z" />
    <glyph glyph-name="l" unicode="l" horiz-adv-x="237" 
d="M120 0h-97l127 718h97z" />
    <glyph glyph-name="m" unicode="m" horiz-adv-x="880" 
d="M120 0h-97l94 530h90l-16 -89q65 99 166 99q59 0 96 -31t46 -86q32 57 80.5 87t101.5 30q81 0 121.5 -57.5t24.5 -149.5l-59 -333h-97l54 309q12 68 -9.5 106t-72.5 38q-53 0 -93 -41.5t-52 -109.5l-53 -302h-98l55 309q11 68 -10.5 106t-72.5 38q-55 0 -94 -42t-51 -111
z" />
    <glyph glyph-name="n" unicode="n" horiz-adv-x="560" 
d="M174 300l-54 -300h-97l94 530h90l-16 -89q65 99 170 99q81 0 122 -57.5t25 -149.5l-59 -333h-97l54 309q12 68 -11 106t-75 38q-55 0 -94.5 -42.5t-51.5 -110.5z" />
    <glyph glyph-name="o" unicode="o" horiz-adv-x="565" 
d="M243 -10q-96 0 -155.5 60.5t-59.5 158.5q0 137 86.5 234t208.5 97q95 0 154.5 -60.5t59.5 -157.5q0 -137 -86 -234.5t-208 -97.5zM253 77q76 0 129.5 69t53.5 167q0 64 -33.5 102t-89.5 38q-76 0 -130 -69.5t-54 -167.5q0 -64 34 -101.5t90 -37.5z" />
    <glyph glyph-name="p" unicode="p" horiz-adv-x="588" 
d="M560 329q0 -143 -78 -241t-192 -98q-56 0 -96.5 29.5t-54.5 81.5l-53 -294h-97l128 723h90l-18 -100q32 51 81 80.5t104 29.5q83 0 134.5 -58t51.5 -153zM459 319q0 62 -31.5 98t-85.5 36q-78 0 -129.5 -72.5t-51.5 -169.5q0 -61 32.5 -97.5t86.5 -36.5q76 0 127.5 69.5
t51.5 172.5z" />
    <glyph glyph-name="q" unicode="q" horiz-adv-x="588" 
d="M28 202q0 143 78 240.5t192 97.5q57 0 98.5 -29t59.5 -82l19 101h90l-128 -723h-97l52 294q-67 -111 -178 -111q-83 0 -134.5 58.5t-51.5 153.5zM129 212q0 -62 31.5 -98t85.5 -36q78 0 129.5 72.5t51.5 169.5q0 61 -32 97.5t-87 36.5q-77 0 -128 -69.5t-51 -172.5z" />
    <glyph glyph-name="r" unicode="r" horiz-adv-x="366" 
d="M169 272l-49 -272h-97l94 530h90l-21 -113q77 120 219 120l-18 -102q-85 7 -144.5 -36.5t-73.5 -126.5z" />
    <glyph glyph-name="s" unicode="s" horiz-adv-x="512" 
d="M450 157q0 -76 -57 -121.5t-160 -45.5q-94 0 -153 49t-61 134h93q2 -51 36.5 -80t91.5 -29q51 0 82.5 21t31.5 61q0 31 -18 46.5t-58 25.5l-79 18q-126 29 -126 141q0 75 59 119t152 44q90 0 142.5 -47.5t54.5 -129.5h-93q-3 49 -30.5 76.5t-77.5 27.5q-51 0 -82 -22
t-31 -60q0 -32 19.5 -49t56.5 -26l72 -17q63 -14 99 -45.5t36 -90.5z" />
    <glyph glyph-name="t" unicode="t" horiz-adv-x="383" 
d="M321 96l-15 -90q-38 -16 -85 -16q-76 0 -111.5 50t-20.5 134l48 272h-111l15 84h111l27 157h98l-27 -157h153l-15 -84h-154l-47 -272q-17 -93 65 -93q37 0 69 15z" />
    <glyph glyph-name="u" unicode="u" horiz-adv-x="551" 
d="M376 225l55 305h97l-93 -530h-90l15 90q-66 -100 -163 -100q-80 0 -120 57.5t-24 149.5l58 333h97l-54 -309q-12 -67 10.5 -105t73.5 -38q52 0 89 40.5t49 106.5z" />
    <glyph glyph-name="v" unicode="v" horiz-adv-x="490" 
d="M535 530l-285 -530h-103l-98 530h98l70 -416l213 416h105z" />
    <glyph glyph-name="w" unicode="w" horiz-adv-x="746" 
d="M445 0l-46 403l-186 -403h-101l-53 530h94l35 -394l182 394h98l43 -395l172 395h97l-241 -530h-94z" />
    <glyph glyph-name="x" unicode="x" horiz-adv-x="507" 
d="M75 0h-111l235 282l-119 248h102l90 -198l158 198h108l-217 -267l129 -263h-104l-100 214z" />
    <glyph glyph-name="y" unicode="y" horiz-adv-x="490" 
d="M535 530l-385 -723h-106l111 200l-106 523h98l76 -406l207 406h105z" />
    <glyph glyph-name="z" unicode="z" horiz-adv-x="484" 
d="M407 0h-420l14 76l348 370h-278l14 84h406l-14 -79l-345 -366h289z" />
    <glyph glyph-name="braceleft" unicode="{" horiz-adv-x="312" 
d="M9 220l16 85q50 0 72.5 19.5t29.5 61.5l35 192q26 143 173 143q18 0 39 -3l-14 -85q-8 2 -20 2q-33 0 -54 -18.5t-27 -52.5l-33 -186q-18 -100 -106 -117q37 -10 54 -41.5t9 -74.5l-31 -184q-6 -33 8 -52t48 -19q7 0 21 2l-15 -85q-24 -2 -33 -2q-70 0 -105.5 39
t-24.5 103l34 193q7 42 -10 61t-66 19z" />
    <glyph glyph-name="bar" unicode="|" horiz-adv-x="295" 
d="M115 -193h-97l161 911h97z" />
    <glyph glyph-name="braceright" unicode="}" horiz-adv-x="312" 
d="M302 305l-15 -85q-50 0 -73 -19t-30 -61l-34 -192q-13 -70 -57.5 -106.5t-115.5 -36.5q-26 0 -40 3l15 84q7 -2 19 -2q69 0 81 71l33 187q20 101 106 117q-37 10 -54 41.5t-9 73.5l32 184q12 71 -57 71q-13 0 -21 -1l15 85q24 2 33 2q69 0 105.5 -39.5t25.5 -103.5
l-34 -192q-8 -42 9 -61.5t66 -19.5z" />
    <glyph glyph-name="asciitilde" unicode="~" 
d="M458 252q-47 0 -121 46t-108 46q-59 0 -69 -90h-84q6 81 47.5 129.5t106.5 48.5q39 0 81 -23t80 -46t68 -23t46.5 21t21.5 70h84q-6 -81 -47 -130t-106 -49z" />
    <glyph glyph-name="nbspace" unicode="&#xa0;" horiz-adv-x="199" 
 />
    <glyph glyph-name="exclamdown" unicode="&#xa1;" horiz-adv-x="261" 
d="M242 474q0 -36 -27 -62t-63 -26q-29 0 -46.5 16.5t-17.5 43.5q0 36 27 62.5t63 26.5q28 0 46 -17t18 -44zM112 -193h-121l115 528h74z" />
    <glyph glyph-name="cent" unicode="&#xa2;" horiz-adv-x="539" 
d="M257 -83h-67l14 76q-78 14 -126 74.5t-48 147.5q0 132 73 223.5t185 100.5l14 81h67l-16 -85q74 -13 117 -71t44 -147h-99q-1 64 -31 100t-82 36q-74 0 -122.5 -66.5t-48.5 -165.5q0 -65 33 -104.5t88 -39.5q107 0 149 138h98q-24 -99 -83.5 -157t-145.5 -66z" />
    <glyph glyph-name="sterling" unicode="&#xa3;" horiz-adv-x="549" 
d="M136 90q-61 0 -72 -90h-83q13 146 115 164l26 146h-77l11 66h77l18 100q17 98 73.5 154t146.5 56q83 0 132 -51.5t49 -141.5h-102q0 105 -89 105t-112 -126l-18 -96h172l-11 -66h-172l-26 -150q20 -8 71.5 -43t81.5 -35q60 0 69 91h82q-11 -180 -141 -180q-32 0 -65.5 15
t-56.5 33.5t-50.5 33.5t-48.5 15z" />
    <glyph glyph-name="currency" unicode="&#xa4;" horiz-adv-x="622" 
d="M288 128q-59 0 -100 30l-76 -67l-52 58l71 63q-21 34 -21 80q0 100 67 173l-49 62l60 58l55 -70q53 33 115 33q56 0 98 -31l77 67l55 -56l-73 -64q20 -37 20 -81q0 -98 -64 -172l48 -62l-60 -57l-55 69q-53 -33 -116 -33zM296 199q67 0 112.5 51.5t45.5 123.5
q0 46 -28.5 73.5t-75.5 27.5q-67 0 -112.5 -51.5t-45.5 -123.5q0 -46 29 -73.5t75 -27.5z" />
    <glyph glyph-name="yen" unicode="&#xa5;" horiz-adv-x="555" 
d="M496 158h-188l-28 -158h-99l28 158h-188l12 66h188l5 30l-15 46h-165l12 67h132l-95 308h101l94 -323l209 323h106l-204 -308h132l-12 -67h-165l-31 -46l-5 -30h188z" />
    <glyph glyph-name="brokenbar" unicode="&#xa6;" horiz-adv-x="295" 
d="M179 718h97l-73 -411h-97zM91 219h97l-73 -412h-96z" />
    <glyph glyph-name="section" unicode="&#xa7;" horiz-adv-x="529" 
d="M35 226q0 53 33 92.5t97 57.5q-71 44 -71 131q0 79 58 128.5t153 49.5q90 0 142 -50.5t54 -133.5h-92q-3 50 -32 79t-79 29t-80.5 -25.5t-30.5 -66.5q0 -75 94 -97l55 -12q150 -33 150 -149q0 -53 -33.5 -94.5t-98.5 -59.5q68 -43 68 -130q0 -79 -58 -128t-152 -49
q-90 0 -142.5 50t-54.5 133h93q2 -49 31 -78t79 -29t81 25t31 66q0 77 -89 97l-56 12q-150 33 -150 152zM127 237q0 -44 39 -68.5t97 -24.5q56 0 94 30t38 73q0 44 -39 67.5t-98 23.5q-56 0 -93.5 -29t-37.5 -72z" />
    <glyph glyph-name="dieresis" unicode="&#xa8;" horiz-adv-x="500" 
d="M486 666q0 -32 -24 -55.5t-55 -23.5q-25 0 -41 15t-16 38q0 32 24 55.5t56 23.5q25 0 40.5 -14.5t15.5 -38.5zM295 666q0 -32 -23.5 -55.5t-56.5 -23.5q-25 0 -40.5 15t-15.5 38q0 32 24 55.5t56 23.5q25 0 40.5 -14.5t15.5 -38.5z" />
    <glyph glyph-name="copyright" unicode="&#xa9;" horiz-adv-x="761" 
d="M338 -9q-127 0 -209 83t-82 212q0 165 118 282.5t282 117.5q128 0 210 -82.5t82 -212.5q0 -165 -118.5 -282.5t-282.5 -117.5zM342 46q138 0 236.5 100.5t98.5 244.5q0 109 -64.5 174.5t-170.5 65.5q-137 0 -235.5 -101t-98.5 -244q0 -108 64.5 -174t169.5 -66zM487 303
h66q-22 -69 -71 -108.5t-114 -39.5q-67 0 -107.5 41t-40.5 108q0 91 57.5 154t139.5 63q66 0 106.5 -40.5t41.5 -107.5h-65q0 41 -23.5 66t-61.5 25q-55 0 -92.5 -45t-37.5 -112q0 -45 24 -70.5t66 -25.5q38 0 68 24.5t44 67.5z" />
    <glyph glyph-name="ordfeminine" unicode="&#xaa;" horiz-adv-x="410" 
d="M294 255l12 66q-48 -74 -134 -74q-56 0 -91.5 30.5t-35.5 79.5q0 65 55 104t146 39q32 0 80 -5l5 27q8 42 -11 67.5t-59 25.5q-83 0 -101 -90h-71q8 72 55.5 114.5t119.5 42.5q77 0 117.5 -44.5t28.5 -114.5l-46 -268h-70zM124 365q0 -27 19 -42t53 -15q45 0 77 29t40 75
l5 30q-24 5 -73 5q-58 0 -89.5 -21.5t-31.5 -60.5z" />
    <glyph glyph-name="guillemotleft" unicode="&#xab;" horiz-adv-x="492" 
d="M232 62h-99l-107 205l170 205h110l-178 -212zM429 59h-99l-108 205l171 205h109l-178 -212z" />
    <glyph glyph-name="logicalnot" unicode="&#xac;" 
d="M547 194h-92l36 204h-377l15 84h469z" />
    <glyph glyph-name="softhyphen" unicode="&#xad;" horiz-adv-x="348" 
d="M318 231h-299l15 89h299z" />
    <glyph glyph-name="registered" unicode="&#xae;" horiz-adv-x="761" 
d="M338 -9q-127 0 -209 83t-82 212q0 165 118 282.5t282 117.5q128 0 210 -82.5t82 -212.5q0 -165 -118.5 -282.5t-282.5 -117.5zM342 46q138 0 236.5 100.5t98.5 244.5q0 109 -64.5 174.5t-170.5 65.5q-137 0 -235.5 -101t-98.5 -244q0 -108 64.5 -174t169.5 -66zM438 162
l-62 128h-52l-23 -128h-63l62 352h130q52 0 82.5 -27t30.5 -70q0 -47 -29 -77.5t-75 -40.5l69 -137h-70zM417 461h-63l-21 -117h63q39 0 61 18t22 50q0 23 -16 36t-46 13z" />
    <glyph glyph-name="macron" unicode="&#xaf;" horiz-adv-x="500" 
d="M457 597h-292l12 67h291z" />
    <glyph glyph-name="degree" unicode="&#xb0;" horiz-adv-x="455" 
d="M242 303q-82 0 -132 48.5t-50 127.5q0 103 69.5 173.5t170.5 70.5q81 0 131.5 -48.5t50.5 -127.5q0 -103 -69.5 -173.5t-170.5 -70.5zM249 374q64 0 107.5 49t43.5 120q0 50 -29 79.5t-78 29.5q-63 0 -107 -49t-44 -120q0 -50 29 -79.5t78 -29.5z" />
    <glyph glyph-name="plusminus" unicode="&#xb1;" 
d="M356 153h-90l36 205h-195l15 85h194l37 203h90l-36 -203h193l-15 -85h-193zM522 1h-478l15 85h479z" />
    <glyph glyph-name="twosuperior" unicode="&#xb2;" horiz-adv-x="341" 
d="M368 576l-11 -61h-280l7 39l158 129q90 76 90 125q0 26 -18 42t-46 16q-35 0 -58.5 -18.5t-28.5 -52.5h-66q11 61 52 96.5t107 35.5q56 0 92 -30.5t36 -76.5q0 -45 -26.5 -81.5t-85.5 -85.5l-89 -77h167z" />
    <glyph glyph-name="threesuperior" unicode="&#xb3;" horiz-adv-x="375" 
d="M405 638q0 -56 -43.5 -91.5t-113.5 -35.5q-66 0 -107.5 34.5t-41.5 88.5h63q0 -30 24.5 -49t63.5 -19q38 0 61 19t23 50q0 29 -23.5 45t-61.5 16h-44l10 56h41q39 0 65 20t26 51q0 23 -16.5 36t-44.5 13q-31 0 -53.5 -17t-29.5 -46h-65q10 54 53 86.5t101 32.5
q56 0 91 -27t35 -72q0 -69 -82 -104q69 -25 69 -87z" />
    <glyph glyph-name="acute" unicode="&#xb4;" horiz-adv-x="500" 
d="M312 583h-108l122 142h118z" />
    <glyph glyph-name="micro" unicode="&#xb5;" horiz-adv-x="556" 
d="M88 -193h-97l126 724h97l-55 -310q-11 -66 11 -104.5t73 -38.5t89 40.5t50 106.5l54 306h98l-94 -531h-90l16 90q-67 -100 -156 -100q-67 0 -93 53z" />
    <glyph glyph-name="paragraph" unicode="&#xb6;" horiz-adv-x="669" 
d="M293 -193h-97l72 405q-95 1 -151 52.5t-56 138.5q0 126 82 199.5t216 73.5h362l-15 -88h-90l-138 -781h-97l138 781h-87z" />
    <glyph glyph-name="periodcentered" unicode="&#xb7;" horiz-adv-x="253" 
d="M202 282q0 -38 -26 -65t-62 -27q-28 0 -45.5 17t-17.5 44q0 37 26.5 64.5t62.5 27.5q28 0 45 -17t17 -44z" />
    <glyph glyph-name="cedilla" unicode="&#xb8;" horiz-adv-x="500" 
d="M296 -111q0 -38 -31.5 -62.5t-82.5 -24.5q-50 0 -78.5 23.5t-28.5 65.5h64q0 -18 11.5 -28.5t30.5 -10.5q21 0 33 11t12 31q0 22 -21 33.5t-50 7.5l35 78h52l-23 -49q36 -5 56.5 -25t20.5 -50z" />
    <glyph glyph-name="onesuperior" unicode="&#xb9;" horiz-adv-x="225" 
d="M206 515h-67l61 347h-82l10 59h150z" />
    <glyph glyph-name="ordmasculine" unicode="&#xba;" horiz-adv-x="467" 
d="M237 247q-76 0 -124 48.5t-48 125.5q0 109 69 185t167 76q76 0 123.5 -48t47.5 -125q0 -109 -68.5 -185.5t-166.5 -76.5zM246 322q60 0 101 52t41 128q0 49 -25.5 77.5t-69.5 28.5q-60 0 -101.5 -52.5t-41.5 -128.5q0 -49 25.5 -77t70.5 -28z" />
    <glyph glyph-name="guillemotright" unicode="&#xbb;" horiz-adv-x="491" 
d="M63 472h99l108 -205l-171 -205h-109l177 212zM260 472h99l107 -205l-170 -205h-110l178 212z" />
    <glyph glyph-name="onequarter" unicode="&#xbc;" horiz-adv-x="688" 
d="M163 270h-67l61 347h-82l10 59h150zM121 0h-79l485 676h80zM633 86h-58l-16 -86h-67l15 86h-205l9 49l265 271h55l-46 -263h59zM391 143h127l30 163z" />
    <glyph glyph-name="onehalf" unicode="&#xbd;" horiz-adv-x="733" 
d="M163 270h-67l61 347h-82l10 59h150zM121 0h-79l485 676h80zM670 61l-11 -61h-280l7 39l158 129q90 76 90 125q0 26 -17.5 42t-45.5 16q-75 0 -88 -71h-66q11 61 52 96.5t107 35.5q56 0 92 -30.5t36 -76.5q0 -45 -26.5 -81.5t-84.5 -85.5l-90 -77h167z" />
    <glyph glyph-name="threequarters" unicode="&#xbe;" horiz-adv-x="868" 
d="M362 393q0 -56 -43.5 -91.5t-113.5 -35.5q-66 0 -107.5 34.5t-41.5 88.5h63q0 -30 24.5 -49t63.5 -19q38 0 61 19t23 50q0 29 -23.5 45t-61.5 16h-44l10 56h41q39 0 65 20t26 51q0 23 -16.5 36t-44.5 13q-31 0 -53.5 -17t-29.5 -46h-65q10 54 53 86.5t101 32.5
q56 0 91 -27t35 -72q0 -69 -82 -104q69 -25 69 -87zM271 0h-79l486 676h80zM814 86h-59l-15 -86h-68l16 86h-205l8 49l266 271h55l-46 -263h58zM571 143h127l30 163z" />
    <glyph glyph-name="questiondown" unicode="&#xbf;" horiz-adv-x="455" 
d="M202 447q0 35 26.5 61.5t63.5 26.5q29 0 47 -17t18 -44q0 -35 -27 -62t-64 -27q-29 0 -46.5 17.5t-17.5 44.5zM294 -7h96q-22 -91 -83.5 -143.5t-153.5 -52.5q-84 0 -135 46t-51 117q0 98 114 182l64 45q39 30 55 59t23 89h65q5 -78 -8.5 -120t-61.5 -77l-66 -47
q-42 -33 -61.5 -60t-19.5 -61q0 -37 25 -60.5t66 -23.5q50 0 84.5 27.5t47.5 79.5z" />
    <glyph glyph-name="Agrave" unicode="&#xc0;" horiz-adv-x="684" 
d="M475 771h-92l-82 142h102zM510 0l-31 180h-296l-96 -180h-113l391 718h117l135 -718h-107zM406 601l-178 -335h236z" />
    <glyph glyph-name="Aacute" unicode="&#xc1;" horiz-adv-x="684" 
d="M487 771h-108l122 142h118zM510 0l-31 180h-296l-96 -180h-113l391 718h117l135 -718h-107zM406 601l-178 -335h236z" />
    <glyph glyph-name="Acircumflex" unicode="&#xc2;" horiz-adv-x="684" 
d="M357 770h-116l155 143h115l105 -143h-102l-64 87zM510 0l-31 180h-296l-96 -180h-113l391 718h117l135 -718h-107zM406 601l-178 -335h236z" />
    <glyph glyph-name="Atilde" unicode="&#xc3;" horiz-adv-x="684" 
d="M329 769h-63q4 65 34 103.5t76 38.5q33 0 73 -32.5t63 -32.5q41 0 47 72h63q-3 -64 -33.5 -103t-77.5 -39q-33 0 -72.5 32.5t-61.5 32.5q-42 0 -48 -72zM510 0l-31 180h-296l-96 -180h-113l391 718h117l135 -718h-107zM406 601l-178 -335h236z" />
    <glyph glyph-name="Adieresis" unicode="&#xc4;" horiz-adv-x="684" 
d="M610 854q0 -32 -24 -55.5t-56 -23.5q-25 0 -41 15t-16 38q0 32 24 55.5t57 23.5q25 0 40.5 -15t15.5 -38zM419 854q0 -32 -23.5 -55.5t-56.5 -23.5q-25 0 -40.5 15t-15.5 38q0 32 23.5 55.5t55.5 23.5q26 0 41.5 -14.5t15.5 -38.5zM510 0l-31 180h-296l-96 -180h-113
l391 718h117l135 -718h-107zM406 601l-178 -335h236z" />
    <glyph glyph-name="Aring" unicode="&#xc5;" horiz-adv-x="684" 
d="M436 766q-46 0 -75 26.5t-29 69.5q0 54 39.5 92.5t96.5 38.5q46 0 75.5 -27t29.5 -69q0 -53 -40.5 -92t-96.5 -39zM442 819q29 0 49.5 21.5t20.5 51.5q0 21 -14 35t-36 14q-29 0 -49.5 -21.5t-20.5 -52.5q0 -21 14 -34.5t36 -13.5zM510 0l-31 180h-296l-96 -180h-113
l391 718h117l135 -718h-107zM406 601l-178 -335h236z" />
    <glyph glyph-name="AE" unicode="&#xc6;" horiz-adv-x="865" 
d="M405 180h-211l-120 -180h-120l488 718h446l-17 -93h-281l-37 -209h252l-16 -92h-252l-41 -231h287l-16 -93h-393zM420 266l62 348l-231 -348h169z" />
    <glyph glyph-name="Ccedilla" unicode="&#xc7;" horiz-adv-x="745" 
d="M423 -111q0 -38 -31.5 -62.5t-82.5 -24.5q-50 0 -78.5 23.5t-28.5 65.5h64q0 -18 11.5 -28.5t30.5 -10.5q22 0 34 11t12 31q0 22 -21.5 33.5t-50.5 7.5l24 53q-114 15 -185 100t-71 210q0 184 116.5 309.5t287.5 125.5q127 0 205.5 -82t78.5 -215h-105q-2 93 -53 147.5
t-137 54.5q-122 0 -203 -96.5t-81 -241.5q0 -98 56 -159t147 -61q87 0 149.5 51.5t94.5 150.5h106q-41 -141 -133 -218.5t-222 -78.5l-10 -21q36 -5 56 -25.5t20 -49.5z" />
    <glyph glyph-name="Egrave" unicode="&#xc8;" horiz-adv-x="566" 
d="M428 771h-92l-82 142h102zM484 93l-16 -93h-437l127 718h430l-16 -93h-324l-37 -209h295l-16 -92h-295l-42 -231h331z" />
    <glyph glyph-name="Eacute" unicode="&#xc9;" horiz-adv-x="566" 
d="M441 771h-108l121 142h118zM484 93l-16 -93h-437l127 718h430l-16 -93h-324l-37 -209h295l-16 -92h-295l-42 -231h331z" />
    <glyph glyph-name="Ecircumflex" unicode="&#xca;" horiz-adv-x="566" 
d="M311 770h-116l155 143h115l105 -143h-102l-64 87zM484 93l-16 -93h-437l127 718h430l-16 -93h-324l-37 -209h295l-16 -92h-295l-42 -231h331z" />
    <glyph glyph-name="Edieresis" unicode="&#xcb;" horiz-adv-x="566" 
d="M563 854q0 -32 -23.5 -55.5t-55.5 -23.5q-25 0 -41 15t-16 38q0 32 24 55.5t57 23.5q24 0 39.5 -15t15.5 -38zM373 854q0 -32 -24 -55.5t-56 -23.5q-25 0 -41 15t-16 38q0 32 24 55.5t56 23.5q25 0 41 -15t16 -38zM484 93l-16 -93h-437l127 718h430l-16 -93h-324
l-37 -209h295l-16 -92h-295l-42 -231h331z" />
    <glyph glyph-name="Igrave" unicode="&#xcc;" horiz-adv-x="263" 
d="M260 771h-91l-71 142h100zM138 0h-107l127 718h107z" />
    <glyph glyph-name="Iacute" unicode="&#xcd;" horiz-adv-x="263" 
d="M278 771h-108l112 142h117zM138 0h-107l127 718h107z" />
    <glyph glyph-name="Icircumflex" unicode="&#xce;" horiz-adv-x="263" 
d="M156 771h-111l141 142h112l91 -142h-99l-53 86zM138 0h-107l127 718h107z" />
    <glyph glyph-name="Idieresis" unicode="&#xcf;" horiz-adv-x="263" 
d="M388 854q0 -32 -22.5 -55.5t-53.5 -23.5q-24 0 -39 14.5t-15 38.5q0 32 23 55.5t54 23.5q24 0 38.5 -14.5t14.5 -38.5zM211 854q0 -32 -23 -55.5t-55 -23.5q-24 0 -39 15t-15 38q0 32 23.5 55.5t54.5 23.5q24 0 39 -14.5t15 -38.5zM138 0h-107l127 718h107z" />
    <glyph glyph-name="Eth" unicode="&#xd0;" horiz-adv-x="716" 
d="M295 0h-233l58 326h-103l15 88h103l54 304h218q129 0 210.5 -84.5t81.5 -217.5q0 -181 -114 -298.5t-290 -117.5zM370 326h-144l-42 -232h122q125 0 204 89t79 229q0 97 -53.5 154.5t-145.5 57.5h-111l-38 -210h144z" />
    <glyph glyph-name="Ntilde" unicode="&#xd1;" horiz-adv-x="724" 
d="M347 769h-63q4 65 34 103.5t76 38.5q33 0 73 -32.5t63 -32.5q41 0 47 72h63q-3 -64 -33.5 -103t-76.5 -39q-33 0 -73 32.5t-62 32.5q-42 0 -48 -72zM491 0l-260 566l-100 -566h-100l127 718h116l254 -552l98 552h100l-127 -718h-108z" />
    <glyph glyph-name="Ograve" unicode="&#xd2;" horiz-adv-x="778" 
d="M510 771h-91l-82 142h101zM351 -15q-132 0 -216.5 88t-84.5 225q0 184 118.5 309.5t292.5 125.5q131 0 216 -87.5t85 -223.5q0 -184 -119 -310.5t-292 -126.5zM362 80q123 0 206.5 98t83.5 242q0 98 -55.5 158t-146.5 60q-124 0 -207.5 -97t-83.5 -242q0 -98 56 -158.5
t147 -60.5z" />
    <glyph glyph-name="Oacute" unicode="&#xd3;" horiz-adv-x="778" 
d="M523 771h-108l122 142h118zM351 -15q-132 0 -216.5 88t-84.5 225q0 184 118.5 309.5t292.5 125.5q131 0 216 -87.5t85 -223.5q0 -184 -119 -310.5t-292 -126.5zM362 80q123 0 206.5 98t83.5 242q0 98 -55.5 158t-146.5 60q-124 0 -207.5 -97t-83.5 -242q0 -98 56 -158.5
t147 -60.5z" />
    <glyph glyph-name="Ocircumflex" unicode="&#xd4;" horiz-adv-x="778" 
d="M393 770h-116l155 143h115l105 -143h-102l-64 87zM351 -15q-132 0 -216.5 88t-84.5 225q0 184 118.5 309.5t292.5 125.5q131 0 216 -87.5t85 -223.5q0 -184 -119 -310.5t-292 -126.5zM362 80q123 0 206.5 98t83.5 242q0 98 -55.5 158t-146.5 60q-124 0 -207.5 -97
t-83.5 -242q0 -98 56 -158.5t147 -60.5z" />
    <glyph glyph-name="Otilde" unicode="&#xd5;" horiz-adv-x="778" 
d="M365 769h-63q4 65 33.5 103.5t76.5 38.5q33 0 73 -32.5t62 -32.5q42 0 48 72h63q-4 -64 -34.5 -103t-76.5 -39q-33 0 -72.5 32.5t-61.5 32.5q-42 0 -48 -72zM351 -15q-132 0 -216.5 88t-84.5 225q0 184 118.5 309.5t292.5 125.5q131 0 216 -87.5t85 -223.5
q0 -184 -119 -310.5t-292 -126.5zM362 80q123 0 206.5 98t83.5 242q0 98 -55.5 158t-146.5 60q-124 0 -207.5 -97t-83.5 -242q0 -98 56 -158.5t147 -60.5z" />
    <glyph glyph-name="Odieresis" unicode="&#xd6;" horiz-adv-x="778" 
d="M645 854q0 -32 -23.5 -55.5t-55.5 -23.5q-25 0 -41 15t-16 38q0 32 24 55.5t57 23.5q25 0 40 -15t15 -38zM455 854q0 -32 -23.5 -55.5t-56.5 -23.5q-25 0 -41 15t-16 38q0 32 24 55.5t56 23.5q26 0 41.5 -14.5t15.5 -38.5zM351 -15q-132 0 -216.5 88t-84.5 225
q0 184 118.5 309.5t292.5 125.5q131 0 216 -87.5t85 -223.5q0 -184 -119 -310.5t-292 -126.5zM362 80q123 0 206.5 98t83.5 242q0 98 -55.5 158t-146.5 60q-124 0 -207.5 -97t-83.5 -242q0 -98 56 -158.5t147 -60.5z" />
    <glyph glyph-name="multiply" unicode="&#xd7;" 
d="M147 110l-54 59l193 173l-132 166l59 58l135 -170l188 169l56 -58l-193 -173l132 -166l-61 -57l-134 168z" />
    <glyph glyph-name="Oslash" unicode="&#xd8;" horiz-adv-x="778" 
d="M119 0h-104l96 101q-61 81 -61 197q0 184 118.5 309.5t292.5 125.5q110 0 189 -63l46 48h103l-97 -102q60 -82 60 -194q0 -184 -119 -310.5t-292 -126.5q-109 0 -188 62zM159 299q0 -66 27 -118l393 413q-53 44 -129 44q-124 0 -207.5 -97t-83.5 -242zM362 80
q123 0 206.5 98t83.5 242q0 66 -26 115l-391 -413q51 -42 127 -42z" />
    <glyph glyph-name="Ugrave" unicode="&#xd9;" horiz-adv-x="685" 
d="M473 771h-91l-82 142h101zM689 718l-81 -461q-23 -134 -99 -203t-200 -69q-122 0 -189 75.5t-45 196.5l81 461h107l-83 -464q-15 -81 23.5 -127t110.5 -46q157 0 187 173l82 464h106z" />
    <glyph glyph-name="Uacute" unicode="&#xda;" horiz-adv-x="685" 
d="M486 771h-108l122 142h118zM689 718l-81 -461q-23 -134 -99 -203t-200 -69q-122 0 -189 75.5t-45 196.5l81 461h107l-83 -464q-15 -81 23.5 -127t110.5 -46q157 0 187 173l82 464h106z" />
    <glyph glyph-name="Ucircumflex" unicode="&#xdb;" horiz-adv-x="685" 
d="M356 770h-116l155 143h115l105 -143h-102l-64 87zM689 718l-81 -461q-23 -134 -99 -203t-200 -69q-122 0 -189 75.5t-45 196.5l81 461h107l-83 -464q-15 -81 23.5 -127t110.5 -46q157 0 187 173l82 464h106z" />
    <glyph glyph-name="Udieresis" unicode="&#xdc;" horiz-adv-x="685" 
d="M608 854q0 -32 -23.5 -55.5t-55.5 -23.5q-25 0 -41 15t-16 38q0 32 24 55.5t57 23.5q25 0 40 -15t15 -38zM418 854q0 -32 -23.5 -55.5t-56.5 -23.5q-25 0 -41 15t-16 38q0 32 24 55.5t56 23.5q26 0 41.5 -14.5t15.5 -38.5zM689 718l-81 -461q-23 -134 -99 -203t-200 -69
q-122 0 -189 75.5t-45 196.5l81 461h107l-83 -464q-15 -81 23.5 -127t110.5 -46q157 0 187 173l82 464h106z" />
    <glyph glyph-name="Yacute" unicode="&#xdd;" horiz-adv-x="634" 
d="M453 771h-108l122 142h118zM370 269l-48 -269h-107l48 269l-168 449h107l126 -349l251 349h119z" />
    <glyph glyph-name="Thorn" unicode="&#xde;" horiz-adv-x="604" 
d="M288 128h-128l-22 -128h-107l127 718h107l-23 -123h125q101 0 162.5 -54t61.5 -143q0 -123 -82.5 -196.5t-220.5 -73.5zM352 502h-127l-50 -281h129q82 0 130.5 45t48.5 119q0 53 -35.5 85t-95.5 32z" />
    <glyph glyph-name="germandbls" unicode="&#xdf;" horiz-adv-x="595" 
d="M551 219q0 -103 -69.5 -166t-179.5 -63q-41 0 -71 6l14 79q30 -6 55 -6q63 0 106.5 40t43.5 106q0 55 -35.5 85t-90.5 30h-34l14 81h28q62 0 103.5 38.5t41.5 102.5q0 44 -26 70.5t-70 26.5q-51 0 -84.5 -35t-44.5 -97l-91 -517h-97l78 446h-111l15 84h112q18 89 78 143
t157 54q85 0 135 -46.5t50 -118.5q0 -71 -40 -120.5t-98 -67.5q111 -44 111 -155z" />
    <glyph glyph-name="agrave" unicode="&#xe0;" horiz-adv-x="524" 
d="M354 583h-91l-82 142h101zM331 0l15 83q-63 -93 -173 -93q-71 0 -113.5 37.5t-42.5 101.5q0 83 69 131.5t188 48.5q46 0 99 -6l7 38q10 55 -15.5 88t-77.5 33q-107 0 -131 -120h-89q12 93 72.5 145.5t156.5 52.5q94 0 143 -55.5t33 -144.5l-60 -340h-81zM112 139
q0 -37 24 -57.5t67 -20.5q55 0 98 37.5t54 98.5l7 43q-44 6 -93 6q-74 0 -115.5 -28.5t-41.5 -78.5z" />
    <glyph glyph-name="aacute" unicode="&#xe1;" horiz-adv-x="524" 
d="M367 583h-108l122 142h118zM331 0l15 83q-63 -93 -173 -93q-71 0 -113.5 37.5t-42.5 101.5q0 83 69 131.5t188 48.5q46 0 99 -6l7 38q10 55 -15.5 88t-77.5 33q-107 0 -131 -120h-89q12 93 72.5 145.5t156.5 52.5q94 0 143 -55.5t33 -144.5l-60 -340h-81zM112 139
q0 -37 24 -57.5t67 -20.5q55 0 98 37.5t54 98.5l7 43q-44 6 -93 6q-74 0 -115.5 -28.5t-41.5 -78.5z" />
    <glyph glyph-name="acircumflex" unicode="&#xe2;" horiz-adv-x="524" 
d="M237 582h-116l155 144h115l105 -144h-102l-64 87zM331 0l15 83q-63 -93 -173 -93q-71 0 -113.5 37.5t-42.5 101.5q0 83 69 131.5t188 48.5q46 0 99 -6l7 38q10 55 -15.5 88t-77.5 33q-107 0 -131 -120h-89q12 93 72.5 145.5t156.5 52.5q94 0 143 -55.5t33 -144.5
l-60 -340h-81zM112 139q0 -37 24 -57.5t67 -20.5q55 0 98 37.5t54 98.5l7 43q-44 6 -93 6q-74 0 -115.5 -28.5t-41.5 -78.5z" />
    <glyph glyph-name="atilde" unicode="&#xe3;" horiz-adv-x="524" 
d="M209 582h-63q4 65 34 103.5t76 38.5q33 0 73 -32.5t62 -32.5q42 0 48 71h63q-4 -64 -34.5 -103t-76.5 -39q-33 0 -72.5 32.5t-62.5 32.5q-41 0 -47 -71zM331 0l15 83q-63 -93 -173 -93q-71 0 -113.5 37.5t-42.5 101.5q0 83 69 131.5t188 48.5q46 0 99 -6l7 38
q10 55 -15.5 88t-77.5 33q-107 0 -131 -120h-89q12 93 72.5 145.5t156.5 52.5q94 0 143 -55.5t33 -144.5l-60 -340h-81zM112 139q0 -37 24 -57.5t67 -20.5q55 0 98 37.5t54 98.5l7 43q-44 6 -93 6q-74 0 -115.5 -28.5t-41.5 -78.5z" />
    <glyph glyph-name="adieresis" unicode="&#xe4;" horiz-adv-x="524" 
d="M489 666q0 -32 -23.5 -55.5t-55.5 -23.5q-25 0 -41 15t-16 38q0 32 24 55.5t57 23.5q25 0 40 -14.5t15 -38.5zM299 666q0 -32 -23.5 -55.5t-56.5 -23.5q-25 0 -41 15t-16 38q0 32 24 55.5t56 23.5q26 0 41.5 -14.5t15.5 -38.5zM331 0l15 83q-63 -93 -173 -93
q-71 0 -113.5 37.5t-42.5 101.5q0 83 69 131.5t188 48.5q46 0 99 -6l7 38q10 55 -15.5 88t-77.5 33q-107 0 -131 -120h-89q12 93 72.5 145.5t156.5 52.5q94 0 143 -55.5t33 -144.5l-60 -340h-81zM112 139q0 -37 24 -57.5t67 -20.5q55 0 98 37.5t54 98.5l7 43q-44 6 -93 6
q-74 0 -115.5 -28.5t-41.5 -78.5z" />
    <glyph glyph-name="aring" unicode="&#xe5;" horiz-adv-x="524" 
d="M316 579q-46 0 -75.5 26.5t-29.5 68.5q0 55 40 93.5t96 38.5q46 0 75.5 -27t29.5 -69q0 -54 -40 -92.5t-96 -38.5zM322 632q28 0 49 21.5t21 50.5q0 22 -14 35.5t-37 13.5q-28 0 -48.5 -21.5t-20.5 -52.5q0 -21 14 -34t36 -13zM331 0l15 83q-63 -93 -173 -93
q-71 0 -113.5 37.5t-42.5 101.5q0 83 69 131.5t188 48.5q46 0 99 -6l7 38q10 55 -15.5 88t-77.5 33q-107 0 -131 -120h-89q12 93 72.5 145.5t156.5 52.5q94 0 143 -55.5t33 -144.5l-60 -340h-81zM112 139q0 -37 24 -57.5t67 -20.5q55 0 98 37.5t54 98.5l7 43q-44 6 -93 6
q-74 0 -115.5 -28.5t-41.5 -78.5z" />
    <glyph glyph-name="ae" unicode="&#xe6;" horiz-adv-x="872" 
d="M17 129q0 82 68.5 129t188.5 47q42 0 99 -6l7 42q9 54 -17 87.5t-76 33.5q-107 0 -131 -120h-89q11 90 72 144t154 54q118 0 154 -93q75 93 193 93q111 0 165 -84.5t31 -214.5h-374q-6 -77 27.5 -122.5t100.5 -45.5q95 0 134 107h99q-62 -190 -241 -190
q-68 0 -118.5 33.5t-72.5 92.5q-26 -58 -82.5 -92t-130.5 -34t-117.5 37t-43.5 102zM637 462q-62 0 -106.5 -43t-60.5 -113h277q7 70 -22 113t-88 43zM112 139q0 -38 24 -58t67 -20q57 0 98 38.5t54 98.5l7 38q-47 6 -93 6q-74 0 -115.5 -26.5t-41.5 -76.5z" />
    <glyph glyph-name="ccedilla" unicode="&#xe7;" horiz-adv-x="539" 
d="M329 -111q0 -38 -31.5 -62.5t-81.5 -24.5t-78.5 23.5t-28.5 65.5h63q0 -18 11.5 -28.5t31.5 -10.5q21 0 33 11t12 31q0 22 -21.5 33.5t-50.5 7.5l26 57q-82 11 -133 72.5t-51 150.5q0 139 80 232t200 93q92 0 147.5 -60.5t56.5 -162.5h-99q-1 64 -31 100t-82 36
q-74 0 -122.5 -66.5t-48.5 -165.5q0 -65 33 -104.5t88 -39.5q107 0 149 138h98q-23 -100 -84 -158.5t-149 -65.5l-13 -27q36 -5 56 -25t20 -50z" />
    <glyph glyph-name="egrave" unicode="&#xe8;" horiz-adv-x="543" 
d="M363 583h-91l-82 142h101zM253 -10q-97 0 -160 62t-63 164q0 139 80.5 231.5t199.5 92.5q113 0 166.5 -84.5t29.5 -214.5h-374q-1 -6 -1 -20q0 -69 34.5 -108.5t95.5 -39.5q95 0 134 107h99q-63 -190 -241 -190zM308 462q-62 0 -105.5 -43t-61.5 -113h277q8 70 -21.5 113
t-88.5 43z" />
    <glyph glyph-name="eacute" unicode="&#xe9;" horiz-adv-x="543" 
d="M376 583h-108l122 142h118zM253 -10q-97 0 -160 62t-63 164q0 139 80.5 231.5t199.5 92.5q113 0 166.5 -84.5t29.5 -214.5h-374q-1 -6 -1 -20q0 -69 34.5 -108.5t95.5 -39.5q95 0 134 107h99q-63 -190 -241 -190zM308 462q-62 0 -105.5 -43t-61.5 -113h277
q8 70 -21.5 113t-88.5 43z" />
    <glyph glyph-name="ecircumflex" unicode="&#xea;" horiz-adv-x="543" 
d="M246 582h-116l155 144h115l105 -144h-102l-64 87zM253 -10q-97 0 -160 62t-63 164q0 139 80.5 231.5t199.5 92.5q113 0 166.5 -84.5t29.5 -214.5h-374q-1 -6 -1 -20q0 -69 34.5 -108.5t95.5 -39.5q95 0 134 107h99q-63 -190 -241 -190zM308 462q-62 0 -105.5 -43
t-61.5 -113h277q8 70 -21.5 113t-88.5 43z" />
    <glyph glyph-name="edieresis" unicode="&#xeb;" horiz-adv-x="543" 
d="M498 666q0 -32 -23.5 -55.5t-55.5 -23.5q-25 0 -41 15t-16 38q0 32 24 55.5t57 23.5q25 0 40 -14.5t15 -38.5zM308 666q0 -32 -23.5 -55.5t-56.5 -23.5q-25 0 -41 15t-16 38q0 32 24 55.5t56 23.5q26 0 41.5 -14.5t15.5 -38.5zM253 -10q-97 0 -160 62t-63 164
q0 139 80.5 231.5t199.5 92.5q113 0 166.5 -84.5t29.5 -214.5h-374q-1 -6 -1 -20q0 -69 34.5 -108.5t95.5 -39.5q95 0 134 107h99q-63 -190 -241 -190zM308 462q-62 0 -105.5 -43t-61.5 -113h277q8 70 -21.5 113t-88.5 43z" />
    <glyph glyph-name="igrave" unicode="&#xec;" horiz-adv-x="237" 
d="M213 583h-92l-71 142h101zM120 0h-97l94 530h97z" />
    <glyph glyph-name="iacute" unicode="&#xed;" horiz-adv-x="237" 
d="M230 583h-107l112 142h117zM120 0h-97l94 530h97z" />
    <glyph glyph-name="icircumflex" unicode="&#xee;" horiz-adv-x="237" 
d="M108 583h-111l142 142h111l92 -142h-99l-53 86zM120 0h-97l94 530h97z" />
    <glyph glyph-name="idieresis" unicode="&#xef;" horiz-adv-x="237" 
d="M341 667q0 -32 -22.5 -56t-53.5 -24q-24 0 -39.5 15t-15.5 38q0 33 23 56t55 23q24 0 38.5 -14.5t14.5 -37.5zM164 667q0 -32 -23 -56t-55 -24q-24 0 -39 15t-15 38q0 32 23 55.5t54 23.5q25 0 40 -14.5t15 -37.5zM120 0h-97l94 530h97z" />
    <glyph glyph-name="eth" unicode="&#xf0;" horiz-adv-x="566" 
d="M28 209q0 133 83.5 226t200.5 93q44 0 73 -21l-52 94l-137 -48l12 69l89 34l-35 62h103l21 -38l139 47l-13 -70l-93 -33l55 -101q63 -119 63 -207q0 -133 -86.5 -229.5t-207.5 -96.5q-96 0 -155.5 60.5t-59.5 158.5zM129 216q0 -64 34 -101.5t90 -37.5q75 0 129 68
t54 162q0 64 -33.5 101.5t-89.5 37.5q-76 0 -130 -68t-54 -162z" />
    <glyph glyph-name="ntilde" unicode="&#xf1;" horiz-adv-x="560" 
d="M234 582h-63q4 64 34 103t76 39q33 0 73 -32.5t63 -32.5q41 0 47 71h63q-3 -64 -33.5 -103t-76.5 -39q-33 0 -73 32.5t-62 32.5q-42 0 -48 -71zM174 300l-54 -300h-97l94 530h90l-16 -89q65 99 170 99q81 0 122 -57.5t25 -149.5l-59 -333h-97l54 309q12 68 -11 106
t-75 38q-55 0 -94.5 -42.5t-51.5 -110.5z" />
    <glyph glyph-name="ograve" unicode="&#xf2;" horiz-adv-x="565" 
d="M375 583h-92l-82 142h102zM243 -10q-96 0 -155.5 60.5t-59.5 158.5q0 137 86.5 234t208.5 97q95 0 154.5 -60.5t59.5 -157.5q0 -137 -86 -234.5t-208 -97.5zM253 77q76 0 129.5 69t53.5 167q0 64 -33.5 102t-89.5 38q-76 0 -130 -69.5t-54 -167.5q0 -64 34 -101.5
t90 -37.5z" />
    <glyph glyph-name="oacute" unicode="&#xf3;" horiz-adv-x="565" 
d="M387 583h-107l121 142h118zM243 -10q-96 0 -155.5 60.5t-59.5 158.5q0 137 86.5 234t208.5 97q95 0 154.5 -60.5t59.5 -157.5q0 -137 -86 -234.5t-208 -97.5zM253 77q76 0 129.5 69t53.5 167q0 64 -33.5 102t-89.5 38q-76 0 -130 -69.5t-54 -167.5q0 -64 34 -101.5
t90 -37.5z" />
    <glyph glyph-name="ocircumflex" unicode="&#xf4;" horiz-adv-x="565" 
d="M258 582h-116l154 144h116l104 -144h-102l-64 87zM243 -10q-96 0 -155.5 60.5t-59.5 158.5q0 137 86.5 234t208.5 97q95 0 154.5 -60.5t59.5 -157.5q0 -137 -86 -234.5t-208 -97.5zM253 77q76 0 129.5 69t53.5 167q0 64 -33.5 102t-89.5 38q-76 0 -130 -69.5t-54 -167.5
q0 -64 34 -101.5t90 -37.5z" />
    <glyph glyph-name="otilde" unicode="&#xf5;" horiz-adv-x="565" 
d="M229 582h-63q4 64 34 103t76 39q33 0 73 -32.5t63 -32.5q41 0 47 71h63q-3 -64 -33.5 -103t-76.5 -39q-33 0 -73 32.5t-62 32.5q-42 0 -48 -71zM243 -10q-96 0 -155.5 60.5t-59.5 158.5q0 137 86.5 234t208.5 97q95 0 154.5 -60.5t59.5 -157.5q0 -137 -86 -234.5
t-208 -97.5zM253 77q76 0 129.5 69t53.5 167q0 64 -33.5 102t-89.5 38q-76 0 -130 -69.5t-54 -167.5q0 -64 34 -101.5t90 -37.5z" />
    <glyph glyph-name="odieresis" unicode="&#xf6;" horiz-adv-x="565" 
d="M510 666q0 -32 -24 -55.5t-55 -23.5q-25 0 -41 15t-16 38q0 32 24 55.5t56 23.5q25 0 40.5 -14.5t15.5 -38.5zM319 666q0 -32 -23.5 -55.5t-56.5 -23.5q-25 0 -40.5 15t-15.5 38q0 32 24 55.5t56 23.5q25 0 40.5 -14.5t15.5 -38.5zM243 -10q-96 0 -155.5 60.5
t-59.5 158.5q0 137 86.5 234t208.5 97q95 0 154.5 -60.5t59.5 -157.5q0 -137 -86 -234.5t-208 -97.5zM253 77q76 0 129.5 69t53.5 167q0 64 -33.5 102t-89.5 38q-76 0 -130 -69.5t-54 -167.5q0 -64 34 -101.5t90 -37.5z" />
    <glyph glyph-name="divide" unicode="&#xf7;" 
d="M450 539q0 -39 -26 -66t-62 -27q-28 0 -45.5 17t-17.5 44q0 38 26.5 65t63.5 27q28 0 44.5 -16.5t16.5 -43.5zM575 295h-479l15 85h479zM386 173q0 -38 -26 -65t-62 -27q-29 0 -46 16.5t-17 43.5q0 38 26.5 65.5t62.5 27.5q28 0 45 -17t17 -44z" />
    <glyph glyph-name="oslash" unicode="&#xf8;" horiz-adv-x="565" 
d="M86 0h-85l67 74q-40 55 -40 135q0 137 86.5 234t208.5 97q76 0 130 -40l27 30h85l-67 -75q39 -55 39 -133q0 -137 -86 -234.5t-208 -97.5q-75 0 -131 39zM129 216q0 -33 11 -63l248 276q-32 24 -75 24q-76 0 -130 -69.5t-54 -167.5zM253 77q76 0 129.5 69t53.5 167
q0 31 -10 63l-249 -275q34 -24 76 -24z" />
    <glyph glyph-name="ugrave" unicode="&#xf9;" horiz-adv-x="551" 
d="M369 583h-92l-82 142h102zM376 225l55 305h97l-93 -530h-90l15 90q-66 -100 -163 -100q-80 0 -120 57.5t-24 149.5l58 333h97l-54 -309q-12 -67 10.5 -105t73.5 -38q52 0 89 40.5t49 106.5z" />
    <glyph glyph-name="uacute" unicode="&#xfa;" horiz-adv-x="551" 
d="M382 583h-108l121 142h118zM376 225l55 305h97l-93 -530h-90l15 90q-66 -100 -163 -100q-80 0 -120 57.5t-24 149.5l58 333h97l-54 -309q-12 -67 10.5 -105t73.5 -38q52 0 89 40.5t49 106.5z" />
    <glyph glyph-name="ucircumflex" unicode="&#xfb;" horiz-adv-x="551" 
d="M252 582h-116l155 144h115l105 -144h-102l-64 87zM376 225l55 305h97l-93 -530h-90l15 90q-66 -100 -163 -100q-80 0 -120 57.5t-24 149.5l58 333h97l-54 -309q-12 -67 10.5 -105t73.5 -38q52 0 89 40.5t49 106.5z" />
    <glyph glyph-name="udieresis" unicode="&#xfc;" horiz-adv-x="551" 
d="M504 666q0 -32 -24 -55.5t-55 -23.5q-25 0 -41 15t-16 38q0 32 24 55.5t57 23.5q24 0 39.5 -14.5t15.5 -38.5zM314 666q0 -32 -24 -55.5t-56 -23.5q-25 0 -41 15t-16 38q0 32 24 55.5t56 23.5q26 0 41.5 -14.5t15.5 -38.5zM376 225l55 305h97l-93 -530h-90l15 90
q-66 -100 -163 -100q-80 0 -120 57.5t-24 149.5l58 333h97l-54 -309q-12 -67 10.5 -105t73.5 -38q52 0 89 40.5t49 106.5z" />
    <glyph glyph-name="yacute" unicode="&#xfd;" horiz-adv-x="490" 
d="M355 583h-108l122 142h118zM535 530l-385 -723h-106l111 200l-106 523h98l76 -406l207 406h105z" />
    <glyph glyph-name="thorn" unicode="&#xfe;" horiz-adv-x="588" 
d="M560 329q0 -143 -78 -241t-192 -98q-56 0 -96.5 29.5t-54.5 81.5l-53 -294h-97l161 911h96l-50 -286q29 48 76 78t102 30q83 0 134.5 -58t51.5 -153zM459 319q0 62 -31.5 98t-85.5 36q-78 0 -129.5 -72.5t-51.5 -168.5q0 -61 31.5 -98t87.5 -37q76 0 127.5 69.5
t51.5 172.5z" />
    <glyph glyph-name="ydieresis" unicode="&#xff;" horiz-adv-x="490" 
d="M477 666q0 -32 -23.5 -55.5t-55.5 -23.5q-25 0 -41 15t-16 38q0 32 24 55.5t57 23.5q25 0 40 -14.5t15 -38.5zM287 666q0 -32 -23.5 -55.5t-56.5 -23.5q-25 0 -41 15t-16 38q0 32 24 55.5t56 23.5q26 0 41.5 -14.5t15.5 -38.5zM535 530l-385 -723h-106l111 200l-106 523
h98l76 -406l207 406h105z" />
    <glyph glyph-name="Amacron" unicode="&#x100;" horiz-adv-x="684" 
d="M581 784h-292l11 68h292zM510 0l-31 180h-296l-96 -180h-113l391 718h117l135 -718h-107zM406 601l-178 -335h236z" />
    <glyph glyph-name="amacron" unicode="&#x101;" horiz-adv-x="524" 
d="M460 597h-291l11 67h292zM331 0l15 83q-63 -93 -173 -93q-71 0 -113.5 37.5t-42.5 101.5q0 83 69 131.5t188 48.5q46 0 99 -6l7 38q10 55 -15.5 88t-77.5 33q-107 0 -131 -120h-89q12 93 72.5 145.5t156.5 52.5q94 0 143 -55.5t33 -144.5l-60 -340h-81zM112 139
q0 -37 24 -57.5t67 -20.5q55 0 98 37.5t54 98.5l7 43q-44 6 -93 6q-74 0 -115.5 -28.5t-41.5 -78.5z" />
    <glyph glyph-name="Abreve" unicode="&#x102;" horiz-adv-x="684" 
d="M531 913h72q-13 -70 -56 -108t-109 -38q-62 0 -100.5 39.5t-38.5 106.5h72q0 -81 71 -81q34 0 58 22t31 59zM510 0l-31 180h-296l-96 -180h-113l391 718h117l135 -718h-107zM406 601l-178 -335h236z" />
    <glyph glyph-name="abreve" unicode="&#x103;" horiz-adv-x="524" 
d="M411 726h72q-13 -70 -56 -108.5t-109 -38.5q-62 0 -101 40t-39 107h73q0 -82 70 -82q35 0 59 22t31 60zM331 0l15 83q-63 -93 -173 -93q-71 0 -113.5 37.5t-42.5 101.5q0 83 69 131.5t188 48.5q46 0 99 -6l7 38q10 55 -15.5 88t-77.5 33q-107 0 -131 -120h-89
q12 93 72.5 145.5t156.5 52.5q94 0 143 -55.5t33 -144.5l-60 -340h-81zM112 139q0 -37 24 -57.5t67 -20.5q55 0 98 37.5t54 98.5l7 43q-44 6 -93 6q-74 0 -115.5 -28.5t-41.5 -78.5z" />
    <glyph glyph-name="Aogonek" unicode="&#x104;" horiz-adv-x="684" 
d="M573 -120l-12 -68q-29 -10 -62 -10q-40 0 -63 21t-23 58q0 72 95 133l-29 166h-296l-96 -180h-113l391 718h117l135 -718h-67q-56 -45 -56 -91q0 -37 40 -37q19 0 39 8zM406 601l-178 -335h236z" />
    <glyph glyph-name="aogonek" unicode="&#x105;" horiz-adv-x="524" 
d="M394 -120l-12 -68q-29 -10 -62 -10q-40 0 -62.5 21t-22.5 58q0 75 99 137l12 65q-63 -93 -173 -93q-71 0 -113.5 37.5t-42.5 101.5q0 83 69 131.5t188 48.5q46 0 99 -6l7 38q10 55 -15.5 88t-77.5 33q-107 0 -131 -120h-89q12 93 72.5 145.5t156.5 52.5q94 0 143 -55.5
t33 -144.5l-60 -340h-40q-57 -44 -57 -91q0 -37 41 -37q19 0 38 8zM112 139q0 -37 24 -57.5t67 -20.5q55 0 98 37.5t54 98.5l7 43q-44 6 -93 6q-74 0 -115.5 -28.5t-41.5 -78.5z" />
    <glyph glyph-name="Cacute" unicode="&#x106;" horiz-adv-x="745" 
d="M517 771h-108l121 142h118zM351 -15q-132 0 -216.5 88t-84.5 225q0 184 116.5 309.5t287.5 125.5q127 0 205.5 -82t78.5 -215h-105q-2 93 -53 147.5t-137 54.5q-122 0 -203 -96.5t-81 -241.5q0 -98 56 -159t147 -61q87 0 149.5 51.5t94.5 150.5h106q-42 -143 -135.5 -220
t-225.5 -77z" />
    <glyph glyph-name="cacute" unicode="&#x107;" horiz-adv-x="539" 
d="M374 583h-107l121 142h118zM243 -10q-92 0 -152.5 63.5t-60.5 161.5q0 139 80 232t200 93q92 0 147.5 -60.5t56.5 -162.5h-99q-1 64 -31 100t-82 36q-74 0 -122.5 -66.5t-48.5 -165.5q0 -65 33 -104.5t88 -39.5q107 0 149 138h98q-25 -106 -92.5 -165.5t-163.5 -59.5z
" />
    <glyph glyph-name="Ccaron" unicode="&#x10c;" horiz-adv-x="745" 
d="M520 770h-115l-105 143h102l64 -87l93 87h116zM351 -15q-132 0 -216.5 88t-84.5 225q0 184 116.5 309.5t287.5 125.5q127 0 205.5 -82t78.5 -215h-105q-2 93 -53 147.5t-137 54.5q-122 0 -203 -96.5t-81 -241.5q0 -98 56 -159t147 -61q87 0 149.5 51.5t94.5 150.5h106
q-42 -143 -135.5 -220t-225.5 -77z" />
    <glyph glyph-name="ccaron" unicode="&#x10d;" horiz-adv-x="539" 
d="M378 582h-115l-105 144h102l64 -87l93 87h116zM243 -10q-92 0 -152.5 63.5t-60.5 161.5q0 139 80 232t200 93q92 0 147.5 -60.5t56.5 -162.5h-99q-1 64 -31 100t-82 36q-74 0 -122.5 -66.5t-48.5 -165.5q0 -65 33 -104.5t88 -39.5q107 0 149 138h98
q-25 -106 -92.5 -165.5t-163.5 -59.5z" />
    <glyph glyph-name="Dcaron" unicode="&#x10e;" horiz-adv-x="685" 
d="M457 770h-115l-105 143h102l64 -87l93 87h116zM264 0h-233l127 718h218q130 0 211 -84t81 -218q0 -181 -114 -298.5t-290 -117.5zM248 624l-95 -530h123q124 0 203 89t79 229q0 98 -53.5 155t-145.5 57h-111z" />
    <glyph glyph-name="dcaron" unicode="&#x10f;" horiz-adv-x="588" 
d="M28 202q0 143 78 240.5t192 97.5q57 0 97 -29.5t55 -81.5l51 289h97l-127 -718h-90l18 101q-32 -52 -80.5 -81.5t-104.5 -29.5q-83 0 -134.5 58.5t-51.5 153.5zM678 568h-65l27 150h83zM129 212q0 -62 31.5 -98t85.5 -36q78 0 129.5 72.5t51.5 169.5q0 61 -32 97.5
t-87 36.5q-77 0 -128 -69.5t-51 -172.5z" />
    <glyph glyph-name="Dcroat" unicode="&#x110;" horiz-adv-x="716" 
d="M295 0h-233l58 326h-103l15 88h103l54 304h218q129 0 210.5 -84.5t81.5 -217.5q0 -181 -114 -298.5t-290 -117.5zM370 326h-144l-42 -232h122q125 0 204 89t79 229q0 97 -53.5 154.5t-145.5 57.5h-111l-38 -210h144z" />
    <glyph glyph-name="dcroat" unicode="&#x111;" horiz-adv-x="588" 
d="M28 202q0 143 78 240.5t192 97.5q57 0 97 -29.5t55 -81.5l29 167h-129l12 67h129l10 55h97l-10 -55h84l-11 -67h-85l-105 -596h-90l18 101q-32 -52 -80.5 -81.5t-104.5 -29.5q-83 0 -134.5 58.5t-51.5 153.5zM129 212q0 -62 31.5 -98t85.5 -36q78 0 129.5 72.5
t51.5 169.5q0 61 -32 97.5t-87 36.5q-77 0 -128 -69.5t-51 -172.5z" />
    <glyph glyph-name="Emacron" unicode="&#x112;" horiz-adv-x="566" 
d="M534 784h-291l11 68h292zM484 93l-16 -93h-437l127 718h430l-16 -93h-324l-37 -209h295l-16 -92h-295l-42 -231h331z" />
    <glyph glyph-name="emacron" unicode="&#x113;" horiz-adv-x="543" 
d="M470 597h-292l11 67h292zM253 -10q-97 0 -160 62t-63 164q0 139 80.5 231.5t199.5 92.5q113 0 166.5 -84.5t29.5 -214.5h-374q-1 -6 -1 -20q0 -69 34.5 -108.5t95.5 -39.5q95 0 134 107h99q-63 -190 -241 -190zM308 462q-62 0 -105.5 -43t-61.5 -113h277q8 70 -21.5 113
t-88.5 43z" />
    <glyph glyph-name="Edotaccent" unicode="&#x116;" horiz-adv-x="566" 
d="M470 852q0 -32 -24.5 -54.5t-58.5 -22.5q-27 0 -43.5 15t-16.5 39q0 31 25 54t58 23q27 0 43.5 -15t16.5 -39zM484 93l-16 -93h-437l127 718h430l-16 -93h-324l-37 -209h295l-16 -92h-295l-42 -231h331z" />
    <glyph glyph-name="edotaccent" unicode="&#x117;" horiz-adv-x="543" 
d="M406 665q0 -32 -24.5 -55t-58.5 -23q-27 0 -43.5 15t-16.5 39q0 31 24.5 54.5t57.5 23.5q27 0 44 -15t17 -39zM253 -10q-97 0 -160 62t-63 164q0 139 80.5 231.5t199.5 92.5q113 0 166.5 -84.5t29.5 -214.5h-374q-1 -6 -1 -20q0 -69 34.5 -108.5t95.5 -39.5q95 0 134 107
h99q-63 -190 -241 -190zM308 462q-62 0 -105.5 -43t-61.5 -113h277q8 70 -21.5 113t-88.5 43z" />
    <glyph glyph-name="Eogonek" unicode="&#x118;" horiz-adv-x="566" 
d="M412 -120l-12 -68q-29 -10 -62 -10q-39 0 -62 21t-23 58q0 66 73 119h-295l127 718h430l-16 -93h-324l-37 -209h295l-16 -92h-295l-42 -231h331l-16 -93h-78q-56 -44 -56 -91q0 -37 40 -37q19 0 38 8z" />
    <glyph glyph-name="eogonek" unicode="&#x119;" horiz-adv-x="543" 
d="M253 -10q-97 0 -160 62t-63 164q0 139 80.5 231.5t199.5 92.5q113 0 166.5 -84.5t29.5 -214.5h-374q-1 -6 -1 -20q0 -69 34.5 -108.5t95.5 -39.5q95 0 134 107h99q-42 -129 -143 -172q-67 -48 -67 -99q0 -37 40 -37q19 0 39 8l-13 -68q-29 -10 -61 -10q-40 0 -63 21
t-23 58q0 59 61 109h-11zM308 462q-62 0 -105.5 -43t-61.5 -113h277q8 70 -21.5 113t-88.5 43z" />
    <glyph glyph-name="Ecaron" unicode="&#x11a;" horiz-adv-x="566" 
d="M444 770h-115l-105 143h102l64 -87l93 87h116zM484 93l-16 -93h-437l127 718h430l-16 -93h-324l-37 -209h295l-16 -92h-295l-42 -231h331z" />
    <glyph glyph-name="ecaron" unicode="&#x11b;" horiz-adv-x="543" 
d="M380 582h-116l-105 144h103l63 -87l93 87h116zM253 -10q-97 0 -160 62t-63 164q0 139 80.5 231.5t199.5 92.5q113 0 166.5 -84.5t29.5 -214.5h-374q-1 -6 -1 -20q0 -69 34.5 -108.5t95.5 -39.5q95 0 134 107h99q-63 -190 -241 -190zM308 462q-62 0 -105.5 -43t-61.5 -113
h277q8 70 -21.5 113t-88.5 43z" />
    <glyph glyph-name="Gbreve" unicode="&#x11e;" horiz-adv-x="769" 
d="M567 913h72q-13 -70 -56 -108t-109 -38q-62 0 -100.5 39.5t-38.5 106.5h72q0 -81 70 -81q35 0 59 22t31 59zM362 -15q-138 0 -225 87t-87 226q0 184 120 309.5t295 125.5q126 0 206.5 -72t86.5 -190h-109q-4 77 -55.5 122t-136.5 45q-127 0 -212.5 -97t-85.5 -242
q0 -100 59 -162t154 -62q93 0 161 56.5t91 153.5h-238l15 86h351q-27 -180 -130.5 -283t-259.5 -103z" />
    <glyph glyph-name="gbreve" unicode="&#x11f;" horiz-adv-x="581" 
d="M414 726h72q-13 -70 -56 -108.5t-109 -38.5q-62 0 -100.5 40t-38.5 107h72q0 -82 70 -82q35 0 59 22t31 60zM215 -203q-95 0 -151 51t-58 142h94q2 -55 33.5 -85t87.5 -30q124 0 149 141l17 98q-29 -48 -76 -75t-100 -27q-82 0 -131.5 56t-49.5 150q0 133 79 227.5
t190 94.5q54 0 93.5 -27t58.5 -77l15 94h91l-90 -513q-39 -220 -252 -220zM129 227q0 -61 29.5 -96t82.5 -35q76 0 127.5 70t51.5 160q0 59 -31 94t-85 35q-73 0 -124 -66.5t-51 -161.5z" />
    <glyph glyph-name="Gcommaaccent" unicode="&#x122;" horiz-adv-x="769" 
d="M362 -15q-138 0 -225 87t-87 226q0 184 120 309.5t295 125.5q126 0 206.5 -72t86.5 -190h-109q-4 77 -55.5 122t-136.5 45q-127 0 -212.5 -97t-85.5 -242q0 -100 59 -162t154 -62q93 0 161 56.5t91 153.5h-238l15 86h351q-27 -180 -130.5 -283t-259.5 -103zM416 -104
q0 -57 -47.5 -88.5t-109.5 -25.5l7 41q72 -2 87 42q-26 -8 -44.5 2t-18.5 30q0 24 18.5 40t47.5 16q27 0 43.5 -16t16.5 -41z" />
    <glyph glyph-name="gcommaaccent" unicode="&#x123;" horiz-adv-x="581" 
d="M260 634q0 56 47.5 88t109.5 26l-7 -41q-72 2 -87 -41q12 3 21 3q19 0 30.5 -10t11.5 -26q0 -23 -18.5 -39t-47.5 -16q-26 0 -43 15.5t-17 40.5zM215 -203q-95 0 -151 51t-58 142h94q2 -55 33.5 -85t87.5 -30q124 0 149 141l17 98q-29 -48 -76 -75t-100 -27
q-82 0 -131.5 56t-49.5 150q0 133 79 227.5t190 94.5q54 0 93.5 -27t58.5 -77l15 94h91l-90 -513q-39 -220 -252 -220zM129 227q0 -61 29.5 -96t82.5 -35q76 0 127.5 70t51.5 160q0 59 -31 94t-85 35q-73 0 -124 -66.5t-51 -161.5z" />
    <glyph glyph-name="Imacron" unicode="&#x12a;" horiz-adv-x="263" 
d="M369 784h-292l12 68h291zM138 0h-107l127 718h107z" />
    <glyph glyph-name="imacron" unicode="&#x12b;" horiz-adv-x="237" 
d="M322 597h-292l11 67h292zM120 0h-97l94 530h97z" />
    <glyph glyph-name="Iogonek" unicode="&#x12e;" horiz-adv-x="263" 
d="M138 0h-66q-57 -44 -57 -91q0 -37 40 -37q20 0 39 8l-12 -68q-29 -10 -62 -10q-40 0 -63 21t-23 58q0 75 100 137l124 700h107z" />
    <glyph glyph-name="iogonek" unicode="&#x12f;" horiz-adv-x="237" 
d="M258 665q0 -32 -24.5 -55t-58.5 -23q-27 0 -43.5 15.5t-16.5 38.5q0 32 24.5 55t58.5 23q27 0 43.5 -15.5t16.5 -38.5zM120 0h-56q-57 -44 -57 -91q0 -37 41 -37q19 0 38 8l-12 -68q-29 -10 -62 -10q-40 0 -63 21t-23 58q0 75 100 137l91 512h97z" />
    <glyph glyph-name="Idotaccent" unicode="&#x130;" horiz-adv-x="263" 
d="M305 852q0 -32 -24.5 -54.5t-58.5 -22.5q-27 0 -43.5 15t-16.5 39q0 31 24.5 54t58.5 23q27 0 43.5 -15t16.5 -39zM138 0h-107l127 718h107z" />
    <glyph glyph-name="dotlessi" unicode="&#x131;" horiz-adv-x="237" 
d="M120 0h-97l94 530h97z" />
    <glyph glyph-name="Kcommaaccent" unicode="&#x136;" horiz-adv-x="619" 
d="M137 0h-106l127 718h106l-59 -333l344 333h128l-373 -364l244 -354h-122l-230 334zM324 -104q0 -57 -47.5 -88.5t-109.5 -25.5l6 41q73 -2 88 42q-26 -8 -44.5 2t-18.5 30q0 24 18.5 40t47.5 16q27 0 43.5 -16t16.5 -41z" />
    <glyph glyph-name="kcommaaccent" unicode="&#x137;" horiz-adv-x="513" 
d="M120 0h-97l127 718h97l-75 -425l257 237h117l-283 -263l202 -267h-114l-187 251zM277 -104q0 -57 -47.5 -88.5t-109.5 -25.5l7 41q71 -2 88 42q-27 -8 -45.5 2t-18.5 30q0 23 19 39.5t47 16.5q27 0 43.5 -16t16.5 -41z" />
    <glyph glyph-name="Lacute" unicode="&#x139;" horiz-adv-x="526" 
d="M272 771h-108l122 142h118zM449 0h-418l127 718h107l-111 -621h312z" />
    <glyph glyph-name="lacute" unicode="&#x13a;" horiz-adv-x="237" 
d="M263 771h-108l121 142h118zM120 0h-97l127 718h97z" />
    <glyph glyph-name="Lcommaaccent" unicode="&#x13b;" horiz-adv-x="526" 
d="M449 0h-418l127 718h107l-111 -621h312zM301 -112q0 -57 -47.5 -88.5t-109.5 -25.5l7 41q71 -3 88 41q-27 -8 -45.5 2t-18.5 30q0 23 19 39.5t47 16.5q27 0 43.5 -16t16.5 -40z" />
    <glyph glyph-name="lcommaaccent" unicode="&#x13c;" horiz-adv-x="237" 
d="M120 0h-97l127 718h97zM118 -112q0 -57 -47.5 -88.5t-109.5 -25.5l7 41q72 -3 87 41q-26 -8 -44.5 2t-18.5 30q0 24 18.5 40t47.5 16q27 0 43.5 -16t16.5 -40z" />
    <glyph glyph-name="Lcaron" unicode="&#x13d;" horiz-adv-x="526" 
d="M449 0h-418l127 718h107l-111 -621h312zM389 568h-65l27 150h84z" />
    <glyph glyph-name="lcaron" unicode="&#x13e;" horiz-adv-x="237" 
d="M120 0h-97l127 718h97zM327 568h-65l27 150h84z" />
    <glyph glyph-name="Lslash" unicode="&#x141;" horiz-adv-x="526" 
d="M449 0h-418l54 307l-102 -26l15 91l103 26l57 320h107l-52 -293l200 50l-15 -89l-201 -51l-43 -238h312z" />
    <glyph glyph-name="lslash" unicode="&#x142;" horiz-adv-x="237" 
d="M120 0h-97l56 315l-107 -25l14 85l108 26l56 317h97l-52 -293l107 26l-14 -86l-108 -26z" />
    <glyph glyph-name="Nacute" unicode="&#x143;" horiz-adv-x="724" 
d="M505 771h-108l122 142h118zM491 0l-260 566l-100 -566h-100l127 718h116l254 -552l98 552h100l-127 -718h-108z" />
    <glyph glyph-name="nacute" unicode="&#x144;" horiz-adv-x="560" 
d="M392 583h-107l121 142h118zM174 300l-54 -300h-97l94 530h90l-16 -89q65 99 170 99q81 0 122 -57.5t25 -149.5l-59 -333h-97l54 309q12 68 -11 106t-75 38q-55 0 -94.5 -42.5t-51.5 -110.5z" />
    <glyph glyph-name="Ncommaaccent" unicode="&#x145;" horiz-adv-x="724" 
d="M491 0l-260 566l-100 -566h-100l127 718h116l254 -552l98 552h100l-127 -718h-108zM361 -104q0 -57 -47.5 -88.5t-109.5 -25.5l7 41q72 -2 87 42q-26 -8 -44.5 2t-18.5 30q0 24 18.5 40t47.5 16q27 0 43.5 -16t16.5 -41z" />
    <glyph glyph-name="ncommaaccent" unicode="&#x146;" horiz-adv-x="560" 
d="M174 300l-54 -300h-97l94 530h90l-16 -89q65 99 170 99q81 0 122 -57.5t25 -149.5l-59 -333h-97l54 309q12 68 -11 106t-75 38q-55 0 -94.5 -42.5t-51.5 -110.5zM286 -104q0 -57 -47.5 -88.5t-109.5 -25.5l7 41q72 -2 87 42q-26 -8 -44.5 2t-18.5 30q0 23 19 39.5
t47 16.5q27 0 43.5 -16t16.5 -41z" />
    <glyph glyph-name="Ncaron" unicode="&#x147;" horiz-adv-x="724" 
d="M509 770h-115l-105 143h102l64 -87l93 87h116zM491 0l-260 566l-100 -566h-100l127 718h116l254 -552l98 552h100l-127 -718h-108z" />
    <glyph glyph-name="ncaron" unicode="&#x148;" horiz-adv-x="560" 
d="M396 582h-115l-105 144h102l64 -87l93 87h116zM174 300l-54 -300h-97l94 530h90l-16 -89q65 99 170 99q81 0 122 -57.5t25 -149.5l-59 -333h-97l54 309q12 68 -11 106t-75 38q-55 0 -94.5 -42.5t-51.5 -110.5z" />
    <glyph glyph-name="Omacron" unicode="&#x14c;" horiz-adv-x="778" 
d="M617 784h-292l11 68h292zM351 -15q-132 0 -216.5 88t-84.5 225q0 184 118.5 309.5t292.5 125.5q131 0 216 -87.5t85 -223.5q0 -184 -119 -310.5t-292 -126.5zM362 80q123 0 206.5 98t83.5 242q0 98 -55.5 158t-146.5 60q-124 0 -207.5 -97t-83.5 -242q0 -98 56 -158.5
t147 -60.5z" />
    <glyph glyph-name="omacron" unicode="&#x14d;" horiz-adv-x="565" 
d="M481 597h-292l12 67h291zM243 -10q-96 0 -155.5 60.5t-59.5 158.5q0 137 86.5 234t208.5 97q95 0 154.5 -60.5t59.5 -157.5q0 -137 -86 -234.5t-208 -97.5zM253 77q76 0 129.5 69t53.5 167q0 64 -33.5 102t-89.5 38q-76 0 -130 -69.5t-54 -167.5q0 -64 34 -101.5
t90 -37.5z" />
    <glyph glyph-name="Ohungarumlaut" unicode="&#x150;" horiz-adv-x="778" 
d="M597 771h-99l127 142h103zM415 771h-98l120 142h104zM351 -15q-132 0 -216.5 88t-84.5 225q0 184 118.5 309.5t292.5 125.5q131 0 216 -87.5t85 -223.5q0 -184 -119 -310.5t-292 -126.5zM362 80q123 0 206.5 98t83.5 242q0 98 -55.5 158t-146.5 60q-124 0 -207.5 -97
t-83.5 -242q0 -98 56 -158.5t147 -60.5z" />
    <glyph glyph-name="ohungarumlaut" unicode="&#x151;" horiz-adv-x="565" 
d="M461 583h-98l126 142h104zM279 583h-98l121 142h103zM243 -10q-96 0 -155.5 60.5t-59.5 158.5q0 137 86.5 234t208.5 97q95 0 154.5 -60.5t59.5 -157.5q0 -137 -86 -234.5t-208 -97.5zM253 77q76 0 129.5 69t53.5 167q0 64 -33.5 102t-89.5 38q-76 0 -130 -69.5
t-54 -167.5q0 -64 34 -101.5t90 -37.5z" />
    <glyph glyph-name="OE" unicode="&#x152;" horiz-adv-x="1036" 
d="M50 296q0 187 106.5 312t266.5 125q73 0 124 -38t71 -106l23 129h415l-16 -93h-319l-37 -209h291l-16 -92h-292l-40 -231h326l-16 -93h-422l19 106q-97 -121 -232 -121q-113 0 -182.5 86t-69.5 225zM160 297q0 -101 43 -159t119 -58q105 0 178 100.5t73 242.5
q0 100 -43.5 157.5t-119.5 57.5q-104 0 -177 -99t-73 -242z" />
    <glyph glyph-name="oe" unicode="&#x153;" horiz-adv-x="942" 
d="M28 209q0 137 86.5 234t208.5 97q64 0 110 -31t67 -86q36 55 90.5 86t119.5 31q112 0 166 -84t30 -215h-374q-5 -77 28.5 -122.5t99.5 -45.5q95 0 134 107h99q-62 -190 -241 -190q-67 0 -116.5 34.5t-72.5 93.5q-37 -59 -94.5 -93.5t-125.5 -34.5q-96 0 -155.5 60.5
t-59.5 158.5zM707 462q-61 0 -106 -43t-61 -113h277q8 70 -21.5 113t-88.5 43zM129 216q0 -64 34 -101.5t90 -37.5q76 0 129.5 69t53.5 167q0 64 -33.5 102t-89.5 38q-76 0 -130 -69.5t-54 -167.5z" />
    <glyph glyph-name="Racute" unicode="&#x154;" horiz-adv-x="640" 
d="M441 771h-107l121 142h118zM138 0h-107l127 718h254q99 0 160.5 -53.5t61.5 -139.5q0 -93 -56 -156.5t-156 -84.5l143 -284h-118l-134 271h-128zM248 628l-47 -267h144q85 0 133 41t48 112q0 53 -36 83.5t-100 30.5h-142z" />
    <glyph glyph-name="racute" unicode="&#x155;" horiz-adv-x="366" 
d="M334 583h-108l122 142h118zM169 272l-49 -272h-97l94 530h90l-21 -113q77 120 219 120l-18 -102q-85 7 -144.5 -36.5t-73.5 -126.5z" />
    <glyph glyph-name="Rcommaaccent" unicode="&#x156;" horiz-adv-x="640" 
d="M138 0h-107l127 718h254q99 0 160.5 -53.5t61.5 -139.5q0 -93 -56 -156.5t-156 -84.5l143 -284h-118l-134 271h-128zM248 628l-47 -267h144q85 0 133 41t48 112q0 53 -36 83.5t-100 30.5h-142zM336 -104q0 -57 -47.5 -88.5t-109.5 -25.5l7 41q71 -2 88 42q-27 -8 -45.5 2
t-18.5 30q0 23 19 39.5t47 16.5q27 0 43.5 -16t16.5 -41z" />
    <glyph glyph-name="rcommaaccent" unicode="&#x157;" horiz-adv-x="366" 
d="M169 272l-49 -272h-97l94 530h90l-21 -113q77 120 219 120l-18 -102q-85 7 -144.5 -36.5t-73.5 -126.5zM122 -104q0 -57 -47.5 -88.5t-109.5 -25.5l7 41q71 -2 88 42q-27 -8 -45.5 2t-18.5 30q0 23 19 39.5t47 16.5q27 0 43.5 -16t16.5 -41z" />
    <glyph glyph-name="Rcaron" unicode="&#x158;" horiz-adv-x="640" 
d="M445 770h-115l-105 143h102l64 -87l93 87h116zM138 0h-107l127 718h254q99 0 160.5 -53.5t61.5 -139.5q0 -93 -56 -156.5t-156 -84.5l143 -284h-118l-134 271h-128zM248 628l-47 -267h144q85 0 133 41t48 112q0 53 -36 83.5t-100 30.5h-142z" />
    <glyph glyph-name="rcaron" unicode="&#x159;" horiz-adv-x="366" 
d="M338 582h-116l-104 144h102l64 -87l92 87h116zM169 272l-49 -272h-97l94 530h90l-21 -113q77 120 219 120l-18 -102q-85 7 -144.5 -36.5t-73.5 -126.5z" />
    <glyph glyph-name="Sacute" unicode="&#x15a;" horiz-adv-x="629" 
d="M423 771h-108l122 142h118zM567 209q0 -100 -72 -159.5t-191 -59.5q-125 0 -196.5 63.5t-72.5 174.5h105q1 -70 47 -110.5t122 -40.5q68 0 109 32t41 85q0 43 -23.5 67t-81.5 40l-91 26q-164 46 -164 187q0 97 70.5 155.5t188.5 58.5q109 0 176 -64.5t68 -169.5h-105
q0 65 -40 106.5t-104 41.5q-69 0 -108 -31.5t-39 -87.5q0 -80 105 -109l94 -27q162 -45 162 -178z" />
    <glyph glyph-name="sacute" unicode="&#x15b;" horiz-adv-x="512" 
d="M352 583h-107l121 142h118zM450 157q0 -76 -57 -121.5t-160 -45.5q-94 0 -153 49t-61 134h93q2 -51 36.5 -80t91.5 -29q51 0 82.5 21t31.5 61q0 31 -18 46.5t-58 25.5l-79 18q-126 29 -126 141q0 75 59 119t152 44q90 0 142.5 -47.5t54.5 -129.5h-93q-3 49 -30.5 76.5
t-77.5 27.5q-51 0 -82 -22t-31 -60q0 -32 19.5 -49t56.5 -26l72 -17q63 -14 99 -45.5t36 -90.5z" />
    <glyph glyph-name="Scedilla" unicode="&#x15e;" horiz-adv-x="629" 
d="M385 -111q0 -38 -31.5 -62.5t-82.5 -24.5q-50 0 -78.5 23.5t-28.5 65.5h64q0 -18 11.5 -28.5t30.5 -10.5q21 0 33 11t12 31q0 22 -21 33.5t-50 7.5l25 56q-109 9 -171 71.5t-63 165.5h105q1 -70 47 -110.5t122 -40.5q68 0 109 32t41 85q0 43 -23.5 67t-81.5 40l-91 26
q-164 46 -164 187q0 97 70.5 155.5t188.5 58.5q109 0 176 -64.5t68 -169.5h-105q0 65 -40 106.5t-104 41.5q-69 0 -108 -31.5t-39 -87.5q0 -80 105 -109l94 -27q162 -45 162 -178q0 -96 -67 -155t-180 -64l-12 -26q36 -5 56.5 -25t20.5 -50z" />
    <glyph glyph-name="scedilla" unicode="&#x15f;" horiz-adv-x="512" 
d="M309 -111q0 -38 -31.5 -62.5t-81.5 -24.5t-79 23.5t-29 65.5h64q0 -18 11.5 -28.5t31.5 -10.5q21 0 33 11t12 31q0 22 -21.5 33.5t-50.5 7.5l26 57q-78 10 -125.5 57.5t-49.5 123.5h93q2 -51 36.5 -80t91.5 -29q51 0 82.5 21t31.5 61q0 31 -18 46.5t-58 25.5l-79 18
q-126 29 -126 141q0 75 59 119t152 44q90 0 142.5 -47.5t54.5 -129.5h-93q-3 49 -30.5 76.5t-77.5 27.5q-51 0 -82 -22t-31 -60q0 -32 19.5 -49t56.5 -26l72 -17q63 -14 99 -45.5t36 -90.5q0 -74 -53.5 -119t-151.5 -48l-12 -26q36 -5 56 -25t20 -50z" />
    <glyph glyph-name="Scaron" unicode="&#x160;" horiz-adv-x="629" 
d="M427 770h-116l-105 143h103l63 -87l93 87h116zM567 209q0 -100 -72 -159.5t-191 -59.5q-125 0 -196.5 63.5t-72.5 174.5h105q1 -70 47 -110.5t122 -40.5q68 0 109 32t41 85q0 43 -23.5 67t-81.5 40l-91 26q-164 46 -164 187q0 97 70.5 155.5t188.5 58.5q109 0 176 -64.5
t68 -169.5h-105q0 65 -40 106.5t-104 41.5q-69 0 -108 -31.5t-39 -87.5q0 -80 105 -109l94 -27q162 -45 162 -178z" />
    <glyph glyph-name="scaron" unicode="&#x161;" horiz-adv-x="512" 
d="M356 582h-115l-105 144h102l64 -87l93 87h116zM450 157q0 -76 -57 -121.5t-160 -45.5q-94 0 -153 49t-61 134h93q2 -51 36.5 -80t91.5 -29q51 0 82.5 21t31.5 61q0 31 -18 46.5t-58 25.5l-79 18q-126 29 -126 141q0 75 59 119t152 44q90 0 142.5 -47.5t54.5 -129.5h-93
q-3 49 -30.5 76.5t-77.5 27.5q-51 0 -82 -22t-31 -60q0 -32 19.5 -49t56.5 -26l72 -17q63 -14 99 -45.5t36 -90.5z" />
    <glyph glyph-name="Tcedilla" unicode="&#x162;" horiz-adv-x="583" 
d="M298 0h-31l-17 -36q36 -5 56.5 -25t20.5 -50q0 -38 -31.5 -62.5t-82.5 -24.5q-50 0 -78.5 23.5t-28.5 65.5h64q0 -18 11.5 -28.5t30.5 -10.5q21 0 33 11t12 31q0 22 -21 33.5t-50 7.5l29 65h-23l109 621h-224l16 97h555l-16 -97h-225z" />
    <glyph glyph-name="tcedilla" unicode="&#x163;" horiz-adv-x="383" 
d="M279 -111q0 -38 -31.5 -62.5t-81.5 -24.5t-78.5 23.5t-28.5 65.5h63q0 -18 11.5 -28.5t31.5 -10.5q21 0 33 11t12 31q0 22 -21.5 33.5t-50.5 7.5l28 63q-48 17 -68.5 63t-8.5 113l48 272h-111l15 84h111l27 157h98l-27 -157h153l-15 -84h-154l-47 -272q-17 -93 65 -93
q37 0 69 15l-15 -90q-38 -16 -85 -16h-6l-12 -26q36 -5 56 -25t20 -50z" />
    <glyph glyph-name="Tcaron" unicode="&#x164;" horiz-adv-x="583" 
d="M438 770h-115l-105 143h102l64 -87l93 87h116zM298 0h-106l109 621h-224l16 97h555l-16 -97h-225z" />
    <glyph glyph-name="tcaron" unicode="&#x165;" horiz-adv-x="383" 
d="M362 568h-65l27 150h84zM321 96l-15 -90q-38 -16 -85 -16q-76 0 -111.5 50t-20.5 134l48 272h-111l15 84h111l27 157h98l-27 -157h153l-15 -84h-154l-47 -272q-17 -93 65 -93q37 0 69 15z" />
    <glyph glyph-name="Umacron" unicode="&#x16a;" horiz-adv-x="685" 
d="M580 784h-292l11 68h292zM689 718l-81 -461q-23 -134 -99 -203t-200 -69q-122 0 -189 75.5t-45 196.5l81 461h107l-83 -464q-15 -81 23.5 -127t110.5 -46q157 0 187 173l82 464h106z" />
    <glyph glyph-name="umacron" unicode="&#x16b;" horiz-adv-x="551" 
d="M475 597h-291l11 67h292zM376 225l55 305h97l-93 -530h-90l15 90q-66 -100 -163 -100q-80 0 -120 57.5t-24 149.5l58 333h97l-54 -309q-12 -67 10.5 -105t73.5 -38q52 0 89 40.5t49 106.5z" />
    <glyph glyph-name="Uring" unicode="&#x16e;" horiz-adv-x="685" 
d="M435 766q-46 0 -75.5 26.5t-29.5 69.5q0 54 40 92.5t96 38.5q46 0 76 -27t30 -69q0 -53 -40.5 -92t-96.5 -39zM441 819q29 0 49.5 21.5t20.5 51.5q0 21 -14 35t-36 14q-29 0 -49.5 -21.5t-20.5 -52.5q0 -21 14 -34.5t36 -13.5zM689 718l-81 -461q-23 -134 -99 -203
t-200 -69q-122 0 -189 75.5t-45 196.5l81 461h107l-83 -464q-15 -81 23.5 -127t110.5 -46q157 0 187 173l82 464h106z" />
    <glyph glyph-name="uring" unicode="&#x16f;" horiz-adv-x="551" 
d="M331 579q-46 0 -75.5 26.5t-29.5 68.5q0 55 40 93.5t96 38.5q46 0 75.5 -27t29.5 -69q0 -54 -40 -92.5t-96 -38.5zM337 632q28 0 48.5 21.5t20.5 50.5q0 22 -14 35.5t-36 13.5q-28 0 -48.5 -21.5t-20.5 -52.5q0 -21 14 -34t36 -13zM376 225l55 305h97l-93 -530h-90l15 90
q-66 -100 -163 -100q-80 0 -120 57.5t-24 149.5l58 333h97l-54 -309q-12 -67 10.5 -105t73.5 -38q52 0 89 40.5t49 106.5z" />
    <glyph glyph-name="Uhungarumlaut" unicode="&#x170;" horiz-adv-x="685" 
d="M560 771h-99l127 142h103zM378 771h-98l120 142h104zM689 718l-81 -461q-23 -134 -99 -203t-200 -69q-122 0 -189 75.5t-45 196.5l81 461h107l-83 -464q-15 -81 23.5 -127t110.5 -46q157 0 187 173l82 464h106z" />
    <glyph glyph-name="uhungarumlaut" unicode="&#x171;" horiz-adv-x="551" 
d="M456 583h-99l126 142h104zM274 583h-99l121 142h103zM376 225l55 305h97l-93 -530h-90l15 90q-66 -100 -163 -100q-80 0 -120 57.5t-24 149.5l58 333h97l-54 -309q-12 -67 10.5 -105t73.5 -38q52 0 89 40.5t49 106.5z" />
    <glyph glyph-name="Uogonek" unicode="&#x172;" horiz-adv-x="685" 
d="M450 -120l-13 -68q-29 -10 -61 -10q-40 0 -63 21t-23 58q0 57 57 106q-26 -2 -38 -2q-122 0 -189 75.5t-45 196.5l81 461h107l-83 -464q-15 -81 23.5 -127t110.5 -46q157 0 187 173l82 464h106l-81 -461q-33 -190 -168 -247q-69 -48 -69 -101q0 -37 40 -37q19 0 39 8z
" />
    <glyph glyph-name="uogonek" unicode="&#x173;" horiz-adv-x="551" 
d="M408 -120l-12 -68q-29 -10 -62 -10q-40 0 -62.5 21t-22.5 58q0 75 99 137l12 72q-66 -100 -163 -100q-80 0 -120 57.5t-24 149.5l58 333h97l-54 -309q-12 -67 10.5 -105t73.5 -38q52 0 89 40.5t49 106.5l55 305h97l-93 -530h-49q-56 -44 -56 -91q0 -37 40 -37q19 0 38 8z
" />
    <glyph glyph-name="Wcircumflex" unicode="&#x174;" horiz-adv-x="910" 
d="M468 770h-116l155 143h115l105 -143h-103l-63 87zM554 0l-45 566l-246 -566h-111l-52 718h105l34 -556l242 556h104l42 -557l232 557h110l-306 -718h-109z" />
    <glyph glyph-name="wcircumflex" unicode="&#x175;" horiz-adv-x="746" 
d="M353 582h-116l155 144h115l105 -144h-102l-64 87zM445 0l-46 403l-186 -403h-101l-53 530h94l35 -394l182 394h98l43 -395l172 395h97l-241 -530h-94z" />
    <glyph glyph-name="Ycircumflex" unicode="&#x176;" horiz-adv-x="634" 
d="M323 770h-116l155 143h115l105 -143h-102l-64 87zM370 269l-48 -269h-107l48 269l-168 449h107l126 -349l251 349h119z" />
    <glyph glyph-name="ycircumflex" unicode="&#x177;" horiz-adv-x="490" 
d="M225 582h-116l155 144h115l105 -144h-102l-64 87zM535 530l-385 -723h-106l111 200l-106 523h98l76 -406l207 406h105z" />
    <glyph glyph-name="Ydieresis" unicode="&#x178;" horiz-adv-x="634" 
d="M576 854q0 -32 -24 -55.5t-56 -23.5q-25 0 -41 15t-16 38q0 32 24.5 55.5t56.5 23.5q25 0 40.5 -15t15.5 -38zM385 854q0 -32 -23.5 -55.5t-56.5 -23.5q-25 0 -40.5 15t-15.5 38q0 32 23.5 55.5t56.5 23.5q25 0 40.5 -15t15.5 -38zM370 269l-48 -269h-107l48 269
l-168 449h107l126 -349l251 349h119z" />
    <glyph glyph-name="Zacute" unicode="&#x179;" horiz-adv-x="599" 
d="M444 771h-108l122 142h118zM515 0h-523l15 82l465 543h-362l17 93h502l-15 -83l-464 -542h381z" />
    <glyph glyph-name="zacute" unicode="&#x17a;" horiz-adv-x="484" 
d="M353 583h-107l121 142h118zM407 0h-420l14 76l348 370h-278l14 84h406l-14 -79l-345 -366h289z" />
    <glyph glyph-name="Zdotaccent" unicode="&#x17b;" horiz-adv-x="599" 
d="M474 852q0 -31 -24.5 -54t-58.5 -23q-27 0 -43.5 15t-16.5 39q0 31 24.5 54t57.5 23q28 0 44.5 -15t16.5 -39zM515 0h-523l15 82l465 543h-362l17 93h502l-15 -83l-464 -542h381z" />
    <glyph glyph-name="zdotaccent" unicode="&#x17c;" horiz-adv-x="484" 
d="M383 665q0 -32 -24.5 -55t-58.5 -23q-27 0 -43.5 15.5t-16.5 38.5q0 32 24.5 55t58.5 23q27 0 43.5 -15.5t16.5 -38.5zM407 0h-420l14 76l348 370h-278l14 84h406l-14 -79l-345 -366h289z" />
    <glyph glyph-name="Zcaron" unicode="&#x17d;" horiz-adv-x="599" 
d="M448 770h-115l-105 143h102l64 -87l92 87h116zM515 0h-523l15 82l465 543h-362l17 93h502l-15 -83l-464 -542h381z" />
    <glyph glyph-name="zcaron" unicode="&#x17e;" horiz-adv-x="484" 
d="M357 582h-115l-105 144h102l64 -87l93 87h116zM407 0h-420l14 76l348 370h-278l14 84h406l-14 -79l-345 -366h289z" />
    <glyph glyph-name="florin" unicode="&#x192;" horiz-adv-x="534" 
d="M316 295l-81 -193q-36 -89 -85 -127t-130 -38q-33 0 -53 6l15 91q18 -7 45 -7q75 0 110 88l74 180h-153l15 85h173l59 145q34 84 82 122.5t124 38.5q40 0 64 -10l-14 -80q-19 10 -45 10q-43 0 -68 -24t-43 -70l-54 -132h143l-15 -85h-163z" />
    <glyph glyph-name="Scommaaccent" unicode="&#x218;" horiz-adv-x="629" 
d="M567 209q0 -100 -72 -159.5t-191 -59.5q-125 0 -196.5 63.5t-72.5 174.5h105q1 -70 47 -110.5t122 -40.5q68 0 109 32t41 85q0 43 -23.5 67t-81.5 40l-91 26q-164 46 -164 187q0 97 70.5 155.5t188.5 58.5q109 0 176 -64.5t68 -169.5h-105q0 65 -40 106.5t-104 41.5
q-69 0 -108 -31.5t-39 -87.5q0 -80 105 -109l94 -27q162 -45 162 -178zM349 -104q0 -57 -47.5 -88.5t-109.5 -25.5l7 41q71 -2 88 42q-27 -8 -45.5 2t-18.5 30q0 23 19 39.5t47 16.5q27 0 43.5 -16t16.5 -41z" />
    <glyph glyph-name="scommaaccent" unicode="&#x219;" horiz-adv-x="512" 
d="M450 157q0 -76 -57 -121.5t-160 -45.5q-94 0 -153 49t-61 134h93q2 -51 36.5 -80t91.5 -29q51 0 82.5 21t31.5 61q0 31 -18 46.5t-58 25.5l-79 18q-126 29 -126 141q0 75 59 119t152 44q90 0 142.5 -47.5t54.5 -129.5h-93q-3 49 -30.5 76.5t-77.5 27.5q-51 0 -82 -22
t-31 -60q0 -32 19.5 -49t56.5 -26l72 -17q63 -14 99 -45.5t36 -90.5zM274 -104q0 -57 -47.5 -88.5t-109.5 -25.5l7 41q72 -2 87 42q-26 -8 -44.5 2t-18.5 30q0 24 18.5 40t47.5 16q27 0 43.5 -16t16.5 -41z" />
    <glyph glyph-name="Tcommaaccent" unicode="&#x21a;" horiz-adv-x="583" 
d="M298 0h-106l109 621h-224l16 97h555l-16 -97h-225zM291 -104q0 -57 -47.5 -88.5t-109.5 -25.5l7 41q71 -2 88 42q-27 -8 -45.5 2t-18.5 30q0 23 19 39.5t47 16.5q27 0 43.5 -16t16.5 -41z" />
    <glyph glyph-name="tcommaaccent" unicode="&#x21b;" horiz-adv-x="383" 
d="M321 96l-15 -90q-38 -16 -85 -16q-76 0 -111.5 50t-20.5 134l48 272h-111l15 84h111l27 157h98l-27 -157h153l-15 -84h-154l-47 -272q-17 -93 65 -93q37 0 69 15zM244 -104q0 -57 -47.5 -88.5t-109.5 -25.5l7 41q72 -2 87 42q-26 -8 -44.5 2t-18.5 30q0 23 19 39.5
t47 16.5q27 0 43.5 -16t16.5 -41z" />
    <glyph glyph-name="dotlessj" unicode="&#x237;" horiz-adv-x="233" 
d="M210 530l-99 -558q-32 -175 -182 -175q-41 0 -70 10l16 92q21 -10 51 -10q73 0 88 85l98 556h98z" />
    <glyph glyph-name="circumflex" unicode="&#x2c6;" horiz-adv-x="500" 
d="M238 582h-116l155 144h115l105 -144h-102l-64 87z" />
    <glyph glyph-name="caron" unicode="&#x2c7;" horiz-adv-x="500" 
d="M368 582h-116l-105 144h103l63 -87l93 87h116z" />
    <glyph glyph-name="macronmod" unicode="&#x2c9;" horiz-adv-x="504" 
d="M456 589h-293l12 68h292z" />
    <glyph glyph-name="breve" unicode="&#x2d8;" horiz-adv-x="500" 
d="M414 726h72q-13 -70 -56 -108.5t-109 -38.5q-62 0 -100.5 40t-38.5 107h72q0 -82 70 -82q35 0 59 22t31 60z" />
    <glyph glyph-name="dotaccent" unicode="&#x2d9;" horiz-adv-x="500" 
d="M392 665q0 -32 -24.5 -55t-58.5 -23q-27 0 -43.5 15t-16.5 39q0 31 24.5 54.5t57.5 23.5q27 0 44 -15t17 -39z" />
    <glyph glyph-name="ring" unicode="&#x2da;" horiz-adv-x="500" 
d="M311 579q-46 0 -75.5 26.5t-29.5 68.5q0 55 40 93.5t96 38.5q46 0 75.5 -27t29.5 -69q0 -54 -40 -92.5t-96 -38.5zM316 632q28 0 49 21.5t21 50.5q0 22 -14 35.5t-36 13.5q-29 0 -49 -21.5t-20 -52.5q0 -21 13.5 -34t35.5 -13z" />
    <glyph glyph-name="ogonek" unicode="&#x2db;" horiz-adv-x="500" 
d="M265 -120l-12 -68q-29 -10 -62 -10q-40 0 -63 21t-23 58q0 91 144 161l30 -18q-43 -24 -68 -55t-25 -60q0 -37 40 -37q19 0 39 8z" />
    <glyph glyph-name="tilde" unicode="&#x2dc;" horiz-adv-x="500" 
d="M206 582h-63q4 64 34 103t76 39q33 0 73 -32.5t63 -32.5q41 0 47 71h63q-3 -64 -33.5 -103t-76.5 -39q-33 0 -72.5 32.5t-62.5 32.5q-42 0 -48 -71z" />
    <glyph glyph-name="hungarumlaut" unicode="&#x2dd;" horiz-adv-x="500" 
d="M397 583h-99l126 142h104zM214 583h-98l121 142h103z" />
    <glyph glyph-name="gravecomb" unicode="&#x300;" horiz-adv-x="505" 
d="M407 583h-92l-81 142h101z" />
    <glyph glyph-name="acutecomb" unicode="&#x301;" horiz-adv-x="504" 
d="M312 583h-108l122 142h118z" />
    <glyph glyph-name="circumflexcomb" unicode="&#x302;" horiz-adv-x="507" 
d="M238 582h-116l155 144h115l105 -144h-102l-64 87z" />
    <glyph glyph-name="tildecomb" unicode="&#x303;" horiz-adv-x="505" 
d="M206 582h-63q4 64 34 103t76 39q33 0 73 -32.5t63 -32.5q41 0 47 71h63q-3 -64 -33.5 -103t-76.5 -39q-33 0 -72.5 32.5t-62.5 32.5q-42 0 -48 -71z" />
    <glyph glyph-name="macroncomb" unicode="&#x304;" horiz-adv-x="505" 
d="M457 597h-292l12 67h291z" />
    <glyph glyph-name="brevecomb" unicode="&#x306;" horiz-adv-x="505" 
d="M414 726h72q-13 -70 -56 -108.5t-109 -38.5q-62 0 -100.5 40t-38.5 107h72q0 -82 70 -82q35 0 59 22t31 60z" />
    <glyph glyph-name="dotaccentcomb" unicode="&#x307;" horiz-adv-x="504" 
d="M392 665q0 -32 -24.5 -55t-58.5 -23q-27 0 -43.5 15t-16.5 39q0 31 24.5 54.5t57.5 23.5q27 0 44 -15t17 -39z" />
    <glyph glyph-name="dieresiscomb" unicode="&#x308;" horiz-adv-x="506" 
d="M486 666q0 -32 -24 -55.5t-55 -23.5q-25 0 -41 15t-16 38q0 32 24 55.5t56 23.5q25 0 40.5 -14.5t15.5 -38.5zM295 666q0 -32 -23.5 -55.5t-56.5 -23.5q-25 0 -40.5 15t-15.5 38q0 32 24 55.5t56 23.5q25 0 40.5 -14.5t15.5 -38.5z" />
    <glyph glyph-name="ringcomb" unicode="&#x30a;" horiz-adv-x="504" 
d="M311 579q-46 0 -75.5 26.5t-29.5 68.5q0 55 40 93.5t96 38.5q46 0 75.5 -27t29.5 -69q0 -54 -40 -92.5t-96 -38.5zM316 632q28 0 49 21.5t21 50.5q0 22 -14 35.5t-36 13.5q-29 0 -49 -21.5t-20 -52.5q0 -21 13.5 -34t35.5 -13z" />
    <glyph glyph-name="hungarumlautcomb" unicode="&#x30b;" horiz-adv-x="507" 
d="M397 583h-99l126 142h104zM214 583h-98l121 142h103z" />
    <glyph glyph-name="caroncomb" unicode="&#x30c;" horiz-adv-x="507" 
d="M368 582h-116l-105 144h103l63 -87l93 87h116z" />
    <glyph glyph-name="commaturnedabovecomb" unicode="&#x312;" horiz-adv-x="503" 
d="M248 634q0 57 47 88.5t110 25.5l-7 -41q-72 2 -87 -41q11 3 20 3q19 0 31 -10t12 -26q0 -23 -19 -39t-47 -16q-27 0 -43.5 15.5t-16.5 40.5z" />
    <glyph glyph-name="commaaccentcomb" unicode="&#x326;" horiz-adv-x="503" 
d="M254 -104q0 -57 -47.5 -88.5t-109.5 -25.5l7 41q71 -2 88 42q-27 -8 -45.5 2t-18.5 30q0 23 19 39.5t47 16.5q27 0 43.5 -16t16.5 -41z" />
    <glyph glyph-name="cedillacomb" unicode="&#x327;" horiz-adv-x="503" 
d="M296 -111q0 -38 -31.5 -62.5t-82.5 -24.5q-50 0 -78.5 23.5t-28.5 65.5h64q0 -18 11.5 -28.5t30.5 -10.5q21 0 33 11t12 31q0 22 -21 33.5t-50 7.5l35 78h52l-23 -49q36 -5 56.5 -25t20.5 -50z" />
    <glyph glyph-name="ogonekcomb" unicode="&#x328;" horiz-adv-x="503" 
d="M265 -120l-12 -68q-29 -10 -62 -10q-40 0 -63 21t-23 58q0 91 144 161l30 -18q-43 -24 -68 -55t-25 -60q0 -37 40 -37q19 0 39 8z" />
    <glyph glyph-name="strokeshortcomb" unicode="&#x335;" horiz-adv-x="505" 
d="M465 589h-310l11 68h311z" />
    <glyph glyph-name="slashshortcomb" unicode="&#x337;" horiz-adv-x="504" 
d="M419 353l-316 -75l14 85l316 76z" />
    <glyph glyph-name="slashlongcomb" unicode="&#x338;" horiz-adv-x="505" 
d="M55 0h-84l479 530h84z" />
    <glyph glyph-name="Delta" unicode="&#x394;" horiz-adv-x="674" 
d="M609 0h-638l392 718h111zM402 608l-278 -522h370z" />
    <glyph glyph-name="Omega" unicode="&#x3a9;" horiz-adv-x="684" 
d="M261 0h-276l16 92l194 -6l9 53q-69 27 -111 92t-42 147q0 150 101.5 250t254.5 100q122 0 202 -74t80 -186q0 -114 -66 -201t-185 -127l-10 -54l194 6l-16 -92h-275l33 189q102 25 162.5 97t60.5 169q0 81 -53 131.5t-137 50.5q-104 0 -174 -74t-70 -185q0 -71 38 -122
t103 -67z" />
    <glyph glyph-name="mu" unicode="&#x3bc;" horiz-adv-x="557" 
d="M216 -10q-68 0 -97 53l-33 -236h-97l128 723h97l-55 -309q-11 -66 10.5 -104.5t73.5 -38.5t89.5 40.5t48.5 106.5l55 305h98l-94 -530h-90l16 90q-61 -100 -150 -100z" />
    <glyph glyph-name="pi" unicode="&#x3c0;" horiz-adv-x="574" 
d="M429 -10q-67 0 -99.5 43.5t-18.5 117.5l51 295h-124l-112 -446h-97l120 446h-123l15 84h549l-16 -84h-114l-49 -276q-15 -87 53 -87q30 0 50 10l-16 -91q-36 -12 -69 -12z" />
    <glyph glyph-name="Wgrave" unicode="&#x1e80;" horiz-adv-x="910" 
d="M585 771h-92l-82 142h102zM554 0l-45 566l-246 -566h-111l-52 718h105l34 -556l242 556h104l42 -557l232 557h110l-306 -718h-109z" />
    <glyph glyph-name="wgrave" unicode="&#x1e81;" horiz-adv-x="746" 
d="M470 583h-91l-82 142h101zM445 0l-46 403l-186 -403h-101l-53 530h94l35 -394l182 394h98l43 -395l172 395h97l-241 -530h-94z" />
    <glyph glyph-name="Wacute" unicode="&#x1e82;" horiz-adv-x="910" 
d="M597 771h-107l121 142h118zM554 0l-45 566l-246 -566h-111l-52 718h105l34 -556l242 556h104l42 -557l232 557h110l-306 -718h-109z" />
    <glyph glyph-name="wacute" unicode="&#x1e83;" horiz-adv-x="746" 
d="M483 583h-108l122 142h118zM445 0l-46 403l-186 -403h-101l-53 530h94l35 -394l182 394h98l43 -395l172 395h97l-241 -530h-94z" />
    <glyph glyph-name="Wdieresis" unicode="&#x1e84;" horiz-adv-x="910" 
d="M720 854q0 -32 -24 -55.5t-55 -23.5q-25 0 -41 15t-16 38q0 32 24 55.5t56 23.5q25 0 40.5 -15t15.5 -38zM529 854q0 -32 -23.5 -55.5t-55.5 -23.5q-25 0 -41 15t-16 38q0 32 24 55.5t56 23.5q25 0 40.5 -15t15.5 -38zM554 0l-45 566l-246 -566h-111l-52 718h105l34 -556
l242 556h104l42 -557l232 557h110l-306 -718h-109z" />
    <glyph glyph-name="wdieresis" unicode="&#x1e85;" horiz-adv-x="746" 
d="M606 666q0 -32 -24 -55.5t-56 -23.5q-25 0 -41 15t-16 38q0 32 24 55.5t57 23.5q25 0 40.5 -14.5t15.5 -38.5zM415 666q0 -32 -23.5 -55.5t-56.5 -23.5q-25 0 -40.5 15t-15.5 38q0 32 23.5 55.5t55.5 23.5q26 0 41.5 -14.5t15.5 -38.5zM445 0l-46 403l-186 -403h-101
l-53 530h94l35 -394l182 394h98l43 -395l172 395h97l-241 -530h-94z" />
    <glyph glyph-name="Ygrave" unicode="&#x1ef2;" horiz-adv-x="634" 
d="M441 771h-92l-82 142h102zM370 269l-48 -269h-107l48 269l-168 449h107l126 -349l251 349h119z" />
    <glyph glyph-name="ygrave" unicode="&#x1ef3;" horiz-adv-x="490" 
d="M342 583h-91l-82 142h101zM535 530l-385 -723h-106l111 200l-106 523h98l76 -406l207 406h105z" />
    <glyph glyph-name="endash" unicode="&#x2013;" horiz-adv-x="481" 
d="M456 233h-442l15 86h441z" />
    <glyph glyph-name="emdash" unicode="&#x2014;" horiz-adv-x="722" 
d="M696 233h-682l15 86h682z" />
    <glyph glyph-name="quoteleft" unicode="&#x2018;" horiz-adv-x="255" 
d="M101 550q0 78 55.5 124.5t131.5 41.5l-11 -50q-46 1 -74.5 -18t-33.5 -53q15 6 30 6q24 0 39.5 -14t15.5 -35q0 -34 -23.5 -56t-56.5 -22q-32 0 -52.5 20.5t-20.5 55.5z" />
    <glyph glyph-name="quoteright" unicode="&#x2019;" horiz-adv-x="255" 
d="M272 648q0 -79 -56 -125t-130 -41l10 50q46 -1 74.5 18t33.5 52q-15 -6 -30 -6q-23 0 -39 14t-16 36q0 34 23.5 56t57.5 22q32 0 52 -20.5t20 -55.5z" />
    <glyph glyph-name="quotesinglbase" unicode="&#x201a;" horiz-adv-x="255" 
d="M171 72q0 -79 -56.5 -125t-130.5 -41l10 50q46 -1 74.5 18t33.5 53q-15 -6 -29 -6q-24 0 -40 14t-16 35q0 34 23.5 56t57.5 22q32 0 52.5 -20.5t20.5 -55.5z" />
    <glyph glyph-name="quotedblleft" unicode="&#x201c;" horiz-adv-x="459" 
d="M305 550q0 78 55.5 124.5t130.5 41.5l-10 -50q-46 1 -74.5 -18t-33.5 -53q15 6 30 6q24 0 39.5 -14t15.5 -35q0 -34 -23.5 -56t-57.5 -22q-31 0 -51.5 20.5t-20.5 55.5zM101 550q0 78 55.5 124.5t131.5 41.5l-11 -50q-46 1 -74.5 -18t-33.5 -53q15 6 30 6q24 0 39.5 -14
t15.5 -35q0 -34 -23.5 -56t-56.5 -22q-32 0 -52.5 20.5t-20.5 55.5z" />
    <glyph glyph-name="quotedblright" unicode="&#x201d;" horiz-adv-x="459" 
d="M272 648q0 -79 -56 -125t-130 -41l10 50q46 -1 74.5 18t33.5 52q-15 -6 -30 -6q-23 0 -39 14t-16 36q0 34 23.5 56t57.5 22q32 0 52 -20.5t20 -55.5zM476 648q0 -79 -56 -125t-131 -41l11 50q46 -1 74.5 18t33.5 52q-15 -6 -30 -6q-24 0 -39.5 14t-15.5 36q0 34 23.5 56
t57.5 22q32 0 52 -20.5t20 -55.5z" />
    <glyph glyph-name="quotedblbase" unicode="&#x201e;" horiz-adv-x="459" 
d="M171 72q0 -79 -56.5 -125t-130.5 -41l10 50q46 -1 74.5 18t33.5 53q-15 -6 -29 -6q-24 0 -40 14t-16 35q0 34 23.5 56t57.5 22q32 0 52.5 -20.5t20.5 -55.5zM375 72q0 -79 -56.5 -125t-130.5 -41l10 50q46 -1 74.5 18t33.5 53q-15 -6 -29 -6q-24 0 -40 14t-16 35
q0 34 23.5 56t57.5 22q32 0 52.5 -20.5t20.5 -55.5z" />
    <glyph glyph-name="dagger" unicode="&#x2020;" horiz-adv-x="661" 
d="M295 -193h-91l109 621h-194l15 86h195l36 204h90l-35 -204h194l-15 -86h-195z" />
    <glyph glyph-name="daggerdbl" unicode="&#x2021;" horiz-adv-x="661" 
d="M295 -193h-91l36 204h-194l15 86h194l58 331h-194l15 86h195l36 204h90l-35 -204h194l-15 -86h-195l-58 -331h194l-14 -86h-195z" />
    <glyph glyph-name="bullet" unicode="&#x2022;" horiz-adv-x="488" 
d="M396 295q0 -75 -53 -129.5t-126 -54.5q-56 0 -90.5 34t-34.5 88q0 75 53.5 130.5t125.5 55.5q56 0 90.5 -34.5t34.5 -89.5z" />
    <glyph glyph-name="ellipsis" unicode="&#x2026;" horiz-adv-x="803" 
d="M168 88q0 -38 -26 -65.5t-62 -27.5q-28 0 -45.5 17t-17.5 44q0 38 26.5 65.5t63.5 27.5q27 0 44 -17t17 -44zM443 88q0 -38 -26 -65.5t-62 -27.5q-28 0 -45.5 17t-17.5 44q0 38 26.5 65.5t62.5 27.5q28 0 45 -17t17 -44zM717 88q0 -38 -26 -65.5t-62 -27.5
q-28 0 -45.5 17t-17.5 44q0 38 26.5 65.5t63.5 27.5q27 0 44 -17t17 -44z" />
    <glyph glyph-name="perthousand" unicode="&#x2030;" horiz-adv-x="1488" 
d="M237 262q-77 0 -125.5 48.5t-48.5 124.5q0 102 69.5 174.5t167.5 72.5q77 0 125.5 -48t48.5 -125q0 -102 -69.5 -174.5t-167.5 -72.5zM332 0h-86l480 676h85zM244 333q61 0 104.5 50.5t43.5 120.5q0 49 -27 78t-72 29q-61 0 -104.5 -50.5t-43.5 -120.5q0 -49 27 -78
t72 -29zM756 -8q-77 0 -125.5 48t-48.5 124q0 102 70 175t167 73q77 0 125.5 -48.5t48.5 -125.5q0 -102 -69.5 -174t-167.5 -72zM1213 -8q-77 0 -125.5 48t-48.5 124q0 103 69.5 175.5t166.5 72.5q77 0 125.5 -48.5t48.5 -125.5q0 -102 -69 -174t-167 -72zM763 63
q61 0 104.5 50t43.5 120q0 49 -27 78t-72 29q-61 0 -104.5 -50t-43.5 -120q0 -49 27 -78t72 -29zM1220 63q61 0 104.5 50t43.5 120q0 49 -27 78t-73 29q-60 0 -103.5 -50t-43.5 -120q0 -49 27 -78t72 -29z" />
    <glyph glyph-name="guilsinglleft" unicode="&#x2039;" horiz-adv-x="294" 
d="M232 62h-99l-107 205l170 205h110l-178 -212z" />
    <glyph glyph-name="guilsinglright" unicode="&#x203a;" horiz-adv-x="294" 
d="M63 472h99l108 -205l-171 -205h-109l177 212z" />
    <glyph glyph-name="fraction" unicode="&#x2044;" horiz-adv-x="169" 
d="M-104 0h-79l485 676h80z" />
    <glyph glyph-name="zero.superior" unicode="&#x2070;" horiz-adv-x="385" 
d="M437 780q0 -120 -54.5 -195.5t-141.5 -75.5q-64 0 -99 38t-35 107q0 120 54.5 196.5t141.5 76.5q63 0 98.5 -38.5t35.5 -108.5zM176 661q0 -91 70 -91q51 0 86 59t35 145q0 92 -69 92q-51 0 -86.5 -60t-35.5 -145z" />
    <glyph glyph-name="four.superior" unicode="&#x2074;" horiz-adv-x="371" 
d="M408 601h-59l-16 -86h-67l16 86h-205l8 49l266 271h54l-45 -263h58zM165 658h127l30 163z" />
    <glyph glyph-name="five.superior" unicode="&#x2075;" horiz-adv-x="357" 
d="M402 657q0 -61 -46.5 -104t-114.5 -43q-67 0 -107.5 34t-40.5 91h64q0 -30 24 -48t62 -18q37 0 62.5 23.5t25.5 58.5q0 32 -19.5 50.5t-54.5 18.5q-59 0 -91 -44l-52 18l79 227h230l-10 -61h-182l-37 -106q36 25 82 25q57 0 91.5 -33.5t34.5 -88.5z" />
    <glyph glyph-name="six.superior" unicode="&#x2076;" horiz-adv-x="373" 
d="M414 663q0 -65 -51.5 -109.5t-125.5 -44.5q-63 0 -103 34t-40 87q0 69 80 146l149 145h83l-153 -149q21 7 36 7q53 0 89 -33t36 -83zM343 659q0 29 -21 47.5t-55 18.5q-44 0 -73 -26t-29 -65q0 -30 21 -48t57 -18q43 0 71.5 26t28.5 65z" />
    <glyph glyph-name="seven.superior" unicode="&#x2077;" horiz-adv-x="311" 
d="M409 880l-226 -365h-75l219 345h-212l12 61h290z" />
    <glyph glyph-name="eight.superior" unicode="&#x2078;" horiz-adv-x="387" 
d="M417 641q0 -57 -50 -94t-126 -37q-64 0 -103.5 29t-39.5 75q0 39 28 69t71 42q-22 10 -36.5 32t-14.5 46q0 53 45 88.5t114 35.5q57 0 92.5 -29.5t35.5 -72.5q0 -33 -22 -60t-56 -39q27 -9 44.5 -32t17.5 -53zM215 804q0 -22 17.5 -36.5t45.5 -14.5q38 0 61.5 19t23.5 49
q0 22 -17.5 36t-45.5 14q-36 0 -60.5 -18.5t-24.5 -48.5zM168 622q0 -26 21.5 -41.5t58.5 -15.5q44 0 71.5 21t27.5 53q0 26 -21 42t-57 16q-44 0 -72.5 -21t-28.5 -54z" />
    <glyph glyph-name="nine.superior" unicode="&#x2079;" horiz-adv-x="373" 
d="M120 773q0 65 51 109.5t125 44.5q63 0 103 -33.5t40 -86.5q0 -68 -80 -147l-149 -145h-82l152 150q-17 -7 -36 -7q-52 0 -88 32.5t-36 82.5zM190 778q0 -29 21.5 -47.5t55.5 -18.5q43 0 72.5 26t29.5 65q0 29 -21.5 47t-56.5 18q-43 0 -72 -25.5t-29 -64.5z" />
    <glyph glyph-name="zero.inferior" unicode="&#x2080;" horiz-adv-x="384" 
d="M310 62q0 -120 -54.5 -195.5t-141.5 -75.5q-64 0 -99 38t-35 107q0 120 54.5 196.5t141.5 76.5q63 0 98.5 -38.5t35.5 -108.5zM49 -57q0 -91 70 -91q51 0 86 59t35 145q0 92 -69 92q-51 0 -86.5 -60t-35.5 -145z" />
    <glyph glyph-name="one.inferior" unicode="&#x2081;" horiz-adv-x="224" 
d="M79 -203h-67l61 347h-82l10 59h150z" />
    <glyph glyph-name="two.inferior" unicode="&#x2082;" horiz-adv-x="340" 
d="M241 -142l-11 -61h-280l7 39l158 129q90 76 90 125q0 26 -18 42t-46 16q-35 0 -58.5 -18.5t-28.5 -52.5h-66q11 61 52 96.5t107 35.5q56 0 92 -30.5t36 -76.5q0 -45 -26.5 -81.5t-85.5 -85.5l-89 -77h167z" />
    <glyph glyph-name="three.inferior" unicode="&#x2083;" horiz-adv-x="375" 
d="M278 -81q0 -56 -43.5 -91.5t-113.5 -35.5q-66 0 -107.5 34.5t-41.5 88.5h63q0 -30 24.5 -49t63.5 -19q38 0 61 19t23 50q0 29 -23.5 45t-61.5 16h-44l10 56h41q39 0 65 20t26 51q0 23 -16.5 36t-44.5 13q-31 0 -53.5 -17t-29.5 -46h-65q10 54 53 86.5t101 32.5
q56 0 91 -27t35 -72q0 -69 -82 -104q69 -25 69 -87z" />
    <glyph glyph-name="four.inferior" unicode="&#x2084;" horiz-adv-x="370" 
d="M281 -117h-59l-16 -86h-67l16 86h-205l8 49l266 271h54l-45 -263h58zM38 -60h127l30 163z" />
    <glyph glyph-name="five.inferior" unicode="&#x2085;" horiz-adv-x="357" 
d="M276 -61q0 -61 -47 -104t-114 -43q-68 0 -108.5 34t-40.5 91h65q0 -30 24 -48t62 -18q37 0 62 23.5t25 58.5q0 32 -19.5 50.5t-54.5 18.5q-57 0 -91 -44l-51 18l78 227h231l-10 -61h-182l-37 -106q35 25 82 25q56 0 91 -33.5t35 -88.5z" />
    <glyph glyph-name="six.inferior" unicode="&#x2086;" horiz-adv-x="373" 
d="M287 -55q0 -65 -51.5 -109.5t-125.5 -44.5q-63 0 -103 34t-40 87q0 69 80 146l149 145h83l-153 -149q21 7 36 7q53 0 89 -33t36 -83zM216 -59q0 29 -21 47.5t-55 18.5q-44 0 -73 -26t-29 -65q0 -30 21 -48t57 -18q43 0 71.5 26t28.5 65z" />
    <glyph glyph-name="seven.inferior" unicode="&#x2087;" horiz-adv-x="311" 
d="M282 162l-226 -365h-75l219 345h-212l12 61h290z" />
    <glyph glyph-name="eight.inferior" unicode="&#x2088;" horiz-adv-x="387" 
d="M290 -77q0 -57 -50 -94t-125 -37q-64 0 -104 29t-40 75q0 39 28 69t71 42q-21 10 -35.5 32t-14.5 46q0 53 44.5 88.5t113.5 35.5q58 0 93 -29.5t35 -72.5q0 -34 -21.5 -60.5t-55.5 -38.5q27 -9 44 -32t17 -53zM89 86q0 -23 17.5 -37t45.5 -14q37 0 61 19t24 49
q0 22 -18 36t-46 14q-36 0 -60 -18.5t-24 -48.5zM41 -96q0 -26 22 -41.5t58 -15.5q44 0 72 21t28 53q0 26 -21.5 42t-57.5 16q-44 0 -72.5 -21t-28.5 -54z" />
    <glyph glyph-name="nine.inferior" unicode="&#x2089;" horiz-adv-x="373" 
d="M-7 55q0 65 51 109.5t125 44.5q63 0 103 -33.5t40 -86.5q0 -68 -80 -147l-149 -145h-82l152 150q-17 -7 -36 -7q-52 0 -88 32.5t-36 82.5zM63 60q0 -29 21.5 -47.5t55.5 -18.5q43 0 72.5 26t29.5 65q0 29 -21.5 47t-56.5 18q-43 0 -72 -25.5t-29 -64.5z" />
    <glyph glyph-name="Euro" unicode="&#x20ac;" horiz-adv-x="572" 
d="M513 114l-16 -94q-60 -30 -132 -30q-110 0 -174.5 68.5t-66.5 188.5h-101l10 62h94q3 37 14 76h-94l10 62h102q34 107 120.5 173t198.5 66q80 0 131 -29l-17 -93q-47 32 -119 32q-74 0 -130 -38t-81 -111h213l-10 -62h-225q-11 -36 -15 -76h227l-11 -62h-218
q1 -85 44 -126t119 -41q73 0 127 34z" />
    <glyph glyph-name="indianrupee" unicode="&#x20b9;" horiz-adv-x="586" 
d="M576 434h-87q-17 -63 -67 -108t-118 -60l128 -266h-107l-117 256h-158l13 73h154q65 0 112 28t57 77h-305l12 65h304q-1 50 -35.5 77.5t-95.5 27.5h-154l12 72h495l-12 -66h-173q58 -32 61 -111h93z" />
    <glyph glyph-name="turkishlira" unicode="&#x20ba;" horiz-adv-x="569" 
d="M456 285h92q-28 -131 -129.5 -211.5t-236.5 -80.5q-56 0 -85 9l51 290l-122 -30l11 66l123 31l13 75l-123 -30l11 66l124 30l31 176h97l-26 -151l223 56l-11 -66l-224 -56l-14 -76l225 55l-11 -66l-225 -55l-42 -239q92 4 160.5 61t87.5 146z" />
    <glyph glyph-name="ruble" unicode="&#x20bd;" horiz-adv-x="583" 
d="M502 132h-276l-23 -132h-98l23 132h-126l11 66h126l14 78h-126l12 66h126l59 334h163q95 0 149.5 -45.5t54.5 -124.5q0 -104 -75 -167t-201 -63h-63l-14 -78h275zM370 604h-60l-47 -262h60q79 0 124.5 42.5t45.5 115.5q0 51 -32.5 77.5t-90.5 26.5z" />
    <glyph glyph-name="trademark" unicode="&#x2122;" horiz-adv-x="819" 
d="M212 366h-68l51 289h-112l11 63h292l-11 -63h-113zM530 366l-59 273l-48 -273h-64l62 352h95l56 -267l149 267h100l-62 -352h-64l48 270l-153 -270h-60z" />
    <glyph glyph-name="estimated" unicode="&#x212e;" horiz-adv-x="841" 
d="M730 136h43q-111 -146 -322 -146q-177 0 -292 106t-115 262q0 145 115.5 256.5t279.5 111.5q168 0 276.5 -106t118.5 -273h-619q-21 0 -21 -22v-169q0 -58 79 -98.5t178 -40.5q96 0 168.5 31t110.5 88zM193 569v-175q0 -22 22 -22h448q20 0 20 22v169q0 53 -74.5 95
t-169.5 42q-94 0 -170 -40.5t-76 -90.5z" />
    <glyph glyph-name="partialdiff" unicode="&#x2202;" horiz-adv-x="571" 
d="M28 209q0 133 85 226t203 93q38 0 65 -17l-121 207h109l109 -195q65 -117 65 -207q0 -137 -86 -231.5t-211 -94.5q-96 0 -157 61t-61 158zM132 216q0 -64 33.5 -101.5t89.5 -37.5q77 0 131 65t54 158q0 64 -34 102t-90 38q-76 0 -130 -65.5t-54 -158.5z" />
    <glyph glyph-name="increment" unicode="&#x2206;" horiz-adv-x="674" 
d="M609 0h-638l392 718h111zM402 608l-278 -522h369z" />
    <glyph glyph-name="product" unicode="&#x220f;" horiz-adv-x="713" 
d="M98 -193h-101l161 911h557l-161 -911h-101l145 822h-354z" />
    <glyph glyph-name="summation" unicode="&#x2211;" horiz-adv-x="600" 
d="M482 -193h-526l14 78l338 393l-192 361l14 79h503l-16 -89h-383l192 -360l-321 -373h392z" />
    <glyph glyph-name="minus" unicode="&#x2212;" 
d="M575 295h-479l15 85h479z" />
    <glyph glyph-name="divisionslash" unicode="&#x2215;" 
d="M171 0h-92l437 676h91z" />
    <glyph glyph-name="bulletoperator" unicode="&#x2219;" 
d="M419 357q0 -38 -25.5 -65t-62.5 -27q-29 0 -46 17t-17 44q0 38 26 65t62 27q29 0 46 -17t17 -44z" />
    <glyph glyph-name="radical" unicode="&#x221a;" horiz-adv-x="863" 
d="M928 718l-483 -911h-112l-76 424h-172l15 89h242l64 -396l415 794h107z" />
    <glyph glyph-name="infinity" unicode="&#x221e;" horiz-adv-x="1033" 
d="M1005 323q0 -139 -80.5 -236t-198.5 -97q-153 0 -217 196q-125 -196 -277 -196q-91 0 -147.5 60t-56.5 157q0 139 82.5 236t200.5 97q151 0 213 -195q123 195 275 195q92 0 149 -60t57 -157zM131 217q0 -64 31.5 -102t84.5 -38q55 0 108 44.5t116 143.5
q-32 102 -68.5 145t-91.5 43q-73 0 -126.5 -70t-53.5 -166zM562 265q30 -101 66.5 -144.5t92.5 -43.5q73 0 126.5 70.5t53.5 166.5q0 64 -31 101.5t-85 37.5q-56 0 -108 -43.5t-115 -144.5z" />
    <glyph glyph-name="integral" unicode="&#x222b;" horiz-adv-x="485" 
d="M344 560l-105 -593q-30 -170 -197 -170q-39 0 -65 10l15 92q23 -10 54 -10q80 0 96 84l103 588q29 165 191 165q38 0 70 -13l-12 -78q-20 12 -52 12q-38 0 -64.5 -22t-33.5 -65z" />
    <glyph glyph-name="approxequal" unicode="&#x2248;" 
d="M484 359q-47 0 -121 46t-108 46q-30 0 -46.5 -21t-21.5 -70h-84q6 81 47.5 129.5t105.5 48.5q39 0 81.5 -23t80.5 -46t68 -23q59 0 68 92h84q-6 -81 -47.5 -130t-106.5 -49zM450 148q-47 0 -121 46t-108 46q-30 0 -46.5 -21t-21.5 -70h-84q6 81 47.5 129.5t106.5 48.5
q39 0 81 -23t80 -46t68 -23t46.5 21t21.5 70h84q-6 -80 -47.5 -129t-106.5 -49z" />
    <glyph glyph-name="notequal" unicode="&#x2260;" 
d="M207 189h-130l15 85h162l82 128h-221l15 85h254l123 189h94l-122 -189h129l-15 -85h-162l-83 -128h223l-15 -85h-255l-122 -189h-94z" />
    <glyph glyph-name="lessequal" unicode="&#x2264;" 
d="M121 436l516 214l-16 -91l-409 -167l350 -166l-15 -81l-439 213zM522 1h-478l15 85h479z" />
    <glyph glyph-name="greaterequal" unicode="&#x2265;" 
d="M585 359l-515 -214l16 91l408 167l-349 166l14 81l440 -213zM522 1h-477l15 85h477z" />
    <glyph glyph-name="lozenge" unicode="&#x25ca;" horiz-adv-x="685" 
d="M318 -193h-111l-88 456l248 455h111l86 -455zM217 261l60 -344l190 348l-61 343z" />
    <glyph glyph-name="ITF" unicode="&#xf8ff;" horiz-adv-x="1819" 
d="M162 0v700h216v-700h-216zM423 496v204h216v-204h-216zM683 0v700h217v-700h-217zM944 496v204h216v-204h-216zM1204 0v700h217v-700h-217zM1465 496v204h216v-204h-216zM1465 247v205h216v-205h-216z" />
    <glyph glyph-name="Q.ss02" horiz-adv-x="778" 
d="M274 -160l26 149q-112 17 -181 101.5t-69 207.5q0 184 118.5 309.5t292.5 125.5q131 0 216 -87.5t85 -223.5q0 -173 -106 -296.5t-266 -138.5l-26 -147h-90zM436 243l-28 -159q106 18 175 112t69 224q0 98 -55.5 158t-146.5 60q-124 0 -207.5 -97.5t-83.5 -241.5
q0 -84 43 -142t115 -73l28 159h91z" />
    <glyph glyph-name="zero.case" horiz-adv-x="635" 
d="M398 727q98 0 153 -64.5t55 -183.5q0 -210 -95.5 -350t-240.5 -140q-98 0 -153 64t-55 182q0 211 95.5 351.5t240.5 140.5zM384 639q-92 0 -157 -115.5t-65 -278.5q0 -81 32.5 -124.5t89.5 -43.5q92 0 157 115t65 278q0 81 -32.5 125t-89.5 44z" />
    <glyph glyph-name="one.case" horiz-adv-x="345" 
d="M210 0h-98l111 633h-138l15 85h237z" />
    <glyph glyph-name="two.case" horiz-adv-x="551" 
d="M471 89l-15 -89h-448l10 57l263 244q86 79 121 130t35 103q0 47 -30.5 76.5t-80.5 29.5q-60 0 -99.5 -36.5t-51.5 -101.5h-96q19 105 88 165.5t170 60.5q92 0 148.5 -50t56.5 -132q0 -67 -42.5 -130.5t-146.5 -158.5l-174 -168h292z" />
    <glyph glyph-name="three.case" horiz-adv-x="594" 
d="M271 -9q-107 0 -171 56.5t-64 153.5h96q0 -60 39.5 -94.5t103.5 -34.5q65 0 104 38t39 103q0 53 -36.5 84.5t-97.5 31.5h-74l14 79h67q66 0 110 38.5t44 96.5q0 48 -30.5 76t-77.5 28q-56 0 -93 -32.5t-46 -91.5h-96q17 96 80 150t163 54q89 0 147 -47.5t58 -122.5
q0 -64 -37 -112t-106 -72q55 -18 85.5 -58.5t30.5 -98.5q0 -100 -70.5 -162.5t-181.5 -62.5z" />
    <glyph glyph-name="four.case" horiz-adv-x="602" 
d="M547 161h-98l-29 -161h-96l29 161h-345l12 70l448 488h78l-82 -474h97zM140 245h228l55 316z" />
    <glyph glyph-name="five.case" horiz-adv-x="581" 
d="M265 -9q-105 0 -168.5 58.5t-64.5 153.5h97q1 -56 40 -89.5t101 -33.5q70 0 114 45t44 117q0 59 -37 95t-97 36q-86 0 -148 -81l-74 25l133 401h371l-15 -89h-301l-72 -218q65 47 138 47q90 0 149.5 -57t59.5 -145q0 -118 -75.5 -191.5t-194.5 -73.5z" />
    <glyph glyph-name="six.case" horiz-adv-x="605" 
d="M259 -9q-98 0 -159 56.5t-61 146.5q0 66 30 127t98 133l250 264h124l-259 -271q34 17 75 17q89 0 143.5 -53t54.5 -140q0 -117 -86 -198.5t-210 -81.5zM272 79q72 0 124 54t52 130q0 54 -34 87t-90 33q-74 0 -126.5 -54t-52.5 -130q0 -55 34 -87.5t93 -32.5z" />
    <glyph glyph-name="seven.case" horiz-adv-x="508" 
d="M562 660l-390 -660h-108l378 629h-362l15 89h476z" />
    <glyph glyph-name="eight.case" horiz-adv-x="629" 
d="M560 229q0 -102 -79.5 -170t-199.5 -68q-104 0 -170 50t-66 130q0 69 43.5 122.5t121.5 81.5q-35 16 -57.5 52t-22.5 77q0 95 73 159.5t182 64.5q91 0 149.5 -48t58.5 -122q0 -61 -36 -110.5t-99 -76.5q49 -19 75.5 -56.5t26.5 -85.5zM237 510q0 -44 28.5 -71t75.5 -27
q64 0 105 38t41 97q0 44 -31 71t-80 27q-60 0 -99.5 -38.5t-39.5 -96.5zM153 182q0 -49 37.5 -78.5t98.5 -29.5q72 0 118.5 42.5t46.5 107.5q0 47 -35 76t-92 29q-76 0 -125 -41.5t-49 -105.5z" />
    <glyph glyph-name="nine.case" horiz-adv-x="604" 
d="M379 727q97 0 158.5 -57t61.5 -146q0 -67 -30 -128t-98 -132l-251 -264h-123l259 271q-36 -18 -76 -18q-88 0 -142.5 53.5t-54.5 140.5q0 116 86 198t210 82zM366 639q-72 0 -124.5 -54t-52.5 -130q0 -55 34.5 -88t90.5 -33q74 0 126 54t52 130q0 56 -33.5 88.5
t-92.5 32.5z" />
    <glyph glyph-name="zero.dnom" horiz-adv-x="389" 
d="M349 265q0 -120 -55 -195.5t-142 -75.5q-63 0 -98.5 38t-35.5 107q0 120 55 196.5t142 76.5q63 0 98.5 -38.5t35.5 -108.5zM87 146q0 -91 71 -91q50 0 85.5 59t35.5 145q0 92 -70 92q-51 0 -86.5 -60t-35.5 -145z" />
    <glyph glyph-name="one.dnom" horiz-adv-x="225" 
d="M115 0h-67l61 347h-82l10 59h150z" />
    <glyph glyph-name="two.dnom" horiz-adv-x="340" 
d="M277 61l-11 -61h-280l7 39l158 129q90 76 90 125q0 26 -18 42t-46 16q-35 0 -58.5 -18.5t-28.5 -52.5h-66q11 61 52 96.5t107 35.5q56 0 92 -30.5t36 -76.5q0 -45 -26.5 -81.5t-85.5 -85.5l-89 -77h167z" />
    <glyph glyph-name="three.dnom" horiz-adv-x="375" 
d="M314 122q0 -56 -43.5 -91.5t-113.5 -35.5q-66 0 -107.5 34.5t-41.5 88.5h63q0 -30 24.5 -49t63.5 -19q38 0 61 19t23 50q0 29 -23.5 45t-61.5 16h-44l10 56h41q39 0 65 20t26 51q0 23 -16.5 36t-44.5 13q-31 0 -53.5 -17t-29.5 -46h-65q10 54 53 86.5t101 32.5
q56 0 91 -27t35 -72q0 -69 -82 -104q69 -25 69 -87z" />
    <glyph glyph-name="four.dnom" horiz-adv-x="371" 
d="M317 86h-59l-16 -86h-67l16 86h-205l8 49l266 271h54l-45 -263h58zM74 143h127l30 163z" />
    <glyph glyph-name="five.dnom" horiz-adv-x="357" 
d="M311 142q0 -61 -46.5 -104t-114.5 -43q-67 0 -107.5 34t-40.5 91h64q0 -30 24 -48t62 -18q37 0 62.5 23.5t25.5 58.5q0 32 -19.5 50.5t-54.5 18.5q-59 0 -91 -44l-52 18l79 227h230l-10 -61h-182l-37 -106q36 25 82 25q57 0 91.5 -33.5t34.5 -88.5z" />
    <glyph glyph-name="six.dnom" horiz-adv-x="373" 
d="M323 148q0 -65 -51.5 -109.5t-125.5 -44.5q-63 0 -103 34t-40 87q0 69 80 146l149 145h83l-153 -149q21 7 36 7q53 0 89 -33t36 -83zM252 144q0 29 -21 47.5t-55 18.5q-44 0 -73 -26t-29 -65q0 -30 21 -48t57 -18q43 0 71.5 26t28.5 65z" />
    <glyph glyph-name="seven.dnom" horiz-adv-x="311" 
d="M318 365l-226 -365h-75l219 345h-212l12 61h290z" />
    <glyph glyph-name="eight.dnom" horiz-adv-x="386" 
d="M326 126q0 -57 -50 -94t-126 -37q-64 0 -103.5 29t-39.5 75q0 39 28 69t71 42q-22 10 -36.5 32t-14.5 46q0 53 45 88.5t114 35.5q57 0 92.5 -29.5t35.5 -72.5q0 -33 -22 -60t-56 -39q27 -9 44.5 -32t17.5 -53zM124 289q0 -22 17.5 -36.5t45.5 -14.5q38 0 61.5 19t23.5 49
q0 22 -17.5 36t-45.5 14q-36 0 -60.5 -18.5t-24.5 -48.5zM77 107q0 -26 21.5 -41.5t58.5 -15.5q44 0 71.5 21t27.5 53q0 26 -21 42t-57 16q-44 0 -72.5 -21t-28.5 -54z" />
    <glyph glyph-name="nine.dnom" horiz-adv-x="373" 
d="M29 258q0 65 51 109.5t125 44.5q63 0 103 -33.5t40 -86.5q0 -68 -80 -147l-149 -145h-82l152 150q-17 -7 -36 -7q-52 0 -88 32.5t-36 82.5zM99 263q0 -29 21.5 -47.5t55.5 -18.5q43 0 72.5 26t29.5 65q0 29 -21.5 47t-56.5 18q-43 0 -72 -25.5t-29 -64.5z" />
    <glyph glyph-name="zero.numr_alt" horiz-adv-x="461" 
d="M237 262q-78 0 -126.5 48.5t-48.5 127.5q0 101 68.5 172.5t166.5 71.5q78 0 126.5 -48.5t48.5 -126.5q0 -102 -68.5 -173.5t-166.5 -71.5zM243 333q60 0 103.5 51t43.5 122q0 48 -27 76.5t-71 28.5q-61 0 -104.5 -50.5t-43.5 -121.5q0 -48 27 -77t72 -29z" />
    <glyph glyph-name="zero.numr" horiz-adv-x="385" 
d="M394 535q0 -120 -54.5 -195.5t-141.5 -75.5q-64 0 -99 38t-35 107q0 120 54.5 196.5t141.5 76.5q63 0 98.5 -38.5t35.5 -108.5zM133 416q0 -91 70 -91q51 0 86 59t35 145q0 92 -69 92q-51 0 -86.5 -60t-35.5 -145z" />
    <glyph glyph-name="one.numr" horiz-adv-x="225" 
d="M163 270h-67l61 347h-82l10 59h150z" />
    <glyph glyph-name="two.numr" horiz-adv-x="341" 
d="M325 331l-11 -61h-280l7 39l158 129q90 76 90 125q0 26 -18 42t-46 16q-35 0 -58.5 -18.5t-28.5 -52.5h-66q11 61 52 96.5t107 35.5q56 0 92 -30.5t36 -76.5q0 -45 -26.5 -81.5t-85.5 -85.5l-89 -77h167z" />
    <glyph glyph-name="three.numr" horiz-adv-x="375" 
d="M362 393q0 -56 -43.5 -91.5t-113.5 -35.5q-66 0 -107.5 34.5t-41.5 88.5h63q0 -30 24.5 -49t63.5 -19q38 0 61 19t23 50q0 29 -23.5 45t-61.5 16h-44l10 56h41q39 0 65 20t26 51q0 23 -16.5 36t-44.5 13q-31 0 -53.5 -17t-29.5 -46h-65q10 54 53 86.5t101 32.5
q56 0 91 -27t35 -72q0 -69 -82 -104q69 -25 69 -87z" />
    <glyph glyph-name="four.numr" horiz-adv-x="371" 
d="M365 356h-59l-16 -86h-67l16 86h-205l8 49l266 271h54l-45 -263h58zM122 413h127l30 163z" />
    <glyph glyph-name="five.numr" horiz-adv-x="357" 
d="M359 412q0 -61 -46.5 -104t-114.5 -43q-67 0 -107.5 34t-40.5 91h64q0 -30 24 -48t62 -18q37 0 62.5 23.5t25.5 58.5q0 32 -19.5 50.5t-54.5 18.5q-59 0 -91 -44l-52 18l79 227h230l-10 -61h-182l-37 -106q36 25 82 25q57 0 91.5 -33.5t34.5 -88.5z" />
    <glyph glyph-name="six.numr" horiz-adv-x="373" 
d="M371 418q0 -65 -51.5 -109.5t-125.5 -44.5q-63 0 -103 34t-40 87q0 69 80 146l149 145h83l-153 -149q21 7 36 7q53 0 89 -33t36 -83zM300 414q0 29 -21 47.5t-55 18.5q-44 0 -73 -26t-29 -65q0 -30 21 -48t57 -18q43 0 71.5 26t28.5 65z" />
    <glyph glyph-name="seven.numr" horiz-adv-x="312" 
d="M366 635l-226 -365h-75l219 345h-212l12 61h290z" />
    <glyph glyph-name="eight.numr" horiz-adv-x="387" 
d="M374 396q0 -57 -50 -94t-126 -37q-64 0 -103.5 29t-39.5 75q0 39 28 69t71 42q-22 10 -36.5 32t-14.5 46q0 53 45 88.5t114 35.5q57 0 92.5 -29.5t35.5 -72.5q0 -33 -22 -60t-56 -39q27 -9 44.5 -32t17.5 -53zM172 559q0 -22 17.5 -36.5t45.5 -14.5q37 0 61 19t24 49
q0 22 -17.5 36t-45.5 14q-36 0 -60.5 -18.5t-24.5 -48.5zM125 377q0 -26 21.5 -41.5t58.5 -15.5q44 0 71.5 21t27.5 53q0 26 -21 42t-57 16q-44 0 -72.5 -21t-28.5 -54z" />
    <glyph glyph-name="nine.numr" horiz-adv-x="374" 
d="M77 528q0 65 51 109.5t125 44.5q63 0 103 -33.5t40 -86.5q0 -68 -80 -147l-149 -145h-82l152 150q-17 -7 -36 -7q-52 0 -88 32.5t-36 82.5zM147 533q0 -29 21.5 -47.5t55.5 -18.5q43 0 72.5 26t29.5 65q0 29 -21.5 47t-56.5 18q-43 0 -72 -25.5t-29 -64.5z" />
    <glyph glyph-name="caroncomb.alt" horiz-adv-x="503" 
d="M324 568h-66l27 150h84z" />
    <glyph glyph-name="caroncomb.alt2" horiz-adv-x="503" 
d="M346 529h-65l33 189h84z" />
    <glyph glyph-name="strokeshortcomb.case" horiz-adv-x="505" 
d="M440 326h-353l15 88h353z" />
    <glyph glyph-name="slashshortcomb.case" horiz-adv-x="506" 
d="M471 377l-415 -104l15 90l416 103z" />
    <glyph glyph-name="slashlongcomb.case" horiz-adv-x="507" 
d="M-19 0h-103l680 718h103z" />
    <glyph glyph-name="dieresiscomb.narrow" horiz-adv-x="506" 
d="M475 659q0 -32 -22.5 -55.5t-53.5 -23.5q-25 0 -40 15t-15 38q0 32 23 55.5t55 23.5q24 0 38.5 -15t14.5 -38zM298 659q0 -32 -23 -55.5t-56 -23.5q-24 0 -38.5 15t-14.5 38q0 32 23 55.5t54 23.5q24 0 39.5 -14.5t15.5 -38.5z" />
    <glyph glyph-name="gravecomb.narrow" horiz-adv-x="504" 
d="M396 576h-91l-71 142h101z" />
    <glyph glyph-name="acutecomb.narrow" horiz-adv-x="505" 
d="M315 576h-108l112 142h117z" />
    <glyph glyph-name="circumflexcomb.narrow" horiz-adv-x="507" 
d="M247 576h-111l142 142h111l91 -142h-98l-53 86z" />
    <glyph glyph-name="a.ss01" horiz-adv-x="583" 
d="M28 202q0 143 78 240.5t192 97.5q116 0 160 -107l17 97h90l-94 -530h-90l18 101q-32 -52 -80.5 -81.5t-104.5 -29.5q-83 0 -134.5 58.5t-51.5 153.5zM129 212q0 -62 31.5 -98t85.5 -36q78 0 129.5 72.5t51.5 169.5q0 61 -32 97.5t-87 36.5q-77 0 -128 -69.5t-51 -172.5z
" />
    <glyph glyph-name="aacute.ss01" horiz-adv-x="583" 
d="M383 583h-107l121 142h118zM28 202q0 143 78 240.5t192 97.5q116 0 160 -107l17 97h90l-94 -530h-90l18 101q-32 -52 -80.5 -81.5t-104.5 -29.5q-83 0 -134.5 58.5t-51.5 153.5zM129 212q0 -62 31.5 -98t85.5 -36q78 0 129.5 72.5t51.5 169.5q0 61 -32 97.5t-87 36.5
q-77 0 -128 -69.5t-51 -172.5z" />
    <glyph glyph-name="abreve.ss01" horiz-adv-x="583" 
d="M427 726h72q-13 -70 -56 -108.5t-109 -38.5q-61 0 -100 40t-39 107h72q0 -40 18.5 -61t52.5 -21t58 22t31 60zM28 202q0 143 78 240.5t192 97.5q116 0 160 -107l17 97h90l-94 -530h-90l18 101q-32 -52 -80.5 -81.5t-104.5 -29.5q-83 0 -134.5 58.5t-51.5 153.5zM129 212
q0 -62 31.5 -98t85.5 -36q78 0 129.5 72.5t51.5 169.5q0 61 -32 97.5t-87 36.5q-77 0 -128 -69.5t-51 -172.5z" />
    <glyph glyph-name="acircumflex.ss01" horiz-adv-x="583" 
d="M254 582h-116l154 144h115l105 -144h-102l-64 87zM28 202q0 143 78 240.5t192 97.5q116 0 160 -107l17 97h90l-94 -530h-90l18 101q-32 -52 -80.5 -81.5t-104.5 -29.5q-83 0 -134.5 58.5t-51.5 153.5zM129 212q0 -62 31.5 -98t85.5 -36q78 0 129.5 72.5t51.5 169.5
q0 61 -32 97.5t-87 36.5q-77 0 -128 -69.5t-51 -172.5z" />
    <glyph glyph-name="adieresis.ss01" horiz-adv-x="583" 
d="M506 666q0 -32 -24 -55.5t-56 -23.5q-25 0 -41 15t-16 38q0 32 24.5 55.5t56.5 23.5q25 0 40.5 -14.5t15.5 -38.5zM315 666q0 -32 -23.5 -55.5t-56.5 -23.5q-25 0 -40.5 15t-15.5 38q0 32 24 55.5t56 23.5q25 0 40.5 -14.5t15.5 -38.5zM28 202q0 143 78 240.5t192 97.5
q116 0 160 -107l17 97h90l-94 -530h-90l18 101q-32 -52 -80.5 -81.5t-104.5 -29.5q-83 0 -134.5 58.5t-51.5 153.5zM129 212q0 -62 31.5 -98t85.5 -36q78 0 129.5 72.5t51.5 169.5q0 61 -32 97.5t-87 36.5q-77 0 -128 -69.5t-51 -172.5z" />
    <glyph glyph-name="agrave.ss01" horiz-adv-x="583" 
d="M371 583h-92l-82 142h102zM28 202q0 143 78 240.5t192 97.5q116 0 160 -107l17 97h90l-94 -530h-90l18 101q-32 -52 -80.5 -81.5t-104.5 -29.5q-83 0 -134.5 58.5t-51.5 153.5zM129 212q0 -62 31.5 -98t85.5 -36q78 0 129.5 72.5t51.5 169.5q0 61 -32 97.5t-87 36.5
q-77 0 -128 -69.5t-51 -172.5z" />
    <glyph glyph-name="amacron.ss01" horiz-adv-x="583" 
d="M477 597h-292l12 67h291zM28 202q0 143 78 240.5t192 97.5q116 0 160 -107l17 97h90l-94 -530h-90l18 101q-32 -52 -80.5 -81.5t-104.5 -29.5q-83 0 -134.5 58.5t-51.5 153.5zM129 212q0 -62 31.5 -98t85.5 -36q78 0 129.5 72.5t51.5 169.5q0 61 -32 97.5t-87 36.5
q-77 0 -128 -69.5t-51 -172.5z" />
    <glyph glyph-name="aogonek.ss01" horiz-adv-x="583" 
d="M28 202q0 143 78 240.5t192 97.5q116 0 160 -107l17 97h90l-94 -530h-49q-57 -44 -57 -91q0 -37 41 -37q19 0 38 8l-12 -68q-29 -10 -62 -10q-40 0 -63 21t-23 58q0 75 100 137l15 83q-32 -52 -80.5 -81.5t-104.5 -29.5q-83 0 -134.5 58.5t-51.5 153.5zM129 212
q0 -62 31.5 -98t85.5 -36q78 0 129.5 72.5t51.5 169.5q0 61 -32 97.5t-87 36.5q-77 0 -128 -69.5t-51 -172.5z" />
    <glyph glyph-name="aring.ss01" horiz-adv-x="583" 
d="M332 579q-45 0 -74.5 26.5t-29.5 68.5q0 55 40 93.5t96 38.5q46 0 75.5 -27t29.5 -69q0 -54 -40 -92.5t-97 -38.5zM338 632q28 0 49 21.5t21 50.5q0 22 -14 35.5t-36 13.5q-29 0 -49 -21.5t-20 -52.5q0 -21 13.5 -34t35.5 -13zM28 202q0 143 78 240.5t192 97.5
q116 0 160 -107l17 97h90l-94 -530h-90l18 101q-32 -52 -80.5 -81.5t-104.5 -29.5q-83 0 -134.5 58.5t-51.5 153.5zM129 212q0 -62 31.5 -98t85.5 -36q78 0 129.5 72.5t51.5 169.5q0 61 -32 97.5t-87 36.5q-77 0 -128 -69.5t-51 -172.5z" />
    <glyph glyph-name="atilde.ss01" horiz-adv-x="583" 
d="M225 582h-63q4 64 34 103t76 39q33 0 73 -32.5t63 -32.5q41 0 47 71h63q-3 -64 -33.5 -103t-76.5 -39q-33 0 -73 32.5t-62 32.5q-42 0 -48 -71zM28 202q0 143 78 240.5t192 97.5q116 0 160 -107l17 97h90l-94 -530h-90l18 101q-32 -52 -80.5 -81.5t-104.5 -29.5
q-83 0 -134.5 58.5t-51.5 153.5zM129 212q0 -62 31.5 -98t85.5 -36q78 0 129.5 72.5t51.5 169.5q0 61 -32 97.5t-87 36.5q-77 0 -128 -69.5t-51 -172.5z" />
    </font>
</defs>
</svg>
